/* XPM */
static char *result[] = {
/* columns rows colors chars-per-pixel */
"64 64 133 2 ",
"   c #030202",
".  c #0A0505",
"X  c #0A0906",
"o  c #070608",
"O  c #0D0B0A",
"+  c #130707",
"@  c #130A06",
"#  c #1C0D07",
"$  c #130C0B",
"%  c #1B0B0A",
"&  c #14120D",
"*  c #1A140E",
"=  c #1C180F",
"-  c #0E0E10",
";  c #100F10",
":  c #141212",
">  c #1A1613",
",  c #1C1A13",
"<  c #181719",
"1  c #1C1A1A",
"2  c #240C0C",
"3  c #2C0F0F",
"4  c #21140E",
"5  c #2C180F",
"6  c #211715",
"7  c #2F1010",
"8  c #211D14",
"9  c #2C1C13",
"0  c #231D1C",
"q  c #2B1C1A",
"w  c #341111",
"e  c #3C1414",
"r  c #301C16",
"t  c #242116",
"y  c #292316",
"u  c #25221B",
"i  c #2A251C",
"p  c #2D291D",
"a  c #35221F",
"s  c #3A2018",
"d  c #332E1D",
"f  c #37311F",
"g  c #38311E",
"h  c #1E1E20",
"j  c #242122",
"k  c #2B2523",
"l  c #2F2924",
"z  c #2B2A2D",
"x  c #342523",
"c  c #3A2522",
"v  c #312B25",
"b  c #3D2B26",
"n  c #352D2A",
"m  c #382F2D",
"M  c #353224",
"N  c #3B3524",
"B  c #3A3827",
"V  c #3A312E",
"C  c #3E392A",
"Z  c #2D2D30",
"A  c #3D3330",
"S  c #431717",
"D  c #471818",
"F  c #4B1919",
"G  c #531C1C",
"H  c #5B1F1F",
"J  c #44271B",
"K  c #4D251A",
"L  c #442B1E",
"P  c #4F2D1F",
"I  c #512618",
"U  c #562C1C",
"Y  c #592E1C",
"T  c #5D321F",
"R  c #412B25",
"E  c #4B3021",
"W  c #433C26",
"Q  c #4C332D",
"!  c #423C2B",
"~  c #563222",
"^  c #5D3223",
"/  c #5E3927",
"(  c #53322B",
")  c #583228",
"_  c #583C2C",
"`  c #503531",
"'  c #683523",
"]  c #6E3F23",
"[  c #64362B",
"{  c #6E3628",
"}  c #66392F",
"|  c #743C23",
" . c #7A3D24",
".. c #763C2C",
"X. c #45412D",
"o. c #4C442C",
"O. c #51472B",
"+. c #54492D",
"@. c #4A4731",
"#. c #4C4932",
"$. c #534B32",
"%. c #5B5234",
"&. c #5F5539",
"*. c #69402D",
"=. c #7B4425",
"-. c #78452A",
";. c #6B4732",
":. c #7D4131",
">. c #625736",
",. c #635739",
"<. c #655A39",
"1. c #6C5F3C",
"2. c #7A523A",
"3. c #6E623F",
"4. c #3F3F42",
"5. c #414144",
"6. c #716542",
"7. c #766843",
"8. c #834526",
"9. c #864A29",
"0. c #8C4B2F",
"q. c #934F2F",
"w. c #8E512E",
"e. c #844C30",
"r. c #884831",
"t. c #8F5334",
"y. c #955432",
"u. c #9D5433",
"i. c #9E5934",
"p. c #A25C39",
"a. c #835B42",
"s. c #926549",
"d. c None",
/* pixels */
"d.d.d.d.d.d.d.d.d.d.d.d.d.d.d.d.d.d.d.d.d.d.d.d.d.d.d.d.d.d.d.d.d.d.d.d.  d.d.d.d.d.d.d.d.d.d.d.d.d.d.d.d.d.d.d.d.d.d.d.d.d.d.d.",
"d.d.d.d.d.d.d.d.d.d.d.d.d.d.d.d.d.d.d.d.  . % % .       d.d.d.d.    O , p &   d.d.d.d.d.d.d.d.d.d.d.d.d.d.d.d.d.d.d.d.d.d.d.d.d.",
"d.d.d.d.d.d.d.d.d.d.d.d.d.d.d.d.d.d.. . w G H H G D 2 .   d.d.  X $.M B %.+.O X X       d.d.d.d.d.d.d.d.d.d.d.d.d.d.d.d.d.d.d.d.",
"d.d.d.d.d.d.d.d.d.d.d.d.d.d.d.d.d.. w F H H H H H H G D 3 .     $ %.B B B v y f t X = @   d.d.d.d.d.d.d.d.d.d.d.d.d.d.d.d.d.d.d.",
"d.d.d.d.d.d.d.d.d.d.d.d.d.d.d.d.  % w D G H H H H H H G e 3 +     p i p u > & & X t O.W O   d.d.d.d.d.d.d.d.d.d.d.d.d.d.d.d.d.d.",
"d.d.d.d.d.d.d.d.d.d.d.d.d.d.d.  . e S e F G H H H H H F w 2 +     = ; X   o o   X o.%.N y X d.d.d.d.d.d.d.d.d.d.d.d.d.d.d.d.d.d.",
"d.d.d.d.d.d.d.d.d.d.d.d.d.d.d.  # D G e D F G H H H F w % .     o & 8 t t 8 = o , O.f , f 8   d.d.d.d.d.d.d.d.d.d.d.d.d.d.d.d.d.",
"d.d.d.d.d.d.d.d.d.d.d.d.d.d.    3 S e S e w S G G D 3 +       8 f W &.3.&.C t X & y t M f p   d.d.d.d.d.d.d.d.d.d.d.d.d.d.d.d.d.",
"d.d.d.d.d.d.d.d.d.d.d.d.d.d.  + e D S e + @ # 2 3 + .     . o o O f 3.3.&.M , X , M l C , , &   d.d.d.d.d.d.d.d.d.d.d.d.d.d.d.d.",
"d.d.d.d.d.d.d.d.d.d.d.d.d.d.  w D S F 3 J -.*.@       X : 1 1 < ; o O = & O & X y p , 8 t u f o d.d.d.d.d.d.d.d.d.d.d.d.d.d.d.d.",
"d.d.d.d.d.d.d.d.d.d.d.d.d.d.. D G G D 7 Y q.9.# 8   ; j x k k n l ,   , N f C t O p , t p l t O   d.d.d.d.d.d.d.d.d.d.d.d.d.d.d.",
"d.d.d.d.d.d.d.d.d.d.d.d.d.d.+ D G H H 7 U q.8.# & X j v n m n V n l & X B C @.X.t & , 8 , t p i     d.d.d.d.d.d.d.d.d.d.d.d.d.d.",
"d.d.d.d.d.d.d.d.d.d.d.d.d.  + D F G H e I r.=.#   ; k m m m m V V l 1   y $.<.%.X.X t p W +.M i O   d.d.d.d.d.d.d.d.d.d.d.d.d.d.",
"d.d.d.d.d.d.d.d.d.d.d.d.d.  % e D D F 7 K r.| %   > j v V m m V A l 0 o & o.<.%.#.p X X.%.O.p t , o d.d.d.d.d.d.d.d.d.d.d.d.d.d.",
"d.d.d.d.d.d.d.d.d.d.d.d.d.  % 3 w w w 2 U y. .% _ 0 x v V n x m V n j i 9 , ! C X.#.O f g t p p t &   d.d.d.d.d.d.d.d.d.d.d.d.d.",
"d.d.d.d.d.d.d.d.d.d.d.d.d.d.% 3 3 w w % Y u.| E s.j n m V V n A V V k Q 2.$ i M M C , O O , t , &     d.d.d.d.d.d.d.d.d.d.d.d.d.",
"d.d.d.d.d.d.d.d.d.d.d.d.d.d.. 3 e e e 2 U i.=.L a.k n m V A m A m m l b ;.o , p M p & = X o O       d.d.d.d.d.d.d.d.d.d.d.d.d.d.",
"d.d.d.d.d.d.d.d.d.d.d.d.d.d.. w D F G w T p.w.# R 0 n v V m A A m A v 0 =   > y , & X.N , X O & O   d.d.d.d.d.d.d.d.d.d.d.d.d.d.",
"d.d.d.d.d.d.d.d.d.d.d.d.d.d.  e G H H e T u.q.5 o j v 0 n A m n k m l $ $ 6 X t & #.#.B , O t i O   d.d.d.d.d.d.d.d.d.d.d.d.d.d.",
"d.d.d.d.d.d.d.d.d.d.d.d.d.d.  w G H H S ~ i.y.9   1 k 0 j j k 0 0 j u X 6 q   & $.6.B p . 8 d 8   d.d.d.d.d.d.d.d.d.d.d.d.d.d.d.",
"d.d.d.d.d.d.d.d.d.d.d.d.d.d.  % D H H D P y.t.4   $ 1 l m m m m n j >   O   & C X.O.W O 8 p M p   d.d.d.d.d.d.d.d.d.d.d.d.d.d.d.",
"d.d.d.d.d.d.d.d.d.d.d.d.d.d.d.. e D G D J t.e.* o o 1 n A A A A m k $     O , $.$.X.= = O.M B !   d.d.d.d.d.d.d.d.d.d.d.d.d.d.d.",
"d.d.d.d.d.d.d.d.d.d.d.d.d.d.d.  % S G D 9 *./ $ $ O : 1 l v v k 0 : O X W N & p W & O o.%.W C O d.d.d.d.d.d.d.d.d.d.d.d.d.d.d.d.",
"d.d.d.d.d.d.d.d.d.d.d.d.d.d.d.  . e G G $ & $ o 6 X 0 1 : < : > 1 0 : , 3.3.g         y %.,.8   d.d.d.d.d.d.d.d.d.d.d.d.d.d.d.d.",
"d.d.d.d.d.d.d.d.d.d.d.d.d.d.d.d.  7 G D + - O   0   0 j m m m m m u O i 6.d . . + +     & * d.d.d.d.d.d.d.d.d.d.d.d.d.d.d.d.d.d.",
"d.d.d.d.d.d.d.d.d.d.d.d.d.d.d.d.  + e w + < ;   $   > 0 l n m n k 0 o > $   @ 3 7 %   d.  d.d.d.d.d.d.d.d.d.d.d.d.d.d.d.d.d.d.d.",
"d.d.d.d.d.d.d.d.d.d.d.d.d.d.d.d.d.. 7 D ; 1 ; o   o o 0 k n n l j ;     . 2 S F D %   d.d.d.d.d.d.d.d.d.d.d.d.d.d.d.d.d.d.d.d.d.",
"d.d.d.d.d.d.d.d.d.d.d.d.d.d.d.d.d.  + + O h ;       o $ k v z k , .   + 7 D G F D %   d.d.d.d.d.d.d.d.d.d.d.d.d.d.d.d.d.d.d.d.d.",
"d.d.d.d.d.d.d.d.d.d.d.d.d.d.d.d.d.d.  6 ; j < o   o , > O ; & X   . 2 e F H H G D .   d.d.d.d.d.d.d.d.d.d.d.d.d.d.d.d.d.d.d.d.d.",
"d.d.d.d.d.d.d.d.d.d.d.d.d.d.d.d.d.d.  b : h ; o     , p t X     . 3 D G H H H G e   d.d.d.d.d.d.d.d.d.d.d.d.d.d.d.d.d.d.d.d.d.d.",
"d.d.d.d.d.d.d.d.d.d.d.d.d.d.d.d.d.d.$ Q : h ;   o     > ,     + 3 F G G G F D e +   d.d.d.d.d.d.d.d.d.d.d.d.d.d.d.d.d.d.d.d.d.d.",
"d.d.d.d.d.d.d.d.d.d.d.d.d.d.d.d.d.d.$ ` > j < o $ d.d.    d.  . 7 F S S S e S 7 .   d.d.d.d.d.d.d.d.d.d.d.d.d.d.d.d.d.d.d.d.d.d.",
"d.d.d.d.d.d.d.d.d.d.d.d.d.d.d.d.d.d.  x < j ; o O d.d.d.d.d.d.  % e S e D S F w .   d.d.d.d.d.d.d.d.d.d.d.d.d.d.d.d.d.d.d.d.d.d.",
"d.d.d.d.d.d.d.d.d.d.d.d.d.d.d.d.d.d.d.X > z ; o   d.d.d.d.d.d.  % S D S D D S w .   d.d.d.d.d.d.d.d.d.d.d.d.d.d.d.d.d.d.d.d.d.d.",
"d.d.d.d.d.d.d.d.d.d.d.d.d.d.d.d.d.d.d.  < 4.: o   d.d.d.d.d.d.  + w D F F D S 3   d.d.d.d.d.d.d.d.d.d.d.d.d.d.d.d.d.d.d.d.d.d.d.",
"d.d.d.d.d.d.d.d.d.d.d.d.d.d.d.d.d.d.d.d.1 4.;   d.d.d.d.d.d.d.  + 2 S G H H F 2   d.d.d.d.d.d.d.d.d.d.d.d.d.d.d.d.d.d.d.d.d.d.d.",
"d.d.d.d.d.d.d.d.d.d.d.d.d.d.d.d.d.d.d.d.h 5.; o d.d.d.d.d.d.d.  . + 7 D F G S +   d.d.d.d.d.d.d.d.d.d.d.d.d.d.d.d.d.d.d.d.d.d.d.",
"d.d.d.d.d.d.d.d.d.d.d.d.d.d.d.d.d.d.d.d.h 5.O o d.d.d.d.d.d.  . # 7 7 e D D 7   d.d.d.d.d.d.d.d.d.d.d.d.d.d.d.d.d.d.d.d.d.d.d.d.",
"d.d.d.d.d.d.d.d.d.d.d.d.d.d.d.d.d.d.d.d.< Z X o d.d.d.d.  . 3 S F S w 7 w w +   d.d.d.d.d.d.d.d.d.d.d.d.d.d.d.d.d.d.d.d.d.d.d.d.",
"d.d.d.d.d.d.d.d.d.d.d.d.d.d.d.d.d.d.d.d.X h : o d.d.    + e F H H G D w 3 %   d.d.d.d.d.d.d.d.d.d.d.d.d.d.d.d.d.d.d.d.d.d.d.d.d.",
"d.d.d.d.d.d.d.d.d.d.d.d.d.d.d.d.d.d.d.d.* x 6 *     . 2 D G H H H H D w %   d.d.d.d.d.d.d.d.d.d.d.d.d.d.d.d.d.d.d.d.d.d.d.d.d.d.",
"d.d.d.d.d.d.d.d.d.d.d.d.d.d.d.d.d.d.d.d.% b q * . 3 e H H H G H H H S +   d.d.d.d.d.d.d.d.d.d.d.d.d.d.d.d.d.d.d.d.d.d.d.d.d.d.d.",
"d.d.d.d.d.d.d.d.d.d.d.d.d.d.d.d.d.d.d.d.+ x 6 % + F w H H G D G D e +   d.d.d.d.d.d.d.d.d.d.d.d.d.d.d.d.d.d.d.d.d.d.d.d.d.d.d.d.",
"d.d.d.d.d.d.d.d.d.d.d.d.d.d.d.d.d.d.d.o $ R r +   F e G G D e 3 %     d.d.d.d.d.d.d.d.d.d.d.d.d.d.d.d.d.d.d.d.d.d.d.d.d.d.d.d.d.",
"d.d.d.d.d.d.d.d.d.d.d.d.d.d.d.d.d.d.  x > ) ^ % . 7 F e e 2 .     d.d.d.d.d.d.d.d.d.d.d.d.d.d.d.d.d.d.d.d.d.d.d.d.d.d.d.d.d.d.d.",
"d.d.d.d.d.d.d.d.d.d.d.d.d.d.d.d.d.d.$ ` 6 ^ ' % 6 . w % .     d.d.d.d.d.d.d.d.d.d.d.d.d.d.d.d.d.d.d.d.d.d.d.d.d.d.d.d.d.d.d.d.d.",
"d.d.d.d.d.d.d.d.d.d.d.d.d.d.d.d.d.d.$ ` 6 [ { * c o     d.d.d.d.d.d.d.d.d.d.d.d.d.d.d.d.d.d.d.d.d.d.d.d.d.d.d.d.d.d.d.d.d.d.d.d.",
"d.d.d.d.d.d.d.d.d.d.d.d.d.d.d.d.d.d.+ ` 6 } ..% i   d.d.d.d.d.d.d.d.d.d.d.d.d.d.d.d.d.d.d.d.d.d.d.d.d.d.d.d.d.d.d.d.d.d.d.d.d.d.",
"d.d.d.d.d.d.d.d.d.d.d.d.d.d.d.d.d.d.o q , } ..6 :   d.d.d.d.d.d.d.d.d.d.d.d.d.d.d.d.d.d.d.d.d.d.d.d.d.d.d.d.d.d.d.d.d.d.d.d.d.d.",
"d.d.d.d.d.d.d.d.d.d.d.d.d.d.d.d.d.d.d.  o R ( $   d.d.d.d.d.d.d.d.d.d.d.d.d.d.d.d.d.d.d.d.d.d.d.d.d.d.d.d.d.d.d.d.d.d.d.d.d.d.d.",
"d.d.d.d.d.d.d.d.d.d.d.d.d.d.d.d.d.d.d.d.d.: <   d.d.d.d.d.d.d.d.d.d.d.d.d.d.d.d.d.d.d.d.d.d.d.d.d.d.d.d.d.d.d.d.d.d.d.d.d.d.d.d.",
"d.d.d.d.d.d.d.d.d.d.d.d.d.d.d.d.d.d.d.d.d.; 1   d.d.d.d.d.d.d.d.d.d.d.d.d.d.d.d.d.d.d.d.d.d.d.d.d.d.d.d.d.d.d.d.d.d.d.d.d.d.d.d.",
"d.d.d.d.d.d.d.d.d.d.d.d.d.d.d.d.d.d.d.d.d.: h   d.d.d.d.d.d.d.d.d.d.d.d.d.d.d.d.d.d.d.d.d.d.d.d.d.d.d.d.d.d.d.d.d.d.d.d.d.d.d.d.",
"d.d.d.d.d.d.d.d.d.d.d.d.d.d.d.d.d.d.d.d.d.- 1   d.d.d.d.d.d.d.d.d.d.d.d.d.d.d.d.d.d.d.d.d.d.d.d.d.d.d.d.d.d.d.d.d.d.d.d.d.d.d.d.",
"d.d.d.d.d.d.d.d.d.d.d.d.d.d.d.d.d.d.d.d.d.: <   d.d.d.d.d.d.d.d.d.d.d.d.d.d.d.d.d.d.d.d.d.d.d.d.d.d.d.d.d.d.d.d.d.d.d.d.d.d.d.d.",
"d.d.d.d.d.d.d.d.d.d.d.d.d.d.d.d.d.d.d.d.d.: h o d.d.d.d.d.d.d.d.d.d.d.d.d.d.d.d.d.d.d.d.d.d.d.d.d.d.d.d.d.d.d.d.d.d.d.d.d.d.d.d.",
"d.d.d.d.d.d.d.d.d.d.d.d.d.d.d.d.d.d.d.d.d.- < o d.d.d.d.d.d.d.d.d.d.d.d.d.d.d.d.d.d.d.d.d.d.d.d.d.d.d.d.d.d.d.d.d.d.d.d.d.d.d.d.",
"d.d.d.d.d.d.d.d.d.d.d.d.d.d.d.d.d.d.d.d.d.O <   d.d.d.d.d.d.d.d.d.d.d.d.d.d.d.d.d.d.d.d.d.d.d.d.d.d.d.d.d.d.d.d.d.d.d.d.d.d.d.d.",
"d.d.d.d.d.d.d.d.d.d.d.d.d.d.d.d.d.d.d.d.d.O :   d.d.d.d.d.d.d.d.d.d.d.d.d.d.d.d.d.d.d.d.d.d.d.d.d.d.d.d.d.d.d.d.d.d.d.d.d.d.d.d.",
"d.d.d.d.d.d.d.d.d.d.d.d.d.d.d.d.d.d.d.d.d.o o   d.d.d.d.d.d.d.d.d.d.d.d.d.d.d.d.d.d.d.d.d.d.d.d.d.d.d.d.d.d.d.d.d.d.d.d.d.d.d.d.",
"d.d.d.d.d.d.d.d.d.d.d.d.d.d.d.d.d.d.d.d.d.o X   d.d.d.d.d.d.d.d.d.d.d.d.d.d.d.d.d.d.d.d.d.d.d.d.d.d.d.d.d.d.d.d.d.d.d.d.d.d.d.d.",
"d.d.d.d.d.d.d.d.d.d.d.d.d.d.d.d.d.d.d.d.d.- <   d.d.d.d.d.d.d.d.d.d.d.d.d.d.d.d.d.d.d.d.d.d.d.d.d.d.d.d.d.d.d.d.d.d.d.d.d.d.d.d.",
"d.d.d.d.d.d.d.d.d.d.d.d.d.d.d.d.d.d.d.d.d.- 1   d.d.d.d.d.d.d.d.d.d.d.d.d.d.d.d.d.d.d.d.d.d.d.d.d.d.d.d.d.d.d.d.d.d.d.d.d.d.d.d.",
"d.d.d.d.d.d.d.d.d.d.d.d.d.d.d.d.d.d.d.d.d.    d.d.d.d.d.d.d.d.d.d.d.d.d.d.d.d.d.d.d.d.d.d.d.d.d.d.d.d.d.d.d.d.d.d.d.d.d.d.d.d.d."
};
