/* XPM */
static char *result[] = {
/* columns rows colors chars-per-pixel */
"64 64 133 2 ",
"   c #030202",
".  c #0A0505",
"X  c #0A0906",
"o  c #070608",
"O  c #0D0B0A",
"+  c #130707",
"@  c #130A06",
"#  c #1C0D07",
"$  c #130C0B",
"%  c #1B0B0A",
"&  c #14120D",
"*  c #1A140E",
"=  c #1C180F",
"-  c #0E0E10",
";  c #100F10",
":  c #141212",
">  c #1A1613",
",  c #1C1A13",
"<  c #181719",
"1  c #1C1A1A",
"2  c #240C0C",
"3  c #2C0F0F",
"4  c #21140E",
"5  c #2C180F",
"6  c #211715",
"7  c #2F1010",
"8  c #211D14",
"9  c #2C1C13",
"0  c #231D1C",
"q  c #2B1C1A",
"w  c #341111",
"e  c #3C1414",
"r  c #301C16",
"t  c #242116",
"y  c #292316",
"u  c #25221B",
"i  c #2A251C",
"p  c #2D291D",
"a  c #35221F",
"s  c #3A2018",
"d  c #332E1D",
"f  c #37311F",
"g  c #38311E",
"h  c #1E1E20",
"j  c #242122",
"k  c #2B2523",
"l  c #2F2924",
"z  c #2B2A2D",
"x  c #342523",
"c  c #3A2522",
"v  c #312B25",
"b  c #3D2B26",
"n  c #352D2A",
"m  c #382F2D",
"M  c #353224",
"N  c #3B3524",
"B  c #3A3827",
"V  c #3A312E",
"C  c #3E392A",
"Z  c #2D2D30",
"A  c #3D3330",
"S  c #431717",
"D  c #471818",
"F  c #4B1919",
"G  c #531C1C",
"H  c #5B1F1F",
"J  c #44271B",
"K  c #4D251A",
"L  c #442B1E",
"P  c #4F2D1F",
"I  c #512618",
"U  c #562C1C",
"Y  c #592E1C",
"T  c #5D321F",
"R  c #412B25",
"E  c #4B3021",
"W  c #433C26",
"Q  c #4C332D",
"!  c #423C2B",
"~  c #563222",
"^  c #5D3223",
"/  c #5E3927",
"(  c #53322B",
")  c #583228",
"_  c #583C2C",
"`  c #503531",
"'  c #683523",
"]  c #6E3F23",
"[  c #64362B",
"{  c #6E3628",
"}  c #66392F",
"|  c #743C23",
" . c #7A3D24",
".. c #763C2C",
"X. c #45412D",
"o. c #4C442C",
"O. c #51472B",
"+. c #54492D",
"@. c #4A4731",
"#. c #4C4932",
"$. c #534B32",
"%. c #5B5234",
"&. c #5F5539",
"*. c #69402D",
"=. c #7B4425",
"-. c #78452A",
";. c #6B4732",
":. c #7D4131",
">. c #625736",
",. c #635739",
"<. c #655A39",
"1. c #6C5F3C",
"2. c #7A523A",
"3. c #6E623F",
"4. c #3F3F42",
"5. c #414144",
"6. c #716542",
"7. c #766843",
"8. c #834526",
"9. c #864A29",
"0. c #8C4B2F",
"q. c #934F2F",
"w. c #8E512E",
"e. c #844C30",
"r. c #884831",
"t. c #8F5334",
"y. c #955432",
"u. c #9D5433",
"i. c #9E5934",
"p. c #A25C39",
"a. c #835B42",
"s. c #926549",
"d. c None",
/* pixels */
"d.d.d.d.d.d.d.d.d.d.d.d.d.d.d.d.d.d.d.d.d.d.d.d.d.d.d.d.d.d.d.d.d.d.d.d.d.d.d.d.d.d.d.d.d.d.d.d.d.d.d.d.d.d.d.d.d.d.d.d.d.d.d.d.",
"d.d.d.d.d.d.d.d.d.d.d.d.d.d.d.d.d.d.d.d.d.d.d.d.d.d.d.d.d.d.d.d.d.d.d.d.d.d.d.d.d.d.d.d.d.d.d.d.d.d.d.d.d.d.d.d.d.d.d.d.d.d.d.d.",
"d.d.d.d.d.d.d.d.d.d.d.d.d.d.d.d.d.d.d.d.d.d.d.d.d.d.d.d.d.d.d.d.d.d.d.d.d.d.d.d.d.d.d.d.d.d.d.d.d.d.d.d.d.d.d.d.d.d.d.d.d.d.d.d.",
"d.d.d.d.d.d.d.d.d.d.d.d.d.d.d.d.d.d.d.d.d.d.d.d.d.d.d.d.d.d.d.d.d.d.d.d.d.d.d.d.d.d.d.d.d.d.d.d.d.d.d.d.d.d.d.d.d.d.d.d.d.d.d.d.",
"d.d.d.d.d.d.d.d.d.d.d.d.d.d.d.d.d.d.d.d.d.d.d.d.d.d.d.d.d.d.d.d.d.d.d.d.d.d.d.d.d.d.d.d.d.d.d.d.d.d.d.d.d.d.d.d.d.d.d.d.d.d.d.d.",
"d.d.d.d.d.d.d.d.d.d.d.d.d.d.d.d.d.d.d.d.d.d.d.d.d.d.d.d.d.d.d.d.d.d.d.d.d.d.d.d.d.d.d.d.d.d.d.d.d.d.d.d.d.d.d.d.d.d.d.d.d.d.d.d.",
"d.d.d.d.d.d.d.d.d.d.d.d.d.d.d.d.d.d.d.d.d.d.d.d.d.d.d.d.d.d.d.d.d.d.d.d.d.d.d.d.d.d.d.d.d.d.d.d.d.d.d.d.d.d.d.d.d.d.d.d.d.d.d.d.",
"d.d.d.d.d.d.d.d.d.d.d.d.d.d.d.d.d.d.d.d.d.d.d.d.d.d.d.d.d.d.d.d.d.d.d.d.d.d.d.d.d.d.d.d.d.d.d.d.d.d.d.d.d.d.d.d.d.d.d.d.d.d.d.d.",
"d.d.d.d.d.d.d.d.d.d.d.d.d.d.d.d.d.d.d.d.d.d.d.d.d.d.d.d.d.d.d.d.d.d.d.d.d.d.d.d.d.d.d.d.d.d.d.d.d.d.d.d.d.d.d.d.d.d.d.d.d.d.d.d.",
"d.d.d.d.d.d.d.d.d.d.d.d.d.d.d.d.d.d.d.d.d.d.d.d.d.d.d.d.d.d.d.d.d.d.d.d.d.d.d.d.d.d.d.d.d.d.d.d.d.d.d.d.d.d.d.d.d.d.d.d.d.d.d.d.",
"d.d.d.d.d.d.d.d.d.d.d.d.d.d.d.d.d.d.d.d.d.d.d.d.d.d.d.d.d.d.d.d.d.d.d.d.d.d.d.d.d.d.d.d.d.d.d.d.d.d.d.d.d.d.d.d.d.d.d.d.d.d.d.d.",
"d.d.d.d.d.d.d.d.d.d.d.d.d.d.d.d.d.d.d.d.d.d.d.d.d.d.d.d.d.d.d.d.d.d.d.d.d.d.d.d.d.d.d.d.d.d.d.d.d.d.d.d.d.d.d.d.d.d.d.d.d.d.d.d.",
"d.d.d.d.d.d.d.d.d.d.d.d.d.d.d.d.d.d.d.d.d.d.d.d.d.d.d.d.d.d.d.d.d.d.d.d.d.d.d.d.d.d.d.d.d.d.d.d.d.d.d.d.d.d.d.d.d.d.d.d.d.d.d.d.",
"d.d.d.d.d.d.d.d.d.d.d.d.d.d.    d.d.d.d.d.d.d.d.d.d.d.d.d.d.d.d.d.d.d.d.d.d.d.d.d.d.d.d.d.d.d.d.d.d.d.d.d.d.d.d.d.d.d.d.d.d.d.d.",
"d.d.d.d.d.d.d.d.d.d.d.    o O .       d.d.d.d.d.d.d.d.d.d.d.d.d.d.d.d.d.d.d.d.d.d.d.d.d.d.d.d.d.d.d.d.d.d.d.d.d.d.d.d.d.d.d.d.d.",
"d.d.d.d.d.d.d.d.d.d.    & , , & . O X       d.d.d.d.d.d.d.d.d.d.d.d.d.d.d.d.d.d.d.d.d.d.d.d.d.d.d.d.d.d.d.d.d.d.d.d.d.d.d.d.d.d.",
"d.d.d.d.d.d.d.d.    & p i t p , o ; y 8 p X.&   d.d.d.d.d.d.d.d.d.d.d.d.d.d.d.d.d.d.d.d.d.d.d.d.d.d.d.d.d.d.d.d.d.d.d.d.d.d.d.d.",
"d.d.d.d.d.d.    & M , i d p p t X & t d M B B , d.d.d.d.d.d.d.d.d.d.d.d.d.d.d.d.d.d.d.d.d.d.d.d.d.d.d.d.d.d.d.d.d.d.d.d.d.d.d.d.",
"d.d.d.d.  . 8 d , i k t $.o.t & o X X , p M C <.* d.d.d.d.d.d.d.d.d.d.d.d.d.d.d.d.d.d.d.d.d.d.d.d.d.d.d.d.d.d.d.d.d.d.d.d.d.d.d.",
"d.d.d.  O y d v , t p t X.%.g & X , , X 8 O.%.%.*   d.d.d.d.d.d.d.d.d.d.d.d.d.d.d.d.d.d.d.d.d.d.d.d.d.d.d.d.d.d.d.d.d.d.d.d.d.d.",
"d.d.  O W N = N B , i , p o.d O , M B p & = O.y   d.d.d.d.d.d.d.d.d.d.d.d.d.d.d.d.d.d.d.d.d.d.d.d.d.d.d.d.d.d.d.d.d.d.d.d.d.d.d.",
"d.d.  * O.%.N t M , > , 8 X $ 1 & X.#.B W * X             d.d.d.d.d.d.d.d.d.d.d.d.d.d.d.d.d.d.d.d.d.d.d.d.d.d.d.d.d.d.d.d.d.d.d.",
"d.d.  . t o.o.y M p y & X i @.C p & $.6.O.W *   + + % % .           d.d.d.d.d.d.d.d.d.d.d.d.d.d.d.d.d.d.d.d.d.d.d.d.d.d.d.d.d.d.",
"d.d.X t X O = & = y & t o.@.! B M , & $.! %.B   + 7 D F F e + . . .       d.d.d.d.d.d.d.d.d.d.d.d.d.d.d.d.d.d.d.d.d.d.d.d.d.d.d.",
"d.d.X f & o o X X O t X.%.%.! M l t t & ! #.p . . 3 F F G G e w e 3 3 2 +     d.d.d.d.d.d.d.d.d.d.d.d.d.d.d.d.d.d.d.d.d.d.d.d.d.",
"d.  O y & o & t , & B @.<.<.! u t & X o & > & g . + S G H G D D F S S F S 7 +   d.d.d.d.d.d.d.d.d.d.d.d.d.d.d.d.d.d.d.d.d.d.d.d.",
"d.& $.d ,   , C M & d ! +.o.8 O . . , q . O M 1.d . 2 S H H G e S S F H G D 7 %   d.d.d.d.d.d.d.d.d.d.d.d.d.d.d.d.d.d.d.d.d.d.d.",
"  k %.B t o i <.&.& f B y & y 2.;.* $ , O   W 7.3.$ . 3 F H F S F S F G G D w 7 %   d.d.d.d.d.d.d.d.d.d.d.d.d.d.d.d.d.d.d.d.d.d.",
"d., B B k X y <.6.& = o   o i Q b 8 $ o     X , p =   + e G G S S S D G D e 3 w w %   d.d.d.d.d.d.d.d.d.d.d.d.d.d.d.d.d.d.d.d.d.",
"d.O M N i & , >.3.& o : 0 , j k l v x j < O O > O .     2 D G S S D S S 7 7 e S S S +   d.d.d.d.d.d.d.d.d.d.d.d.d.d.d.d.d.d.d.d.",
"d.  $.%.p , O X.d X , l l l n V V m m j k k ; 0 u 1 : o   3 G D e e e 3 + 3 S G H G w   d.d.d.d.d.d.d.d.d.d.d.d.d.d.d.d.d.d.d.d.",
"d.  X $     o f O & k n V V A V m m l 0 n n 0 1 V k u <   . 3 7 + + + +   2 F H H H F %   d.d.d.d.d.d.d.d.d.d.d.d.d.d.d.d.d.d.d.",
"d.d.          8 O > n m A A V A m A n 0 m m k > m n l k X   + .           . S H H H G 3   d.d.d.d.d.d.d.d.d.d.d.d.d.d.d.d.d.d.d.",
"d.d.d.  + +     X < k n n m k n A m m k m A l > n m n l &       d.d.d.d.d.  3 F H G F w     d.d.d.d.d.d.d.d.d.d.d.d.d.d.d.d.d.d.",
"d.d.d.. 3 2 .   X < k n m m n m m A m k n A n : m n n n O X   d.d.d.d.d.d.d.+ e G H G F 2   d.d.d.d.d.d.d.d.d.d.d.d.d.d.d.d.d.d.",
"d.d.  3 e w %     > l n m A V V A m n k m A n > m l k k O u =   d.d.d.d.d.d.  + S H H G S . d.d.d.d.d.d.d.d.d.d.d.d.d.d.d.d.d.d.",
"d.  . D G F e +   O j n n n n n n z 0 0 x n 1 < j u 1 : > i :   d.d.d.d.d.d.d.  2 G H F e %   d.d.d.d.d.d.d.d.d.d.d.d.d.d.d.d.d.",
"d.  2 G H H F 2     $ j k 0 k n n n l k 1 < > 0 1 < o o , , X d.d.d.d.d.d.d.d.  . e e e F w   d.d.d.d.d.d.d.d.d.d.d.d.d.d.d.d.d.",
"d.  S H H H H S +     X : < 0 u j j 0 1 - X . o     .   o .   d.d.d.d.d.d.d.d.d.  3 F G w . .     d.d.d.d.d.d.d.d.d.d.d.d.d.d.d.",
"d.. G H H H H G 3 o 8 $     _ s.a.R O     O $ , 8 O         o $ O     d.d.d.d.d.  . +     6 b q $   d.d.d.d.d.d.d.d.d.d.d.d.d.d.",
"d.% H H H H H H 2 @ # # # # * P P % 5 9 * % & o   o   o o o o o o o o . o   o o * % % $ % % % * % $   o     o o o             d.",
"d.% H H H H G S @ | 9.8. .|  .| =.w.q.y.w.0./ O O ; ; : : : : : : - - - - O O - 6 0 0 s Y ' { ..r.Q < < < h < h < < ; O o < <   ",
"d.. G H H G G 7 @ -.y.r.0.r.y.u.i.p.u.i.y.t.*.& O < < 0 j h h j h z 4.4.5.5.Z j l b c c ) [ [ } } c : : : : : : - O O o o - -   ",
"d.  7 H G F S e + J Y U K K U Y Y T ^ ~ E J r $ + $ ; O ; : : > > < 1 1 h h < X % % @ @ > 6 6 6 > X d.d.d.d.d.d.d.d.d.d.d.d.d.d.",
"d.d.. F F S e e e w 3 w w w 2 % 2 w e S D D F F S e S + 1 R Q ` a X   d.d.d.d.d.d.d.d.o x Q ` ` q   d.d.d.d.d.d.d.d.d.d.d.d.d.d.",
"d.d.  e e e G S S F F G H F w 7 e G H H H G G G G e w +     @ $ . d.d.d.d.d.d.d.d.d.d.d.  ; $ $ o d.d.d.d.d.d.d.d.d.d.d.d.d.d.d.",
"d.d.d.. + S D S F S G H G F e 7 e F H H H F S e 7 +     d.d.d.d.d.d.d.d.d.d.d.d.d.d.d.d.d.d.d.d.d.d.d.d.d.d.d.d.d.d.d.d.d.d.d.d.",
"d.d.d.d.  . + 3 e S G G F S w 3 e D G F F e % .     d.d.d.d.d.d.d.d.d.d.d.d.d.d.d.d.d.d.d.d.d.d.d.d.d.d.d.d.d.d.d.d.d.d.d.d.d.d.",
"d.d.d.d.d.      + w D D S e 7 3 3 e e w % .     d.d.d.d.d.d.d.d.d.d.d.d.d.d.d.d.d.d.d.d.d.d.d.d.d.d.d.d.d.d.d.d.d.d.d.d.d.d.d.d.",
"d.d.d.d.d.d.d.      . + % % % + . .       d.d.d.d.d.d.d.d.d.d.d.d.d.d.d.d.d.d.d.d.d.d.d.d.d.d.d.d.d.d.d.d.d.d.d.d.d.d.d.d.d.d.d.",
"d.d.d.d.d.d.d.d.d.d.d.d.      d.d.d.d.d.d.d.d.d.d.d.d.d.d.d.d.d.d.d.d.d.d.d.d.d.d.d.d.d.d.d.d.d.d.d.d.d.d.d.d.d.d.d.d.d.d.d.d.d.",
"d.d.d.d.d.d.d.d.d.d.d.d.d.d.d.d.d.d.d.d.d.d.d.d.d.d.d.d.d.d.d.d.d.d.d.d.d.d.d.d.d.d.d.d.d.d.d.d.d.d.d.d.d.d.d.d.d.d.d.d.d.d.d.d.",
"d.d.d.d.d.d.d.d.d.d.d.d.d.d.d.d.d.d.d.d.d.d.d.d.d.d.d.d.d.d.d.d.d.d.d.d.d.d.d.d.d.d.d.d.d.d.d.d.d.d.d.d.d.d.d.d.d.d.d.d.d.d.d.d.",
"d.d.d.d.d.d.d.d.d.d.d.d.d.d.d.d.d.d.d.d.d.d.d.d.d.d.d.d.d.d.d.d.d.d.d.d.d.d.d.d.d.d.d.d.d.d.d.d.d.d.d.d.d.d.d.d.d.d.d.d.d.d.d.d.",
"d.d.d.d.d.d.d.d.d.d.d.d.d.d.d.d.d.d.d.d.d.d.d.d.d.d.d.d.d.d.d.d.d.d.d.d.d.d.d.d.d.d.d.d.d.d.d.d.d.d.d.d.d.d.d.d.d.d.d.d.d.d.d.d.",
"d.d.d.d.d.d.d.d.d.d.d.d.d.d.d.d.d.d.d.d.d.d.d.d.d.d.d.d.d.d.d.d.d.d.d.d.d.d.d.d.d.d.d.d.d.d.d.d.d.d.d.d.d.d.d.d.d.d.d.d.d.d.d.d.",
"d.d.d.d.d.d.d.d.d.d.d.d.d.d.d.d.d.d.d.d.d.d.d.d.d.d.d.d.d.d.d.d.d.d.d.d.d.d.d.d.d.d.d.d.d.d.d.d.d.d.d.d.d.d.d.d.d.d.d.d.d.d.d.d.",
"d.d.d.d.d.d.d.d.d.d.d.d.d.d.d.d.d.d.d.d.d.d.d.d.d.d.d.d.d.d.d.d.d.d.d.d.d.d.d.d.d.d.d.d.d.d.d.d.d.d.d.d.d.d.d.d.d.d.d.d.d.d.d.d.",
"d.d.d.d.d.d.d.d.d.d.d.d.d.d.d.d.d.d.d.d.d.d.d.d.d.d.d.d.d.d.d.d.d.d.d.d.d.d.d.d.d.d.d.d.d.d.d.d.d.d.d.d.d.d.d.d.d.d.d.d.d.d.d.d.",
"d.d.d.d.d.d.d.d.d.d.d.d.d.d.d.d.d.d.d.d.d.d.d.d.d.d.d.d.d.d.d.d.d.d.d.d.d.d.d.d.d.d.d.d.d.d.d.d.d.d.d.d.d.d.d.d.d.d.d.d.d.d.d.d.",
"d.d.d.d.d.d.d.d.d.d.d.d.d.d.d.d.d.d.d.d.d.d.d.d.d.d.d.d.d.d.d.d.d.d.d.d.d.d.d.d.d.d.d.d.d.d.d.d.d.d.d.d.d.d.d.d.d.d.d.d.d.d.d.d.",
"d.d.d.d.d.d.d.d.d.d.d.d.d.d.d.d.d.d.d.d.d.d.d.d.d.d.d.d.d.d.d.d.d.d.d.d.d.d.d.d.d.d.d.d.d.d.d.d.d.d.d.d.d.d.d.d.d.d.d.d.d.d.d.d.",
"d.d.d.d.d.d.d.d.d.d.d.d.d.d.d.d.d.d.d.d.d.d.d.d.d.d.d.d.d.d.d.d.d.d.d.d.d.d.d.d.d.d.d.d.d.d.d.d.d.d.d.d.d.d.d.d.d.d.d.d.d.d.d.d.",
"d.d.d.d.d.d.d.d.d.d.d.d.d.d.d.d.d.d.d.d.d.d.d.d.d.d.d.d.d.d.d.d.d.d.d.d.d.d.d.d.d.d.d.d.d.d.d.d.d.d.d.d.d.d.d.d.d.d.d.d.d.d.d.d."
};
