/* XPM */
static char *result[] = {
/* columns rows colors chars-per-pixel */
"64 64 133 2 ",
"   c #030202",
".  c #0A0505",
"X  c #0A0906",
"o  c #070608",
"O  c #0D0B0A",
"+  c #130707",
"@  c #130A06",
"#  c #1C0D07",
"$  c #130C0B",
"%  c #1B0B0A",
"&  c #14120D",
"*  c #1A140E",
"=  c #1C180F",
"-  c #0E0E10",
";  c #100F10",
":  c #141212",
">  c #1A1613",
",  c #1C1A13",
"<  c #181719",
"1  c #1C1A1A",
"2  c #240C0C",
"3  c #2C0F0F",
"4  c #21140E",
"5  c #2C180F",
"6  c #211715",
"7  c #2F1010",
"8  c #211D14",
"9  c #2C1C13",
"0  c #231D1C",
"q  c #2B1C1A",
"w  c #341111",
"e  c #3C1414",
"r  c #301C16",
"t  c #242116",
"y  c #292316",
"u  c #25221B",
"i  c #2A251C",
"p  c #2D291D",
"a  c #35221F",
"s  c #3A2018",
"d  c #332E1D",
"f  c #37311F",
"g  c #38311E",
"h  c #1E1E20",
"j  c #242122",
"k  c #2B2523",
"l  c #2F2924",
"z  c #2B2A2D",
"x  c #342523",
"c  c #3A2522",
"v  c #312B25",
"b  c #3D2B26",
"n  c #352D2A",
"m  c #382F2D",
"M  c #353224",
"N  c #3B3524",
"B  c #3A3827",
"V  c #3A312E",
"C  c #3E392A",
"Z  c #2D2D30",
"A  c #3D3330",
"S  c #431717",
"D  c #471818",
"F  c #4B1919",
"G  c #531C1C",
"H  c #5B1F1F",
"J  c #44271B",
"K  c #4D251A",
"L  c #442B1E",
"P  c #4F2D1F",
"I  c #512618",
"U  c #562C1C",
"Y  c #592E1C",
"T  c #5D321F",
"R  c #412B25",
"E  c #4B3021",
"W  c #433C26",
"Q  c #4C332D",
"!  c #423C2B",
"~  c #563222",
"^  c #5D3223",
"/  c #5E3927",
"(  c #53322B",
")  c #583228",
"_  c #583C2C",
"`  c #503531",
"'  c #683523",
"]  c #6E3F23",
"[  c #64362B",
"{  c #6E3628",
"}  c #66392F",
"|  c #743C23",
" . c #7A3D24",
".. c #763C2C",
"X. c #45412D",
"o. c #4C442C",
"O. c #51472B",
"+. c #54492D",
"@. c #4A4731",
"#. c #4C4932",
"$. c #534B32",
"%. c #5B5234",
"&. c #5F5539",
"*. c #69402D",
"=. c #7B4425",
"-. c #78452A",
";. c #6B4732",
":. c #7D4131",
">. c #625736",
",. c #635739",
"<. c #655A39",
"1. c #6C5F3C",
"2. c #7A523A",
"3. c #6E623F",
"4. c #3F3F42",
"5. c #414144",
"6. c #716542",
"7. c #766843",
"8. c #834526",
"9. c #864A29",
"0. c #8C4B2F",
"q. c #934F2F",
"w. c #8E512E",
"e. c #844C30",
"r. c #884831",
"t. c #8F5334",
"y. c #955432",
"u. c #9D5433",
"i. c #9E5934",
"p. c #A25C39",
"a. c #835B42",
"s. c #926549",
"d. c None",
/* pixels */
"d.d.d.d.d.d.d.d.d.d.d.d.d.d.d.d.d.d.d.d.d.d.d.d.d.d.d.d.d.d.d.d.d.d.d.d.d.d.d.d.d.d.d.d.d.d.d.d.d.d.d.d.d.d.d.d.d.d.d.d.d.d.d.d.",
"d.d.d.d.d.d.d.d.d.d.d.d.d.d.d.d.d.d.d.d.d.d.d.d.d.d.d.d.d.d.d.d.d.d.d.d.d.d.d.d.d.d.d.d.d.d.d.d.d.d.d.d.d.d.d.d.d.d.d.d.d.d.d.d.",
"d.d.d.d.d.d.d.d.d.d.d.d.d.d.d.d.d.d.d.d.d.d.d.d.d.d.d.d.d.d.d.d.d.d.d.d.d.d.d.d.d.d.d.d.d.d.d.d.d.d.d.d.d.d.d.d.d.d.d.d.d.d.d.d.",
"d.d.d.d.d.d.d.d.d.d.d.d.d.d.d.d.d.d.d.d.d.d.d.d.d.d.d.d.d.d.d.d.d.d.d.d.d.d.d.d.d.d.d.d.d.d.d.d.d.d.d.d.d.d.d.d.d.d.d.d.d.d.d.d.",
"d.d.d.d.d.d.d.d.d.d.d.d.d.d.d.d.d.d.d.d.d.d.d.d.d.d.d.d.d.d.d.d.d.d.d.d.d.d.d.d.d.d.d.d.d.d.d.d.d.d.d.d.d.d.d.d.d.d.d.d.d.d.d.d.",
"d.d.d.d.d.d.d.d.d.d.d.d.d.d.d.d.d.d.d.d.d.d.d.d.d.d.d.d.d.d.d.d.d.d.d.d.d.d.d.d.d.d.d.d.d.d.d.d.d.d.d.d.d.d.d.d.d.d.d.d.d.d.d.d.",
"d.d.d.d.d.d.d.d.d.d.d.d.d.d.d.d.d.d.d.d.d.d.d.d.d.d.d.d.d.d.d.d.d.d.d.d.d.d.d.d.d.d.d.d.d.d.d.d.d.d.d.d.d.d.d.d.d.d.d.d.d.d.d.d.",
"d.d.d.d.d.d.d.d.d.d.d.d.d.d.d.d.d.d.d.d.d.d.d.d.d.d.d.d.d.d.d.d.d.d.d.d.d.d.d.d.d.d.d.d.d.d.d.d.d.d.d.d.d.d.d.d.d.d.d.d.d.d.d.d.",
"d.d.d.d.d.d.d.d.d.d.d.d.d.d.d.d.d.d.d.d.d.d.d.d.d.d.d.d.d.d.d.d.d.d.d.d.d.d.d.d.d.d.d.d.d.d.d.d.d.d.d.d.d.d.d.d.d.d.d.d.d.d.d.d.",
"d.d.d.d.d.d.d.d.d.d.d.d.d.d.d.d.d.d.d.d.d.d.d.d.d.d.d.d.d.d.d.d.d.d.d.d.d.d.d.d.d.d.d.d.d.d.d.d.d.d.d.d.d.d.d.d.d.d.d.d.d.d.d.d.",
"d.d.d.d.d.d.d.d.d.d.d.d.d.d.d.d.d.d.d.d.d.d.d.d.d.d.d.d.d.d.d.d.d.d.d.d.d.d.d.d.d.d.d.d.d.d.d.d.d.d.d.d.d.d.d.d.d.d.d.d.d.d.d.d.",
"d.d.d.d.d.d.d.d.d.d.d.d.d.d.d.d.d.d.d.d.d.d.d.d.d.d.d.d.d.d.d.d.d.d.d.d.d.d.d.d.d.d.d.d.d.d.d.d.d.d.d.d.d.d.d.d.d.d.d.d.d.d.d.d.",
"d.d.d.d.d.d.d.d.d.d.d.d.d.d.d.d.d.d.d.d.d.d.d.d.d.d.d.d.d.d.d.d.d.d.d.d.d.d.d.d.d.d.d.d.d.d.d.d.d.d.d.d.d.d.d.d.d.d.d.d.d.d.d.d.",
"d.d.d.d.d.d.d.d.d.d.d.d.d.d.d.d.d.d.d.d.d.d.d.d.d.d.d.d.d.d.d.d.d.d.d.d.d.d.d.d.d.d.d.d.d.d.d.d.d.      d.d.d.d.d.d.d.d.d.d.d.d.",
"d.d.d.d.d.d.d.d.d.d.d.d.d.d.d.d.d.d.d.d.d.d.d.d.d.d.d.d.d.d.d.d.d.d.d.d.d.d.d.d.d.d.d.        . + % % + + .       d.d.d.d.d.d.d.",
"d.d.d.d.d.d.d.d.d.d.d.d.d.d.d.d.d.d.d.d.d.d.d.d.d.d.d.d.d.d.d.d.d.d.d.d.d.d.d.d.    . % w e e 3 7 3 e D D D w +       d.d.d.d.d.",
"d.d.d.d.d.d.d.d.d.d.d.d.d.d.d.d.d.d.d.d.d.d.d.d.d.d.d.d.d.d.d.d.d.d.d.d.d.d.    . 2 w D G F D e 7 w S F G G D e 3 + .   d.d.d.d.",
"d.d.d.d.d.d.d.d.d.d.d.d.d.d.d.d.d.d.d.d.d.d.d.d.d.d.d.d.d.d.d.d.d.d.d.d.  o + w e S F H H H F e 7 e D G H G S D S F e + . d.d.d.",
"d.d.d.d.d.d.d.d.d.d.d.d.d.d.d.o $ $ $ o d.d.d.d.d.d.d.d.d.d.d.  $ $ o   + w w G G G G H U H G e 7 w F H H D F D S G S e e   d.d.",
"d.d.d.d.d.d.d.d.d.d.d.d.d.d.o q ` ` Q x o d.d.d.d.d.d.d.d.  X a ` Q R > + D w D G D D S S S w 2 2 2 w w w 7 7 e e e e F F . d.d.",
"d.d.d.d.d.d.d.d.d.d.d.d.d.d.X > > 6 6 > X $ % * O < h h 1 1 : > > : : ; O $ O $ + r J P ~ T T Y U U I I U Y J + w S F G H 7   d.",
"  - - o o O O - : : : : : ; R } [ ' [ ) a c b x h Z 5.5.4.4.z h j h h j h 1 < O ; } t.y.i.u.p.i.u.q.r.r.q.q.-.@ w G G H H G . d.",
"  1 : O O - < 1 h < 1 1 1 < ( :...{ [ ^ s 0 q 6 - O O - ; ; : : : ; ; < : ; $ O & [ e.t.y.q.w.=.|  .|  .8.9.] @ S G H H H H % d.",
"d.            o o o         $ 2 % % % % $ % % % o o o o o o o o o o o o o       o $ * 4 9 9 # L E * # # # # @ % H H H H H H % d.",
"d.d.d.d.d.d.d.d.d.d.d.d.d.d.  ; a c 6 o   + .   d.d.d.d.d.    X $ .         - 8 > ; . o   X R a.s._ o   & 9   2 G H H H H H . d.",
"d.d.d.d.d.d.d.d.d.d.d.d.d.d.d.    X . w G F 2   d.d.d.d.d.d.d.d.d.  o o         X O X ; 1 0 0 k u 0 : - o     + e H H H H D   d.",
"d.d.d.d.d.d.d.d.d.d.d.d.d.d.d.d.d.  w D e w e +   d.d.d.d.d.d.d.d.o > , o X : 8 0 > > 1 k z n n n n 0 k u :   o 2 F H H G 2   d.",
"d.d.d.d.d.d.d.d.d.d.d.d.d.d.d.d.d.  % e G H G 2   d.d.d.d.d.d.d.  > i = $ 1 0 k > 1 n z 0 0 x n n n n n n u O   + e F G F .   d.",
"d.d.d.d.d.d.d.d.d.d.d.d.d.d.d.d.d.d.. S G H H D +   d.d.d.d.d.d.  , u O k k l m < x A m j n V V m V V m n k >     % w e 2   d.d.",
"d.d.d.d.d.d.d.d.d.d.d.d.d.d.d.d.d.d.  2 D G H G e . d.d.d.d.d.d.d.  X & l n n m : n A m k V V V n n V m n k 1 X   . 2 2 . d.d.d.",
"d.d.d.d.d.d.d.d.d.d.d.d.d.d.d.d.d.d.    w D G H F 2   d.d.d.d.d.    o O z n m n > x A m k V V V n x m m n k > O     + +   d.d.d.",
"d.d.d.d.d.d.d.d.d.d.d.d.d.d.d.d.d.d.d.  3 G H H H S +           . +   O k l n m < k V m h n V V A V V V m n > X 8           d.d.",
"d.d.d.d.d.d.d.d.d.d.d.d.d.d.d.d.d.d.d.  % D H H H F 2   + + + + 3 3 .   > u k m , 0 n n 1 l m m A V m V n l ; O f       & O   d.",
"d.d.d.d.d.d.d.d.d.d.d.d.d.d.d.d.d.d.d.d.. w G H G S 7 + 2 e D e F F 3 . . ; 1 k 0 : k k j m V V V n x n l , o f W & = p $.$.  d.",
"d.d.d.d.d.d.d.d.d.d.d.d.d.d.d.d.d.d.d.d.  + S D D e 3 3 D D D S D G D 2     o X > O - > u k n v x j 1 1 &   O 3.>.t & p B M O d.",
"d.d.d.d.d.d.d.d.d.d.d.d.d.d.d.d.d.d.d.d.d.  % w w 3 e F G D S e S G G e +   , i = X     X ; 6 b Q i o o X = = 6.,.u X u C C , d.",
"d.d.d.d.d.d.d.d.d.d.d.d.d.d.d.d.d.d.d.d.d.d.  % 3 7 D G H D D D e G H F 3 . $ 6.3.W   O 6 $ * ;.2.9 & y N N & &.<.u o t B %.k   ",
"d.d.d.d.d.d.d.d.d.d.d.d.d.d.d.d.d.d.d.d.d.d.d.  2 7 D G G D D S e F H H S 2   d 3.M O . q 8   X O , o.$.C M & M C t   > d $.& d.",
"d.d.d.d.d.d.d.d.d.d.d.d.d.d.d.d.d.d.d.d.d.d.d.d.  + 7 S G D S G D D H H G S %   g & = & o o & 8 i ! <.,.X.B & > u = o & y O   d.",
"d.d.d.d.d.d.d.d.d.d.d.d.d.d.d.d.d.d.d.d.d.d.d.d.d.    + 2 2 3 e 7 e G G F F 7 . X p #.W & , u p M ! %.%.X.t O X X o   & f X d.d.",
"d.d.d.d.d.d.d.d.d.d.d.d.d.d.d.d.d.d.d.d.d.d.d.d.d.d.d.        . . + e D F F 7 +   W $.! $.& 8 M B ! #.o.t & y > & = X X t X d.d.",
"d.d.d.d.d.d.d.d.d.d.d.d.d.d.d.d.d.d.d.d.d.d.d.d.d.d.d.d.d.d.          + + % % .   & W +.3.#.& p C @.i X & i p M y O.O.t     d.d.",
"d.d.d.d.d.d.d.d.d.d.d.d.d.d.d.d.d.d.d.d.d.d.d.d.d.d.d.d.d.d.d.d.d.d.d.            X * W B #.X.: , & X 8 , = 8 v t B %.O.=   d.d.",
"d.d.d.d.d.d.d.d.d.d.d.d.d.d.d.d.d.d.d.d.d.d.d.d.d.d.d.d.d.d.d.d.d.d.d.d.d.d.d.  y O., $ p B B = X d X.p 8 u 8 C M , N W O   d.d.",
"d.d.d.d.d.d.d.d.d.d.d.d.d.d.d.d.d.d.d.d.d.d.d.d.d.d.d.d.d.d.d.d.d.d.d.d.d.d.  * %.%.+.8   , , X O B %.B 8 l t , d g y O   d.d.d.",
"d.d.d.d.d.d.d.d.d.d.d.d.d.d.d.d.d.d.d.d.d.d.d.d.d.d.d.d.d.d.d.d.d.d.d.d.d.d.d.* >.W M p 8 O X X = 8 O.$.t p u , d 8     d.d.d.d.",
"d.d.d.d.d.d.d.d.d.d.d.d.d.d.d.d.d.d.d.d.d.d.d.d.d.d.d.d.d.d.d.d.d.d.d.d.d.d.d.d.8 C C M d t O X t p p d p 8 d &     d.d.d.d.d.d.",
"d.d.d.d.d.d.d.d.d.d.d.d.d.d.d.d.d.d.d.d.d.d.d.d.d.d.d.d.d.d.d.d.d.d.d.d.d.d.d.d.  O ! p 8 y & . , p t p p O     d.d.d.d.d.d.d.d.",
"d.d.d.d.d.d.d.d.d.d.d.d.d.d.d.d.d.d.d.d.d.d.d.d.d.d.d.d.d.d.d.d.d.d.d.d.d.d.d.d.d.d.      X &   & t = O X   d.d.d.d.d.d.d.d.d.d.",
"d.d.d.d.d.d.d.d.d.d.d.d.d.d.d.d.d.d.d.d.d.d.d.d.d.d.d.d.d.d.d.d.d.d.d.d.d.d.d.d.d.d.d.d.d.      o O X     d.d.d.d.d.d.d.d.d.d.d.",
"d.d.d.d.d.d.d.d.d.d.d.d.d.d.d.d.d.d.d.d.d.d.d.d.d.d.d.d.d.d.d.d.d.d.d.d.d.d.d.d.d.d.d.d.d.d.d.d.    d.d.d.d.d.d.d.d.d.d.d.d.d.d.",
"d.d.d.d.d.d.d.d.d.d.d.d.d.d.d.d.d.d.d.d.d.d.d.d.d.d.d.d.d.d.d.d.d.d.d.d.d.d.d.d.d.d.d.d.d.d.d.d.d.d.d.d.d.d.d.d.d.d.d.d.d.d.d.d.",
"d.d.d.d.d.d.d.d.d.d.d.d.d.d.d.d.d.d.d.d.d.d.d.d.d.d.d.d.d.d.d.d.d.d.d.d.d.d.d.d.d.d.d.d.d.d.d.d.d.d.d.d.d.d.d.d.d.d.d.d.d.d.d.d.",
"d.d.d.d.d.d.d.d.d.d.d.d.d.d.d.d.d.d.d.d.d.d.d.d.d.d.d.d.d.d.d.d.d.d.d.d.d.d.d.d.d.d.d.d.d.d.d.d.d.d.d.d.d.d.d.d.d.d.d.d.d.d.d.d.",
"d.d.d.d.d.d.d.d.d.d.d.d.d.d.d.d.d.d.d.d.d.d.d.d.d.d.d.d.d.d.d.d.d.d.d.d.d.d.d.d.d.d.d.d.d.d.d.d.d.d.d.d.d.d.d.d.d.d.d.d.d.d.d.d.",
"d.d.d.d.d.d.d.d.d.d.d.d.d.d.d.d.d.d.d.d.d.d.d.d.d.d.d.d.d.d.d.d.d.d.d.d.d.d.d.d.d.d.d.d.d.d.d.d.d.d.d.d.d.d.d.d.d.d.d.d.d.d.d.d.",
"d.d.d.d.d.d.d.d.d.d.d.d.d.d.d.d.d.d.d.d.d.d.d.d.d.d.d.d.d.d.d.d.d.d.d.d.d.d.d.d.d.d.d.d.d.d.d.d.d.d.d.d.d.d.d.d.d.d.d.d.d.d.d.d.",
"d.d.d.d.d.d.d.d.d.d.d.d.d.d.d.d.d.d.d.d.d.d.d.d.d.d.d.d.d.d.d.d.d.d.d.d.d.d.d.d.d.d.d.d.d.d.d.d.d.d.d.d.d.d.d.d.d.d.d.d.d.d.d.d.",
"d.d.d.d.d.d.d.d.d.d.d.d.d.d.d.d.d.d.d.d.d.d.d.d.d.d.d.d.d.d.d.d.d.d.d.d.d.d.d.d.d.d.d.d.d.d.d.d.d.d.d.d.d.d.d.d.d.d.d.d.d.d.d.d.",
"d.d.d.d.d.d.d.d.d.d.d.d.d.d.d.d.d.d.d.d.d.d.d.d.d.d.d.d.d.d.d.d.d.d.d.d.d.d.d.d.d.d.d.d.d.d.d.d.d.d.d.d.d.d.d.d.d.d.d.d.d.d.d.d.",
"d.d.d.d.d.d.d.d.d.d.d.d.d.d.d.d.d.d.d.d.d.d.d.d.d.d.d.d.d.d.d.d.d.d.d.d.d.d.d.d.d.d.d.d.d.d.d.d.d.d.d.d.d.d.d.d.d.d.d.d.d.d.d.d.",
"d.d.d.d.d.d.d.d.d.d.d.d.d.d.d.d.d.d.d.d.d.d.d.d.d.d.d.d.d.d.d.d.d.d.d.d.d.d.d.d.d.d.d.d.d.d.d.d.d.d.d.d.d.d.d.d.d.d.d.d.d.d.d.d.",
"d.d.d.d.d.d.d.d.d.d.d.d.d.d.d.d.d.d.d.d.d.d.d.d.d.d.d.d.d.d.d.d.d.d.d.d.d.d.d.d.d.d.d.d.d.d.d.d.d.d.d.d.d.d.d.d.d.d.d.d.d.d.d.d.",
"d.d.d.d.d.d.d.d.d.d.d.d.d.d.d.d.d.d.d.d.d.d.d.d.d.d.d.d.d.d.d.d.d.d.d.d.d.d.d.d.d.d.d.d.d.d.d.d.d.d.d.d.d.d.d.d.d.d.d.d.d.d.d.d."
};
