/* XPM */
static char *result[] = {
/* columns rows colors chars-per-pixel */
"64 64 133 2 ",
"   c #030202",
".  c #0A0505",
"X  c #0A0906",
"o  c #070608",
"O  c #0D0B0A",
"+  c #130707",
"@  c #130A06",
"#  c #1C0D07",
"$  c #130C0B",
"%  c #1B0B0A",
"&  c #14120D",
"*  c #1A140E",
"=  c #1C180F",
"-  c #0E0E10",
";  c #100F10",
":  c #141212",
">  c #1A1613",
",  c #1C1A13",
"<  c #181719",
"1  c #1C1A1A",
"2  c #240C0C",
"3  c #2C0F0F",
"4  c #21140E",
"5  c #2C180F",
"6  c #211715",
"7  c #2F1010",
"8  c #211D14",
"9  c #2C1C13",
"0  c #231D1C",
"q  c #2B1C1A",
"w  c #341111",
"e  c #3C1414",
"r  c #301C16",
"t  c #242116",
"y  c #292316",
"u  c #25221B",
"i  c #2A251C",
"p  c #2D291D",
"a  c #35221F",
"s  c #3A2018",
"d  c #332E1D",
"f  c #37311F",
"g  c #38311E",
"h  c #1E1E20",
"j  c #242122",
"k  c #2B2523",
"l  c #2F2924",
"z  c #2B2A2D",
"x  c #342523",
"c  c #3A2522",
"v  c #312B25",
"b  c #3D2B26",
"n  c #352D2A",
"m  c #382F2D",
"M  c #353224",
"N  c #3B3524",
"B  c #3A3827",
"V  c #3A312E",
"C  c #3E392A",
"Z  c #2D2D30",
"A  c #3D3330",
"S  c #431717",
"D  c #471818",
"F  c #4B1919",
"G  c #531C1C",
"H  c #5B1F1F",
"J  c #44271B",
"K  c #4D251A",
"L  c #442B1E",
"P  c #4F2D1F",
"I  c #512618",
"U  c #562C1C",
"Y  c #592E1C",
"T  c #5D321F",
"R  c #412B25",
"E  c #4B3021",
"W  c #433C26",
"Q  c #4C332D",
"!  c #423C2B",
"~  c #563222",
"^  c #5D3223",
"/  c #5E3927",
"(  c #53322B",
")  c #583228",
"_  c #583C2C",
"`  c #503531",
"'  c #683523",
"]  c #6E3F23",
"[  c #64362B",
"{  c #6E3628",
"}  c #66392F",
"|  c #743C23",
" . c #7A3D24",
".. c #763C2C",
"X. c #45412D",
"o. c #4C442C",
"O. c #51472B",
"+. c #54492D",
"@. c #4A4731",
"#. c #4C4932",
"$. c #534B32",
"%. c #5B5234",
"&. c #5F5539",
"*. c #69402D",
"=. c #7B4425",
"-. c #78452A",
";. c #6B4732",
":. c #7D4131",
">. c #625736",
",. c #635739",
"<. c #655A39",
"1. c #6C5F3C",
"2. c #7A523A",
"3. c #6E623F",
"4. c #3F3F42",
"5. c #414144",
"6. c #716542",
"7. c #766843",
"8. c #834526",
"9. c #864A29",
"0. c #8C4B2F",
"q. c #934F2F",
"w. c #8E512E",
"e. c #844C30",
"r. c #884831",
"t. c #8F5334",
"y. c #955432",
"u. c #9D5433",
"i. c #9E5934",
"p. c #A25C39",
"a. c #835B42",
"s. c #926549",
"d. c None",
/* pixels */
"d.d.d.d.d.d.d.d.d.d.d.d.d.d.d.d.d.d.d.d.d.d.d.d.d.d.d.d.d.d.d.d.d.d.d.d.d.d.d.d.d.    d.d.d.d.d.d.d.d.d.d.d.d.d.d.d.d.d.d.d.d.d.",
"d.d.d.d.d.d.d.d.d.d.d.d.d.d.d.d.d.d.d.d.d.d.d.d.d.d.d.d.d.d.d.d.d.d.d.d.d.d.d.d.  < - d.d.d.d.d.d.d.d.d.d.d.d.d.d.d.d.d.d.d.d.d.",
"d.d.d.d.d.d.d.d.d.d.d.d.d.d.d.d.d.d.d.d.d.d.d.d.d.d.d.d.d.d.d.d.d.d.d.d.d.d.d.d.  < - d.d.d.d.d.d.d.d.d.d.d.d.d.d.d.d.d.d.d.d.d.",
"d.d.d.d.d.d.d.d.d.d.d.d.d.d.d.d.d.d.d.d.d.d.d.d.d.d.d.d.d.d.d.d.d.d.d.d.d.d.d.d.  O o d.d.d.d.d.d.d.d.d.d.d.d.d.d.d.d.d.d.d.d.d.",
"d.d.d.d.d.d.d.d.d.d.d.d.d.d.d.d.d.d.d.d.d.d.d.d.d.d.d.d.d.d.d.d.d.d.d.d.d.d.d.d.  o o d.d.d.d.d.d.d.d.d.d.d.d.d.d.d.d.d.d.d.d.d.",
"d.d.d.d.d.d.d.d.d.d.d.d.d.d.d.d.d.d.d.d.d.d.d.d.d.d.d.d.d.d.d.d.d.d.d.d.d.d.d.d.  : O d.d.d.d.d.d.d.d.d.d.d.d.d.d.d.d.d.d.d.d.d.",
"d.d.d.d.d.d.d.d.d.d.d.d.d.d.d.d.d.d.d.d.d.d.d.d.d.d.d.d.d.d.d.d.d.d.d.d.d.d.d.d.  < O d.d.d.d.d.d.d.d.d.d.d.d.d.d.d.d.d.d.d.d.d.",
"d.d.d.d.d.d.d.d.d.d.d.d.d.d.d.d.d.d.d.d.d.d.d.d.d.d.d.d.d.d.d.d.d.d.d.d.d.d.d.d.  1 - d.d.d.d.d.d.d.d.d.d.d.d.d.d.d.d.d.d.d.d.d.",
"d.d.d.d.d.d.d.d.d.d.d.d.d.d.d.d.d.d.d.d.d.d.d.d.d.d.d.d.d.d.d.d.d.d.d.d.d.d.d.d.o h : d.d.d.d.d.d.d.d.d.d.d.d.d.d.d.d.d.d.d.d.d.",
"d.d.d.d.d.d.d.d.d.d.d.d.d.d.d.d.d.d.d.d.d.d.d.d.d.d.d.d.d.d.d.d.d.d.d.d.d.d.d.d.  1 : d.d.d.d.d.d.d.d.d.d.d.d.d.d.d.d.d.d.d.d.d.",
"d.d.d.d.d.d.d.d.d.d.d.d.d.d.d.d.d.d.d.d.d.d.d.d.d.d.d.d.d.d.d.d.d.d.d.d.d.d.d.d.  < : d.d.d.d.d.d.d.d.d.d.d.d.d.d.d.d.d.d.d.d.d.",
"d.d.d.d.d.d.d.d.d.d.d.d.d.d.d.d.d.d.d.d.d.d.d.d.d.d.d.d.d.d.d.d.d.d.d.d.d.d.d.d.  h : d.d.d.d.d.d.d.d.d.d.d.d.d.d.d.d.d.d.d.d.d.",
"d.d.d.d.d.d.d.d.d.d.d.d.d.d.d.d.d.d.d.d.d.d.d.d.d.d.d.d.d.d.d.d.d.d.d.d.d.d.d.d.  h < d.d.d.d.d.d.d.d.d.d.d.d.d.d.d.d.d.d.d.d.d.",
"d.d.d.d.d.d.d.d.d.d.d.d.d.d.d.d.d.d.d.d.d.d.d.d.d.d.d.d.d.d.d.d.d.d.d.d.d.d.d.d.  < ; d.d.d.d.d.d.d.d.d.d.d.d.d.d.d.d.d.d.d.d.d.",
"d.d.d.d.d.d.d.d.d.d.d.d.d.d.d.d.d.d.d.d.d.d.d.d.d.d.d.d.d.d.d.d.d.d.d.d.d.d.d.  $ ( b .   d.d.d.d.d.d.d.d.d.d.d.d.d.d.d.d.d.d.d.",
"d.d.d.d.d.d.d.d.d.d.d.d.d.d.d.d.d.d.d.d.d.d.d.d.d.d.d.d.d.d.d.d.d.d.d.d.d.d.  $ % :.} > q o d.d.d.d.d.d.d.d.d.d.d.d.d.d.d.d.d.d.",
"d.d.d.d.d.d.d.d.d.d.d.d.d.d.d.d.d.d.d.d.d.d.d.d.d.d.d.d.d.d.d.d.d.d.d.d.d.d.  a % ..[ 6 ` $ d.d.d.d.d.d.d.d.d.d.d.d.d.d.d.d.d.d.",
"d.d.d.d.d.d.d.d.d.d.d.d.d.d.d.d.d.d.d.d.d.d.d.d.d.d.d.d.d.d.d.d.d.d.d.d.    X c * { [ 6 ` $ d.d.d.d.d.d.d.d.d.d.d.d.d.d.d.d.d.d.",
"d.d.d.d.d.d.d.d.d.d.d.d.d.d.d.d.d.d.d.d.d.d.d.d.d.d.d.d.d.d.d.d.d.    . % 7 . 6 % ' ^ 6 Q $ d.d.d.d.d.d.d.d.d.d.d.d.d.d.d.d.d.d.",
"d.d.d.d.d.d.d.d.d.d.d.d.d.d.d.d.d.d.d.d.d.d.d.d.d.d.d.d.d.d.d.      2 S e D w   $ ' ) * x o d.d.d.d.d.d.d.d.d.d.d.d.d.d.d.d.d.d.",
"d.d.d.d.d.d.d.d.d.d.d.d.d.d.d.d.d.d.d.d.d.d.d.d.d.d.d.d.d.  . % 3 w F G G w G   + r R + o d.d.d.d.d.d.d.d.d.d.d.d.d.d.d.d.d.d.d.",
"d.d.d.d.d.d.d.d.d.d.d.d.d.d.d.d.d.d.d.d.d.d.d.d.d.d.d.d.  + w D G S G H H w F + % 0 x + d.d.d.d.d.d.d.d.d.d.d.d.d.d.d.d.d.d.d.d.",
"d.d.d.d.d.d.d.d.d.d.d.d.d.d.d.d.d.d.d.d.d.d.d.d.d.d.d.  + S G H H G H H G e 3 . % 0 b % d.d.d.d.d.d.d.d.d.d.d.d.d.d.d.d.d.d.d.d.",
"d.d.d.d.d.d.d.d.d.d.d.d.d.d.d.d.d.d.d.d.d.d.d.d.d.d.. % w D H H H H G D 3 .     % 6 x > d.d.d.d.d.d.d.d.d.d.d.d.d.d.d.d.d.d.d.d.",
"d.d.d.d.d.d.d.d.d.d.d.d.d.d.d.d.d.d.d.d.d.d.d.d.d.  % 3 w S G H H G w +     d.d.o ; h O d.d.d.d.d.d.d.d.d.d.d.d.d.d.d.d.d.d.d.d.",
"d.d.d.d.d.d.d.d.d.d.d.d.d.d.d.d.d.d.d.d.d.d.d.d.  + w 7 w w S G S 3 .   d.d.d.d.o O Z < d.d.d.d.d.d.d.d.d.d.d.d.d.d.d.d.d.d.d.d.",
"d.d.d.d.d.d.d.d.d.d.d.d.d.d.d.d.d.d.d.d.d.d.d.d.  3 D D w 7 7 2 .   d.d.d.d.d.d.  - 5.h d.d.d.d.d.d.d.d.d.d.d.d.d.d.d.d.d.d.d.d.",
"d.d.d.d.d.d.d.d.d.d.d.d.d.d.d.d.d.d.d.d.d.d.d.  + S G G F 3 +     d.d.d.d.d.d.d.o ; 5.h d.d.d.d.d.d.d.d.d.d.d.d.d.d.d.d.d.d.d.d.",
"d.d.d.d.d.d.d.d.d.d.d.d.d.d.d.d.d.d.d.d.d.d.d.  2 G H G G S 3 +   d.d.d.d.d.d.d.o ; 4.1 d.d.d.d.d.d.d.d.d.d.d.d.d.d.d.d.d.d.d.d.",
"d.d.d.d.d.d.d.d.d.d.d.d.d.d.d.d.d.d.d.d.d.d.d.  3 S D F F S w %   d.d.d.d.d.d.  o ; 4.1   d.d.d.d.d.d.d.d.d.d.d.d.d.d.d.d.d.d.d.",
"d.d.d.d.d.d.d.d.d.d.d.d.d.d.d.d.d.d.d.d.d.d.  . 3 S S D S S S %   d.d.d.d.d.d.  o ; z > X d.d.d.d.d.d.d.d.d.d.d.d.d.d.d.d.d.d.d.",
"d.d.d.d.d.d.d.d.d.d.d.d.d.d.d.d.d.d.d.d.d.d.  . w G S D S S w +   d.d.d.d.d.d.X o : h > x   d.d.d.d.d.d.d.d.d.d.d.d.d.d.d.d.d.d.",
"d.d.d.d.d.d.d.d.d.d.d.d.d.d.d.d.d.d.d.d.d.d.  . w D e S S S F 7 .   d.    d.d.&   : j : ` $ d.d.d.d.d.d.d.d.d.d.d.d.d.d.d.d.d.d.",
"d.d.d.d.d.d.d.d.d.d.d.d.d.d.d.d.d.d.d.d.d.d.  + w D F F G H F 3 +     , * o   o o : h < Q $ d.d.d.d.d.d.d.d.d.d.d.d.d.d.d.d.d.d.",
"d.d.d.d.d.d.d.d.d.d.d.d.d.d.d.d.d.d.d.d.d.d.  e G H H H G D 3 .     X u p ,     o - h : R   d.d.d.d.d.d.d.d.d.d.d.d.d.d.d.d.d.d.",
"d.d.d.d.d.d.d.d.d.d.d.d.d.d.d.d.d.d.d.d.d.  + D H H H F e 2 .   o $ ; O > , o   o < h : >   d.d.d.d.d.d.d.d.d.d.d.d.d.d.d.d.d.d.",
"d.d.d.d.d.d.d.d.d.d.d.d.d.d.d.d.d.d.d.d.d.  % D F F S 7 +   o 1 k v v k &       o : h O + +   d.d.d.d.d.d.d.d.d.d.d.d.d.d.d.d.d.",
"d.d.d.d.d.d.d.d.d.d.d.d.d.d.d.d.d.d.d.d.d.  % D F S 2 +     & u z n n k 1 o       ; 1 $ D 7 . d.d.d.d.d.d.d.d.d.d.d.d.d.d.d.d.d.",
"d.d.d.d.d.d.d.d.d.d.d.d.d.d.d.d.d.d.d.  d.  % 7 7 +   @ ,   1 k n m n l 0 :   & o $ < $ w w +   d.d.d.d.d.d.d.d.d.d.d.d.d.d.d.d.",
"d.d.d.d.d.d.d.d.d.d.d.d.d.d.d.d.d.d.* &     . + . . d 6.i O j m m n m m k 1   8   O $ + D G 7   d.d.d.d.d.d.d.d.d.d.d.d.d.d.d.d.",
"d.d.d.d.d.d.d.d.d.d.d.d.d.d.d.d.  , ,.%.y         g 3.7.= > 0 1 > > < > > 0 X > o & & $ G G e .   d.d.d.d.d.d.d.d.d.d.d.d.d.d.d.",
"d.d.d.d.d.d.d.d.d.d.d.d.d.d.d.d.& C W %.O.X & W p & M W X O : 0 k v n l 1 < O O $ [ } q D G S %   d.d.d.d.d.d.d.d.d.d.d.d.d.d.d.",
"d.d.d.d.d.d.d.d.d.d.d.d.d.d.d.  ! C M O., * W $.$.> O     O k m m A A V m > X . * e.y.L D G D e . d.d.d.d.d.d.d.d.d.d.d.d.d.d.d.",
"d.d.d.d.d.d.d.d.d.d.d.d.d.d.d.  p M p 8 O W +.! W & o X   > k v m m n m x 1 ;   4 r.y.E S H H D %   d.d.d.d.d.d.d.d.d.d.d.d.d.d.",
"d.d.d.d.d.d.d.d.d.d.d.d.d.d.d.  = d 8 o p B 6.$.& o 9 6 o u j 1 j k k k 0 j 1   9 u.i.~ e U H G 7   d.d.d.d.d.d.d.d.d.d.d.d.d.d.",
"d.d.d.d.d.d.d.d.d.d.d.d.d.d.  O p t X , B #.+.& 8 X 6 & $ l V l n m V n h x j . 5 q.u.T S H H G e   d.d.d.d.d.d.d.d.d.d.d.d.d.d.",
"d.d.d.d.d.d.d.d.d.d.d.d.d.d.  & & O X 8 M X.& , u & o * 0 v V V V V V m l n j R # w.p.T w F F D w . d.d.d.d.d.d.d.d.d.d.d.d.d.d.",
"d.d.d.d.d.d.d.d.d.d.d.d.d.d.    X X   X > > p M l 8 . ;.b k V n V V V A m n k a.L =.i.Y 3 e S w 7 . d.d.d.d.d.d.d.d.d.d.d.d.d.d.",
"d.d.d.d.d.d.d.d.d.d.d.d.d.    & , t : O X , B B M i O 2.Q k V V V n m V n m u s.E | u.Y 2 w 7 7 7 + d.d.d.d.d.d.d.d.d.d.d.d.d.d.",
"d.d.d.d.d.d.d.d.d.d.d.d.d.  & t p p t B d & @.W ! C t y a j n V A l n V v v 0 _ %  .y.U 2 w w w 7 %   d.d.d.d.d.d.d.d.d.d.d.d.d.",
"d.d.d.d.d.d.d.d.d.d.d.d.d.d.  , u p O.%.X.X p @.%.<.o.& o , l V m m m m n j > o % | r.K 7 F D S e %   d.d.d.d.d.d.d.d.d.d.d.d.d.",
"d.d.d.d.d.d.d.d.d.d.d.d.d.d.  & p d $.B d = X @.%.<.+.t o 1 n V A V m m n k $   #  .9.I w H G F S +   d.d.d.d.d.d.d.d.d.d.d.d.d.",
"d.d.d.d.d.d.d.d.d.d.d.d.d.d.    i p t 8 8 , & t X.@.W B   & k n m n n n v j o & # 8.q.U 7 G H G D + d.d.d.d.d.d.d.d.d.d.d.d.d.d.",
"d.d.d.d.d.d.d.d.d.d.d.d.d.d.d.  O t p l u = y & t B M N = o , k n k k k j $   t # 9.y.Y 7 S G H S + d.d.d.d.d.d.d.d.d.d.d.d.d.d.",
"d.d.d.d.d.d.d.d.d.d.d.d.d.d.d.d.  f i t , t p y O ; O & = O X & < 1 1 : X       @ ] -.J 7 G S S w   d.d.d.d.d.d.d.d.d.d.d.d.d.d.",
"d.d.d.d.d.d.d.d.d.d.d.d.d.d.d.d.  & , , C l v = X , M &.6.3.f O . . o o   . + 2 2 @ @ + e S F e +   d.d.d.d.d.d.d.d.d.d.d.d.d.d.",
"d.d.d.d.d.d.d.d.d.d.d.d.d.d.d.d.d.  d v M u y & X t C <.<.>.X.M q       + 3 e G G S w w S S S 3 .   d.d.d.d.d.d.d.d.d.d.d.d.d.d.",
"d.d.d.d.d.d.d.d.d.d.d.d.d.d.d.d.d.  8 d , g O.= o > t t t t @       . % w G G H H H G S w G G +   d.d.d.d.d.d.d.d.d.d.d.d.d.d.d.",
"d.d.d.d.d.d.d.d.d.d.d.d.d.d.d.d.d.d.  y N >.O.X   o   o X & ,     + 2 w G H H H H H G G S S e .   d.d.d.d.d.d.d.d.d.d.d.d.d.d.d.",
"d.d.d.d.d.d.d.d.d.d.d.d.d.d.d.d.d.d.  O W +.8 X & & > u i p p     + 2 e G H H H H H G G F w +   d.d.d.d.d.d.d.d.d.d.d.d.d.d.d.d.",
"d.d.d.d.d.d.d.d.d.d.d.d.d.d.d.d.d.d.d.  X = o t f y d B C N %.O     o 3 F G H H H H H H G w . d.d.d.d.d.d.d.d.d.d.d.d.d.d.d.d.d.",
"d.d.d.d.d.d.d.d.d.d.d.d.d.d.d.d.d.d.d.d.      X X O #.%.C M $.X   d.d.  . 3 S G G H G 7 .   d.d.d.d.d.d.d.d.d.d.d.d.d.d.d.d.d.d.",
"d.d.d.d.d.d.d.d.d.d.d.d.d.d.d.d.d.d.d.d.d.d.d.d.d.  & l , O     d.d.d.d.      . % % .   d.d.d.d.d.d.d.d.d.d.d.d.d.d.d.d.d.d.d.d.",
"d.d.d.d.d.d.d.d.d.d.d.d.d.d.d.d.d.d.d.d.d.d.d.d.d.d.d.  d.d.d.d.d.d.d.d.d.d.d.d.d.d.d.d.d.d.d.d.d.d.d.d.d.d.d.d.d.d.d.d.d.d.d.d."
};
