/* XPM */
static char *result[] = {
/* columns rows colors chars-per-pixel */
"64 64 130 2 ",
"   c #020202",
".  c #090706",
"X  c #070807",
"o  c #0A0907",
"O  c #070708",
"+  c #070908",
"@  c #0C0B0B",
"#  c #100A06",
"$  c #1A0C07",
"%  c #120D0B",
"&  c #1A0E0A",
"*  c #0D100F",
"=  c #14120D",
"-  c #1A140E",
";  c #1C180F",
":  c #0E0E11",
">  c #100F12",
",  c #0F1110",
"<  c #131313",
"1  c #1A1514",
"2  c #151817",
"3  c #1C1A13",
"4  c #161A19",
"5  c #1C1B1B",
"6  c #200F08",
"7  c #23130D",
"8  c #251310",
"9  c #221D15",
"0  c #2E1B13",
"q  c #221D1C",
"w  c #2B1E1B",
"e  c #341D12",
"r  c #1C211E",
"t  c #252116",
"y  c #2A2517",
"u  c #25221B",
"i  c #2A261C",
"p  c #2D291D",
"a  c #32231E",
"s  c #3A241A",
"d  c #312C1E",
"f  c #36301E",
"g  c #38311F",
"h  c #1E1D20",
"j  c #201F21",
"k  c #1E2422",
"l  c #222424",
"z  c #2A2423",
"x  c #222926",
"c  c #2F2925",
"v  c #252D2B",
"b  c #2B2D2E",
"n  c #362522",
"m  c #3C2520",
"M  c #312B25",
"N  c #3B2926",
"B  c #352D2A",
"V  c #392E2C",
"C  c #29312F",
"Z  c #353123",
"A  c #3B3524",
"S  c #3A312E",
"D  c #3E3A2A",
"F  c #2B3532",
"G  c #2E3936",
"H  c #2F3A38",
"J  c #3D3330",
"K  c #303B37",
"L  c #323D3A",
"P  c #41271D",
"I  c #54291B",
"U  c #5B2F1F",
"Y  c #5E311D",
"T  c #61331F",
"R  c #4F2E20",
"E  c #452D2A",
"W  c #453127",
"Q  c #4C3323",
"!  c #443C25",
"~  c #483F26",
"^  c #4D312B",
"/  c #423C2C",
"(  c #5B3524",
")  c #583228",
"_  c #5D3C2C",
"`  c #523632",
"'  c #543833",
"]  c #633524",
"[  c #64352A",
"{  c #703825",
"}  c #7E3F27",
"|  c #763A2A",
" . c #7F3F2E",
".. c #673930",
"X. c #35423E",
"o. c #4B442D",
"O. c #53492E",
"+. c #4B4631",
"@. c #4D4932",
"#. c #544B33",
"$. c #5A4F33",
"%. c #555036",
"&. c #5D5335",
"*. c #5E5539",
"=. c #664330",
"-. c #6C4B37",
";. c #655A3B",
":. c #6A5E3A",
">. c #6C603E",
",. c #71643F",
"<. c #374440",
"1. c #434246",
"2. c #454448",
"3. c #766943",
"4. c #824026",
"5. c #87472B",
"6. c #884728",
"7. c #8E4D2C",
"8. c #8F522E",
"9. c #93532D",
"0. c #884634",
"q. c #894931",
"w. c #8F5335",
"e. c #945332",
"r. c #9C5432",
"t. c #9E5B34",
"y. c #A15C39",
"u. c #885E44",
"i. c #916145",
"p. c None",
/* pixels */
"p.p.p.p.p.p.p.p.p.p.p.p.p.p.p.p.p.p.p.p.p.p.p.p.p.p.p.p.p.p.p.p.p.p.p.p.p.p.p.p.p.p.p.p.p.p.p.p.p.p.p.p.p.p.p.p.p.p.p.p.p.p.p.p.",
"p.p.p.p.p.p.p.p.p.p.p.p.p.p.p.p.p.p.p.p.p.p.p.p.p.p.p.p.p.p.p.p.p.p.p.p.p.p.p.p.p.p.p.p.p.p.p.p.p.p.p.p.p.p.p.p.p.p.p.p.p.p.p.p.",
"p.p.p.p.p.p.p.p.p.p.p.p.p.p.p.p.p.p.p.p.p.p.p.p.p.p.p.p.p.p.p.p.p.p.p.p.p.p.p.p.p.p.p.p.p.p.p.p.p.p.p.p.p.p.p.p.p.p.p.p.p.p.p.p.",
"p.p.p.p.p.p.p.p.p.p.p.p.p.p.p.p.p.p.p.p.p.p.p.p.p.p.p.p.p.p.p.p.p.p.p.p.p.p.p.p.p.p.p.p.p.p.p.p.p.p.p.p.p.p.p.p.p.p.p.p.p.p.p.p.",
"p.p.p.p.p.p.p.p.p.p.p.p.p.p.p.p.p.p.p.p.p.p.p.p.p.p.p.p.p.p.p.p.p.p.p.p.p.p.p.p.p.p.p.p.p.p.p.p.p.p.p.p.p.p.p.p.p.p.p.p.p.p.p.p.",
"p.p.p.p.p.p.p.p.p.p.p.p.p.p.p.p.p.p.p.p.p.p.p.p.p.p.p.p.p.p.p.p.p.p.p.p.p.p.p.p.p.p.p.p.p.p.p.p.p.p.p.p.p.p.p.p.p.p.p.p.p.p.p.p.",
"p.p.p.p.p.p.p.p.p.p.p.p.p.p.p.p.p.p.p.p.p.p.p.p.p.p.p.p.p.p.p.p.p.p.p.p.p.p.p.p.p.p.p.p.p.p.p.p.p.p.p.p.p.p.p.p.p.p.p.p.p.p.p.p.",
"p.p.p.p.p.p.p.p.p.p.p.p.p.p.p.p.p.p.p.p.p.p.p.p.p.p.p.p.p.p.p.p.p.p.p.p.p.p.p.p.p.p.p.p.p.p.p.p.p.p.p.p.p.p.p.p.p.p.p.p.p.p.p.p.",
"p.p.p.p.p.p.p.p.p.p.p.p.p.p.p.p.p.p.p.p.p.p.p.p.p.p.p.p.p.p.p.p.p.p.p.p.p.p.p.p.p.p.p.p.p.p.p.p.p.p.p.p.p.p.p.p.p.p.p.p.p.p.p.p.",
"p.p.p.p.p.p.p.p.p.p.p.p.p.p.p.p.p.p.p.p.p.p.p.p.p.p.p.p.p.p.p.p.p.p.p.p.p.p.p.p.p.p.p.p.p.p.p.p.p.p.p.p.p.p.p.p.p.p.p.p.p.p.p.p.",
"p.p.p.p.p.p.p.p.p.p.p.p.p.p.p.p.p.p.p.p.p.p.p.p.p.p.p.p.p.p.p.p.p.p.p.p.p.p.p.p.p.p.p.p.p.p.p.p.p.p.p.p.p.p.p.p.p.p.p.p.p.p.p.p.",
"p.p.p.p.p.p.p.p.p.p.p.p.p.p.p.p.p.p.p.p.p.p.p.p.p.p.p.p.p.p.p.p.p.p.p.p.p.p.p.p.p.p.p.p.p.p.p.p.p.p.p.p.p.p.p.p.p.p.p.p.p.p.p.p.",
"p.p.p.p.p.p.p.p.p.p.p.p.p.p.p.p.p.p.p.p.p.p.p.p.p.p.p.p.p.p.p.p.p.p.p.p.p.p.p.p.p.p.p.p.p.p.p.p.p.p.p.p.p.p.p.p.p.p.p.p.p.p.p.p.",
"p.p.p.p.p.p.p.p.p.p.p.p.p.      p.p.p.p.p.p.p.p.p.p.p.p.p.p.p.p.p.p.p.p.p.p.p.p.p.p.p.p.p.p.p.p.p.p.p.p.p.p.p.p.p.p.p.p.p.p.p.p.",
"p.p.p.p.p.p.p.p.p.p.p.    o % .       p.p.p.p.p.p.p.p.p.p.p.p.p.p.p.p.p.p.p.p.p.p.p.p.p.p.p.p.p.p.p.p.p.p.p.p.p.p.p.p.p.p.p.p.p.",
"p.p.p.p.p.p.p.p.p.    * = 5 t = . = =   . X   p.p.p.p.p.p.p.p.p.p.p.p.p.p.p.p.p.p.p.p.p.p.p.p.p.p.p.p.p.p.p.p.p.p.p.p.p.p.p.p.p.",
"p.p.p.p.p.p.p.    = = f i i Z 3   < p y X.O.;   p.p.p.p.p.p.p.p.p.p.p.p.p.p.p.p.p.p.p.p.p.p.p.p.p.p.p.p.p.p.p.p.p.p.p.p.p.p.p.p.",
"p.p.p.p.p.    . 3 Z 5 p A p p t   * y d f g A t . p.p.p.p.p.p.p.p.p.p.p.p.p.p.p.p.p.p.p.p.p.p.p.p.p.p.p.p.p.p.p.p.p.p.p.p.p.p.p.",
"p.p.p.p.  # d d 3 p p t %.o.9 =   + @ 3 d A o.;.; p.p.p.p.p.p.p.p.p.p.p.p.p.p.p.p.p.p.p.p.p.p.p.p.p.p.p.p.p.p.p.p.p.p.p.p.p.p.p.",
"p.p.p.  - t Z p 3 i p 3 o.$.g # = t ; o t O.$.O.=   p.p.p.p.p.p.p.p.p.p.p.p.p.p.p.p.p.p.p.p.p.p.p.p.p.p.p.p.p.p.p.p.p.p.p.p.p.p.",
"p.p.  ; o.g ; / A 3 u 5 d ! t X r D A p o ; ~ ;   p.p.p.p.p.p.p.p.p.p.p.p.p.p.p.p.p.p.p.p.p.p.p.p.p.p.p.p.p.p.p.p.p.p.p.p.p.p.p.",
"p.p.  ; O.O.i i M 3 3 3 ; @ = t ; +.+.D ! - o             p.p.p.p.p.p.p.p.p.p.p.p.p.p.p.p.p.p.p.p.p.p.p.p.p.p.p.p.p.p.p.p.p.p.p.",
"p.p.  o t O.o.9 Z p y = o p +.D t = ;.>.o.A # . o , < , X           p.p.p.p.p.p.p.p.p.p.p.p.p.p.p.p.p.p.p.p.p.p.p.p.p.p.p.p.p.p.",
"p.  # 3 o % 9 @ t t o t +.@./ S d ; - *./ $.f   : k F F F x @ X X X       p.p.p.p.p.p.p.p.p.p.p.p.p.p.p.p.p.p.p.p.p.p.p.p.p.p.p.",
"p.p.= f =   X o + @ Z @.;.&.A Z p y ; # / +.3 . . r C L X.L v x v x k k ,     p.p.p.p.p.p.p.p.p.p.p.p.p.p.p.p.p.p.p.p.p.p.p.p.p.",
"p.  = t = o 9 p < 3 D +.;.;.A u 2 * X   % % 9 g . * x X.<.X.F F G C b K F k @   p.p.p.p.p.p.p.p.p.p.p.p.p.p.p.p.p.p.p.p.p.p.p.p.",
"  t &.M ; o i +.y - Z X.#.! = .   o a y   % / ,.g   2 F X.X.H x x F C X.H F k 2 X p.p.p.p.p.p.p.p.p.p.p.p.p.p.p.p.p.p.p.p.p.p.p.",
"  D #.A 9 o Z 3.$.$ ! g 3 o s i.=.% @ 1 o   o.3.3.= X x H <.H v H F F L X.C r r ,   p.p.p.p.p.p.p.p.p.p.p.p.p.p.p.p.p.p.p.p.p.p.",
"  u A A i o A ,.>.# ;     o p E a 9 % O     . ; i 3   < v X.H v v v F X.F k r x x ,   p.p.p.p.p.p.p.p.p.p.p.p.p.p.p.p.p.p.p.p.p.",
"p.= Z Z i @ A :.>.    1 q 5 z z c M c q 1 o % > @       5 H X.C C C F C r r x C F x @   p.p.p.p.p.p.p.p.p.p.p.p.p.p.p.p.p.p.p.p.",
"p.o ;.*.p = 3 O.y X 5 c M c B J V J B q z z > q u 5 =   + k L F v v x r + x C X.<.K x   p.p.p.p.p.p.p.p.p.p.p.p.p.p.p.p.p.p.p.p.",
"p.  % @ X   o A   = c B S S J V V B z 5 B B 5 q B z u >   @ k x < 2 < *   r X.X.X.<.F ,   p.p.p.p.p.p.p.p.p.p.p.p.p.p.p.p.p.p.p.",
"p.p.p.        3 O q B V V J B J V J B q J V z 1 B B M z     @             o C <.<.X.L k   p.p.p.p.p.p.p.p.p.p.p.p.p.p.p.p.p.p.p.",
"p.p.p.  @ +     @ 5 z B B V c B J J V z V J c 1 S S B c X X     p.p.p.p.p.  k H <.H F x X   p.p.p.p.p.p.p.p.p.p.p.p.p.p.p.p.p.p.",
"p.p.  @ 5 2 X   @ q b B J J B V V J V j V J c 4 B B B c X o . p.p.p.p.p.p.  @ k X.X.H G 4   p.p.p.p.p.p.p.p.p.p.p.p.p.p.p.p.p.p.",
"p.p.  k v k :   O 1 B B V B V J V B B j J J c 1 B c z z o p =   p.p.p.p.p.p.  , G <.<.X.C X   p.p.p.p.p.p.p.p.p.p.p.p.p.p.p.p.p.",
"p.  @ F K G h o   % z c B B B B B B j q M B 1 1 z j q % 9 p <   p.p.p.p.p.p.p.  k <.<.H v <   p.p.p.p.p.p.p.p.p.p.p.p.p.p.p.p.p.",
"p.  k X.<.<.F , O   1 z z u c B B B M j q 1 1 q 5 2 o   t < . p.p.p.p.p.p.p.p.  @ v k x F k   p.p.p.p.p.p.p.p.p.p.p.p.p.p.p.p.p.",
"p.  F X.<.<.L k o     O < 1 q z z q q 1 % O o .     .   o .   p.p.p.p.p.p.p.p.p.  k F H k @ O     p.p.p.p.p.p.p.p.p.p.p.p.p.p.p.",
"p.@ X.<.<.<.<.G <   d o   o _ u.-.a . O   O % 1 q %         O @ X   p.p.p.p.p.p.  o , X   q N n %   p.p.p.p.p.p.p.p.p.p.p.p.p.p.",
"  4 <.<.<.<.<.H @ $ - 6 6 6 7 Q s 7 e 0 7 ; & o . O O . O O @ @ O X X O O X O O 8 6 & & & & - 7 8 # O       O O X           O p.",
"  4 <.<.<.<.L k $ 8.9.6.4.4.6.6.9.y.r.t.e.w.( = % > @ < 1 > 1 1 1 > < @ > @ O > 1 q j e [ { |  .0.^ 4 h h h h j 5 4 < @ @ 1 h   ",
"  , L <.<.H H 2 o e.e.8.5.q.e.r.y.y.r.t.e.w._ % % 4 5 k l j j j j b 1.1.1.1.b z N N N m ) [ [ [ ..n : > < > < < : @ @ O O : :   ",
"p.  v <.H G C k . ( Y Y I I U ] Y T T ( R P 9 @ O @ @ @ > @ @ > > > 5 5 h h < o & & # # & - - 1 & O   p.p.p.p.p.p.p.p.p.p.p.p.p.",
"p.  @ H G v x F k k r k k r 2 , h k v C C G G K F k F   w E ` ` n o   p.p.p.p.p.p.p.p.O n ` ' ' 9 p.p.p.p.p.p.p.p.p.p.p.p.p.p.p.",
"p.p.+ v x F L x F G F X.X.H k k v L <.<.L L L L X.x x X   X % %   p.p.p.p.p.p.p.p.p.p.p.O @ % % O p.p.p.p.p.p.p.p.p.p.p.p.p.p.p.",
"p.p.p.O < F K v G C X.X.H F k k v H <.<.X.F F C x <     p.p.p.p.p.p.p.p.p.p.p.p.p.p.p.p.p.p.p.p.p.p.p.p.p.p.p.p.p.p.p.p.p.p.p.p.",
"p.p.p.    @ 4 v v F H X.G F k k v H L L G v 2 O     p.p.p.p.p.p.p.p.p.p.p.p.p.p.p.p.p.p.p.p.p.p.p.p.p.p.p.p.p.p.p.p.p.p.p.p.p.p.",
"p.p.p.p.p.    + < v F C C v r r r x x k < +     p.p.p.p.p.p.p.p.p.p.p.p.p.p.p.p.p.p.p.p.p.p.p.p.p.p.p.p.p.p.p.p.p.p.p.p.p.p.p.p.",
"p.p.p.p.p.p.p.      @ , , , , * X O X     p.p.p.p.p.p.p.p.p.p.p.p.p.p.p.p.p.p.p.p.p.p.p.p.p.p.p.p.p.p.p.p.p.p.p.p.p.p.p.p.p.p.p.",
"p.p.p.p.p.p.p.p.p.p.p.p.      p.p.p.p.p.p.p.p.p.p.p.p.p.p.p.p.p.p.p.p.p.p.p.p.p.p.p.p.p.p.p.p.p.p.p.p.p.p.p.p.p.p.p.p.p.p.p.p.p.",
"p.p.p.p.p.p.p.p.p.p.p.p.p.p.p.p.p.p.p.p.p.p.p.p.p.p.p.p.p.p.p.p.p.p.p.p.p.p.p.p.p.p.p.p.p.p.p.p.p.p.p.p.p.p.p.p.p.p.p.p.p.p.p.p.",
"p.p.p.p.p.p.p.p.p.p.p.p.p.p.p.p.p.p.p.p.p.p.p.p.p.p.p.p.p.p.p.p.p.p.p.p.p.p.p.p.p.p.p.p.p.p.p.p.p.p.p.p.p.p.p.p.p.p.p.p.p.p.p.p.",
"p.p.p.p.p.p.p.p.p.p.p.p.p.p.p.p.p.p.p.p.p.p.p.p.p.p.p.p.p.p.p.p.p.p.p.p.p.p.p.p.p.p.p.p.p.p.p.p.p.p.p.p.p.p.p.p.p.p.p.p.p.p.p.p.",
"p.p.p.p.p.p.p.p.p.p.p.p.p.p.p.p.p.p.p.p.p.p.p.p.p.p.p.p.p.p.p.p.p.p.p.p.p.p.p.p.p.p.p.p.p.p.p.p.p.p.p.p.p.p.p.p.p.p.p.p.p.p.p.p.",
"p.p.p.p.p.p.p.p.p.p.p.p.p.p.p.p.p.p.p.p.p.p.p.p.p.p.p.p.p.p.p.p.p.p.p.p.p.p.p.p.p.p.p.p.p.p.p.p.p.p.p.p.p.p.p.p.p.p.p.p.p.p.p.p.",
"p.p.p.p.p.p.p.p.p.p.p.p.p.p.p.p.p.p.p.p.p.p.p.p.p.p.p.p.p.p.p.p.p.p.p.p.p.p.p.p.p.p.p.p.p.p.p.p.p.p.p.p.p.p.p.p.p.p.p.p.p.p.p.p.",
"p.p.p.p.p.p.p.p.p.p.p.p.p.p.p.p.p.p.p.p.p.p.p.p.p.p.p.p.p.p.p.p.p.p.p.p.p.p.p.p.p.p.p.p.p.p.p.p.p.p.p.p.p.p.p.p.p.p.p.p.p.p.p.p.",
"p.p.p.p.p.p.p.p.p.p.p.p.p.p.p.p.p.p.p.p.p.p.p.p.p.p.p.p.p.p.p.p.p.p.p.p.p.p.p.p.p.p.p.p.p.p.p.p.p.p.p.p.p.p.p.p.p.p.p.p.p.p.p.p.",
"p.p.p.p.p.p.p.p.p.p.p.p.p.p.p.p.p.p.p.p.p.p.p.p.p.p.p.p.p.p.p.p.p.p.p.p.p.p.p.p.p.p.p.p.p.p.p.p.p.p.p.p.p.p.p.p.p.p.p.p.p.p.p.p.",
"p.p.p.p.p.p.p.p.p.p.p.p.p.p.p.p.p.p.p.p.p.p.p.p.p.p.p.p.p.p.p.p.p.p.p.p.p.p.p.p.p.p.p.p.p.p.p.p.p.p.p.p.p.p.p.p.p.p.p.p.p.p.p.p.",
"p.p.p.p.p.p.p.p.p.p.p.p.p.p.p.p.p.p.p.p.p.p.p.p.p.p.p.p.p.p.p.p.p.p.p.p.p.p.p.p.p.p.p.p.p.p.p.p.p.p.p.p.p.p.p.p.p.p.p.p.p.p.p.p.",
"p.p.p.p.p.p.p.p.p.p.p.p.p.p.p.p.p.p.p.p.p.p.p.p.p.p.p.p.p.p.p.p.p.p.p.p.p.p.p.p.p.p.p.p.p.p.p.p.p.p.p.p.p.p.p.p.p.p.p.p.p.p.p.p.",
"p.p.p.p.p.p.p.p.p.p.p.p.p.p.p.p.p.p.p.p.p.p.p.p.p.p.p.p.p.p.p.p.p.p.p.p.p.p.p.p.p.p.p.p.p.p.p.p.p.p.p.p.p.p.p.p.p.p.p.p.p.p.p.p."
};
