/* XPM */
static char *result[] = {
/* columns rows colors chars-per-pixel */
"64 64 130 2 ",
"   c #020202",
".  c #090706",
"X  c #070807",
"o  c #0A0907",
"O  c #070708",
"+  c #070908",
"@  c #0C0B0B",
"#  c #100A06",
"$  c #1A0C07",
"%  c #120D0B",
"&  c #1A0E0A",
"*  c #0D100F",
"=  c #14120D",
"-  c #1A140E",
";  c #1C180F",
":  c #0E0E11",
">  c #100F12",
",  c #0F1110",
"<  c #131313",
"1  c #1A1514",
"2  c #151817",
"3  c #1C1A13",
"4  c #161A19",
"5  c #1C1B1B",
"6  c #200F08",
"7  c #23130D",
"8  c #251310",
"9  c #221D15",
"0  c #2E1B13",
"q  c #221D1C",
"w  c #2B1E1B",
"e  c #341D12",
"r  c #1C211E",
"t  c #252116",
"y  c #2A2517",
"u  c #25221B",
"i  c #2A261C",
"p  c #2D291D",
"a  c #32231E",
"s  c #3A241A",
"d  c #312C1E",
"f  c #36301E",
"g  c #38311F",
"h  c #1E1D20",
"j  c #201F21",
"k  c #1E2422",
"l  c #222424",
"z  c #2A2423",
"x  c #222926",
"c  c #2F2925",
"v  c #252D2B",
"b  c #2B2D2E",
"n  c #362522",
"m  c #3C2520",
"M  c #312B25",
"N  c #3B2926",
"B  c #352D2A",
"V  c #392E2C",
"C  c #29312F",
"Z  c #353123",
"A  c #3B3524",
"S  c #3A312E",
"D  c #3E3A2A",
"F  c #2B3532",
"G  c #2E3936",
"H  c #2F3A38",
"J  c #3D3330",
"K  c #303B37",
"L  c #323D3A",
"P  c #41271D",
"I  c #54291B",
"U  c #5B2F1F",
"Y  c #5E311D",
"T  c #61331F",
"R  c #4F2E20",
"E  c #452D2A",
"W  c #453127",
"Q  c #4C3323",
"!  c #443C25",
"~  c #483F26",
"^  c #4D312B",
"/  c #423C2C",
"(  c #5B3524",
")  c #583228",
"_  c #5D3C2C",
"`  c #523632",
"'  c #543833",
"]  c #633524",
"[  c #64352A",
"{  c #703825",
"}  c #7E3F27",
"|  c #763A2A",
" . c #7F3F2E",
".. c #673930",
"X. c #35423E",
"o. c #4B442D",
"O. c #53492E",
"+. c #4B4631",
"@. c #4D4932",
"#. c #544B33",
"$. c #5A4F33",
"%. c #555036",
"&. c #5D5335",
"*. c #5E5539",
"=. c #664330",
"-. c #6C4B37",
";. c #655A3B",
":. c #6A5E3A",
">. c #6C603E",
",. c #71643F",
"<. c #374440",
"1. c #434246",
"2. c #454448",
"3. c #766943",
"4. c #824026",
"5. c #87472B",
"6. c #884728",
"7. c #8E4D2C",
"8. c #8F522E",
"9. c #93532D",
"0. c #884634",
"q. c #894931",
"w. c #8F5335",
"e. c #945332",
"r. c #9C5432",
"t. c #9E5B34",
"y. c #A15C39",
"u. c #885E44",
"i. c #916145",
"p. c None",
/* pixels */
"p.p.p.p.p.p.p.p.p.p.p.p.p.p.p.p.p.p.p.p.p.p.p.p.p.p.p.p.p.p.p.p.p.p.p.p.p.p.p.p.p.    p.p.p.p.p.p.p.p.p.p.p.p.p.p.p.p.p.p.p.p.p.",
"p.p.p.p.p.p.p.p.p.p.p.p.p.p.p.p.p.p.p.p.p.p.p.p.p.p.p.p.p.p.p.p.p.p.p.p.p.p.p.p.  5 : p.p.p.p.p.p.p.p.p.p.p.p.p.p.p.p.p.p.p.p.p.",
"p.p.p.p.p.p.p.p.p.p.p.p.p.p.p.p.p.p.p.p.p.p.p.p.p.p.p.p.p.p.p.p.p.p.p.p.p.p.p.p.  5 : p.p.p.p.p.p.p.p.p.p.p.p.p.p.p.p.p.p.p.p.p.",
"p.p.p.p.p.p.p.p.p.p.p.p.p.p.p.p.p.p.p.p.p.p.p.p.p.p.p.p.p.p.p.p.p.p.p.p.p.p.p.p.  @ O p.p.p.p.p.p.p.p.p.p.p.p.p.p.p.p.p.p.p.p.p.",
"p.p.p.p.p.p.p.p.p.p.p.p.p.p.p.p.p.p.p.p.p.p.p.p.p.p.p.p.p.p.p.p.p.p.p.p.p.p.p.p.  O O p.p.p.p.p.p.p.p.p.p.p.p.p.p.p.p.p.p.p.p.p.",
"p.p.p.p.p.p.p.p.p.p.p.p.p.p.p.p.p.p.p.p.p.p.p.p.p.p.p.p.p.p.p.p.p.p.p.p.p.p.p.p.  < @ p.p.p.p.p.p.p.p.p.p.p.p.p.p.p.p.p.p.p.p.p.",
"p.p.p.p.p.p.p.p.p.p.p.p.p.p.p.p.p.p.p.p.p.p.p.p.p.p.p.p.p.p.p.p.p.p.p.p.p.p.p.p.  5 @ p.p.p.p.p.p.p.p.p.p.p.p.p.p.p.p.p.p.p.p.p.",
"p.p.p.p.p.p.p.p.p.p.p.p.p.p.p.p.p.p.p.p.p.p.p.p.p.p.p.p.p.p.p.p.p.p.p.p.p.p.p.p.X h : p.p.p.p.p.p.p.p.p.p.p.p.p.p.p.p.p.p.p.p.p.",
"p.p.p.p.p.p.p.p.p.p.p.p.p.p.p.p.p.p.p.p.p.p.p.p.p.p.p.p.p.p.p.p.p.p.p.p.p.p.p.p.X l < p.p.p.p.p.p.p.p.p.p.p.p.p.p.p.p.p.p.p.p.p.",
"p.p.p.p.p.p.p.p.p.p.p.p.p.p.p.p.p.p.p.p.p.p.p.p.p.p.p.p.p.p.p.p.p.p.p.p.p.p.p.p.  5 < p.p.p.p.p.p.p.p.p.p.p.p.p.p.p.p.p.p.p.p.p.",
"p.p.p.p.p.p.p.p.p.p.p.p.p.p.p.p.p.p.p.p.p.p.p.p.p.p.p.p.p.p.p.p.p.p.p.p.p.p.p.p.  j > p.p.p.p.p.p.p.p.p.p.p.p.p.p.p.p.p.p.p.p.p.",
"p.p.p.p.p.p.p.p.p.p.p.p.p.p.p.p.p.p.p.p.p.p.p.p.p.p.p.p.p.p.p.p.p.p.p.p.p.p.p.p.  j < p.p.p.p.p.p.p.p.p.p.p.p.p.p.p.p.p.p.p.p.p.",
"p.p.p.p.p.p.p.p.p.p.p.p.p.p.p.p.p.p.p.p.p.p.p.p.p.p.p.p.p.p.p.p.p.p.p.p.p.p.p.p.  h > p.p.p.p.p.p.p.p.p.p.p.p.p.p.p.p.p.p.p.p.p.",
"p.p.p.p.p.p.p.p.p.p.p.p.p.p.p.p.p.p.p.p.p.p.p.p.p.p.p.p.p.p.p.p.p.p.p.p.p.p.p.p.  5 >   p.p.p.p.p.p.p.p.p.p.p.p.p.p.p.p.p.p.p.p.",
"p.p.p.p.p.p.p.p.p.p.p.p.p.p.p.p.p.p.p.p.p.p.p.p.p.p.p.p.p.p.p.p.p.p.p.p.p.p.p.  % ^ n . p.p.p.p.p.p.p.p.p.p.p.p.p.p.p.p.p.p.p.p.",
"p.p.p.p.p.p.p.p.p.p.p.p.p.p.p.p.p.p.p.p.p.p.p.p.p.p.p.p.p.p.p.p.p.p.p.p.p.p.  = 7 0...> w   p.p.p.p.p.p.p.p.p.p.p.p.p.p.p.p.p.p.",
"p.p.p.p.p.p.p.p.p.p.p.p.p.p.p.p.p.p.p.p.p.p.p.p.p.p.p.p.p.p.p.p.p.p.p.p.p.p.  n 7  .[ & ' % p.p.p.p.p.p.p.p.p.p.p.p.p.p.p.p.p.p.",
"p.p.p.p.p.p.p.p.p.p.p.p.p.p.p.p.p.p.p.p.p.p.p.p.p.p.p.p.p.p.p.p.p.p.p.      X N & | [ 1 ' % p.p.p.p.p.p.p.p.p.p.p.p.p.p.p.p.p.p.",
"p.p.p.p.p.p.p.p.p.p.p.p.p.p.p.p.p.p.p.p.p.p.p.p.p.p.p.p.p.p.p.p.p.    X < k + 9 7 { ] 1 ` # p.p.p.p.p.p.p.p.p.p.p.p.p.p.p.p.p.p.",
"p.p.p.p.p.p.p.p.p.p.p.p.p.p.p.p.p.p.p.p.p.p.p.p.p.p.p.p.p.p.p.    X 4 v v F x X & [ ) > n . p.p.p.p.p.p.p.p.p.p.p.p.p.p.p.p.p.p.",
"p.p.p.p.p.p.p.p.p.p.p.p.p.p.p.p.p.p.p.p.p.p.p.p.p.p.p.p.p.    2 r x G L H x H   # e E . O p.p.p.p.p.p.p.p.p.p.p.p.p.p.p.p.p.p.p.",
"p.p.p.p.p.p.p.p.p.p.p.p.p.p.p.p.p.p.p.p.p.p.p.p.p.p.p.p.  * k F L F L X.<.x G : & q m # p.p.p.p.p.p.p.p.p.p.p.p.p.p.p.p.p.p.p.p.",
"p.p.p.p.p.p.p.p.p.p.p.p.p.p.p.p.p.p.p.p.p.p.p.p.p.p.p.  , v H X.X.L X.<.<.v h O 8 5 E % p.p.p.p.p.p.p.p.p.p.p.p.p.p.p.p.p.p.p.p.",
"p.p.p.p.p.p.p.p.p.p.p.p.p.p.p.p.p.p.p.p.p.p.p.p.p.p.  , k F X.X.<.X.X.F k :     8 1 N & p.p.p.p.p.p.p.p.p.p.p.p.p.p.p.p.p.p.p.p.",
"p.p.p.p.p.p.p.p.p.p.p.p.p.p.p.p.p.p.p.p.p.p.p.p.p.  < r k F X.X.X.G x ,     p.p.O > l @ p.p.p.p.p.p.p.p.p.p.p.p.p.p.p.p.p.p.p.p.",
"p.p.p.p.p.p.p.p.p.p.p.p.p.p.p.p.p.p.p.p.p.p.p.p.  @ k k r x C X.C k @   p.p.p.p.O @ b < p.p.p.p.p.p.p.p.p.p.p.p.p.p.p.p.p.p.p.p.",
"p.p.p.p.p.p.p.p.p.p.p.p.p.p.p.p.p.p.p.p.p.p.p.p.  k C C k k k r @     p.p.p.p.p.  @ 1.5 p.p.p.p.p.p.p.p.p.p.p.p.p.p.p.p.p.p.p.p.",
"p.p.p.p.p.p.p.p.p.p.p.p.p.p.p.p.p.p.p.p.p.p.p.  , C H X.G r @     p.p.p.p.p.p.p.O : 2.h p.p.p.p.p.p.p.p.p.p.p.p.p.p.p.p.p.p.p.p.",
"p.p.p.p.p.p.p.p.p.p.p.p.p.p.p.p.p.p.p.p.p.p.p.  k X.X.X.X.F r @   p.p.p.p.p.p.p.. > 1.5 p.p.p.p.p.p.p.p.p.p.p.p.p.p.p.p.p.p.p.p.",
"p.p.p.p.p.p.p.p.p.p.p.p.p.p.p.p.p.p.p.p.p.p.p.  r v C F F C l 2   p.p.p.p.p.p.p.. > 1.5   p.p.p.p.p.p.p.p.p.p.p.p.p.p.p.p.p.p.p.",
"p.p.p.p.p.p.p.p.p.p.p.p.p.p.p.p.p.p.p.p.p.p.    x C F F v C C 2   p.p.p.p.p.p.  . > b < . p.p.p.p.p.p.p.p.p.p.p.p.p.p.p.p.p.p.p.",
"p.p.p.p.p.p.p.p.p.p.p.p.p.p.p.p.p.p.p.p.p.p.  X C G x G v C v <   p.p.p.p.p.p.X @ < l % n   p.p.p.p.p.p.p.p.p.p.p.p.p.p.p.p.p.p.",
"p.p.p.p.p.p.p.p.p.p.p.p.p.p.p.p.p.p.p.p.p.p.  O x F x v v v F x     p.    p.p.% @ > l % ` % p.p.p.p.p.p.p.p.p.p.p.p.p.p.p.p.p.p.",
"p.p.p.p.p.p.p.p.p.p.p.p.p.p.p.p.p.p.p.p.p.p.  @ v F H H L L H k @     - = X     @ < j > ` % p.p.p.p.p.p.p.p.p.p.p.p.p.p.p.p.p.p.",
"p.p.p.p.p.p.p.p.p.p.p.p.p.p.p.p.p.p.p.p.p.p.  x K <.X.X.<.H x @   X @ p i 3     O > h @ E   p.p.p.p.p.p.p.p.p.p.p.p.p.p.p.p.p.p.",
"p.p.p.p.p.p.p.p.p.p.p.p.p.p.p.p.p.p.p.p.p.  O F X.<.<.H F 4 X     X X . 3 u o   O 1 l > w   p.p.p.p.p.p.p.p.p.p.p.p.p.p.p.p.p.p.",
"p.p.p.p.p.p.p.p.p.p.p.p.p.p.p.p.p.p.p.p.p.  , F K L F x <     > c M M j @       X > j @ X +   p.p.p.p.p.p.p.p.p.p.p.p.p.p.p.p.p.",
"p.p.p.p.p.p.p.p.p.p.p.p.p.p.p.p.p.p.p.p.p.  < F G v 2 O     % u M B B z q @     X > 5 @ F x   p.p.p.p.p.p.p.p.p.p.p.p.p.p.p.p.p.",
"p.p.p.p.p.p.p.p.p.p.p.p.p.p.p.p.p.p.p.  p.  , k r @   % 3   5 z B B B M j 1   %   = 2 @ k x 2   p.p.p.p.p.p.p.p.p.p.p.p.p.p.p.p.",
"p.p.p.p.p.p.p.p.p.p.p.p.p.p.p.p.p.  ; =     @ @ X . A 3.p o q V V B B V z 9   q X % % + F X.k   p.p.p.p.p.p.p.p.p.p.p.p.p.p.p.p.",
"p.p.p.p.p.p.p.p.p.p.p.p.p.p.p.p.  i ;.O.;         A ,.3.3 1 q q 5 1 5 1 5 q . 1 @ % > @ H X.C +   p.p.p.p.p.p.p.p.p.p.p.p.p.p.p.",
"p.p.p.p.p.p.p.p.p.p.p.p.p.p.p.  - A o.&.! # # d 3 3 ! o.. @ % 5 z z M z 1 < @ % & ) _ 8 H H C 2   p.p.p.p.p.p.p.p.p.p.p.p.p.p.p.",
"p.p.p.p.p.p.p.p.p.p.p.p.p.p.p.  +.A D o.- - ! %.+.% =     o z B V J S S M 5 @ . 1 w.w.P F H F v O p.p.p.p.p.p.p.p.p.p.p.p.p.p.p.",
"p.p.p.p.p.p.p.p.p.p.p.p.p.p.p.X / M M t @ ! o./ ! %   .   < c B J S S V B 9 #   7 r.e.R C X.X.G 2   p.p.p.p.p.p.p.p.p.p.p.p.p.p.",
"p.p.p.p.p.p.p.p.p.p.p.p.p.p.p.  y y 3 o p D >.*.=   w 1 . q l 5 j j j z q j 5   e t.t.( v X.X.X.k   p.p.p.p.p.p.p.p.p.p.p.p.p.p.",
"p.p.p.p.p.p.p.p.p.p.p.p.p.p.  = y d o ; A +.;.; -   a % o c B z V V B B q n q . e r.r.] v <.X.X.x   p.p.p.p.p.p.p.p.p.p.p.p.p.p.",
"p.p.p.p.p.p.p.p.p.p.p.p.p.p.  ; = * o t D o.= ; i % @ % 9 M V B J J S V M B j a 7 t.y.T k X.H G x O p.p.p.p.p.p.p.p.p.p.p.p.p.p.",
"p.p.p.p.p.p.p.p.p.p.p.p.p.p.  X   X X # r ; r Z i 1   =.w B J V V J S S B B z -.s 9.y.Y r v v v r + p.p.p.p.p.p.p.p.p.p.p.p.p.p.",
"p.p.p.p.p.p.p.p.p.p.p.p.p.    = r r = # o t ! g A u X i.E c V S V B B S B B z u.Q 5.t.Y , k r r r , p.p.p.p.p.p.p.p.p.p.p.p.p.p.",
"p.p.p.p.p.p.p.p.p.p.p.p.p.  = u d p t g y = o.X.A A = s a z B S J c B J B M q _ 7 6.e.( 2 l x k r <   p.p.p.p.p.p.p.p.p.p.p.p.p.",
"p.p.p.p.p.p.p.p.p.p.p.p.p.  . t i p o.$.D o d @.&.;.o.X O q M V V V J V B j 1 . & } q.I r F F F x ,   p.p.p.p.p.p.p.p.p.p.p.p.p.",
"p.p.p.p.p.p.p.p.p.p.p.p.p.p.  - y A %.o.d ; o o.&.;.O.;   q M S J V V V V z =   6 4.5.I k X.K G C ,   p.p.p.p.p.p.p.p.p.p.p.p.p.",
"p.p.p.p.p.p.p.p.p.p.p.p.p.p.  @ Z p t 3 9 3 % t @.+.X.g   - c B S B B B M z @ . 7 6.7.T k <.X.L C , p.p.p.p.p.p.p.p.p.p.p.p.p.p.",
"p.p.p.p.p.p.p.p.p.p.p.p.p.p.p.  - 3 p c t ; y @ Z D f ! -   5 c B l c B z 2   d 6 9.9.T 4 F L X.C @ p.p.p.p.p.p.p.p.p.p.p.p.p.p.",
"p.p.p.p.p.p.p.p.p.p.p.p.p.p.p.  % f z u 3 3 p t @ 3 * - =     - q 5 q 5 @       $ 8.e.( k G v G v   p.p.p.p.p.p.p.p.p.p.p.p.p.p.",
"p.p.p.p.p.p.p.p.p.p.p.p.p.p.p.p.  r 3 3 A Z f t X ; i %.;.>.y . O @ @       . 2 @ $ # . x F G v 2   p.p.p.p.p.p.p.p.p.p.p.p.p.p.",
"p.p.p.p.p.p.p.p.p.p.p.p.p.p.p.p.  X p p / i t % o c @.3.>.:.O.! 9       @ < k G L k 2 k F x v v @   p.p.p.p.p.p.p.p.p.p.p.p.p.p.",
"p.p.p.p.p.p.p.p.p.p.p.p.p.p.p.p.p.  g d 3 p ~ 9 . 3 i Z A A 3 #     X : 4 F X.<.<.L H v x L L 4   p.p.p.p.p.p.p.p.p.p.p.p.p.p.p.",
"p.p.p.p.p.p.p.p.p.p.p.p.p.p.p.p.p.  @ t M $.O.# X . X . . @ =     @ < k F X.<.<.<.X.L G v F F @   p.p.p.p.p.p.p.p.p.p.p.p.p.p.p.",
"p.p.p.p.p.p.p.p.p.p.p.p.p.p.p.p.p.p.  - o.O.t . = = ; t u i d     @ 4 C H <.<.<.<.<.X.L H x <   p.p.p.p.p.p.p.p.p.p.p.p.p.p.p.p.",
"p.p.p.p.p.p.p.p.p.p.p.p.p.p.p.p.p.p.p.  - ; . 3 f t f A A Z *.@     @ 4 G L <.<.<.<.<.<.G v X   p.p.p.p.p.p.p.p.p.p.p.p.p.p.p.p.",
"p.p.p.p.p.p.p.p.p.p.p.p.p.p.p.p.p.p.p.p.      @ = = &.@.A Z ;.* p.p.  X @ k F X.<.<.L v @ X p.p.p.p.p.p.p.p.p.p.p.p.p.p.p.p.p.p.",
"p.p.p.p.p.p.p.p.p.p.p.p.p.p.p.p.p.p.p.p.p.p.p.  p.  t D u 1 .   p.p.p.p.      , 2 4 ,     p.p.p.p.p.p.p.p.p.p.p.p.p.p.p.p.p.p.p.",
"p.p.p.p.p.p.p.p.p.p.p.p.p.p.p.p.p.p.p.p.p.p.p.p.p.p.      p.p.p.p.p.p.p.p.p.p.p.      p.p.p.p.p.p.p.p.p.p.p.p.p.p.p.p.p.p.p.p.p."
};
