/* XPM */
static char *result[] = {
/* columns rows colors chars-per-pixel */
"64 64 130 2 ",
"   c #020202",
".  c #090706",
"X  c #070807",
"o  c #0A0907",
"O  c #070708",
"+  c #070908",
"@  c #0C0B0B",
"#  c #100A06",
"$  c #1A0C07",
"%  c #120D0B",
"&  c #1A0E0A",
"*  c #0D100F",
"=  c #14120D",
"-  c #1A140E",
";  c #1C180F",
":  c #0E0E11",
">  c #100F12",
",  c #0F1110",
"<  c #131313",
"1  c #1A1514",
"2  c #151817",
"3  c #1C1A13",
"4  c #161A19",
"5  c #1C1B1B",
"6  c #200F08",
"7  c #23130D",
"8  c #251310",
"9  c #221D15",
"0  c #2E1B13",
"q  c #221D1C",
"w  c #2B1E1B",
"e  c #341D12",
"r  c #1C211E",
"t  c #252116",
"y  c #2A2517",
"u  c #25221B",
"i  c #2A261C",
"p  c #2D291D",
"a  c #32231E",
"s  c #3A241A",
"d  c #312C1E",
"f  c #36301E",
"g  c #38311F",
"h  c #1E1D20",
"j  c #201F21",
"k  c #1E2422",
"l  c #222424",
"z  c #2A2423",
"x  c #222926",
"c  c #2F2925",
"v  c #252D2B",
"b  c #2B2D2E",
"n  c #362522",
"m  c #3C2520",
"M  c #312B25",
"N  c #3B2926",
"B  c #352D2A",
"V  c #392E2C",
"C  c #29312F",
"Z  c #353123",
"A  c #3B3524",
"S  c #3A312E",
"D  c #3E3A2A",
"F  c #2B3532",
"G  c #2E3936",
"H  c #2F3A38",
"J  c #3D3330",
"K  c #303B37",
"L  c #323D3A",
"P  c #41271D",
"I  c #54291B",
"U  c #5B2F1F",
"Y  c #5E311D",
"T  c #61331F",
"R  c #4F2E20",
"E  c #452D2A",
"W  c #453127",
"Q  c #4C3323",
"!  c #443C25",
"~  c #483F26",
"^  c #4D312B",
"/  c #423C2C",
"(  c #5B3524",
")  c #583228",
"_  c #5D3C2C",
"`  c #523632",
"'  c #543833",
"]  c #633524",
"[  c #64352A",
"{  c #703825",
"}  c #7E3F27",
"|  c #763A2A",
" . c #7F3F2E",
".. c #673930",
"X. c #35423E",
"o. c #4B442D",
"O. c #53492E",
"+. c #4B4631",
"@. c #4D4932",
"#. c #544B33",
"$. c #5A4F33",
"%. c #555036",
"&. c #5D5335",
"*. c #5E5539",
"=. c #664330",
"-. c #6C4B37",
";. c #655A3B",
":. c #6A5E3A",
">. c #6C603E",
",. c #71643F",
"<. c #374440",
"1. c #434246",
"2. c #454448",
"3. c #766943",
"4. c #824026",
"5. c #87472B",
"6. c #884728",
"7. c #8E4D2C",
"8. c #8F522E",
"9. c #93532D",
"0. c #884634",
"q. c #894931",
"w. c #8F5335",
"e. c #945332",
"r. c #9C5432",
"t. c #9E5B34",
"y. c #A15C39",
"u. c #885E44",
"i. c #916145",
"p. c None",
/* pixels */
"p.p.p.p.p.p.p.p.p.p.p.p.p.p.p.p.p.p.p.p.p.      p.p.p.p.p.p.p.p.p.p.p.      p.p.p.p.p.p.p.p.p.p.p.p.p.p.p.p.p.p.p.p.p.p.p.p.p.p.",
"p.p.p.p.p.p.p.p.p.p.p.p.p.p.p.p.p.p.p.    @ 4 4 :       p.p.p.p.  + < y D t   p.  p.p.p.p.p.p.p.p.p.p.p.p.p.p.p.p.p.p.p.p.p.p.p.",
"p.p.p.p.p.p.p.p.p.p.p.p.p.p.p.p.p.p.+ @ v L <.<.X.G k @     p.p.% ;.M A #.&.= = #       p.p.p.p.p.p.p.p.p.p.p.p.p.p.p.p.p.p.p.p.",
"p.p.p.p.p.p.p.p.p.p.p.p.p.p.p.p.  X v H <.<.<.<.X.X.X.F k @     @ ;.Z A A f 9 f 3 . ; -   p.p.p.p.p.p.p.p.p.p.p.p.p.p.p.p.p.p.p.",
"p.p.p.p.p.p.p.p.p.p.p.p.p.p.p.p.  2 x G L X.<.<.X.<.<.K v 5 @   X d y u u = = = . t O.~ -   p.p.p.p.p.p.p.p.p.p.p.p.p.p.p.p.p.p.",
"p.p.p.p.p.p.p.p.p.p.p.p.p.p.p.  @ F F v G L X.<.<.<.X.F k 4 +     = @ . X X o   # O.$.f t @   p.p.p.p.p.p.p.p.p.p.p.p.p.p.p.p.p.",
"p.p.p.p.p.p.p.p.p.p.p.p.p.p.p.  4 K L x v G X.<.<.X.F r @ O     o 3 A A Z i t X 9 o.p 1 g f   p.p.p.p.p.p.p.p.p.p.p.p.p.p.p.p.p.",
"p.p.p.p.p.p.p.p.p.p.p.p.p.p.  + v v x F k 4 k H G k , +       3 A O.;.3.3.@.p + * u y / p p o   p.p.p.p.p.p.p.p.p.p.p.p.p.p.p.p.",
"p.p.p.p.p.p.p.p.p.p.p.p.p.p.  < v G C k + # $ o 1 .       @ @ .   y :.;.#.i = X t Z M A 3 2 r   p.p.p.p.p.p.p.p.p.p.p.p.p.p.p.p.",
"p.p.p.p.p.p.p.p.p.p.p.p.p.p.  v G v H k ( e.9.$       > 5 q q j 1 X   % ; = 3 * t p 1 3 y p f #   p.p.p.p.p.p.p.p.p.p.p.p.p.p.p.",
"p.p.p.p.p.p.p.p.p.p.p.p.p.p.@ F X.X.C r T e.9.$ p   1 z c c j B M 5 X - ! Z D M @ y 3 t d p r ,   p.p.p.p.p.p.p.p.p.p.p.p.p.p.p.",
"p.p.p.p.p.p.p.p.p.p.p.p.p.p., C H X.<.k Y 7.7.7 o @ j B B V B S B c 1   g D o.+.t = 3 3 3 t p Z o   p.p.p.p.p.p.p.p.p.p.p.p.p.p.",
"p.p.p.p.p.p.p.p.p.p.p.p.p.  * C G H X.k I 7.4.6   < z V V V S S V B q   9 O.;.;.+.o ; d ! %.A i ;   p.p.p.p.p.p.p.p.p.p.p.p.p.p.",
"p.p.p.p.p.p.p.p.p.p.p.p.p.  < x F G F k I 7.=.& . 1 q M S S V S V M 5 + @ ! ;.&.+.p o ! $.O.p y 3 o   p.p.p.p.p.p.p.p.p.p.p.p.p.",
"p.p.p.p.p.p.p.p.p.p.p.p.p.  , r l k k 1 Y r.5.7 _ q M B S B c B V B z a s = A D o.+.< y g t p M y =   p.p.p.p.p.p.p.p.p.p.p.p.p.",
"p.p.p.p.p.p.p.p.p.p.p.p.p.p., r 5 k k > T r.5.Q u.z B V S S B S S S z E i.X u Z Z D r o @ - t 3 =     p.p.p.p.p.p.p.p.p.p.p.p.p.",
"p.p.p.p.p.p.p.p.p.p.p.p.p.p.X r v C v 4 Y t.9.s -.z B B V J J J V J M z =.  3 i d t ; t =   .       p.p.p.p.p.p.p.p.p.p.p.p.p.p.",
"p.p.p.p.p.p.p.p.p.p.p.p.p.p.X l G H X.k ] y.t.8 s j B c V S V J B V M 8 % . = y ; = o.X.y . % < <   p.p.p.p.p.p.p.p.p.p.p.p.p.p.",
"p.p.p.p.p.p.p.p.p.p.p.p.p.p.X x L X.<.v T r.r.y . q n j M V E B z B c @ % a   ; - ;.o.A 1 o y p -   p.p.p.p.p.p.p.p.p.p.p.p.p.p.",
"p.p.p.p.p.p.p.p.p.p.p.p.p.p.  k X.X.<.v ( t.t.e   5 j q j j z j 9 l q X 1 w   @ *.>.D p o 3 y y   p.p.p.p.p.p.p.p.p.p.p.p.p.p.p.",
"p.p.p.p.p.p.p.p.p.p.p.p.p.p.  < G <.X.F I e.t.9   % q c S S S J B M 1   .   = o.D o.! # t d Z /   p.p.p.p.p.p.p.p.p.p.p.p.p.p.p.",
"p.p.p.p.p.p.p.p.p.p.p.p.p.p.p.+ v F H F s w.w.- . . 5 M S J J J B j @     * @ o.%.D ; ; o.A A @.X p.p.p.p.p.p.p.p.p.p.p.p.p.p.p.",
"p.p.p.p.p.p.p.p.p.p.p.p.p.p.p.  2 C L H 0 _ ( % @ @ 1 5 z c z z 9 > @ . O.o.3 ; f @ o o.&.o.A -   p.p.p.p.p.p.p.p.p.p.p.p.p.p.p.",
"p.p.p.p.p.p.p.p.p.p.p.p.p.p.p.  + C L H O % % @ 1 . q 5 1 < 1 2 q q < ; ,.,.A         ; O.;.u   p.p.p.p.p.p.p.p.p.p.p.p.p.p.p.p.",
"p.p.p.p.p.p.p.p.p.p.p.p.p.p.p.p.  x <.F @ % @ . q   q j S B B S V q @ y 3.A .   , +     = ;   p.p.p.p.p.p.p.p.p.p.p.p.p.p.p.p.p.",
"p.p.p.p.p.p.p.p.p.p.p.p.p.p.p.p.  , x k @ 1 >   %   8 j c B S B z 5   3 =   @ r k ,   p.  p.p.p.p.p.p.p.p.p.p.p.p.p.p.p.p.p.p.p.",
"p.p.p.p.p.p.p.p.p.p.p.p.p.p.p.p.p.  x F @ 5 >     . @ q z M M M q >     O 3 v F F <   p.p.p.p.p.p.p.p.p.p.p.p.p.p.p.p.p.p.p.p.p.",
"p.p.p.p.p.p.p.p.p.p.p.p.p.p.p.p.p.  +   : j > O       @ z c B z >     < k C X.L F :   p.p.p.p.p.p.p.p.p.p.p.p.p.p.p.p.p.p.p.p.p.",
"p.p.p.p.p.p.p.p.p.p.p.p.p.p.p.p.p.p.  w @ l < @   o u 3 o X + X   O 4 C L <.<.X.F O   p.p.p.p.p.p.p.p.p.p.p.p.p.p.p.p.p.p.p.p.p.",
"p.p.p.p.p.p.p.p.p.p.p.p.p.p.p.p.p.p.O E : h > O   X 1 i p @ X   @ k H <.<.X.X.L x   p.p.p.p.p.p.p.p.p.p.p.p.p.p.p.p.p.p.p.p.p.p.",
"p.p.p.p.p.p.p.p.p.p.p.p.p.p.p.p.p.p.% ` : j > @       = 1     o k L L L K F F x +   p.p.p.p.p.p.p.p.p.p.p.p.p.p.p.p.p.p.p.p.p.p.",
"p.p.p.p.p.p.p.p.p.p.p.p.p.p.p.p.p.p.% ` % l 1 @ % p.p.    p.    k F C v C x F v X   p.p.p.p.p.p.p.p.p.p.p.p.p.p.p.p.p.p.p.p.p.p.",
"p.p.p.p.p.p.p.p.p.p.p.p.p.p.p.p.p.p.  n > j 1 . . p.p.p.p.p.p.  < v C v H x H v X   p.p.p.p.p.p.p.p.p.p.p.p.p.p.p.p.p.p.p.p.p.p.",
"p.p.p.p.p.p.p.p.p.p.p.p.p.p.p.p.p.p.p.. 1 b <     p.p.p.p.p.p.  2 C C C F F F x X   p.p.p.p.p.p.p.p.p.p.p.p.p.p.p.p.p.p.p.p.p.p.",
"p.p.p.p.p.p.p.p.p.p.p.p.p.p.p.p.p.p.p.  5 1.< X p.p.p.p.p.p.p.  < k F F F F v k   p.p.p.p.p.p.p.p.p.p.p.p.p.p.p.p.p.p.p.p.p.p.p.",
"p.p.p.p.p.p.p.p.p.p.p.p.p.p.p.p.p.p.p.p.5 1.> O p.p.p.p.p.p.p.  , k F H L <.K k   p.p.p.p.p.p.p.p.p.p.p.p.p.p.p.p.p.p.p.p.p.p.p.",
"p.p.p.p.p.p.p.p.p.p.p.p.p.p.p.p.p.p.p.p.h 2.> O p.p.p.p.p.p.p.    + r G L H F ,   p.p.p.p.p.p.p.p.p.p.p.p.p.p.p.p.p.p.p.p.p.p.p.",
"p.p.p.p.p.p.p.p.p.p.p.p.p.p.p.p.p.p.p.p.h 2.@   p.p.p.p.p.    @ r x r x F F k   p.p.p.p.p.p.p.p.p.p.p.p.p.p.p.p.p.p.p.p.p.p.p.p.",
"p.p.p.p.p.p.p.p.p.p.p.p.p.p.p.p.p.p.p.p.< b @ . p.p.p.p.  @ k C L C x r k k o   p.p.p.p.p.p.p.p.p.p.p.p.p.p.p.p.p.p.p.p.p.p.p.p.",
"p.p.p.p.p.p.p.p.p.p.p.p.p.p.p.p.p.p.p.p.. l > + p.p.    , x G X.<.L C x r <   p.p.p.p.p.p.p.p.p.p.p.p.p.p.p.p.p.p.p.p.p.p.p.p.p.",
"p.p.p.p.p.p.p.p.p.p.p.p.p.p.p.p.p.p.p.p.& N 1 8     * k F X.X.<.X.X.F x , X p.p.p.p.p.p.p.p.p.p.p.p.p.p.p.p.p.p.p.p.p.p.p.p.p.p.",
"p.p.p.p.p.p.p.p.p.p.p.p.p.p.p.p.p.p.p.p.% E q 6 + k v X.X.X.L X.X.L v ,   p.p.p.p.p.p.p.p.p.p.p.p.p.p.p.p.p.p.p.p.p.p.p.p.p.p.p.",
"p.p.p.p.p.p.p.p.p.p.p.p.p.p.p.p.p.p.p.p.% n 5 & , G l <.X.H F L F x @   p.p.p.p.p.p.p.p.p.p.p.p.p.p.p.p.p.p.p.p.p.p.p.p.p.p.p.p.",
"p.p.p.p.p.p.p.p.p.p.p.p.p.p.p.p.p.p.p.X # E e %   H x K X.G x k ,     p.p.p.p.p.p.p.p.p.p.p.p.p.p.p.p.p.p.p.p.p.p.p.p.p.p.p.p.p.",
"p.p.p.p.p.p.p.p.p.p.p.p.p.p.p.p.p.p.. n & ) [ &   x F v v 4 X     p.p.p.p.p.p.p.p.p.p.p.p.p.p.p.p.p.p.p.p.p.p.p.p.p.p.p.p.p.p.p.",
"p.p.p.p.p.p.p.p.p.p.p.p.p.p.p.p.p.p.# ` & [ { & 9 + l < X     p.p.p.p.p.p.p.p.p.p.p.p.p.p.p.p.p.p.p.p.p.p.p.p.p.p.p.p.p.p.p.p.p.",
"p.p.p.p.p.p.p.p.p.p.p.p.p.p.p.p.p.p.% ' 1 [ | & N X       p.p.p.p.p.p.p.p.p.p.p.p.p.p.p.p.p.p.p.p.p.p.p.p.p.p.p.p.p.p.p.p.p.p.p.",
"p.p.p.p.p.p.p.p.p.p.p.p.p.p.p.p.p.p.> ` & [  .8 n   p.p.p.p.p.p.p.p.p.p.p.p.p.p.p.p.p.p.p.p.p.p.p.p.p.p.p.p.p.p.p.p.p.p.p.p.p.p.",
"p.p.p.p.p.p.p.p.p.p.p.p.p.p.p.p.p.p.O q & ..0.8 >   p.p.p.p.p.p.p.p.p.p.p.p.p.p.p.p.p.p.p.p.p.p.p.p.p.p.p.p.p.p.p.p.p.p.p.p.p.p.",
"p.p.p.p.p.p.p.p.p.p.p.p.p.p.p.p.p.p.p.p.O n ^ %   p.p.p.p.p.p.p.p.p.p.p.p.p.p.p.p.p.p.p.p.p.p.p.p.p.p.p.p.p.p.p.p.p.p.p.p.p.p.p.",
"p.p.p.p.p.p.p.p.p.p.p.p.p.p.p.p.p.p.p.p.  > 1   p.p.p.p.p.p.p.p.p.p.p.p.p.p.p.p.p.p.p.p.p.p.p.p.p.p.p.p.p.p.p.p.p.p.p.p.p.p.p.p.",
"p.p.p.p.p.p.p.p.p.p.p.p.p.p.p.p.p.p.p.p.p.> h   p.p.p.p.p.p.p.p.p.p.p.p.p.p.p.p.p.p.p.p.p.p.p.p.p.p.p.p.p.p.p.p.p.p.p.p.p.p.p.p.",
"p.p.p.p.p.p.p.p.p.p.p.p.p.p.p.p.p.p.p.p.p.< h   p.p.p.p.p.p.p.p.p.p.p.p.p.p.p.p.p.p.p.p.p.p.p.p.p.p.p.p.p.p.p.p.p.p.p.p.p.p.p.p.",
"p.p.p.p.p.p.p.p.p.p.p.p.p.p.p.p.p.p.p.p.p.> h   p.p.p.p.p.p.p.p.p.p.p.p.p.p.p.p.p.p.p.p.p.p.p.p.p.p.p.p.p.p.p.p.p.p.p.p.p.p.p.p.",
"p.p.p.p.p.p.p.p.p.p.p.p.p.p.p.p.p.p.p.p.p.< h O p.p.p.p.p.p.p.p.p.p.p.p.p.p.p.p.p.p.p.p.p.p.p.p.p.p.p.p.p.p.p.p.p.p.p.p.p.p.p.p.",
"p.p.p.p.p.p.p.p.p.p.p.p.p.p.p.p.p.p.p.p.p.< j O p.p.p.p.p.p.p.p.p.p.p.p.p.p.p.p.p.p.p.p.p.p.p.p.p.p.p.p.p.p.p.p.p.p.p.p.p.p.p.p.",
"p.p.p.p.p.p.p.p.p.p.p.p.p.p.p.p.p.p.p.p.p.: h   p.p.p.p.p.p.p.p.p.p.p.p.p.p.p.p.p.p.p.p.p.p.p.p.p.p.p.p.p.p.p.p.p.p.p.p.p.p.p.p.",
"p.p.p.p.p.p.p.p.p.p.p.p.p.p.p.p.p.p.p.p.p.@ 5   p.p.p.p.p.p.p.p.p.p.p.p.p.p.p.p.p.p.p.p.p.p.p.p.p.p.p.p.p.p.p.p.p.p.p.p.p.p.p.p.",
"p.p.p.p.p.p.p.p.p.p.p.p.p.p.p.p.p.p.p.p.p.@ <   p.p.p.p.p.p.p.p.p.p.p.p.p.p.p.p.p.p.p.p.p.p.p.p.p.p.p.p.p.p.p.p.p.p.p.p.p.p.p.p.",
"p.p.p.p.p.p.p.p.p.p.p.p.p.p.p.p.p.p.p.p.p.O @   p.p.p.p.p.p.p.p.p.p.p.p.p.p.p.p.p.p.p.p.p.p.p.p.p.p.p.p.p.p.p.p.p.p.p.p.p.p.p.p.",
"p.p.p.p.p.p.p.p.p.p.p.p.p.p.p.p.p.p.p.p.p.O +   p.p.p.p.p.p.p.p.p.p.p.p.p.p.p.p.p.p.p.p.p.p.p.p.p.p.p.p.p.p.p.p.p.p.p.p.p.p.p.p.",
"p.p.p.p.p.p.p.p.p.p.p.p.p.p.p.p.p.p.p.p.p.: 1   p.p.p.p.p.p.p.p.p.p.p.p.p.p.p.p.p.p.p.p.p.p.p.p.p.p.p.p.p.p.p.p.p.p.p.p.p.p.p.p.",
"p.p.p.p.p.p.p.p.p.p.p.p.p.p.p.p.p.p.p.p.p.: 5 X p.p.p.p.p.p.p.p.p.p.p.p.p.p.p.p.p.p.p.p.p.p.p.p.p.p.p.p.p.p.p.p.p.p.p.p.p.p.p.p.",
"p.p.p.p.p.p.p.p.p.p.p.p.p.p.p.p.p.p.p.p.p.    p.p.p.p.p.p.p.p.p.p.p.p.p.p.p.p.p.p.p.p.p.p.p.p.p.p.p.p.p.p.p.p.p.p.p.p.p.p.p.p.p."
};
