/* XPM */
static char *result[] = {
/* columns rows colors chars-per-pixel */
"64 64 130 2 ",
"   c #020202",
".  c #090706",
"X  c #070807",
"o  c #0A0907",
"O  c #070708",
"+  c #070908",
"@  c #0C0B0B",
"#  c #100A06",
"$  c #1A0C07",
"%  c #120D0B",
"&  c #1A0E0A",
"*  c #0D100F",
"=  c #14120D",
"-  c #1A140E",
";  c #1C180F",
":  c #0E0E11",
">  c #100F12",
",  c #0F1110",
"<  c #131313",
"1  c #1A1514",
"2  c #151817",
"3  c #1C1A13",
"4  c #161A19",
"5  c #1C1B1B",
"6  c #200F08",
"7  c #23130D",
"8  c #251310",
"9  c #221D15",
"0  c #2E1B13",
"q  c #221D1C",
"w  c #2B1E1B",
"e  c #341D12",
"r  c #1C211E",
"t  c #252116",
"y  c #2A2517",
"u  c #25221B",
"i  c #2A261C",
"p  c #2D291D",
"a  c #32231E",
"s  c #3A241A",
"d  c #312C1E",
"f  c #36301E",
"g  c #38311F",
"h  c #1E1D20",
"j  c #201F21",
"k  c #1E2422",
"l  c #222424",
"z  c #2A2423",
"x  c #222926",
"c  c #2F2925",
"v  c #252D2B",
"b  c #2B2D2E",
"n  c #362522",
"m  c #3C2520",
"M  c #312B25",
"N  c #3B2926",
"B  c #352D2A",
"V  c #392E2C",
"C  c #29312F",
"Z  c #353123",
"A  c #3B3524",
"S  c #3A312E",
"D  c #3E3A2A",
"F  c #2B3532",
"G  c #2E3936",
"H  c #2F3A38",
"J  c #3D3330",
"K  c #303B37",
"L  c #323D3A",
"P  c #41271D",
"I  c #54291B",
"U  c #5B2F1F",
"Y  c #5E311D",
"T  c #61331F",
"R  c #4F2E20",
"E  c #452D2A",
"W  c #453127",
"Q  c #4C3323",
"!  c #443C25",
"~  c #483F26",
"^  c #4D312B",
"/  c #423C2C",
"(  c #5B3524",
")  c #583228",
"_  c #5D3C2C",
"`  c #523632",
"'  c #543833",
"]  c #633524",
"[  c #64352A",
"{  c #703825",
"}  c #7E3F27",
"|  c #763A2A",
" . c #7F3F2E",
".. c #673930",
"X. c #35423E",
"o. c #4B442D",
"O. c #53492E",
"+. c #4B4631",
"@. c #4D4932",
"#. c #544B33",
"$. c #5A4F33",
"%. c #555036",
"&. c #5D5335",
"*. c #5E5539",
"=. c #664330",
"-. c #6C4B37",
";. c #655A3B",
":. c #6A5E3A",
">. c #6C603E",
",. c #71643F",
"<. c #374440",
"1. c #434246",
"2. c #454448",
"3. c #766943",
"4. c #824026",
"5. c #87472B",
"6. c #884728",
"7. c #8E4D2C",
"8. c #8F522E",
"9. c #93532D",
"0. c #884634",
"q. c #894931",
"w. c #8F5335",
"e. c #945332",
"r. c #9C5432",
"t. c #9E5B34",
"y. c #A15C39",
"u. c #885E44",
"i. c #916145",
"p. c None",
/* pixels */
"p.p.p.p.p.p.p.p.p.p.p.p.p.p.p.p.p.p.p.p.p.p.p.p.p.p.p.p.p.p.p.p.p.p.p.p.p.p.p.p.p.p.p.p.p.p.p.p.p.p.p.p.p.p.p.p.p.p.p.p.p.p.p.p.",
"p.p.p.p.p.p.p.p.p.p.p.p.p.p.p.p.p.p.p.p.p.p.p.p.p.p.p.p.p.p.p.p.p.p.p.p.p.p.p.p.p.p.p.p.p.p.p.p.p.p.p.p.p.p.p.p.p.p.p.p.p.p.p.p.",
"p.p.p.p.p.p.p.p.p.p.p.p.p.p.p.p.p.p.p.p.p.p.p.p.p.p.p.p.p.p.p.p.p.p.p.p.p.p.p.p.p.p.p.p.p.p.p.p.p.p.p.p.p.p.p.p.p.p.p.p.p.p.p.p.",
"p.p.p.p.p.p.p.p.p.p.p.p.p.p.p.p.p.p.p.p.p.p.p.p.p.p.p.p.p.p.p.p.p.p.p.p.p.p.p.p.p.p.p.p.p.p.p.p.p.p.p.p.p.p.p.p.p.p.p.p.p.p.p.p.",
"p.p.p.p.p.p.p.p.p.p.p.p.p.p.p.p.p.p.p.p.p.p.p.p.p.p.p.p.p.p.p.p.p.p.p.p.p.p.p.p.p.p.p.p.p.p.p.p.p.p.p.p.p.p.p.p.p.p.p.p.p.p.p.p.",
"p.p.p.p.p.p.p.p.p.p.p.p.p.p.p.p.p.p.p.p.p.p.p.p.p.p.p.p.p.p.p.p.p.p.p.p.p.p.p.p.p.p.p.p.p.p.p.p.p.p.p.p.p.p.p.p.p.p.p.p.p.p.p.p.",
"p.p.p.p.p.p.p.p.p.p.p.p.p.p.p.p.p.p.p.p.p.p.p.p.p.p.p.p.p.p.p.p.p.p.p.p.p.p.p.p.p.p.p.p.p.p.p.p.p.p.p.p.p.p.p.p.p.p.p.p.p.p.p.p.",
"p.p.p.p.p.p.p.p.p.p.p.p.p.p.p.p.p.p.p.p.p.p.p.p.p.p.p.p.p.p.p.p.p.p.p.p.p.p.p.p.p.p.p.p.p.p.p.p.p.p.p.p.p.p.p.p.p.p.p.p.p.p.p.p.",
"p.p.p.p.p.p.p.p.p.p.p.p.p.p.p.p.p.p.p.p.p.p.p.p.p.p.p.p.p.p.p.p.p.p.p.p.p.p.p.p.p.p.p.p.p.p.p.p.p.p.p.p.p.p.p.p.p.p.p.p.p.p.p.p.",
"p.p.p.p.p.p.p.p.p.p.p.p.p.p.p.p.p.p.p.p.p.p.p.p.p.p.p.p.p.p.p.p.p.p.p.p.p.p.p.p.p.p.p.p.p.p.p.p.p.p.p.p.p.p.p.p.p.p.p.p.p.p.p.p.",
"p.p.p.p.p.p.p.p.p.p.p.p.p.p.p.p.p.p.p.p.p.p.p.p.p.p.p.p.p.p.p.p.p.p.p.p.p.p.p.p.p.p.p.p.p.p.p.p.p.p.p.p.p.p.p.p.p.p.p.p.p.p.p.p.",
"p.p.p.p.p.p.p.p.p.p.p.p.p.p.p.p.p.p.p.p.p.p.p.p.p.p.p.p.p.p.p.p.p.p.p.p.p.p.p.p.p.p.p.p.p.p.p.p.p.p.p.p.p.p.p.p.p.p.p.p.p.p.p.p.",
"p.p.p.p.p.p.p.p.p.p.p.p.p.p.p.p.p.p.p.p.p.p.p.p.p.p.p.p.p.p.p.p.p.p.p.p.p.p.p.p.p.p.p.p.p.p.p.p.p.p.p.p.p.p.p.p.p.p.p.p.p.p.p.p.",
"p.p.p.p.p.p.p.p.p.p.p.p.p.p.p.p.p.p.p.p.p.p.p.p.p.p.p.p.p.p.p.p.p.p.p.p.p.p.p.p.p.p.p.p.p.p.p.p.p.      p.p.p.p.p.p.p.p.p.p.p.p.",
"p.p.p.p.p.p.p.p.p.p.p.p.p.p.p.p.p.p.p.p.p.p.p.p.p.p.p.p.p.p.p.p.p.p.p.p.p.p.p.p.p.p.p.      +   * < , , , @       p.p.p.p.p.p.p.",
"p.p.p.p.p.p.p.p.p.p.p.p.p.p.p.p.p.p.p.p.p.p.p.p.p.p.p.p.p.p.p.p.p.p.p.p.p.p.p.p.    @ < k x x k r r x C C C v < @     p.p.p.p.p.",
"p.p.p.p.p.p.p.p.p.p.p.p.p.p.p.p.p.p.p.p.p.p.p.p.p.p.p.p.p.p.p.p.p.p.p.p.p.p.    @ 2 v G L X.F v r k F G H X.F v v 4 @     p.p.p.",
"p.p.p.p.p.p.p.p.p.p.p.p.p.p.p.p.p.p.p.p.p.p.p.p.p.p.p.p.p.p.p.p.p.p.p.p.    < x v C F X.X.X.L C r x C X.<.L C G v G b 2   p.p.p.",
"p.p.p.p.p.p.p.p.p.p.p.p.p.p.p.. % % % . p.p.p.p.p.p.p.p.p.p.p.  % % O   + x x X.X.H L X.<.<.L v r k F X.<.F K b x L F x v + p.p.",
"p.p.p.p.p.p.p.p.p.p.p.p.p.p.p.q ` ` ` n   p.p.p.p.p.p.p.p.  @ a ` ` E w   F k F H G F C C v x 4 2 2 r k k 5 k x F x v G H @   p.",
"p.p.p.p.p.p.p.p.p.p.p.p.p.  . = 1 & & > % % $ & @ > h h 5 5 < % @ > @ > @ : @ o @ 8 s R ( ( T Y Y Y I I T T ( . k v G H <.v   p.",
"  : : O O @ @ : < > < > > > n ..[ [ [ ) s N N N j b 1.2.1.1.b l l j j j j 5 2 % = _ w.e.t.r.y.t.t.e.7.6.7.r.e.# 4 H H <.<.L ,   ",
"  5 2 @ @ < 5 h j j j j 5 5 ^ 0. .| | [ e 5 5 1 > @ @ > > > > < < > > 1 < > % % % _ w.t.t.r.y.9.6.6.=.4.6.9.9.& k X.X.<.<.<.4   ",
"p.O             O           % 8 8 8 & & & & 8 8 o o O   O o O o @ @ @ o o     . @ % 1 8 e e 7 s Q ; 6 6 6 6 $ @ H <.<.<.<.<.4   ",
"p.p.p.p.p.p.p.p.p.p.p.p.p.p.  % n N q     , @   p.p.p.p.p.p.  . : .         % 9 1 : .     o a -.u._ .   o d   < F <.<.<.<.L : p.",
"p.p.p.p.p.p.p.p.p.p.p.p.p.p.p.      @ x L F r   p.p.p.p.p.p.p.p.p.    @         o @ . % 1 j q l z q 1 < @     . k X.<.<.<.G   p.",
"p.p.p.p.p.p.p.p.p.p.p.p.p.p.p.p.p.  k F x x v *   p.p.p.p.p.p.p.p.  3 t   @ 1 5 q 1 1 q j N B V B M q z z <     < F X.<.X.k   p.",
"p.p.p.p.p.p.p.p.p.p.p.p.p.p.p.p.p.  < v L X.X.k   p.p.p.p.p.p.p.  = i 5 % q j z 5 1 B c q q c B V B B V M z >   + k F H F @   p.",
"p.p.p.p.p.p.p.p.p.p.p.p.p.p.p.p.p.  X v X.X.X.F *   p.p.p.p.p.p.  1 i @ w z M V 2 z J S j b B S V J V V V c 5     @ k C k   p.p.",
"p.p.p.p.p.p.p.p.p.p.p.p.p.p.p.p.p.p.  4 G L X.X.x @   p.p.p.p.p.p.  @ O M M B V 1 c J S j S J S V V S V B c q @   O < 5 @   p.p.",
"p.p.p.p.p.p.p.p.p.p.p.p.p.p.p.p.p.p.  X x F L <.G k   p.p.p.p.p.    + + c B B V 1 n J S j E S S B z B S B z 5 @     + @   p.p.p.",
"p.p.p.p.p.p.p.p.p.p.p.p.p.p.p.p.p.p.p.  r L X.X.X.C @             @     z B b V 2 z S J q V J S J S S S S B q + 3         p.p.p.",
"p.p.p.p.p.p.p.p.p.p.p.p.p.p.p.p.p.p.p.  , F X.X.X.X.5   @ 2 < < k x *   % q z V q 5 B B 9 z B S S S V S B c 1   D o     # @   p.",
"p.p.p.p.p.p.p.p.p.p.p.p.p.p.p.p.p.p.p.p.X x H X.H F k @ k x v v F L k +   < 5 u q = z z j B S S S B c B c 5   y O.3 = M ;.;.o p.",
"p.p.p.p.p.p.p.p.p.p.p.p.p.p.p.p.p.p.p.p.  @ v F F x k r F F F C v X.G 4       @ 1 @ @ 1 q c M c c j 5 q 1     3.:.A @ y Z Z 1 p.",
"p.p.p.p.p.p.p.p.p.p.p.p.p.p.p.p.p.p.p.p.p.  , x k k k G L F v v v L X.C ,   3 y ;       . % 1 n E n .     - @ :.,.A o u A A u   ",
"p.p.p.p.p.p.p.p.p.p.p.p.p.p.p.p.p.p.p.p.p.p.  < r r C X.X.F F G v H X.L k O = 3.,.o.  o - @ = =.i.s @ 9 f ! ; #.3.Z . r A #.D   ",
"p.p.p.p.p.p.p.p.p.p.p.p.p.p.p.p.p.p.p.p.p.p.p.  2 k C H X.C F x x G X.X.G 4   A >.o.=   w a .   o = ! O.! Z = i o.y . ; Z %.9   ",
"p.p.p.p.p.p.p.p.p.p.p.p.p.p.p.p.p.p.p.p.p.p.p.p.  * k F K C F G F F X.<.L v @ X A 9 = o   . * ; u A ;.;.o.D 2 = p t @ = t =   p.",
"p.p.p.p.p.p.p.p.p.p.p.p.p.p.p.p.p.p.p.p.p.p.p.p.p.    * k k x C x v L X.H G r     3 o./ = - i p Z D *.*.+.Z @ o @ +   = f = p.p.",
"p.p.p.p.p.p.p.p.p.p.p.p.p.p.p.p.p.p.p.p.p.p.p.p.p.p.p.            @ x F F F k @   d &.D &.; 3 d g X.o.o.t o y 5 % 9 = . 3 o   p.",
"p.p.p.p.p.p.p.p.p.p.p.p.p.p.p.p.p.p.p.p.p.p.p.p.p.p.p.p.p.p.          O , < , @   @ ! o.>.>.* t ! +.d o = y p Z t ! O.t .   p.p.",
"p.p.p.p.p.p.p.p.p.p.p.p.p.p.p.p.p.p.p.p.p.p.p.p.p.p.p.p.p.p.p.p.p.p.p.            o - ! g O.+.; t ; . ; ; 3 ; Z i p $.O.;   p.p.",
"p.p.p.p.p.p.p.p.p.p.p.p.p.p.p.p.p.p.p.p.p.p.p.p.p.p.p.p.p.p.p.p.p.p.p.p.p.p.p.  9 ! ; @ p g X.t o t ! d 5 t ; A D 3 f ! -   p.p.",
"p.p.p.p.p.p.p.p.p.p.p.p.p.p.p.p.p.p.p.p.p.p.p.p.p.p.p.p.p.p.p.p.p.p.p.p.p.p.  = O.$.o.9 o ; t * @ A $.o.3 c i r p f y =   p.p.p.",
"p.p.p.p.p.p.p.p.p.p.p.p.p.p.p.p.p.p.p.p.p.p.p.p.p.p.p.p.p.p.p.p.p.p.p.p.p.p.p.3 ;.o.D d 9 o . . = t o.#.u i i 1 d g o   p.p.p.p.",
"p.p.p.p.p.p.p.p.p.p.p.p.p.p.p.p.p.p.p.p.p.p.p.p.p.p.p.p.p.p.p.p.p.p.p.p.p.p.p.  t A A M y p # . r p p A p 9 f 3 o     p.p.p.p.p.",
"p.p.p.p.p.p.p.p.p.p.p.p.p.p.p.p.p.p.p.p.p.p.p.p.p.p.p.p.p.p.p.p.p.p.p.p.p.p.p.p.  - @./ y p =   r d i y Z = %     p.p.p.p.p.p.p.",
"p.p.p.p.p.p.p.p.p.p.p.p.p.p.p.p.p.p.p.p.p.p.p.p.p.p.p.p.p.p.p.p.p.p.p.p.p.p.p.p.p.  o     = 1   = y 3 = @     p.p.p.p.p.p.p.p.p.",
"p.p.p.p.p.p.p.p.p.p.p.p.p.p.p.p.p.p.p.p.p.p.p.p.p.p.p.p.p.p.p.p.p.p.p.p.p.p.p.p.p.p.p.p.p.      . = o     p.p.p.p.p.p.p.p.p.p.p.",
"p.p.p.p.p.p.p.p.p.p.p.p.p.p.p.p.p.p.p.p.p.p.p.p.p.p.p.p.p.p.p.p.p.p.p.p.p.p.p.p.p.p.p.p.p.p.p.p.      p.p.p.p.p.p.p.p.p.p.p.p.p.",
"p.p.p.p.p.p.p.p.p.p.p.p.p.p.p.p.p.p.p.p.p.p.p.p.p.p.p.p.p.p.p.p.p.p.p.p.p.p.p.p.p.p.p.p.p.p.p.p.p.p.p.p.p.p.p.p.p.p.p.p.p.p.p.p.",
"p.p.p.p.p.p.p.p.p.p.p.p.p.p.p.p.p.p.p.p.p.p.p.p.p.p.p.p.p.p.p.p.p.p.p.p.p.p.p.p.p.p.p.p.p.p.p.p.p.p.p.p.p.p.p.p.p.p.p.p.p.p.p.p.",
"p.p.p.p.p.p.p.p.p.p.p.p.p.p.p.p.p.p.p.p.p.p.p.p.p.p.p.p.p.p.p.p.p.p.p.p.p.p.p.p.p.p.p.p.p.p.p.p.p.p.p.p.p.p.p.p.p.p.p.p.p.p.p.p.",
"p.p.p.p.p.p.p.p.p.p.p.p.p.p.p.p.p.p.p.p.p.p.p.p.p.p.p.p.p.p.p.p.p.p.p.p.p.p.p.p.p.p.p.p.p.p.p.p.p.p.p.p.p.p.p.p.p.p.p.p.p.p.p.p.",
"p.p.p.p.p.p.p.p.p.p.p.p.p.p.p.p.p.p.p.p.p.p.p.p.p.p.p.p.p.p.p.p.p.p.p.p.p.p.p.p.p.p.p.p.p.p.p.p.p.p.p.p.p.p.p.p.p.p.p.p.p.p.p.p.",
"p.p.p.p.p.p.p.p.p.p.p.p.p.p.p.p.p.p.p.p.p.p.p.p.p.p.p.p.p.p.p.p.p.p.p.p.p.p.p.p.p.p.p.p.p.p.p.p.p.p.p.p.p.p.p.p.p.p.p.p.p.p.p.p.",
"p.p.p.p.p.p.p.p.p.p.p.p.p.p.p.p.p.p.p.p.p.p.p.p.p.p.p.p.p.p.p.p.p.p.p.p.p.p.p.p.p.p.p.p.p.p.p.p.p.p.p.p.p.p.p.p.p.p.p.p.p.p.p.p.",
"p.p.p.p.p.p.p.p.p.p.p.p.p.p.p.p.p.p.p.p.p.p.p.p.p.p.p.p.p.p.p.p.p.p.p.p.p.p.p.p.p.p.p.p.p.p.p.p.p.p.p.p.p.p.p.p.p.p.p.p.p.p.p.p.",
"p.p.p.p.p.p.p.p.p.p.p.p.p.p.p.p.p.p.p.p.p.p.p.p.p.p.p.p.p.p.p.p.p.p.p.p.p.p.p.p.p.p.p.p.p.p.p.p.p.p.p.p.p.p.p.p.p.p.p.p.p.p.p.p.",
"p.p.p.p.p.p.p.p.p.p.p.p.p.p.p.p.p.p.p.p.p.p.p.p.p.p.p.p.p.p.p.p.p.p.p.p.p.p.p.p.p.p.p.p.p.p.p.p.p.p.p.p.p.p.p.p.p.p.p.p.p.p.p.p.",
"p.p.p.p.p.p.p.p.p.p.p.p.p.p.p.p.p.p.p.p.p.p.p.p.p.p.p.p.p.p.p.p.p.p.p.p.p.p.p.p.p.p.p.p.p.p.p.p.p.p.p.p.p.p.p.p.p.p.p.p.p.p.p.p.",
"p.p.p.p.p.p.p.p.p.p.p.p.p.p.p.p.p.p.p.p.p.p.p.p.p.p.p.p.p.p.p.p.p.p.p.p.p.p.p.p.p.p.p.p.p.p.p.p.p.p.p.p.p.p.p.p.p.p.p.p.p.p.p.p.",
"p.p.p.p.p.p.p.p.p.p.p.p.p.p.p.p.p.p.p.p.p.p.p.p.p.p.p.p.p.p.p.p.p.p.p.p.p.p.p.p.p.p.p.p.p.p.p.p.p.p.p.p.p.p.p.p.p.p.p.p.p.p.p.p."
};
