/* XPM */
static char *result[] = {
/* columns rows colors chars-per-pixel */
"64 64 112 2 ",
"   c #000000",
".  c #070C00",
"X  c #080F00",
"o  c #070708",
"O  c #070809",
"+  c #0C0C0D",
"@  c #0A1200",
"#  c #0E1900",
"$  c #0D0E10",
"%  c #0F1113",
"&  c #121316",
"*  c #151719",
"=  c #16181C",
"-  c #1A1B1F",
";  c #1C1E21",
":  c #1E2125",
">  c #212327",
",  c #23262B",
"<  c #25292E",
"1  c #282A2E",
"2  c #2A2D32",
"3  c #2D3036",
"4  c #2E3239",
"5  c #31353C",
"6  c #35383E",
"7  c #4C6E1A",
"8  c #51731B",
"9  c #567C1A",
"0  c #4A5D3F",
"q  c #486326",
"w  c #4E6C22",
"e  c #4D6531",
"r  c #353A41",
"t  c #3C3F43",
"y  c #3D4045",
"u  c #3D424A",
"i  c #424D46",
"p  c #43464C",
"a  c #404948",
"s  c #475643",
"d  c #495B40",
"f  c #414751",
"g  c #454B54",
"h  c #494F57",
"j  c #474D58",
"k  c #494F59",
"l  c #4C525C",
"z  c #546B45",
"x  c #576C4B",
"c  c #587046",
"v  c #5A724A",
"b  c #5E7457",
"n  c #5F755A",
"m  c #61775B",
"M  c #62785B",
"N  c #4F5661",
"B  c #505661",
"V  c #535A65",
"C  c #565D69",
"Z  c #585F6A",
"A  c #57606B",
"S  c #5A616D",
"D  c #5E6672",
"F  c #5F6874",
"G  c #647B61",
"H  c #6A7F6E",
"J  c #606774",
"K  c #626A77",
"L  c #636E7C",
"P  c #667576",
"I  c #697C71",
"U  c #66717E",
"Y  c #69717E",
"T  c #6D7C7D",
"R  c #59801D",
"E  c #659D0E",
"W  c #608F12",
"Q  c #64921D",
"!  c #65A10B",
"~  c #6DAD0D",
"^  c #74BA0A",
"/  c #6CA016",
"(  c #72A916",
")  c #78B217",
"_  c #7BC907",
"`  c #78C208",
"'  c #6C836B",
"]  c #6E8172",
"[  c #6F8279",
"{  c #718777",
"}  c #738877",
"|  c #71857A",
" . c #92ED05",
".. c #97F704",
"X. c #98FB03",
"o. c #677280",
"O. c #6C7785",
"+. c #6E7986",
"@. c #6F7A88",
"#. c #717B86",
"$. c #727D8B",
"%. c #718081",
"&. c #76808E",
"*. c #78828F",
"=. c #778291",
"-. c #798494",
";. c #7E8997",
":. c #7F8998",
">. c #808E95",
",. c #808B99",
"<. c #819191",
"1. c None",
/* pixels */
"1.1.1.1.1.1.1.1.1.1.1.1.4 r r r r r r r r r r r r r r r y r r y y 4 r r r r r r r r r r r r r r r r r r , 1.1.1.1.1.1.1.1.1.1.1.",
"1.1.1.1.1.1.1.1.1.1.1.5 O.-.-.-.-.-.-.-.-.-.-.-.-.-.-.-.-.-.=.-.=.=.-.-.-.-.-.-.-.-.-.-.-.-.-.-.-.-.=.=.r 1.1.1.1.1.1.1.1.1.1.1.",
"1.1.1.1.1.1.1.1.1.1.1.5 $.-.-.-.-.-.-.-.-.-.-.-.-.-.-.-.-.-.*.*.-.-.-.-.-.-.-.-.-.-.-.-.-.-.-.-.-.-.-.-.k 1.1.1.1.1.1.1.1.1.1.1.",
"1.1.1.1.1.1.1.1.1.1.1.y -.-.-.-.-.-.-.-.-.-.-.-.-.-.-.-.-.-.;.*.-.-.-.-.-.-.-.-.-.-.-.-.-.-.-.-.-.-.-.-.N 1.1.1.1.1.1.1.1.1.1.1.",
"1.1.1.1.1.1.1.1.1.1.1.k :.:.:.:.:.:.:.:.,.:.:.:.:.:.:.:.:.:.*.;.;.-.-.=.:.-.:.:.:.:.:.:.,.,.:.:.:.:.:.:.A 1.1.1.1.1.1.1.1.1.1.1.",
"1.1.1.1.1.1.1.1.1.1.1.V :.:.:.:.-.&.&.@.@.$.@.$.&.=.%.{ ' ' ' b ' c ' ' [ %.%.%.O.Y O.O.O.o.O.O.O.O.o.@.o.1.1.1.1.1.1.1.1.1.1.1.",
"1.1.1.1.1.1.1.1.1.1.1.F ,.:.-.@.O.O.O.O.@.+.%.[ %.[ ' q ~ _ _ ! W ` _ ` q ' ' ' P P U L L L L L o.o.F o.@.3 1.1.1.1.1.1.1.1.1.1.",
"1.1.1.1.1.1.1.1.1.1.1.+.,.-.@.O.O.@.O.O.+.[ +.[ [ { ' 7 _ X.X._ ~ _ X._ ! z ' L I P P P L L L L o.o.o.o.=.r 1.1.1.1.1.1.1.1.1.1.",
"1.1.1.1.1.1.1.1.1.1.5 #.=.$.+.O.O.O.O.+.[ T [ | [ } ' q / ) ) W R ^ ) ~ 7 b ' I I P P P P K L L L L L U ;.r 1.1.1.1.1.1.1.1.1.1.",
"1.1.1.1.1.1.1.1.1.1.5 -.@.O.O.O.O.$.$.+.#.| %.| } | } ' v v v z z z v x M [ ] ] I T T T T Y $.$.o.L L U =.g 1.1.1.1.1.1.1.1.1.1.",
"1.1.1.1.1.1.1.1.1.1.y -.O.O.O.O.$.$.l a i i i i s s s s d d d d 0 d d d s s s s s u u s i g O.$.L L L U =.l 1.1.1.1.1.1.1.1.1.1.",
"1.1.1.1.1.1.1.1.1.1.l -.O.@.O.O.$.K &   . . . . . X # # # # # # # # # # # @ @ . X . . .   o N +.L L L L $.D 1.1.1.1.1.1.1.1.1.1.",
"1.1.1.1.1.1.1.1.1.1.A =.O.O.O.O.$.S O       . @ . . . . . @ @ @ @ @ @ . . . X . . . .       g $.L L L L +.Y 1.1.1.1.1.1.1.1.1.1.",
"1.1.1.1.1.1.1.1.1.1.K =.O.@.O.O.$.N O           . . . . . . . . X X . @ . . . .             u $.L L L L O.#.2 1.1.1.1.1.1.1.1.1.",
"1.1.1.1.1.1.1.1.1.3 O.$.O.O.O.O.&.g                       .   . . .                         5 $.L L L L o.=.2 1.1.1.1.1.1.1.1.1.",
"1.1.1.1.1.1.1.1.1.3 $.@.O.O.O.@.&.y                                                         < @.U L L L U -.6 1.1.1.1.1.1.1.1.1.",
"1.1.1.1.1.1.1.1.1.4 -.@.O.O.O.@.$.r                                                         ; O.o.L L L L -.g 1.1.1.1.1.1.1.1.1.",
"1.1.1.1.1.1.1.1.1.t :.O.O.O.O.@.@.,                                                         & Y o.L L L L =.K ; 1.1.1.1.1.1.1.1.",
"1.1.1.1.1.1.1.1.1.S $.O.O.O.O.@.O.=                                                         $ J O.L L L U $.-.- 1.1.1.1.1.1.1.1.",
"1.1.1.1.1.1.1.1.; @.-.O.O.O.O.$.o.&                                                         O V @.L L L U =.:.2 1.1.1.1.1.1.1.1.",
"1.1.1.1.1.1.1.1.; :.$.O.O.@.@.$.D $                                                         o k =.L L L L +.:.r 1.1.1.1.1.1.1.1.",
"1.1.1.1.1.1.1.1.r ,.$.@.O.O.+.$.V O                                                           f =.L L L L o.:.p 1.1.1.1.1.1.1.1.",
"1.1.1.1.1.1.1.1.t :.@.O.O.O.O.-.k o                                                           r =.U L L L o.;.l 2 1.1.1.1.1.1.1.",
"1.1.1.1.1.1.1.1.k ,.@.O.O.@.+.-.u                                                             2 &.Y L L L L -.F 1.1.1.1.1.1.1.1.",
"1.1.1.1.1.1.1.1.S ;.O.O.O.O.@.-.r                                                             : #.O.L L L L $.$.- 1.1.1.1.1.1.1.",
"1.1.1.1.1.1.1.1.L -.O.O.O.O.@.$.2                                                             = Y +.L L L L O.-.> 1.1.1.1.1.1.1.",
"1.1.1.1.1.1.1.: =.$.O.O.O.+.$.+.:                                                             % S $.L L L L o.,.4 1.1.1.1.1.1.1.",
"1.1.1.1.1.1.1.2 :.@.O.+.+.+.$.Y *                                                             + B $.L L L L L ;.t 1.1.1.1.1.1.1.",
"1.1.1.1.1.1.1.r ,.O.O.O.O.+.$.D %                                                             o g =.L L L L L ;.f 1.1.1.1.1.1.1.",
"1.1.1.1.1.1.1.f ;.O.+.+.O.O.-.N O                                                             o r -.L L L L L $.V 1 1.1.1.1.1.1.",
"1.1.1.1.1.1.1.l -.O.O.O.O.O.-.f O                                                               5 $.Y L L L L $.L : 1.1.1.1.1.1.",
"1.1.1.1.1.1.1.S =.O.+.O.O.O.-.r o                                                               < +.o.L L L L #.#.: 1.1.1.1.1.1.",
"1.1.1.1.1.1., +.$.O.O.O.+.+.$.3                                                                 = L O.L L L L o.;.< 1.1.1.1.1.1.",
"1.1.1.1.1.1.> $.$.O.O.@.+.+.O.<                                                                 $ F #.L L L L U ,.r 1.1.1.1.1.1.",
"1.1.1.1.1.1.4 :.@.O.O.O.O.$.L -                                                                 o C $.L L L L L :.k 1.1.1.1.1.1.",
"1.1.1.1.1.1.j :.O.O.O.+.+.$.D O                                                                   k =.L L L L L ;.D , 1.1.1.1.1.",
"1.1.1.1.1.1.S ;.O.@.O.O.O.=.V o                                                                   u =.L L L L L =.o.2 1.1.1.1.1.",
"1.1.1.1.1.1.o.-.O.O.O.O.@.-.k                                                                     5 =.L L L L L $.$.2 1.1.1.1.1.",
"1.1.1.1.1.r $.$.O.@.O.O.O.-.t                                                                     < $.U L L L L +.;.r 1.1.1.1.1.",
"1.1.1.1.1.r $.-.O.O.O.O.O.-.4                                                                     : $.o.L L L L o.;.u 1.1.1.1.1.",
"1.1.1.1.1.u :.=.O.O.O.O.@.$.<                                                                     * o.+.L L L L U ,.k 1.1.1.1.1.",
"1.1.1.1.1.N ,.$.@.O.O.O.$.$.;                                                                     + K &.L L L L L -.S 1.1.1.1.1.",
"1.1.1.1.1.V ,.$.O.O.O.O.$.o.&                                                                     o S =.L L L L L $.L 1.1.1.1.1.",
"1.1.1.1.1.F -.+.O.O.O.O.:.F $                                                                       N -.U L L L L #.O.2 1.1.1.1.",
"1.1.1.1.1.o.$.+.+.O.O.+.;.C o                                                                       p ;.o.L L L L O.&.3 1.1.1.1.",
"1.1.1.1.r $.$.+.+.O.O.@.;.l                                                                         r =.o.L L L L o.-.6 1.1.1.1.",
"1.1.1.1.r -.$.+.O.O.O.@.;.u                                                                         2 $.o.U L L L U ;.p 1.1.1.1.",
"1.1.1.1.k -.+.O.O.O.O.$.=.r                                                                         > O.@.L L L L L -.B 1.1.1.1.",
"1.1.1.1.B ;.O.O.O.+.O.$.$.2                                                                         - K $.L L L L L $.S 1.1.1.1.",
"1.1.1.1.Z ;.O.O.O.+.+.$.o.>                                                                         & S $.L L L L L $.L 1 1.1.1.",
"1.1.1.1.L $.O.O.O.O.O.=.F =                                                                         o V *.L L K L L +.$.1 1.1.1.",
"1.1.1.1.$.$.O.O.O.+.O.-.D %                                                                           k $.U L L L L O.=.1 1.1.1.",
"1.1.1.5 $.$.O.@.O.+.+.-.B O                                                                           u $.o.L L L L Y -.5 1.1.1.",
"1.1.1.5 -.$.O.O.+.+.+.$.g                                                                             2 $.O.L L L L U ;.l 1.1.1.",
"1.1.1.f ;.+.O.O.O.O.@.$.u                                                                             < o.O.L L L L L -.K = 1.1.",
"1.1.1.D -.O.O.O.@.O.@.$.3                                                                             = K $.L L L L L &.=.& 1.1.",
"1.1.; @.-.@.O.O.O.O.$.O.>                                                                             $ D $.L L L L L $.-.2 1.1.",
"1.1.1.:.=.O.O.O.O.O.$.L ;                                                                             $ N $.L L L L L O.,.6 1.1.",
"1.1.1.:.$.O.O.O.O.@.$.S %                                                                             o k =.L L L L L o.,.u 1.1.",
"1.1.g :.@.O.@.O.O.O.-.B O                                                                               p $.o.L L L L U :.N 1.1.",
"1.1.k :.@.O.O.O.O.O.-.k o                                                                               r $.@.o.L L L U ;.V 1.1.",
"1.1.k :.@.O.O.O.O.#.*.p + + + + + + $ + + + + + + + + + + + + + + + + + + + + + + + $ + + + + + $ O $ $ 4 @.-.o.L L L L &.V 1.1.",
"1.1.l ;.O.O.O.O.O.$.*.t 6 y y y p t t t t t t t p t t t t t t p p 6 t t y t t t t t t t t t t t t t t t 4 o.-.-.O.o.o.U $.Z 1.1.",
"1.1.6 u u y u y y u p 6 p p p p p p p p p p p p p p p p p p p p p p p p p p p p p p p p p p p p p p p p y y u u p u u r r 6 1.1."
};
