/* XPM */
static char *result[] = {
/* columns rows colors chars-per-pixel */
"64 64 181 2 ",
"   c #000000",
".  c #070D00",
"X  c #080F00",
"o  c #0C0D0E",
"O  c #110E0B",
"+  c #0A1200",
"@  c #0E1900",
"#  c #13110C",
"$  c #1B150F",
"%  c #0F1011",
"&  c #121213",
"*  c #1D1A15",
"=  c #15171A",
"-  c #17191C",
";  c #1A1B1D",
":  c #191914",
">  c #241C15",
",  c #211F1A",
"<  c #192116",
"1  c #3A260F",
"2  c #23221E",
"3  c #2A2110",
"4  c #372D19",
"5  c #1B1D21",
"6  c #1E2125",
"7  c #222426",
"8  c #23262A",
"9  c #272A2E",
"0  c #2A2B2D",
"q  c #2E2B26",
"w  c #322E25",
"e  c #373326",
"r  c #272A31",
"t  c #2A2D33",
"y  c #2D3036",
"u  c #2F333A",
"i  c #31353C",
"p  c #35393E",
"a  c #2D362E",
"s  c #44331B",
"d  c #483415",
"f  c #553A1D",
"g  c #593C1F",
"h  c #492F15",
"j  c #463E20",
"k  c #593E22",
"l  c #37413A",
"z  c #54481D",
"x  c #69581B",
"c  c #634C1A",
"v  c #4E7019",
"b  c #53761C",
"n  c #7A6411",
"m  c #7D641F",
"M  c #4A5D3F",
"N  c #4B4125",
"B  c #644322",
"V  c #684B22",
"C  c #6B5720",
"Z  c #4B6924",
"A  c #4E6533",
"S  c #353A42",
"D  c #393E44",
"F  c #3D4044",
"G  c #3C424A",
"H  c #424D46",
"J  c #43464C",
"K  c #404948",
"L  c #475643",
"P  c #495B40",
"I  c #414751",
"U  c #444A53",
"Y  c #484E56",
"T  c #474F59",
"R  c #484E59",
"E  c #4B525C",
"W  c #51585F",
"Q  c #556B46",
"!  c #587046",
"~  c #5A724A",
"^  c #5E7456",
"/  c #5F755A",
"(  c #61775A",
")  c #62785B",
"_  c #4F5661",
"`  c #505662",
"'  c #525A64",
"]  c #565D69",
"[  c #585F6B",
"{  c #5B626E",
"}  c #5D6672",
"|  c #5F6874",
" . c #616F6B",
".. c #6A7E6D",
"X. c #657B61",
"o. c #606774",
"O. c #616A74",
"+. c #636E7C",
"@. c #657575",
"#. c #6A7C71",
"$. c #66717E",
"%. c #69727E",
"&. c #6D7C7D",
"*. c #707F7C",
"=. c #89561A",
"-. c #866C14",
";. c #8E6D16",
":. c #9A671B",
">. c #9B791C",
",. c #A1651E",
"<. c #A6771B",
"1. c #B67728",
"2. c #A86923",
"3. c #C37926",
"4. c #5C831E",
"5. c #608F12",
"6. c #69991A",
"7. c #68A50C",
"8. c #78B217",
"9. c #74B310",
"0. c #7BC907",
"q. c #78C306",
"w. c #6C836C",
"e. c #6E8272",
"r. c #6F8279",
"t. c #718777",
"y. c #71857A",
"u. c #738877",
"i. c #BA851A",
"p. c #D28A1F",
"a. c #D69615",
"s. c #DBA513",
"d. c #E6AC0C",
"f. c #ECB10F",
"g. c #FDBD0D",
"h. c #F6AD1A",
"j. c #FFB319",
"k. c #E5A016",
"l. c #DE9020",
"z. c #DF8929",
"x. c #EE9B23",
"c. c #F1962D",
"v. c #FD9D2F",
"b. c #F6A125",
"n. c #FFA625",
"m. c #91EC05",
"M. c #98FB03",
"N. c #97F804",
"B. c #677280",
"V. c #6C7785",
"C. c #6E7986",
"Z. c #6F7A88",
"A. c #717B86",
"S. c #727D8B",
"D. c #718081",
"F. c #76808E",
"G. c #79838E",
"H. c #798887",
"J. c #768191",
"K. c #798494",
"L. c #7E8995",
"P. c #7E8A9A",
"I. c #798798",
"U. c #808D96",
"Y. c #818C99",
"T. c #819091",
"R. c #85919F",
"E. c #8C9B9E",
"W. c #818FA1",
"Q. c #8593A4",
"!. c #8A96A3",
"~. c #8D99A6",
"^. c #8796A9",
"/. c #8897AA",
"(. c #8A99AB",
"). c #919EAB",
"_. c #94A1AF",
"`. c #96A3B2",
"'. c #99A6B5",
"]. c #9BA8B7",
"[. c None",
/* pixels */
"[.[.[.[.[.[.[.[.[.[.[.[.y S S S S S S S S S S S S S S S S S S S S S S S S S S S S S S S S S S S S S S S 8 [.[.[.[.[.[.[.[.[.[.[.",
"[.[.[.[.[.[.[.[.[.[.[.i B.K.K.K.K.K.K.K.K.J.I.K.J.I.K.J.K.K.K.K.K.K.K.J.I.J.S.I.K.K.K.K.K.K.I.I.J.I.J.S.D [.[.[.[.[.[.[.[.[.[.[.",
"[.[.[.[.[.[.[.[.[.[.[.i Z.K.K.K.K.K.K.K.I.J.I.J.K.K.I.I.K.K.K.K.I.I.J.I.I.S.I.K.K.K.I.K.J.K.K.J.I.S.I.J.Y [.[.[.[.[.[.[.[.[.[.[.",
"[.[.[.[.[.[.[.[.[.[.[.D K.K.K.I.K.I.K.I.K.I.K.I.I.I.I.S.K.K.K.I.J.I.I.K.I.I.K.I.K.I.K.K.I.K.I.K.I.I.I.I.` [.[.[.[.[.[.[.[.[.[.[.",
"[.[.[.[.[.[.[.[.[.[.[.U I.Y.Y.Y.P.P.P.L.Y.P.Y.P.P.P.L.L.T.Y.L.T.T.T.T.T.P.Y.Y.Y.L.P.P.L.P.P.P.P.P.P.I.P.} [.[.[.[.[.[.[.[.[.[.[.",
"[.[.[.[.[.[.[.[.[.[.[.` Y.W.Y.K.K.F.F.Z.Z.S.Z.Z.Z.S.y.t.X.) ( / ^ / / ( #.&.&.&.V.V.V.V.V.V.V.B.V.V.V.Z.+.[.[.[.[.[.[.[.[.[.[.[.",
"[.[.[.[.[.[.[.[.[.[.[.} Y.Y.S.S.Z.V.V.V.C.C.r.D.r.r.w.A 7.0.0.7.4.0.0.9.Z / #.#.@.@.@.+.+.+.+.+.| | B.V.C.y [.[.[.[.[.[.[.[.[.[.",
"[.[.[.[.[.[.[.[.[.[.[.$.Y.L.V.V.V.V.V.V.C.r.C.r.y.t.w.b m.M.M.0.6.M.M.N.7.Q ..#.#.@.@.@.+.+.+.+.B.B.B.B.K.i [.[.[.[.[.[.[.[.[.[.",
"[.[.[.[.[.[.[.[.[.[.i V.F.S.V.V.V.V.V.C.&.D.r.y.y.t.w.Z 6.8.8.5.b 8.8.7.v ^ ..#.#.@.@.@.@.| B.+.+.+.+.%.K.D [.[.[.[.[.[.[.[.[.[.",
"[.[.[.[.[.[.[.[.[.[.i K.S.V.V.V.V.S.Z.D.D.D.A.y.y.y.t.w.~ ~ ~ ! Q ! ! ~ ( e.#.e.#.&.&.&.&.&.Z.F.B.+.+.+.K.R [.[.[.[.[.[.[.[.[.[.",
"[.[.[.[.[.[.[.[.[.[.D K.V.V.V.V.C.F.E H H H H H L L L L M P P P P P P P L L L L H H H H G U B.J.+.+.+.+.F.' [.[.[.[.[.[.[.[.[.[.",
"[.[.[.[.[.[.[.[.[.[.Y K.V.V.V.V.S.+.& O.&.r.*. .: X @ @ @ @ @ @ @ @ @ @ @ @ X . a @. .@.+.6 _ Z.+.+.+.+.S.o.[.[.[.[.[.[.[.[.[.[.",
"[.[.[.[.[.[.[.[.[.[.[ K.V.V.V.V.Z.{ - G.E.!.E.H.< . . . X + + + + + + X X . X . l L.P.I.I.G G J.+.+.+.+.V.%.[.[.[.[.[.[.[.[.[.[.",
"[.[.[.[.[.[.[.[.[.[.o.S.Z.V.V.V.F.' 8 G.!.!.~.L.: . . . X + . . X X X + . . . . l P.P.P.P._ G Z.+.+.+.+.V.S.t [.[.[.[.[.[.[.[.[.",
"[.[.[.[.[.[.[.[.[.t B.S.V.V.V.Z.F.Y i L.!.!.`.R.-           .     .             F /./././.+.u D.+.+.+.+.B.K.t [.[.[.[.[.[.[.[.[.",
"[.[.[.[.[.[.[.[.[.y S.S.V.V.V.V.F.G Y P.!.!.'.R.-                               F /./././.J.t Z.B.+.+.+.+.K.D [.[.[.[.[.[.[.[.[.",
"[.[.[.[.[.[.[.[.[.y K.S.V.V.V.V.S.S ] U.!.~.].R.=                               D /././.^.I.r B.B.+.+.+.+.K.E [.[.[.[.[.[.[.[.[.",
"[.[.[.[.[.[.[.[.[.S K.Z.V.V.V.V.S.y O.Y.!.).].R.=                               D /././.^.P.t B.V.+.+.+.+.S.$.; [.[.[.[.[.[.[.[.",
"[.[.[.[.[.[.[.[.[.] K.V.V.V.V.S.Z.r B.R.~.).].R.=                               D (././.^.^.S [ V.+.+.+.B.S.K.5 [.[.[.[.[.[.[.[.",
"[.[.[.[.[.[.[.[.6 B.S.V.V.V.V.S.B.9 A.R.!.).].R.=                               D (././.^.^.D ' S.+.+.+.V.S.Y.t [.[.[.[.[.[.[.[.",
"[.[.[.[.[.[.[.[.6 S.S.Z.V.V.S.S.o.r U.R.!.`.].R.=                               D /././././.G T F.+.+.+.+.C.U.D [.[.[.[.[.[.[.[.",
"[.[.[.[.[.[.[.[.i P.S.S.V.Z.Z.S.] 0 U.!.~.].].R.=                               D /././././.] G J.+.+.+.+.B.U.I [.[.[.[.[.[.[.[.",
"[.[.[.[.[.[.[.[.D P.S.Z.V.V.C.S.E D U.R.~.].].R.=                               D (././././.} S K.%.+.+.+.+.K.` [.[.[.[.[.[.[.[.",
"[.[.[.[.[.[.[.[.U Y.Z.V.V.V.C.K.I J Y.!.~.].].R.=                               D (././.^.^.V.y S.B.+.+.+.+.K.+.7 [.[.[.[.[.[.[.",
"[.[.[.[.[.[.[.[.] K.V.V.V.Z.V.K.D ' Y.!.).].].R.-                               D (././././.S.r Z.V.+.+.+.+.S.S.; [.[.[.[.[.[.[.",
"[.[.[.[.[.[.[.[.+.K.V.V.V.V.Z.S.u { Y.!.).].].R.-                               D (././././.I.r +.V.+.+.+.B.V.L.8 [.[.[.[.[.[.[.",
"[.[.[.[.[.[.[.5 S.S.C.V.V.V.S.A.0 %.R.!.).].].R.-                               D /././././.W.y [ S.+.+.+.+.B.L.i [.[.[.[.[.[.[.",
"[.[.[.[.[.[.[.9 Y.S.V.V.C.C.S.$.0 %.!.!.`.].].R.=                               D /./././././.u ` S.+.+.+.+.+.L.D [.[.[.[.[.[.[.",
"[.[.[.[.[.[.[.S Y.V.V.V.V.V.K.o.0 S.R.!.'.].].R.=                               D (.^././././.D I K.+.+.+.+.+.K.U [.[.[.[.[.[.[.",
"[.[.[.[.[.[.[.J K.V.V.Z.V.V.K.` t K.!.!.'.].].R.=                               D (.^././././.R S S.$.+.+.+.+.F.[ 0 [.[.[.[.[.[.",
"[.[.[.[.[.[.[.R K.V.V.V.Z.V.K.U i U.R.~.].].].R.=                               D (./././././.] u A.$.+.+.+.+.S.%.; [.[.[.[.[.[.",
"[.[.[.[.[.[.[.{ K.C.V.V.V.V.K.D J U.!.~.].].].R.=                               D (./././././.O.8 V.B.+.+.+.+.C.S.5 [.[.[.[.[.[.",
"[.[.[.[.[.[.8 V.S.V.V.Z.V.Z.S.i Y Y.!.).].].].R.=                               S (./././././.V.6 | V.B.B.B.{ B.J.r [.[.[.[.[.[.",
"[.[.[.[.[.[.7 S.S.V.V.V.Z.Z.Z.9 ] Y.!.).].].].R.=                               G (./././././.I.5 { Z.+.B.} B.B.I.S [.[.[.[.[.[.",
"[.[.[.[.[.[.t K.Z.Z.V.V.B.S.B.6 o.R.!.).].].].R.=                               S (./././././.P.5 { F.| B.B.| B.I._ [.[.[.[.[.[.",
"[.[.[.[.[.[.I Y.V.V.V.Z.Z.S.o.5 @.R.!._.].].].R.=                               G (./././././.P.6 G J.B.} B.B.B.I.| [.[.[.[.[.[.",
"[.[.[.[.[.[.] U.V.V.Z.V.Z.S.[ - A.R.!.`.].].].R.=                               S /././././././.S S J.B.B.| B.| S.V.y [.[.[.[.[.",
"[.[.[.[.[.[.+.K.V.V.V.V.A.S.` 5 S.E.!.`.].].].Q.=                               G /././././././.G y J.B.B.B.B.| S.S.u [.[.[.[.[.",
"[.[.[.[.[.S S.S.V.V.V.V.Z.K.G 9 U.!.~.].].].'.R.=                               D /././././././.| 8 S.B.| | B.B.V.P.D [.[.[.[.[.",
"[.[.[.[.[.D S.S.V.V.Z.V.Z.S.S p U.!.~.].].].].Q.=                               G /././././././.Z.8 Z.B.B.B.| B.V.Y.I [.[.[.[.[.",
"[.[.[.[.[.G K.K.V.V.V.V.Z.S.9 E U.!.).].].].].R.=                               D (././././././.P.5 %.S.+.+.+.+.+.L.W [.[.[.[.[.",
"[.[.[.[.[.R Y.S.Z.V.V.Z.S.S.7 o.Y.!.).].].].].R.=                               D (././././././.(.5 } F.+.+.+.+.+.K.{ [.[.[.[.[.",
"[.[.[.[.[.' Y.S.V.V.V.V.S.B.5 A.Y.!.).].].].].R.=                               D (./././././././.r ] K.+.+.+.+.+.S.+.r [.[.[.[.",
"[.[.[.[.[.o.K.V.V.Z.V.V.S.B.5 S.R.!.'.].].].].R.=                               D (././././././.^.S E K.$.+.+.+.+.V.S.t [.[.[.[.",
"[.[.[.[.[.B.S.Z.V.V.V.Z.K.[ 5 U.R.~.'.].].].].R.=                               D /././././././.^.I G K.%.+.+.+.+.V.F.i [.[.[.[.",
"[.[.[.[.p A.S.V.V.V.Z.V.Y.` 0 U.!.~.'.].].].].R.=                               D (././././././.^._ i K.B.+.+.+.+.%.K.S [.[.[.[.",
"[.[.[.[.p K.S.V.V.V.V.S.Y.J p U.!.~.'.].].].].R.=                               D (././././././.^.+.r S.V.+.+.+.+.+.K.U [.[.[.[.",
"[.[.[.[.J K.S.V.V.V.V.S.S.S U Y.!.~.].].].].].R.=                               D /././././././.^.S.6 $.S.+.+.+.+.+.K.' [.[.[.[.",
"[.[.[.[.E K.A.V.V.V.V.S.S.y ' U.!.).].].].].].R.=                               F (././././././.^.I.5 | S.+.+.B.+.+.S.} [.[.[.[.",
"[.[.[.[.[ K.V.V.V.V.Z.S.V.8 o.Y.~.).].].].].].R.=                               F (./././././././.Q.5 [ S.+.+.+.+.+.S.B.r [.[.[.",
"[.[.[.[.+.S.V.Z.V.V.V.J.O.5 *.Y.!._.].].].].].R.=                               S /././././././././.5 _ S.B.+.+.+.+.B.S.0 [.[.[.",
"[.[.[.i B.S.V.V.Z.V.V.K.o.; S.R.!.`.].].].].].R.=                               F /./././././././.(.r R S.+.+.+.+.+.B.K.r [.[.[.",
"[.[.[.i S.S.V.V.V.V.C.K.] - K.!.~.`.].].].].'.R.=                               G (.(.P././././././.S D S.V.+.B.+.+.%.K.S [.[.[.",
"[.[.[.i K.Z.V.V.V.C.Z.S.R 8 U.!.~.'.].].].].'.R.=                               F P.P._././././././.T r V.B.+.+.+.+.+.K.' 6 [.[.",
"[.[.[.D L.S.V.V.C.Z.C.S.J t U.!.~.'.'.'.].].'.R.=                               G P.`.P.^.^.^.^./.(.[ 5 B.V.+.+.+.+.+.K.+.= [.[.",
"[.[.[.' K.C.V.V.V.V.S.A.i i %.S.G.T.R.R.R.R.R.F.&                             o G I.I.I.F.F.F.F.S.S.[ 5 +.V.+.+.+.+.+.S.K.- [.[.",
"[.[.7 V.S.V.V.V.V.V.S.V.8 = 4 n -.c 7 7 e -.-.x #                               * 8 7 z ;.-.N 7 8 z n % [ S.+.+.+.+.+.C.K.y [.[.",
"[.[.6 K.S.V.V.Z.V.V.S.%.5 > ;.d.f.C q 0 >.g.g.m #                               , t e s.g.f.N 0 q s.f.> ` S.+.+.+.+.+.V.Y.S [.[.",
"[.[.[.Y.S.S.V.V.V.V.S.{ & s a.k.<.2 , 4 h.j.i.4 #                               * q <.j.h.c 2 2 <.j.h.3 R S.+.+.+.+.+.V.Y.I [.[.",
"[.[.I W.S.S.V.V.V.V.K.] % :.l.p.4 & & 1.n.x.d * O                               * V x.v.:.& # f x.n.:.> G S.B.B.+.+.+.%.K.' [.[.",
"[.[.U Y.Z.V.V.V.V.Z.S.E > 3.z.=.O o h c.v.,.# $ O                               > 1.v.c.1 o O 2.v.c.1 > S S.V.B.+.+.+.+.K.{ [.[.",
"[.[.U Y.Z.V.V.V.V.Z.K.I * f f > O O h B B > # # # o o o o O o o o o o o % o o % > g B k O % $ g B k O o t A.K.B.B.+.+.+.F.{ [.[.",
"[.[.R U.V.Z.V.V.V.Z.S.F p F D F K F F F D F F F F F F F F F F F J D F F D J D D F F F F D D F F F F D F i +.K.K.V.B.B.+.S.{ [.[.",
"[.[.p J F G G G G G J F J J J J J J J J J J J J J J J J J J J J J J J J J J J J J J J J J J J J J J J J G D G I G G D D D p [.[."
};
