/* XPM */
static char *result[] = {
/* columns rows colors chars-per-pixel */
"64 64 184 2 ",
"   c #000000",
".  c #070D00",
"X  c #0C0C0B",
"o  c #100F0E",
"O  c #0A1100",
"+  c #0E1900",
"@  c #16130D",
"#  c #19130C",
"$  c #0F1013",
"%  c #121211",
"&  c #1C1711",
"*  c #1C1813",
"=  c #151619",
"-  c #16181B",
";  c #1B1C1D",
":  c #2A1E0F",
">  c #241C13",
",  c #201E1C",
"<  c #37250F",
"1  c #29211A",
"2  c #242918",
"3  c #3B2B16",
"4  c #3C351C",
"5  c #1B1D21",
"6  c #1E2125",
"7  c #242526",
"8  c #23252A",
"9  c #26292D",
"0  c #2B2B2B",
"q  c #262A24",
"w  c #312F28",
"e  c #353228",
"r  c #3C3724",
"t  c #262B30",
"y  c #2A2D33",
"u  c #2D3136",
"i  c #2E3339",
"p  c #32363C",
"a  c #35393F",
"s  c #38393F",
"d  c #4D341D",
"f  c #443117",
"g  c #53391C",
"h  c #402D1A",
"j  c #603D18",
"k  c #413B24",
"l  c #5C3F22",
"z  c #394834",
"x  c #4E421E",
"c  c #5D4B18",
"v  c #5F501A",
"b  c #694919",
"n  c #6C591B",
"m  c #6C521B",
"M  c #765A16",
"N  c #50721C",
"B  c #4A5D3F",
"V  c #654323",
"C  c #615121",
"Z  c #4B6725",
"A  c #353A41",
"S  c #3B3E45",
"D  c #3B3F48",
"F  c #3E4046",
"G  c #3D424A",
"H  c #424D46",
"J  c #44464D",
"K  c #424C48",
"L  c #475643",
"P  c #495B40",
"I  c #424751",
"U  c #444A53",
"Y  c #484E56",
"T  c #484F59",
"R  c #4C535D",
"E  c #50565E",
"W  c #556B45",
"Q  c #587046",
"!  c #5A724A",
"~  c #5E7456",
"^  c #5E7458",
"/  c #5A6F53",
"(  c #61775B",
")  c #63795E",
"_  c #4E5660",
"`  c #4F5863",
"'  c #505761",
"]  c #525A64",
"[  c #585F67",
"{  c #565E6A",
"}  c #585F6C",
"|  c #5A626D",
" . c #5E6672",
".. c #5F6975",
"X. c #66796D",
"o. c #687E68",
"O. c #616A75",
"+. c #636E7C",
"@. c #606774",
"#. c #657475",
"$. c #697C71",
"%. c #65707D",
"&. c #69727E",
"*. c #6C7C7D",
"=. c #707F7C",
"-. c #905B1C",
";. c #856C14",
":. c #89641D",
">. c #97681C",
",. c #9C721A",
"<. c #B4771E",
"1. c #A5731C",
"2. c #A96924",
"3. c #BB772D",
"4. c #5D8916",
"5. c #609312",
"6. c #60970E",
"7. c #70B30B",
"8. c #6EA417",
"9. c #78B217",
"0. c #70A616",
"q. c #7BC907",
"w. c #6C826D",
"e. c #6E8172",
"r. c #6F807B",
"t. c #718676",
"y. c #71847A",
"u. c #738977",
"i. c #AE830E",
"p. c #AA821A",
"a. c #BD8B18",
"s. c #D49F0B",
"d. c #DCA612",
"f. c #FDBD0D",
"g. c #F4AB1A",
"h. c #F9AE19",
"j. c #EDB110",
"k. c #FFB319",
"l. c #E6AD11",
"z. c #CA8522",
"x. c #EC932B",
"c. c #EB9A23",
"v. c #FE9D2F",
"b. c #F39A29",
"n. c #FDA525",
"m. c #98FB03",
"M. c #95F405",
"N. c #677280",
"B. c #6C7785",
"V. c #6E7986",
"C. c #6F7A88",
"Z. c #707B86",
"A. c #727C8B",
"S. c #747F90",
"D. c #718181",
"F. c #76808E",
"G. c #79838E",
"H. c #7D8C8B",
"J. c #768190",
"K. c #798494",
"L. c #7E8995",
"P. c #7A8798",
"I. c #7E8A9A",
"U. c #7E9092",
"Y. c #808D95",
"T. c #818C99",
"R. c #819194",
"E. c #85919D",
"W. c #8C9C9C",
"Q. c #808FA1",
"!. c #8593A3",
"~. c #8A96A3",
"^. c #8D99A6",
"/. c #8796A8",
"(. c #8897AA",
"). c #8B99AB",
"_. c #909FA5",
"`. c #929EAC",
"'. c #90A0A3",
"]. c #95A1AF",
"[. c #96A3B2",
"{. c #99A6B5",
"}. c #9BA8B7",
"|. c None",
/* pixels */
"|.|.|.|.|.|.|.|.|.|.|.9 p A A A A A A A A A A A A A A A A A A A A A A A A A A A A A A A A A A A A A A i |.|.|.|.|.|.|.|.|.|.|.|.",
"|.|.|.|.|.|.|.|.|.|.|.p A.K.K.K.P.J.J.P.K.J.P.P.S.K.S.P.K.K.K.K.K.K.P.J.J.P.S.P.K.K.K.K.P.J.P.P.S.P.P.C.p |.|.|.|.|.|.|.|.|.|.|.",
"|.|.|.|.|.|.|.|.|.|.|.A S.J.K.K.K.P.K.K.K.P.P.K.S.P.K.K.K.K.K.K.P.P.J.P.K.K.P.S.K.K.K.K.J.P.J.J.K.K.P.S.S |.|.|.|.|.|.|.|.|.|.|.",
"|.|.|.|.|.|.|.|.|.|.|.U P.P.K.K.K.K.P.L.P.K.P.S.P.K.P.K.K.K.K.K.J.P.P.K.P.K.P.K.P.K.K.P.P.P.P.P.K.S.P.P.T |.|.|.|.|.|.|.|.|.|.|.",
"|.|.|.|.|.|.|.|.|.|.|.R I.I.T.I.I.I.Y.I.T.I.T.Y.I.I.I.T.U.R.R.R.R.R.R.L.I.I.T.I.U.I.I.I.I.I.I.P.I.I.I.I.' |.|.|.|.|.|.|.|.|.|.|.",
"|.|.|.|.|.|.|.|.|.|.|.| T.T.T.P.K.F.A.C.C.A.C.A.C.A.y.u.o.) ( ~ ~ ~ ^ ^ $.*.*.*.B.B.B.B.B.B.B.N.N.B.N.K...|.|.|.|.|.|.|.|.|.|.|.",
"|.|.|.|.|.|.|.|.|.|.|.+.T.T.A.C.B.B.B.B.V.V.V.y.r.t.w.Z 7.q.q.6.4.q.q.7.Z ) $.$.#.#.+.N.+.+.N...N.N...C.+.|.|.|.|.|.|.|.|.|.|.|.",
"|.|.|.|.|.|.|.|.|.|.p Z.T.K.C.B.B.V.B.B.V.r.*.y.t.u.^ 4.M.M.m.7.8.m.m.M.5.~ $.$.X.#.#.#.+.+.N.....N.N.N.A.p |.|.|.|.|.|.|.|.|.|.",
"|.|.|.|.|.|.|.|.|.|.p F.S.A.B.B.B.B.B.V.r.V.V.t.t.t.w.Z 0.9.9.4.N 9.9.0.Z ^ w.e.$.#.#.#.#.N.+.N.%.+.+.N.J.p |.|.|.|.|.|.|.|.|.|.",
"|.|.|.|.|.|.|.|.|.|.S K.Z.B.B.B.C.A.C.D.D.r.D.y.t.u.w.w.! Q Q Q W Q Q ! ^ t.e.e.r.#.*.r.N.D.J.D.%.+.+.N.K.G |.|.|.|.|.|.|.|.|.|.",
"|.|.|.|.|.|.|.|.|.|.Y K.C.B.B.B.C.A.Y G L H H H L L L L P P P P B B B B L L L L G G G G G G J.C.+.+.+.+.K.Y |.|.|.|.|.|.|.|.|.|.",
"|.|.|.|.|.|.|.|.|.|.] K.B.B.C.B.A.| ; #.*.*.y.=.r.r.t.X.2 + + + + + + z X.X.#.#.w.#.$.X...- { B.+.+.+.+.F.] |.|.|.|.|.|.|.|.|.|.",
"|.|.|.|.|.|.|.|.|.|...A.B.C.B.B.F._ 9 L.~.~.W.W.W.W.W.H.q O O O O O . H U.L.U.L.U.U.I.P.P.y ` J.+.+.+.+.A.O.|.|.|.|.|.|.|.|.|.|.",
"|.|.|.|.|.|.|.|.|.|.+.A.B.B.B.B.F.Y p L.~.^.^.'.'.'.'.U.q . . . . . . L R.R.U.U.U.I.I.I.P.G G C.+.+.+.+.V.&.|.|.|.|.|.|.|.|.|.|.",
"|.|.|.|.|.|.|.|.|.u A.A.B.B.B.C.F.F Y I.^.^.{.}.}.}.}.~.7   .     .   U ).).)./.(.(.(.(.I.` G C.+.+.+.+.B.A.y |.|.|.|.|.|.|.|.|.",
"|.|.|.|.|.|.|.|.|.y K.C.B.B.B.B.A.p | R.^.^.}.}.}.}.}.~.6             U ).)./.).(.(.(.(.).B.A C.+.+.+.+.N.F.p |.|.|.|.|.|.|.|.|.",
"|.|.|.|.|.|.|.|.|.A K.B.B.B.B.B.A.u O.T.^.`.{.}.}.}.}.~.5             U ).(.(.(.(.(.(.(.(.C.u C.+.+.+.+.&.K.A |.|.|.|.|.|.|.|.|.",
"|.|.|.|.|.|.|.|.|.R K.Z.B.Z.C.C.C.t *.E.^.`.}.}.}.}.}.~.6             U ).(.(.(.(.(.(.(.(.K.t N.N.+.+.+.+.K.' |.|.|.|.|.|.|.|.|.",
"|.|.|.|.|.|.|.|.- B.S.B.B.B.B.A.+.y A.E.^.[.}.}.}.}.{.~.6             T ).(.(.(.(.(.(.(.(.I.t N.B.+.+.+.N.S.&.; |.|.|.|.|.|.|.|.",
"|.|.|.|.|.|.|.|.= T.S.B.B.C.B.A.@.y S.E.^.`.}.}.}.}.}./.6             G ).(.(.(.(.(.(.(././.i ..C.+.+.+.N.K.S.6 |.|.|.|.|.|.|.|.",
"|.|.|.|.|.|.|.|.i T.C.B.Z.B.B.S.] p Y.~.^.{.}.}.}.}.}.~.6             U ).(.(.(.(.(.(.(.(.(.A ] C.+.+.+.+.A.T.p |.|.|.|.|.|.|.|.",
"|.|.|.|.|.|.|.|.S P.C.B.B.B.B.K.T A Y.E.^.}.}.}.}.}.}.~.6             T ).(.(.(.(.(.(.(.(.(.G R J.+.+.+.+.N.P.S |.|.|.|.|.|.|.|.",
"|.|.|.|.|.|.|.|.I T.C.B.B.B.B.K.J Y T.~.`.}.}.}.}.}.}.~.6             T (.(.(.(.(.(.(.(.(.(._ G J.+.+.+.+.N.L.Y |.|.|.|.|.|.|.|.",
"|.|.|.|.|.|.|.|.' T.B.Z.B.B.Z.K.A ] Y.~.`.}.}.}.}.}.}.~.6             G (.(.(.(.(.(.(.(.(.(.| A K.+.+.+.+.+.K.] |.|.|.|.|.|.|.|.",
"|.|.|.|.|.|.|.|.+.K.B.B.B.B.C.S.u @.E.^.`.}.}.}.}.}.}.^.6             I ).(.(.(.(.(.(.(.(.(.B.u A.&.+.+.+.+.K.+.7 |.|.|.|.|.|.|.",
"|.|.|.|.|.|.|.5 A.F.B.B.B.C.A.A.y O.T.^.`.}.}.}.}.}.}.~.6             I ).).(.(.(.(.(.(.(.(.A.y Z.B.+.+.+.+.A.A.5 |.|.|.|.|.|.|.",
"|.|.|.|.|.|.|.8 I.A.V.B.B.B.A.&.0 Z.E.`.].{.}.}.}.}.}.~.5             I ).(.(.(.(.(.(.(.(.(.K.t +.Z.+.+.+.+.B.K.9 |.|.|.|.|.|.|.",
"|.|.|.|.|.|.|.s T.B.B.B.B.C.S. .0 A.E.^.{.}.}.}.}.}.}.~.7             T ).(.(.(.(.(.(.(.(.(.I.u | A.+.+.+.+.N.I.p |.|.|.|.|.|.|.",
"|.|.|.|.|.|.|.G K.B.B.B.C.B.K.' y Y.^.~.{.}.}.}.}.}.}.~.6             G ).(.(.(.(.(.(.(.(.(./.i E S.+.+.+.+.+.L.F |.|.|.|.|.|.|.",
"|.|.|.|.|.|.|.T K.B.B.B.B.B.K.I p T.~.^.{.}.}.}.}.}.}.~.6             T ).).(.(.(.(.(.(.(.(./.S I K.+.+.+.+.+.K.T |.|.|.|.|.|.|.",
"|.|.|.|.|.|.|.[ K.B.B.C.B.B.K.S F T.~.^.}.}.}.}.}.}.}.~.6             T ).(.(.(.(.(.(.(.(.(.(.Y A F.+.+.+.+.+.F.{ 9 |.|.|.|.|.|.",
"|.|.|.|.|.|.9 +.F.Z.B.B.C.B.A.p Y T.~.^.}.}.}.}.}.}.}.~.6             G ).(.(.(.(.(.(.(.(.(.(.] p A.+.+.+.+.+.A.%.; |.|.|.|.|.|.",
"|.|.|.|.|.|.7 S.A.B.B.B.B.C.B.9 | T.~.`.}.}.}.}.}.}.{.~.6             U ).(.(.(.(.(.(.(.(.(.(...t N.N.N...N.N.N.S.5 |.|.|.|.|.|.",
"|.|.|.|.|.|.9 K.C.C.B.B.B.A.&.6 O.E.^.`.}.}.}.}.}.}.}.~.6             I ).(.(.(.(.(.(.(.(.(.(.B.5 N.N.N.N.....N.I.t |.|.|.|.|.|.",
"|.|.|.|.|.|.G T.B.B.B.C.B.A.@.- &.E.~.[.}.}.}.}.}.}.}.~.6             I ).(.(.(.(.(.(.(.(.(.(.J.5  .C.N.N.N.N.N.I.G |.|.|.|.|.|.",
"|.|.|.|.|.|.E T.B.B.B.C.C.S.[ = Z.E.^.[.}.}.}.}.}.}.}.~.6             T ).(.(.(.(.(.(.(.(.(.(.P.5 ` S.....N.....I.` |.|.|.|.|.|.",
"|.|.|.|.|.|.O.K.B.C.B.B.B.K.T 5 G.W.~.[.}.}.}.}.}.}.}.~.6             G ).(.(.(.(.(.(.(.(.(.).I.6 U S.+.+.+.N.N.K...|.|.|.|.|.|.",
"|.|.|.|.|.p B.K.B.B.B.B.B.K.F 9 Y.~.^.}.}.}.}.}.}.}.}.~.6             T ).).(.(.(.(.(.(.(.(.)./.A D K...+.+...N.A.C.y |.|.|.|.|.",
"|.|.|.|.|.A S.S.B.C.B.B.Z.K.i S T.~.^.{.}.}.}.}.}.}.}.!.6             T ).(.(.(.(.(.(.(.(.(.(.(.G u S.N.+.N...N.A.J.i |.|.|.|.|.",
"|.|.|.|.|.S T.S.B.B.B.B.Z.S.9 R T.~.`.}.}.}.}.}.}.}.}.~.6             G ).(.(.(.(.(.(.(.(.(.(.(.} t S.N...N.N...B.K.A |.|.|.|.|.",
"|.|.|.|.|.Y T.S.C.B.B.C.C.C.6 @.T.~.`.}.}.}.}.}.}.}.}./.5             T ).(.(.(.(.(.(.(.(.(.(.(.B.5 Z.B.+.+.+.+.N.T.I |.|.|.|.|.",
"|.|.|.|.|.' T.A.B.B.B.B.A.N., A.T.~.[.}.}.}.}.}.}.}.}.~.6             I ).(.(.(.(.(.(.(.(.(.(.(.I.5 &.A.+.+.+.+.+.T.] |.|.|.|.|.",
"|.|.|.|.|.| T.A.B.B.B.B.K.@., S.E.^.[.}.}.}.}.}.}.}.}.~.6             U ).(.(.(.(.(.(.(.(.(.(.(.(.5 O.A.+.+.+.+.+.K. .|.|.|.|.|.",
"|.|.|.|.|.%.S.B.C.B.B.C.K.| 8 T.~.^.[.}.}.}.}.}.}.}.}.~.6             U ).(.(.(.(.(.(.(.(.(.(.(.(.8 { K.+.+.+.+.+.A.&.|.|.|.|.|.",
"|.|.|.|.s Z.A.B.B.B.B.B.T.T y Y.!.^.}.}.}.}.}.}.}.}.}.~.6             U ).(.(.(.(.(.(.(.(.(.(.(.(.A T K.%.+.+.+.+.V.A.y |.|.|.|.",
"|.|.|.|.s F.A.B.B.C.C.C.T.I s Y.~._.}.}.}.}.}.}.}.}.}.~.6             I ).(.(.(.(.(.(.(.(.(.(.(.(.G G P.N.+.+.+.+.B.J.u |.|.|.|.",
"|.|.|.|.J K.C.B.B.B.B.A.S.A U Y.~.^.}.}.}.}.}.}.}.}.{.~.6             Y ).(.(.(.(.(.(.(.(.(.(.(.(._ A K.N.+.+.+.+.%.K.S |.|.|.|.",
"|.|.|.|.R K.C.B.B.B.B.A.A.y [ T.~.`.}.}.}.}.}.}.}.}.}.~.6             I ).(.(.(.(.(.(.(.(.(.(.(.(...y A.B.+.+.+.+.%.K.Y |.|.|.|.",
"|.|.|.|.] K.B.B.B.B.B.A.B.8 @.T.^.`.}.}.}.}.}.}.}.}.}.~.6             G ).(.(.(.(.(.(.(.(.(.(.(.(.B.8 N.A.+.+.+.+.+.K.] |.|.|.|.",
"|.|.|.|. .K.V.B.B.C.B.J.O.6 Z.T.^.[.}.}.}.}.}.}.}.}.}.~.6             T ).(.(.(.(.(.(.(.(.(.(.(.(.K.5 ..A.+.+.+.+.+.A.@.|.|.|.|.",
"|.|.|.|.N.A.B.V.B.C.B.F.| - G.E.~.`.}.}.}.}.}.}.}.}.}.~.6             T ).(.(.(.(.(.(.(.(.(.(.(.(.Q.5 { K.+.+.+.+.+.B.N.9 |.|.|.",
"|.|.|.p A.A.C.B.B.B.B.K.] - Y.~.^.{.}.}.}.}.}.}.}.}.{.~.6             G ).(.(.(.(.(.(.(.(.(.(.(.(.(.5 ' A.+.+.+.+.+.B.A.9 |.|.|.",
"|.|.|.p K.A.B.B.B.B.Z.S.T 8 T.~.^.{.}.}.}.}.}.}.}.}.}.~.6             T ).(.(.(.(.(.(.(.(.(.(.(.(.(.t T A.N.+.+.+.+.B.L.y |.|.|.",
"|.|.|.J K.V.B.V.B.Z.Z.S.D p Y.~.^.}.}.}.}.}.}.}.}.}.}.~.7             I (.(.(.(.(.(.(.(.(.(.(.(.(.(.A S A.N.+.+.+.+.%.K.S |.|.|.",
"|.|.|.] K.V.B.B.B.B.A.Z.p S Y.~._.}.}.}.}.}.}.}.}.}.}.~.6             U (.(././.(.(.(.(.(.(.(.(.(.(.I u A.N.+.+.+.+.+.K._ |.|.|.",
"|.|.|.N.K.V.B.B.B.B.A.N.7 J B.A.G.T.E.E.T.E.E.T.T.E.E.A.;             G J.J.J.J.J.J.S.J.S.J.J.J.S.S.T 6 N.B.+.+.+.+.+.F.B.= |.|.",
"|.|.8 S.S.B.B.C.B.C.A.&.- c M c q 7 r ;.;.n 0 7 w ;.;.n #             ; 7 8 m ;.;.r 8 8 c ;.;.k 7 7 4 = +.C.+.+.+.+.+.A.K.= |.|.",
"|.|.|.P.A.B.B.B.B.B.S. .% <.s.x 9 0 p.f.f.C 9 0 p.f.f.n %             1 0 r j.f.l.k 0 e l.f.d.r 0 0 a.$ | A.+.+.+.+.+.V.I.u |.|.",
"|.|.I T.A.C.B.B.B.B.K.] & a.M > * b h.h.,.; ; c g.k.1.1 #             ; 7 >.k.g.m , ; >.k.h.m ; ; :.g.$ _ A.+.+.+.+.+.B.I.S |.|.",
"|.|.T P.C.C.B.B.B.B.S.T : <.# @ : z.v.x.> % > z.n.c.1 % o             ; g n.n.1.& % f b.n.<.& % 3 b.n.3 Y K.+.+.+.+.+.N.T.Y |.|.",
"|.|.E T.C.B.B.C.B.Z.S.J 3 b . X j v.v.-.X X g b.n.>.X o o             1 3.v.x.: X # 2.v.x.< X o 2.v.x.< G S.C.N.+.+.+.%.K.T |.|.",
"|.|.E K.B.C.B.B.B.Z.S.S 1 & o o d V V > o o h V V > o o @ X X X X $ X > V V d $ o > l V g o o > x V g % A A.K.N.%.+.+.+.K.E |.|.",
"|.|.' S.C.B.C.B.B.C.Z.A s F F F F F F F S F F F F F F F J s S J F F J s F F F F F F G k F F F F F F S S p C.K.J.B.N.%.+.F.E |.|.",
"|.|.s J D D D D D J J F J J J J J J J J J J J J I J J J J J J J J J J J J J K G J J I J J J J J J J J J S G G G I G S S G p |.|."
};
