/* XPM */
static char *result[] = {
/* columns rows colors chars-per-pixel */
"64 64 178 2 ",
"   c #0C0B0A",
".  c #080707",
"X  c #100F0E",
"o  c #10100E",
"O  c #0D0E10",
"+  c #0F1012",
"@  c #131313",
"#  c #1B1914",
"$  c #151719",
"%  c #1B1C1D",
"&  c #241C14",
"*  c #251F1A",
"=  c #2C2215",
"-  c #23211C",
";  c #2A261D",
":  c #342A1C",
">  c #3B2C1B",
",  c #392815",
"<  c #3B321E",
"1  c #1C1E22",
"2  c #1E2024",
"3  c #222326",
"4  c #24262A",
"5  c #26292E",
"6  c #2A2B2B",
"7  c #2C2A25",
"8  c #312F24",
"9  c #353224",
"0  c #373428",
"q  c #2A2D33",
"w  c #2D3136",
"e  c #2E3239",
"r  c #31353C",
"t  c #34383F",
"y  c #3A3833",
"u  c #69191C",
"i  c #45321D",
"p  c #44371B",
"a  c #5B3A17",
"s  c #462E15",
"d  c #433324",
"f  c #5E3F21",
"g  c #533920",
"h  c #662729",
"j  c #5B451A",
"k  c #7C4F19",
"l  c #6A5716",
"z  c #725D1B",
"x  c #66421A",
"c  c #7B6415",
"v  c #7A631B",
"b  c #644223",
"n  c #6B5720",
"m  c #775F20",
"M  c #6C5032",
"N  c #353A41",
"B  c #3B3E45",
"V  c #4C3E45",
"C  c #523C42",
"Z  c #593A40",
"A  c #6A3E45",
"S  c #653C43",
"D  c #3E4046",
"F  c #3D424A",
"G  c #494147",
"H  c #44464D",
"J  c #454147",
"K  c #414750",
"L  c #454B54",
"P  c #474E58",
"I  c #494F59",
"U  c #494E57",
"Y  c #4C535D",
"T  c #6E4047",
"R  c #6D434B",
"E  c #6C4D56",
"W  c #704F59",
"Q  c #6E525B",
"!  c #71525C",
"~  c #4E5560",
"^  c #515762",
"/  c #535A64",
"(  c #575E69",
")  c #585E6A",
"_  c #735661",
"`  c #745863",
"'  c #785C67",
"]  c #59616C",
"[  c #5D6571",
"{  c #5F6975",
"}  c #74626F",
"|  c #6D6775",
" . c #626A76",
".. c #6B6876",
"X. c #636E7C",
"o. c #6A6D7A",
"O. c #606774",
"+. c #736571",
"@. c #7A6572",
"#. c #7D6A76",
"$. c #716D7A",
"%. c #7B6C79",
"&. c #756975",
"*. c #66707E",
"=. c #6A727E",
"-. c #74717F",
";. c #7C717E",
":. c #870A0A",
">. c #930E0E",
",. c #8C1111",
"<. c #911212",
"1. c #AC0A0A",
"2. c #BE0202",
"3. c #B40808",
"4. c #C90707",
"5. c #FB0000",
"6. c #F40000",
"7. c #89571B",
"8. c #945D1D",
"9. c #856C14",
"0. c #8D6F1C",
"q. c #876A1E",
"w. c #9C621E",
"e. c #97761A",
"r. c #A46A1F",
"t. c #A67919",
"y. c #B87921",
"u. c #C37F1F",
"i. c #B98519",
"p. c #C68D18",
"a. c #DB9B1A",
"s. c #D29519",
"d. c #E19E1A",
"f. c #FEBE0D",
"g. c #EBA51A",
"h. c #E5A11A",
"j. c #FFB219",
"k. c #C98422",
"l. c #D48C21",
"z. c #DC9022",
"x. c #E49522",
"c. c #F7992E",
"v. c #FC9C2F",
"b. c #F2962E",
"n. c #E58D2A",
"m. c #FEA525",
"M. c #677280",
"N. c #6C7785",
"B. c #6E7886",
"V. c #6F7A88",
"C. c #737381",
"Z. c #717883",
"A. c #727D8B",
"S. c #787582",
"D. c #76808E",
"F. c #79838F",
"G. c #758191",
"H. c #798494",
"J. c #7E8995",
"K. c #7D8A9A",
"L. c #798798",
"P. c #858492",
"I. c #808B97",
"U. c #818C9A",
"Y. c #86919E",
"T. c #818FA1",
"R. c #8493A4",
"E. c #8A96A3",
"W. c #8D99A6",
"Q. c #8796A8",
"!. c #8897AA",
"~. c #8E9BAB",
"^. c #919DAA",
"/. c #94A0AE",
"(. c #96A3B1",
"). c #99A6B5",
"_. c #9BA8B7",
"`. c None",
/* pixels */
"`.`.`.`.`.`.`.`.`.`.`.5 r N N N N N N N N N N N N B N N B B N B N N B N N B B B B B N N N N B N N K N N `.`.`.`.`.`.`.`.`.`.`.`.",
"`.`.`.`.`.`.`.`.`.`.`.e A.L.H.H.H.H.H.L.L.A.L.L.A.L.L.A.A.L.A.L.L.A.K.A.A.A.K.A.A.K.A.K.K.A.K.K.A.A.A.V.N `.`.`.`.`.`.`.`.`.`.`.",
"`.`.`.`.`.`.`.`.`.`.`.D A.H.H.H.H.H.H.H.L.L.L.L.T.A.L.A.L.L.L.A.L.A.K.K.K.A.A.K.A.K.A.L.A.A.K.A.A.K.A.A.N `.`.`.`.`.`.`.`.`.`.`.",
"`.`.`.`.`.`.`.`.`.`.`.I L.L.H.L.L.H.L.L.L.A.L.A.A.L.L.L.A.L.L.L.A.T.A.K.A.K.K.A.K.A.T.A.K.K.A.K.K.A.K.K.P `.`.`.`.`.`.`.`.`.`.`.",
"`.`.`.`.`.`.`.`.`.`.`.^ K.U.K.U.J.I.U.K.I.K.I.I.R.T.U.I.U.P.P.P.P.P.I.K.K.T.K.K.U.I.I.I.I.K.K.K.K.K.A.K.^ `.`.`.`.`.`.`.`.`.`.`.",
"`.`.`.`.`.`.`.`.`.`.`.O.U.U.U.L.H.A.A.V.A.V.A.A.S.S.;.#._ W ! ! E W W _ C.C.C.C.M.M.N.N.N.N.N.M.V.A.N.A.M.`.`.`.`.`.`.`.`.`.`.`.",
"`.`.`.`.`.`.`.`.`.`.`.N.U.L.A.N.N.B.N.B.B.N.-.-.C.#.' u 3.4.4.<.<.4.4.1.h _ } } | .. .M.M. .M.{ M.M.M.N.M.`.`.`.`.`.`.`.`.`.`.`.",
"`.`.`.`.`.`.`.`.`.`.r A.U.J.N.N.N.N.N.B.-.-.-.%.#.#.E >.5.5.5.1.1.5.5.6.,.W } } | ...... .M.{ M.M.M.M.M.M.N `.`.`.`.`.`.`.`.`.`.",
"`.`.`.`.`.`.`.`.`.`.r H.A.V.B.N.N.N.N.Z.-.-.-.%.#.#._ u 3.2.2.:.:.2.2.1.u _ } } } | | | ..M.M.M.*.X.X.M.A.r `.`.`.`.`.`.`.`.`.`.",
"`.`.`.`.`.`.`.`.`.`.H H.B.B.N.N.B.A.V.C.C.C.-.%.#.#.#.' R T R T S A A A _ } &.&.&.M.M.&.M.N.V.V.*.X.X.M.J.N `.`.`.`.`.`.`.`.`.`.",
"`.`.`.`.`.`.`.`.`.`.Y H.N.N.N.N.A.Z.L J G G G G C C C C g C Z Z Z Z Z Z C C C C V V V V B F A.V.X.X.X.*.H.K `.`.`.`.`.`.`.`.`.`.",
"`.`.`.`.`.`.`.`.`.`.) F.N.N.N.V.A.( 3 =.Z.Z.Z.-.Z.A.Z.Z.Z.A.=.=.M. . .M.M. . .M.M. .M. .M.$ [ N.X.X.X.X.G.~ `.`.`.`.`.`.`.`.`.`.",
"`.`.`.`.`.`.`.`.`.`.X.A.N.N.N.N.G.Y w J.E.E.W.E.E.E.E.E.W.W.E.J.T.L.L.L.L.L.L.L.A.L.K.K.K.N ^ V.X.X.X.X.A.{ `.`.`.`.`.`.`.`.`.`.",
"`.`.`.`.`.`.`.`.`.w M.A.V.N.V.N.A.H H I.E.E.^.^.^.^.^.^.^.W.W.Y.T.K.T.T.K.T.T.K.K.K.K.K.L.N ~ V.X.X.X.X.Z.X.`.`.`.`.`.`.`.`.`.`.",
"`.`.`.`.`.`.`.`.`.q A.A.N.N.N.N.A.B / I.E.^.)._._._.)._._._._.~.~.!.!.!.!.!.!.!.!.!.!.!.K.~ B V.X.X.X.X.B.B.q `.`.`.`.`.`.`.`.`.",
"`.`.`.`.`.`.`.`.`.w L.V.N.N.N.V.A.r O.U.E.^.)._._._._._._._._.!.~.!.!.!.!.!.!.!.!.!.!.!.!.M.N A.X.X.X.X.M.G.e `.`.`.`.`.`.`.`.`.",
"`.`.`.`.`.`.`.`.`.B L.N.N.N.N.V.A.w =.U.W.^._._._._._._._._._.W.~.!.!.!.!.!.!.!.!.!.!.!.!.N.e V.M.{ M.{ *.J.r `.`.`.`.`.`.`.`.`.",
"`.`.`.`.`.`.`.`.`.( H.N.N.N.N.A.N.5 Z.Y.E.^._._._._._._._._._.~.~.!.!.!.!.!.!.!.!.!.!.!.!.G.w N.M.X.{ M.*.H.L 6 `.`.`.`.`.`.`.`.",
"`.`.`.`.`.`.`.`.1 A.A.N.V.N.V.A. .e A.Y.W.(._._._._._._._._._.W.~.!.!.!.!.!.!.!.!.!.!.!.!.K.w M.N.{ M.M.M.G. .2 `.`.`.`.`.`.`.`.",
"`.`.`.`.`.`.`.`.1 K.A.N.N.N.N.A.] e J.R.W.)._._._._._._._._._.~.~.!.!.!.!.!.!.!.!.!.!.!.!.R.e { N.M.M.{ M.L.A.3 `.`.`.`.`.`.`.`.",
"`.`.`.`.`.`.`.`.N I.A.N.N.B.B.A.Y B J.E.W._._._._._._._._._._.~./.!.!.!.!.!.!.!.!.!.!.!.!.!.N ( V.{ { M.M.V.J.w `.`.`.`.`.`.`.`.",
"`.`.`.`.`.`.`.`.B K.V.N.N.B.B.H.L H J.E.W.)._._._._._._._._._.W.~.!.!.!.!.!.!.!.!.!.!.!.!.!.F ~ A.M.M.{ M.M.K.N `.`.`.`.`.`.`.`.",
"`.`.`.`.`.`.`.`.P I.V.N.N.N.B.H.F ~ I.W.^._._._._._._._._._._.~./.!.!.!.!.!.!.!.!.!.!.!.!.!.~ F G.{ M.M.{ M.L.F `.`.`.`.`.`.`.`.",
"`.`.`.`.`.`.`.`.] I.N.N.B.N.B.H.r ] U.E.^._._._._._._._._._._.W.~.!.!.!.!.!.!.!.!.!.!.!.!.!.[ B H.M.{ M.M.M.L.~ `.`.`.`.`.`.`.`.",
"`.`.`.`.`.`.`.3 M.H.B.B.N.N.A.A.w  .Y.W./._._._._._._._._._._.~.~.!.!.!.!.!.!.!.!.!.!.!.!.!.M.w D.M.X.X. .*.H.{ 3 `.`.`.`.`.`.`.",
"`.`.`.`.`.`.`.1 H.A.N.B.N.N.A.B.6 N.Y.W./._._._._._._._._._._.W.~.!.!.!.!.!.!.!.!.!.!.!.!.!.V.w A.N.X.X.*.X.A.N.2 `.`.`.`.`.`.`.",
"`.`.`.`.`.`.`.q J.V.N.N.N.N.A.X.6 D.Y.W.(._._._._._._._._._._.~.~.!.!.!.!.!.!.!.!.!.!.!.!.!.H.w M.B.X.X.X.X.V.H.4 `.`.`.`.`.`.`.",
"`.`.`.`.`.`.`.N J.B.N.N.B.B.H.) 6 J.Y.W.)._._._._._._._._._._.^.~.!.!.!.!.!.!.!.!.!.!.!.!.!.K.q O.A.X.X.X.X.N.J.w `.`.`.`.`.`.`.",
"`.`.`.`.`.`.`.H L.N.N.N.V.N.H.I e J.W.W._._._._._._._._._._._.^.(.!.!.!.!.!.!.!.!.!.!.!.!.!.R.r / A.X.X.X.X.*.J.N `.`.`.`.`.`.`.",
"`.`.`.`.`.`.`.Y J.N.N.N.N.N.L.B F J.Y.W._._._._._._._._._._._.W.~.!.!.!.!.!.!.!.!.!.!.!.!.!.!.N U D.X.X.X.X.X.H.L `.`.`.`.`.`.`.",
"`.`.`.`.`.`.`.[ G.N.N.N.N.N.G.N L U.Y.W._._._._._._._._._._._.W.~.!.!.!.!.!.!.!.!.!.!.!.!.!.!.L F H.X.X.X.X. .H./ q `.`.`.`.`.`.",
"`.`.`.`.`.`.4 B.A.N.N.V.N.A.A.e / U.W./._._._._._._._._._._._.W.~.!.!.!.!.!.!.!.!.!.!.!.!.!.!.~ r A.*.X.X.X.*.A. .2 `.`.`.`.`.`.",
"`.`.`.`.`.`.3 H.V.N.N.N.N.V.N.2 [ Y.E./._._._._._._._._._._._.~.(.K.!.!.!.!.!.!.!.!.!.!.!.!.!.M.q V.M.M.( M.M.M.M.$ `.`.`.`.`.`.",
"`.`.`.`.`.`.r J.V.N.V.N.N.D. .2  .Y.E./._._._._._._._._._._._.W.).!.!.!.!.!.!.!.!.!.!.!.!.!.!.V.2 M.M.M.M.M.M.M.A.2 `.`.`.`.`.`.",
"`.`.`.`.`.`.K I.N.V.N.V.V.G.] % B.Y.E.(._._._._._._._._._._._.~.!.!.!.!.!.!.!.!.!.!.!.!.!.!.!.A.$ M.N.M.M.M.M.M.K.N `.`.`.`.`.`.",
"`.`.`.`.`.`.( J.N.N.N.B.N.G.~ % F.Y.E.(._._._._._._._._._._._.~.).!.!.!.!.!.!.!.!.!.!.!.!.!.!.K.1 ( N.M.M.^ M.M.K.~ `.`.`.`.`.`.",
"`.`.`.`.`.`.*.H.N.N.N.N.B.H.L 6 J.Y.W._._._._._._._._._._._._.W.!.!.!.!.!.!.!.!.!.!.!.!.!.!.!.K.1 P A.M.M.M.( M.A.] `.`.`.`.`.`.",
"`.`.`.`.`.N B.H.N.V.N.V.V.F.t e U.Y.W._._._._._._._._._._._._.~.(.!.!.!.!.!.!.!.!.!.!.!.!.!.!.K.e K A.M.M.M.M.M.A.M.N `.`.`.`.`.",
"`.`.`.`.`.N G.D.N.N.N.N.B.F.q Y U.W.W._._._._._._._._._._._._.W.!.!.!.!.!.!.!.!.!.!.!.!.!.!.!.!.N N A.M.M.M.M.M.A.A.N `.`.`.`.`.",
"`.`.`.`.`.F L.G.N.V.N.N.B.D.4 ] U.Y./._._._._._._._._._._._._.~.(.!.!.!.!.!.!.!.!.!.!.!.!.!.!.!.( q A.M.M.M.( M.V.K.B `.`.`.`.`.",
"`.`.`.`.`.Y I.D.N.N.N.N.G.M.2 =.Y.Y./._._._._._._._._._._._._.W.!.!.!.!.!.!.!.!.!.!.!.!.!.!.!.!.N.2 V.M.{ M.M.{ N.K.F `.`.`.`.`.",
"`.`.`.`.`.( U.V.N.N.V.N.D.*.% F.Y.W.(._._._._._._._._._._._._.~.(.!.!.!.!.!.!.!.!.!.!.!.!.!.!.!.L.2 M.N.M.M.{ M.M.K.~ `.`.`.`.`.",
"`.`.`.`.`. .J.V.V.N.N.N.H.[ 2 J.Y.Y._._._._._._._._._._._._._.~.!.!.!.!.!.!.!.!.!.!.!.!.!.!.!.!.Q.1 M.V.{ M.{ M.M.A.] `.`.`.`.`.",
"`.`.`.`.`.M.A.V.N.N.N.V.L.( q J.Y./.)._._._._._._._._._._._._.W.(.!.!.!.!.!.!.!.!.!.!.!.!.!.!.!.!.2 [ G.{ M.M.M.M.A.X.`.`.`.`.`.",
"`.`.`.`.N A.A.B.N.N.B.V.J.I y J.Y.W.)._._._._._._._._._._._._.~.!.!.!.!.!.!.!.!.!.!.!.!.!.!.!.!.!.N ~ H.M.{ M.{ M.Z.B.q `.`.`.`.",
"`.`.`.`.B G.Z.N.B.N.N.V.J.F F J.Y.W._._._._._._._._._._._._._.W.(.!.!.!.!.!.!.!.!.!.!.!.!.!.!.!.!.F L L.M.X.{ M.X.N.A.q `.`.`.`.",
"`.`.`.`.L H.V.N.B.N.M.D.F.r Y U.W./._._._._._._._._._._._._._.~.!.!.!.!.!.!.!.!.!.!.!.!.!.!.!.!.!.~ B H.M.X.X.X.X.M.H.N `.`.`.`.",
"`.`.`.`.~ L.V.N.N.N.N.D.V.5  .Y.Y./._._._._._._._._._._._._._.W.(.!.!.!.!.!.!.!.!.!.!.!.!.!.!.!.!.[ w A.N.X.X.X.X.M.J.K `.`.`.`.",
"`.`.`.`.) H.B.B.N.N.B.A.M.1 =.U.W./._._._._._._._._._._._._._.~.~.!.!.!.!.!.!.!.!.!.!.!.!.!.!.!.!.M.5 B.V.X.X.X.X.X.H.Y `.`.`.`.",
"`.`.`.`.X.G.B.N.N.N.B.G.O.1 D.Y.W./._._._._._._._._._._._._._.~.~.!.!.!.!.!.!.!.!.!.!.!.!.!.!.!.!.L.1  .A.X.X.X.X.X.A.[ `.`.`.`.",
"`.`.`.`.V.A.N.N.N.N.N.H.( % J.Y.W./._._._._._._._._._._._._._.W.~.!.!.!.!.!.!.!.!.!.!.!.!.!.!.!.!.T.1 [ A.X.X.X.X.{ A.M.5 `.`.`.",
"`.`.`.t A.A.N.N.N.N.V.G.Y 3 J.E.^.(._._._._._._._._._._._._._.~.~.!.!.!.!.!.!.!.!.!.!.!.!.!.!.!.!.Q.1 ( G.X.X.X.X.X.V.V.q `.`.`.",
"`.`.`.N H.V.N.N.N.N.B.D.K w J.E.W.(._._._._._._._._._._._._._.W.~.!.!.!.!.!.!.!.!.!.!.!.!.!.!.!.!.!.2 ~ A.M.X.X.X.X.M.H.5 `.`.`.",
"`.`.`.P J.B.B.N.N.B.B.D.N B I.E.^.(._._._._._._._._._._._._._.W.~.!.!.!.!.!.!.!.!.!.!.!.!.!.!.!.!.!.N F A.M.X.X.X.X.M.J.r `.`.`.",
"`.`.`.] H.B.N.N.B.N.V.B.w L I.W.^._._._._._._._._._._._._._._.^.~.!.!.!.Q.!.!.Q.Q.Q.!.!.Q.!.!.!.!.!.F N A.M.X.X.X.X.*.H.L `.`.`.",
"`.`.3 V.H.B.N.N.N.N.D.=.% U =.D.H.Y.I.Y.U.Y.U.I.Y.U.Y.U.Y.U.U.F.L.G.G.L.G.G.G.G.G.G.G.G.G.G.G.G.A.H.L 5 N.N.X.X.X.X.X.H. .% `.`.",
"`.`.r H.A.V.N.N.N.N.A. .$ < 3 3 < 9.9.l 6 4 0 9.9.l 4 4 9 9.9.l w 3 8 c 9.z 3 3 9 c 9.c 3 3 8 c 9.c % 1 M.N.{ M.X.X.X.D.H.+ `.`.",
"`.`.B L.A.N.N.V.N.B.H.] + < 3 7 e.f.f.n 6 6 e.f.f.m 7 6 0.f.f.l y 6 q.f.f.e.6 6 v f.f.0.6 6 m f.f.e.6 @ [ V.M.M.*.X.X.A.L.5 `.`.",
"`.`.P K.A.V.N.N.N.N.H.Y @ # - j g.j.e.- % p g.j.t.3 * d h.j.i.# y < d.j.p.: - < a.j.p.; % : a.j.s.; * O / A.M.{ X.X.X.N.K.N `.`.",
"`.`.^ K.V.N.N.V.V.N.G.L   o # u.m.l.& @ # l.m.z.= @ @ p.m.z.=   y y.m.x.= + @ y.m.x., @ @ r.m.x.> @ $ % P H.{ M.X.X.X.M.I.K `.`.",
"`.`.( J.V.N.N.N.V.V.G.D @ . a n.c.k     x c.c.7.  . a c.v.7.X . M c.v.8.    s c.v.w.X   s b.v.r.o . , , L A.V.M.X.X.X.M.I.L `.`.",
"`.`.( H.N.N.N.N.N.V.A.r @ o i x f & o o a b b & X X i b b & X X d b b & o o > b b & X X , b b = X X , & B A.H.M.X.X.X.X.J.U `.`.",
"`.`.] D.N.N.N.V.V.V.Z.N N D D D D D J F D D J D D D J B D D D D J D D D D D J D B F B V B B B D B V F B r A.H.G.N.M.M.X.F.Y `.`.",
"`.`.D F F F D F D F D J H H H H H H H H K F H H H H H H H H H H H H H H H H H H H H H H H H H H H H H H B F F K F F B B F r `.`."
};
