/* XPM */
static char *result[] = {
/* columns rows colors chars-per-pixel */
"64 64 145 2 ",
"   c #000000",
".  c #080604",
"X  c #070C00",
"o  c #0A0D03",
"O  c #060708",
"+  c #0C0D0D",
"@  c #110F0F",
"#  c #0A1200",
"$  c #0E1900",
"%  c #11100F",
"&  c #0E0F10",
"*  c #0F1013",
"=  c #121314",
"-  c #191612",
";  c #1A1813",
":  c #15171A",
">  c #17191C",
",  c #191B1E",
"<  c #221A11",
"1  c #2E2212",
"2  c #2B2118",
"3  c #382611",
"4  c #302C1F",
"5  c #322615",
"6  c #1B1D21",
"7  c #1E2125",
"8  c #212326",
"9  c #232629",
"0  c #26292D",
"q  c #2A2A2C",
"w  c #332C21",
"e  c #272A31",
"r  c #2B2E33",
"t  c #2D3136",
"y  c #2E3339",
"u  c #313131",
"i  c #31353B",
"p  c #34383E",
"a  c #383A3F",
"s  c #412C14",
"d  c #5A3D20",
"f  c #533B23",
"g  c #5C4C12",
"h  c #7A4D17",
"j  c #62501B",
"k  c #6E521D",
"l  c #635215",
"z  c #735E10",
"x  c #49671F",
"c  c #4A691F",
"v  c #567C18",
"b  c #4A5D3F",
"n  c #644322",
"m  c #4B6629",
"M  c #4D6828",
"N  c #333740",
"B  c #353A41",
"V  c #3A3E44",
"C  c #3A3F48",
"Z  c #3D4044",
"A  c #3D424A",
"S  c #424D46",
"D  c #43464C",
"F  c #475643",
"G  c #495B40",
"H  c #414650",
"J  c #454B54",
"K  c #484E55",
"L  c #484E59",
"P  c #4C535D",
"I  c #556B45",
"U  c #587046",
"Y  c #5A724A",
"T  c #5E7356",
"R  c #61765A",
"E  c #63795E",
"W  c #4F5661",
"Q  c #505761",
"!  c #535B65",
"~  c #565E69",
"^  c #5A616D",
"/  c #5D6572",
"(  c #5F6875",
")  c #667D63",
"_  c #687E63",
"`  c #6A7F6F",
"'  c #616A76",
"]  c #636E7C",
"[  c #667576",
"{  c #697C71",
"}  c #65717E",
"|  c #69717E",
" . c #6C7C7D",
".. c #8D6616",
"X. c #A27E1B",
"o. c #BC7C1E",
"O. c #90602D",
"+. c #5C8917",
"@. c #5A8514",
"#. c #5F9014",
"$. c #60960F",
"%. c #609113",
"&. c #6FB10D",
"*. c #70B40B",
"=. c #6DA316",
"-. c #70A516",
";. c #78B217",
":. c #7BC907",
">. c #6B816C",
",. c #6E8172",
"<. c #6F807B",
"1. c #718676",
"2. c #738977",
"3. c #71857A",
"4. c #B3880F",
"5. c #C18715",
"6. c #D7A10B",
"7. c #EAA419",
"8. c #E19324",
"9. c #F6982E",
"0. c #FB9C2F",
"q. c #F9A327",
"w. c #95F405",
"e. c #98FB03",
"r. c #677280",
"t. c #6C7785",
"y. c #6D7986",
"u. c #6F7A88",
"i. c #717B86",
"p. c #727C8B",
"a. c #718181",
"s. c #76808F",
"d. c #78838E",
"f. c #778291",
"g. c #798494",
"h. c #7E8996",
"j. c #7E8998",
"k. c #808D95",
"l. c #808B99",
"z. c #819191",
"x. c #818FA1",
"c. c #8796A9",
"v. c #8897AA",
"b. c #8998AA",
"n. c None",
/* pixels */
"n.n.n.n.n.n.n.n.n.n.n.0 i B B B B B B B B B B B B B B B Z Z y Z N N B B B B B B B B B B B B B B B B B N 0 n.n.n.n.n.n.n.n.n.n.n.",
"n.n.n.n.n.n.n.n.n.n.n.i p.g.g.g.g.g.g.g.g.g.g.g.g.g.g.g.g.g.g.g.g.f.g.g.g.g.g.g.g.g.g.g.g.g.g.g.g.g.g.u.i n.n.n.n.n.n.n.n.n.n.n.",
"n.n.n.n.n.n.n.n.n.n.n.B f.g.g.g.g.g.g.g.g.g.g.g.g.g.g.g.g.g.h.d.g.g.g.g.g.g.g.g.g.g.g.g.g.g.g.g.g.g.g.f.C n.n.n.n.n.n.n.n.n.n.n.",
"n.n.n.n.n.n.n.n.n.n.n.J f.g.g.g.g.g.g.g.g.g.g.g.g.g.g.g.g.g.g.d.g.g.g.g.g.g.g.g.g.g.g.g.g.g.g.g.g.g.g.g.L n.n.n.n.n.n.n.n.n.n.n.",
"n.n.n.n.n.n.n.n.n.n.n.P j.j.x.l.j.j.j.j.l.l.l.j.j.j.j.j.j.j.d.h.j.g.h.g.j.g.j.j.k.j.l.j.l.j.l.l.j.j.j.j.P n.n.n.n.n.n.n.n.n.n.n.",
"n.n.n.n.n.n.n.n.n.n.n./ j.x.j.j.f.s.s.u.u.u.p.a.s.f.a.1.>.>.>.T R +.>.>.a.a.a.a.t.r.r.u.r.u.r.r.t.t.r.f.( n.n.n.n.n.n.n.n.n.n.n.",
"n.n.n.n.n.n.n.n.n.n.n.] l.j.p.u.t.t.t.y.u.y.y.<.a.1.>.m *.:.:.$.+.:.:.*.x >.>.>.[ [ [ ] } } ] ] r.r.r.r.r.n.n.n.n.n.n.n.n.n.n.n.",
"n.n.n.n.n.n.n.n.n.n.i p.l.h.t.t.t.t.y.y.y.a.<.<.<.1.T $.:.e.e.*.=.w.e.:.#.W >.>.[ [ [ [ ] ] ] ] r.r.r.r.t.y n.n.n.n.n.n.n.n.n.n.",
"n.n.n.n.n.n.n.n.n.n.i d.p.u.t.t.t.t.t.y.<.<.<.3.3.1._ c =.;.;.@.@.&.;.=.c T ,.{ { [ [ [ [ ] ] ] } ] ] r.s.i n.n.n.n.n.n.n.n.n.n.",
"n.n.n.n.n.n.n.n.n.n.C h.p.t.t.t.t.p.p.i.a.a.y.3.2.3.2._ Y Y Y U I I I T ) ,.,.,.{  . . . .| p.p.} ] ] } g.C n.n.n.n.n.n.n.n.n.n.",
"n.n.n.n.n.n.n.n.n.n.L g.t.t.t.t.p.i.L S S S S F F F F F G G G G b b b F F F F F S S A F D L p.i.] ] ] } g.J n.n.n.n.n.n.n.n.n.n.",
"n.n.n.n.n.n.n.n.n.n.! f.t.u.t.t.p.~ +   X X X X X X $ $ $ $ $ $ $ $ $ $ $ # # X X X X X   + ~ t.] ] ] ] s.Q n.n.n.n.n.n.n.n.n.n.",
"n.n.n.n.n.n.n.n.n.n.' f.t.t.t.t.s.P O       X X X X X X # # # # $ # o # X X X X X X X     O W u.] ] ] ] p.' n.n.n.n.n.n.n.n.n.n.",
"n.n.n.n.n.n.n.n.n.n.r.p.u.t.t.t.s.J           X X X X X X X X X X # X X X X X X           O J p.] ] ] ] t.| n.n.n.n.n.n.n.n.n.n.",
"n.n.n.n.n.n.n.n.n.t p.u.u.t.t.u.s.A                       X   . O X   X                     A p.] ] ] ] t.p.r n.n.n.n.n.n.n.n.n.",
"n.n.n.n.n.n.n.n.n.r g.u.t.t.t.t.p.y                                                         y p.] ] ] ] r.g.r n.n.n.n.n.n.n.n.n.",
"n.n.n.n.n.n.n.n.n.B g.t.t.t.t.u.p.0                                                         e p.} ] ] ] } h.p t n.n.n.n.n.n.n.n.",
"n.n.n.n.n.n.n.n.n.Q g.u.t.t.t.p.t.6                                                         6 t.r.] ] ] } g.P 9 n.n.n.n.n.n.n.n.",
"n.n.n.n.n.n.n.n.6 t.p.u.u.t.t.p.] *                                                         = ] r.] ] ] } s.| 9 n.n.n.n.n.n.n.n.",
"n.n.n.n.n.n.n.n.6 l.p.t.t.t.t.p.' +                                                         & ( u.] ] ] | g.g.9 n.n.n.n.n.n.n.n.",
"n.n.n.n.n.n.n.n.i l.u.t.u.t.t.g.! O                                                         + ! p.] ] ] ] p.j.t n.n.n.n.n.n.n.n.",
"n.n.n.n.n.n.n.n.V l.u.t.t.t.t.p.L O                                                           P p.] ] ] ] r.j.V n.n.n.n.n.n.n.n.",
"n.n.n.n.n.n.n.n.J l.u.t.t.t.t.g.A                                                             H f.] ] ] ] r.j.H n.n.n.n.n.n.n.n.",
"n.n.n.n.n.n.n.n.! l.t.t.u.t.u.g.B                                                             B f.} ] ] ] } h.Q r n.n.n.n.n.n.n.",
"n.n.n.n.n.n.n.9 ] h.t.t.t.t.p.p.e                                                             r p.| ] ] ] ] d.] 8 n.n.n.n.n.n.n.",
"n.n.n.n.n.n.n.7 p.s.t.t.t.t.p.u.7                                                             8 p.t.] ] ] ] p.p.6 n.n.n.n.n.n.n.",
"n.n.n.n.n.n.n.0 h.p.t.t.t.u.p.| :                                                             > | p.] ] ] ] u.g.9 n.n.n.n.n.n.n.",
"n.n.n.n.n.n.n.B l.t.t.t.t.t.g.~ *                                                             * ^ p.] ] ] ] } h.i n.n.n.n.n.n.n.",
"n.n.n.n.n.n.n.A h.t.t.t.u.t.g.Q +                                                             + Q d.] ] ] ] ] h.C n.n.n.n.n.n.n.",
"n.n.n.n.n.n.n.P g.t.t.t.t.t.g.H O                                                             O H f.] ] ] ] ] g.L n.n.n.n.n.n.n.",
"n.n.n.n.n.n.n.~ f.t.t.t.t.t.g.B O                                                             O C f.] ] ] ] ] s.! 0 n.n.n.n.n.n.",
"n.n.n.n.n.n.0 r.f.t.t.t.t.u.p.i                                                                 i p.] ] ] ] ] p.| 6 n.n.n.n.n.n.",
"n.n.n.n.n.n.8 f.p.t.t.t.t.t.t.8                                                                 9 t.r.] ] ] ] u.p.6 n.n.n.n.n.n.",
"n.n.n.n.n.n.r j.p.t.t.t.t.p.| 6 O                                                             O 6 ] t.] ] ] ] r.l.e n.n.n.n.n.n.",
"n.n.n.n.n.n.D j.t.t.t.t.t.p./ > O                                                             + 6 ' p.] ] ] ] } l.C n.n.n.n.n.n.",
"n.n.n.n.n.n.! h.t.t.t.t.p.g.! = &                                                             : , ! p.] ] ] ] ] g.Q n.n.n.n.n.n.",
"n.n.n.n.n.n.' g.t.u.t.t.t.g.K 6 =                                                             6 9 L f.] ] ] ] ] f.' n.n.n.n.n.n.",
"n.n.n.n.n.N t.f.t.t.t.t.t.h.C 6 :                                                             8 r A f.] ] ] ] ] p.t.r n.n.n.n.n.",
"n.n.n.n.n.B p.g.t.u.u.t.t.f.t i :                                                             9 D y f.] ] ] ] ] p.f.t n.n.n.n.n.",
"n.n.n.n.n.C j.p.t.t.t.t.u.s.0 J :                                                             9 ! e f.] ] ] ] ] t.g.B n.n.n.n.n.",
"n.n.n.n.n.P j.p.t.t.t.u.u.u.8 ! :                                                             9 r.8 p.r.] ] ] ] t.l.D n.n.n.n.n.",
"n.n.n.n.n.! l.p.t.y.t.t.s.r., | :                                                             9 j.6 | p.] ] ] ] ] l.W n.n.n.n.n.",
"n.n.n.n.n.' j.p.t.t.t.t.g.' , i.:                                                             9 v.6 ' p.] ] ] ] ] h.~ n.n.n.n.n.",
"n.n.n.n.n.r.p.t.t.t.t.u.g.~ 9 i.>                                                             9 v.9 ^ f.] ] ] ] ] p.| 0 n.n.n.n.",
"n.n.n.n.p p.p.t.t.t.t.u.g.P t i.:                                                             9 v.y P g.} ] ] ] ] u.i.r n.n.n.n.",
"n.n.n.n.B f.p.t.u.t.t.u.h.D V i.>                                                             9 b.A H j.r.] ] ] ] t.s.t n.n.n.n.",
"n.n.n.n.D g.u.t.t.t.u.p.g.p K i.>                                                             9 b.P B g.r.] ] ] ] } g.V n.n.n.n.",
"n.n.n.n.P g.t.t.t.t.t.p.p.e ^ p.>                                                             9 b./ r p.t.] ] ] ] } g.J n.n.n.n.",
"n.n.n.n.! g.u.t.t.t.t.p.t.8 ' p.>                                                             9 b.r.9 r.u.] ] ] ] } s.Q n.n.n.n.",
"n.n.n.n.' f.t.t.t.u.u.f.' , i.d.>                                                             9 b.g.6 ' p.] ] ] ] ] s./ n.n.n.n.",
"n.n.n.n.p.p.t.t.t.t.t.f.^ , d.d.,                                                             9 b.x.6 ^ p.] ] ] ] ] u.| q n.n.n.",
"n.n.n.p p.p.t.u.t.t.t.f.! , d.h.>                                                             9 b.c.6 ! s.] ] ] ] ] u.u.r n.n.n.",
"n.n.n.i g.p.t.t.t.t.u.d.K 0 g.h.>                                                             9 b.c.e L p.r.] ] ] ] r.g.0 n.n.n.",
"n.n.n.D g.u.t.t.t.t.p.p.V i l.h.,                                                             9 b.b.N C p.r.] ] ] } | g.B n.n.n.",
"n.n.n.! g.u.t.t.t.t.p.t.r D k.h.>                                                             9 b.b.A N u.r.] ] ] ] } g.W n.n.n.",
"n.n.8 t.f.u.t.t.t.t.p.t.8 D  .| :                                                             6 f.p.L 7 t.t.] ] ] ] } f.r.= n.n.",
"n.n.9 p.p.t.t.u.t.t.p.] , g z l o                                                             + q 8 w > ] u.] ] ] ] ] s.g.= n.n.",
"n.n.n.j.p.t.t.t.t.t.g.~ * 4.6.j +                                                             = u q X.= ^ p.] ] ] ] ] u.j.t n.n.",
"n.n.H l.p.u.t.t.t.t.g.Q ; 5...< .                                                             @ q k 7.- ! p.] ] ] ] ] y.h.C n.n.",
"n.n.P l.u.u.t.t.t.t.g.K 1 o.< = .                                                             & 4 8.q.5 L f.] ] ] ] ] r.j.H n.n.",
"n.n.Q l.u.t.t.t.u.u.p.D s h + + .                       O                       O           O & O.0.9.3 D f.u.r.] ] ] } h.L n.n.",
"n.n.Q h.t.t.t.t.t.p.p.B 2 < @ @ @ + + + + + + + + + + + & & + + + + + + + + + + & & + + + & O : f n d - B p.f.r.] ] ] } g.P n.n.",
"n.n.Q p.u.t.t.u.u.u.p.a a Z V Z D V Z Z Z Z Z Z Z Z Z Z f A a D D a Z Z Z Z Z Z f A Z Z C V f A a D V a i u.g.f.r.t.} } s.P n.n.",
"n.n.B H A C C C C D A V D D D D D D D D D D D D D D D D D D S D D D D D D D D D D D D D D D D D S D D D V A A H A A V V A i n.n."
};
