/* XPM */
static char *result[] = {
/* columns rows colors chars-per-pixel */
"64 64 143 2 ",
"   c #020202",
".  c #080706",
"X  c #0A0906",
"o  c #020609",
"O  c #02090D",
"+  c #0D0B0A",
"@  c #130A06",
"#  c #1C0D07",
"$  c #120D0C",
"%  c #1B0E0B",
"&  c #14120D",
"*  c #1A140E",
"=  c #1C180F",
"-  c #030D15",
";  c #0A0E12",
":  c #040F18",
">  c #100F10",
",  c #0A1015",
"<  c #04121C",
"1  c #141212",
"2  c #1A1613",
"3  c #1C1A13",
"4  c #181719",
"5  c #1C1A1A",
"6  c #21140E",
"7  c #2C180F",
"8  c #211715",
"9  c #211D14",
"0  c #2C1C13",
"q  c #231D1C",
"w  c #2B1D1B",
"e  c #242116",
"r  c #292316",
"t  c #25221B",
"y  c #2A251C",
"u  c #2D291D",
"i  c #35221F",
"p  c #3A2018",
"a  c #332E1D",
"s  c #37311F",
"d  c #38311E",
"f  c #051522",
"g  c #061827",
"h  c #071C2D",
"j  c #081C2D",
"k  c #1E1E20",
"l  c #071F31",
"z  c #072033",
"x  c #082236",
"c  c #09253B",
"v  c #09283F",
"b  c #242122",
"n  c #2B2523",
"m  c #2F2924",
"M  c #2B2A2D",
"N  c #342523",
"B  c #3A2522",
"V  c #312B25",
"C  c #3D2A24",
"Z  c #352D2A",
"A  c #382F2D",
"S  c #353224",
"D  c #3B3524",
"F  c #3A3827",
"G  c #3A312E",
"H  c #3E392A",
"J  c #2D2D30",
"K  c #3D3330",
"L  c #442619",
"P  c #4C261B",
"I  c #442B1E",
"U  c #502719",
"Y  c #562D1D",
"T  c #592F1D",
"R  c #412B25",
"E  c #4C2F23",
"W  c #4B3021",
"Q  c #433C26",
"!  c #4C332D",
"~  c #423C2B",
"^  c #543325",
"/  c #5D3223",
"(  c #5E3927",
")  c #53322B",
"_  c #583228",
"`  c #583C2C",
"'  c #503531",
"]  c #683523",
"[  c #6E3F23",
"{  c #64362B",
"}  c #6E3628",
"|  c #66392F",
" . c #743C23",
".. c #7A3D24",
"X. c #763C2C",
"o. c #45412D",
"O. c #4C442C",
"+. c #51472B",
"@. c #54492D",
"#. c #4A4731",
"$. c #4C4932",
"%. c #534B32",
"&. c #5B5234",
"*. c #5F5539",
"=. c #69402D",
"-. c #7B4425",
";. c #78452A",
":. c #6B4732",
">. c #7D4131",
",. c #625736",
"<. c #635739",
"1. c #655A39",
"2. c #6C5F3C",
"3. c #7A523A",
"4. c #6E623F",
"5. c #0A2A43",
"6. c #0B2E4A",
"7. c #0B314E",
"8. c #0C3554",
"9. c #0D3758",
"0. c #0D3A5C",
"q. c #3F3F42",
"w. c #0E3E62",
"e. c #0F4067",
"r. c #0F426B",
"t. c #414144",
"y. c #716542",
"u. c #766843",
"i. c #834526",
"p. c #864A29",
"a. c #8C4B2F",
"s. c #934F2F",
"d. c #8E512E",
"f. c #844C30",
"g. c #884831",
"h. c #8F5334",
"j. c #955432",
"k. c #9D5433",
"l. c #9E5934",
"z. c #A25C39",
"x. c #835B42",
"c. c #926549",
"v. c None",
/* pixels */
"v.v.v.v.v.v.v.v.v.v.v.v.v.v.v.v.v.v.v.v.v.v.v.v.v.v.v.v.v.v.v.v.v.v.v.v.v.v.v.v.v.v.v.v.v.v.v.v.v.v.v.v.v.v.v.v.v.v.v.v.v.v.v.v.",
"v.v.v.v.v.v.v.v.v.v.v.v.v.v.v.v.v.v.v.v.v.v.v.v.v.v.v.v.v.v.v.v.v.v.v.v.v.v.v.v.v.v.v.v.v.v.v.v.v.v.v.v.v.v.v.v.v.v.v.v.v.v.v.v.",
"v.v.v.v.v.v.v.v.v.v.v.v.v.v.v.v.v.v.v.v.v.v.v.v.v.v.v.v.v.v.v.v.v.v.v.v.v.v.v.v.v.v.v.v.v.v.v.v.v.v.v.v.v.v.v.v.v.v.v.v.v.v.v.v.",
"v.v.v.v.v.v.v.v.v.v.v.v.v.v.v.v.v.v.v.v.v.v.v.v.v.v.v.v.v.v.v.v.v.v.v.v.v.v.v.v.v.v.v.v.v.v.v.v.v.v.v.v.v.v.v.v.v.v.v.v.v.v.v.v.",
"v.v.v.v.v.v.v.v.v.v.v.v.v.v.v.v.v.v.v.v.v.v.v.v.v.v.v.v.v.v.v.v.v.v.v.v.v.v.v.v.v.v.v.v.v.v.v.v.v.v.v.v.v.v.v.v.v.v.v.v.v.v.v.v.",
"v.v.v.v.v.v.v.v.v.v.v.v.v.v.v.v.v.v.v.v.v.v.v.v.v.v.v.v.v.v.v.v.v.v.v.v.v.v.v.v.v.v.v.v.v.v.v.v.v.v.v.v.v.v.v.v.v.v.v.v.v.v.v.v.",
"v.v.v.v.v.v.v.v.v.v.v.v.v.v.v.v.v.v.v.v.v.v.v.v.v.v.v.v.v.v.v.v.v.v.v.v.v.v.v.v.v.v.v.v.v.v.v.v.v.v.v.v.v.v.v.v.v.v.v.v.v.v.v.v.",
"v.v.v.v.v.v.v.v.v.v.v.v.v.v.v.v.v.v.v.v.v.v.v.v.v.v.v.v.v.v.v.v.v.v.v.v.v.v.v.v.v.v.v.v.v.v.v.v.v.v.v.v.v.v.v.v.v.v.v.v.v.v.v.v.",
"v.v.v.v.v.v.v.v.v.v.v.v.v.v.v.v.v.v.v.v.v.v.v.v.v.v.v.v.v.v.v.v.v.v.v.v.v.v.v.v.v.v.v.v.v.v.v.v.v.v.v.v.v.v.v.v.v.v.v.v.v.v.v.v.",
"v.v.v.v.v.v.v.v.v.v.v.v.v.v.v.v.v.v.v.v.v.v.v.v.v.v.v.v.v.v.v.v.v.v.v.v.v.v.v.v.v.v.v.v.v.v.v.v.v.v.v.v.v.v.v.v.v.v.v.v.v.v.v.v.",
"v.v.v.v.v.v.v.v.v.v.v.v.v.v.v.v.v.v.v.v.v.v.v.v.v.v.v.v.v.v.v.v.v.v.v.v.v.v.v.v.v.v.v.v.v.v.v.v.v.v.v.v.v.v.v.v.v.v.v.v.v.v.v.v.",
"v.v.v.v.v.v.v.v.v.v.v.v.v.v.v.v.v.v.v.v.v.v.v.v.v.v.v.v.v.v.v.v.v.v.v.v.v.v.v.v.v.v.v.v.v.v.v.v.v.v.v.v.v.v.v.v.v.v.v.v.v.v.v.v.",
"v.v.v.v.v.v.v.v.v.v.v.v.v.v.v.v.v.v.v.v.v.v.v.v.v.v.v.v.v.v.v.v.v.v.v.v.v.v.v.v.v.v.v.v.v.v.v.v.v.v.v.v.v.v.v.v.v.v.v.v.v.v.v.v.",
"v.v.v.v.v.v.v.v.v.v.v.v.v.v.v.v.v.v.v.v.v.v.v.v.v.v.v.v.v.v.v.v.v.v.v.v.v.v.v.v.v.v.v.v.v.v.v.v.v.      v.v.v.v.v.v.v.v.v.v.v.v.",
"v.v.v.v.v.v.v.v.v.v.v.v.v.v.v.v.v.v.v.v.v.v.v.v.v.v.v.v.v.v.v.v.v.v.v.v.v.v.v.v.v.v.v.    o o O : f < < - O       v.v.v.v.v.v.v.",
"v.v.v.v.v.v.v.v.v.v.v.v.v.v.v.v.v.v.v.v.v.v.v.v.v.v.v.v.v.v.v.v.v.v.v.v.v.v.v.v.    O f c 5.v x l x 5.8.8.8.c < o     v.v.v.v.v.",
"v.v.v.v.v.v.v.v.v.v.v.v.v.v.v.v.v.v.v.v.v.v.v.v.v.v.v.v.v.v.v.v.v.v.v.v.v.v.    O < 5.8.0.0.8.5.x c 8.9.0.w.8.5.x < O   v.v.v.v.",
"v.v.v.v.v.v.v.v.v.v.v.v.v.v.v.v.v.v.v.v.v.v.v.v.v.v.v.v.v.v.v.v.v.v.v.v.  o : x 6.7.9.r.r.r.0.5.c 5.9.0.r.w.8.8.6.8.5.< o v.v.v.",
"v.v.v.v.v.v.v.v.v.v.v.v.v.v.v.. $ $ $   v.v.v.v.v.v.v.v.v.v.v.  $ $     : c v w.e.0.0.r.r.r.0.5.c 5.9.w.w.8.0.7.6.w.7.5.5.  v.v.",
"v.v.v.v.v.v.v.v.v.v.v.v.v.v.  w ) ' ' N . v.v.v.v.v.v.v.v.  + i ' ' R 2 : 8.v 9.0.9.8.7.7.7.v j < f c 5.c x x 6.6.5.6.9.0.O v.v.",
"v.v.v.v.v.v.v.v.v.v.v.v.v.v.. 8 8 8 8 % + @ % % + 4 k k 5 4 4 2 1 1 2 > + , ; ; , r R E ^ / T T T Y P U Y T L ; 5.7.0.w.r.c   v.",
"  + > o . + + ; 4 > 1 , > > R | { { _ _ B N C N k J t.t.q.q.M k b k k b k 5 4 + & =.h.j.l.k.z.l.k.j.g.g.s.s.;.+ v 0.w.r.r.0.O v.",
"  5 4 X X > 4 5 k 5 5 5 5 4 ) >.X.} ] / p 8 q 8 ; + + > , 1 1 1 1 1 > > > ; $ + $ ( f.h.j.s.d.-. ... ...i.p.[ $ 6.w.r.r.r.r.< v.",
"v.            o . o         $ 6 % % % % $ % 6 % . . .   . .   . o . . . .   .   . $ % 6 0 0 # I W * # # # # @ f w.r.r.r.r.r.< v.",
"v.v.v.v.v.v.v.v.v.v.v.v.v.v.  > i B 8     - O   v.v.v.v.v.    + > .         $ 8 2 $ X     + R x.c.`     & e   l w.r.r.r.r.w.- v.",
"v.v.v.v.v.v.v.v.v.v.v.v.v.v.v.  o . O c 0.9.l   v.v.v.v.v.v.v.v.v.  . X         X + . ; 8 q b b n q 2 > .     - 6.r.r.r.r.8.  v.",
"v.v.v.v.v.v.v.v.v.v.v.v.v.v.v.v.v.  c 9.5.5.5.-   v.v.v.v.v.v.v.v.. 2 3   . 1 5 q 2 4 5 n N Z Z Z n q n b $   o l 0.r.r.e.g   v.",
"v.v.v.v.v.v.v.v.v.v.v.v.v.v.v.v.v.  < 6.0.r.w.h   v.v.v.v.v.v.v.  2 y 2 1 q b y 5 5 Z N q k Z Z Z Z Z Z Z t +   : 5.9.0.9.O   v.",
"v.v.v.v.v.v.v.v.v.v.v.v.v.v.v.v.v.v.o 6.w.r.r.8.-   v.v.v.v.v.v.  2 y + n n n G 4 N K G b J G G K A G A Z n 2   o f c 6.l   v.v.",
"v.v.v.v.v.v.v.v.v.v.v.v.v.v.v.v.v.v.  g 9.w.r.w.5.- v.v.v.v.v.v.v.o X + V Z Z Z 1 Z K Z n K G G A Z G A Z n 5 X   O g l O v.v.v.",
"v.v.v.v.v.v.v.v.v.v.v.v.v.v.v.v.v.v.  o 5.8.0.r.9.l   v.v.v.v.v.      $ m Z A Z 2 N G A n G G G Z N A A Z n 2 X     - -   v.v.v.",
"v.v.v.v.v.v.v.v.v.v.v.v.v.v.v.v.v.v.v.  l w.r.r.r.6.-           O -   + n Z Z G 4 n G A q Z G G K G G G A Z 4 X 9           v.v.",
"v.v.v.v.v.v.v.v.v.v.v.v.v.v.v.v.v.v.v.  f 9.r.r.r.9.g o - < < < x x O   4 b n A 3 q A Z q n Z G G G A K Z n 1 + s o     & X   v.",
"v.v.v.v.v.v.v.v.v.v.v.v.v.v.v.v.v.v.v.v.o c w.r.w.7.c - l v 6.5.9.0.x o . & 5 t q 1 n n b A G G G Z n Z m 3 . a o.+ = u &.%.  v.",
"v.v.v.v.v.v.v.v.v.v.v.v.v.v.v.v.v.v.v.v.  - 5.9.8.v z z 7.7.8.7.7.w.9.g     . + 1 + + 2 w M V N N b 5 q & . & 4.,.9 & y F D + v.",
"v.v.v.v.v.v.v.v.v.v.v.v.v.v.v.v.v.v.v.v.v.  < v c x 5.9.w.9.7.5.6.w.w.5.-   2 y 3 .     X + q R ! y .   X = & y.1.e X y H F 3 v.",
"v.v.v.v.v.v.v.v.v.v.v.v.v.v.v.v.v.v.v.v.v.v.  f x c 8.0.w.9.9.9.7.0.r.0.x - + y.u.Q   + 8 $ = :.3.0 & t D D & *.1.e . e F &.n   ",
"v.v.v.v.v.v.v.v.v.v.v.v.v.v.v.v.v.v.v.v.v.v.v.o f c 9.0.w.8.8.5.6.9.r.r.8.g   a 2.D + . w 9   o $ 3 O.%.H S + S H e   2 V @.& v.",
"v.v.v.v.v.v.v.v.v.v.v.v.v.v.v.v.v.v.v.v.v.v.v.v.  - x 7.9.8.7.0.7.8.r.r.0.5.< . d & = &   X & e y ~ 1.1.O.F & 3 t 4 . & r +   v.",
"v.v.v.v.v.v.v.v.v.v.v.v.v.v.v.v.v.v.v.v.v.v.v.v.v.  o - h l x 5.c 5.0.e.0.9.x o   u $.Q & 9 t u S H &.&.o.e X X X X   & s X v.v.",
"v.v.v.v.v.v.v.v.v.v.v.v.v.v.v.v.v.v.v.v.v.v.v.v.v.v.v.      o O O < 5.8.9.9.x -   Q %.~ %.& 3 S F o.$.O.e $ e 2 & = X . e . v.v.",
"v.v.v.v.v.v.v.v.v.v.v.v.v.v.v.v.v.v.v.v.v.v.v.v.v.v.v.v.v.v.        o O < f < -   & Q +.4.%.& u F #.y . & u u S e +.+.9 .   v.v.",
"v.v.v.v.v.v.v.v.v.v.v.v.v.v.v.v.v.v.v.v.v.v.v.v.v.v.v.v.v.v.v.v.v.v.v.            X * Q F $.o.2 3 + X e = = 5 S e S &.@.=   v.v.",
"v.v.v.v.v.v.v.v.v.v.v.v.v.v.v.v.v.v.v.v.v.v.v.v.v.v.v.v.v.v.v.v.v.v.v.v.v.v.v.  r O.9 + u F S = X s o.u e e 9 F F 2 D o.X   v.v.",
"v.v.v.v.v.v.v.v.v.v.v.v.v.v.v.v.v.v.v.v.v.v.v.v.v.v.v.v.v.v.v.v.v.v.v.v.v.v.  * &.&.+.9 . = 9 X + D &.Q e m e 3 a a r +   v.v.v.",
"v.v.v.v.v.v.v.v.v.v.v.v.v.v.v.v.v.v.v.v.v.v.v.v.v.v.v.v.v.v.v.v.v.v.v.v.v.v.v.* ,.Q S u e X . . 2 e O.%.e y y 3 a e     v.v.v.v.",
"v.v.v.v.v.v.v.v.v.v.v.v.v.v.v.v.v.v.v.v.v.v.v.v.v.v.v.v.v.v.v.v.v.v.v.v.v.v.v.v.9 F H S a e X X e u u a y e a &     v.v.v.v.v.v.",
"v.v.v.v.v.v.v.v.v.v.v.v.v.v.v.v.v.v.v.v.v.v.v.v.v.v.v.v.v.v.v.v.v.v.v.v.v.v.v.v.  $ ~ m 9 r & . 3 u t y y $     v.v.v.v.v.v.v.v.",
"v.v.v.v.v.v.v.v.v.v.v.v.v.v.v.v.v.v.v.v.v.v.v.v.v.v.v.v.v.v.v.v.v.v.v.v.v.v.v.v.v.v.      X &   & e 3 + .   v.v.v.v.v.v.v.v.v.v.",
"v.v.v.v.v.v.v.v.v.v.v.v.v.v.v.v.v.v.v.v.v.v.v.v.v.v.v.v.v.v.v.v.v.v.v.v.v.v.v.v.v.v.v.v.v.        & .     v.v.v.v.v.v.v.v.v.v.v.",
"v.v.v.v.v.v.v.v.v.v.v.v.v.v.v.v.v.v.v.v.v.v.v.v.v.v.v.v.v.v.v.v.v.v.v.v.v.v.v.v.v.v.v.v.v.v.v.v.    v.v.v.v.v.v.v.v.v.v.v.v.v.v.",
"v.v.v.v.v.v.v.v.v.v.v.v.v.v.v.v.v.v.v.v.v.v.v.v.v.v.v.v.v.v.v.v.v.v.v.v.v.v.v.v.v.v.v.v.v.v.v.v.v.v.v.v.v.v.v.v.v.v.v.v.v.v.v.v.",
"v.v.v.v.v.v.v.v.v.v.v.v.v.v.v.v.v.v.v.v.v.v.v.v.v.v.v.v.v.v.v.v.v.v.v.v.v.v.v.v.v.v.v.v.v.v.v.v.v.v.v.v.v.v.v.v.v.v.v.v.v.v.v.v.",
"v.v.v.v.v.v.v.v.v.v.v.v.v.v.v.v.v.v.v.v.v.v.v.v.v.v.v.v.v.v.v.v.v.v.v.v.v.v.v.v.v.v.v.v.v.v.v.v.v.v.v.v.v.v.v.v.v.v.v.v.v.v.v.v.",
"v.v.v.v.v.v.v.v.v.v.v.v.v.v.v.v.v.v.v.v.v.v.v.v.v.v.v.v.v.v.v.v.v.v.v.v.v.v.v.v.v.v.v.v.v.v.v.v.v.v.v.v.v.v.v.v.v.v.v.v.v.v.v.v.",
"v.v.v.v.v.v.v.v.v.v.v.v.v.v.v.v.v.v.v.v.v.v.v.v.v.v.v.v.v.v.v.v.v.v.v.v.v.v.v.v.v.v.v.v.v.v.v.v.v.v.v.v.v.v.v.v.v.v.v.v.v.v.v.v.",
"v.v.v.v.v.v.v.v.v.v.v.v.v.v.v.v.v.v.v.v.v.v.v.v.v.v.v.v.v.v.v.v.v.v.v.v.v.v.v.v.v.v.v.v.v.v.v.v.v.v.v.v.v.v.v.v.v.v.v.v.v.v.v.v.",
"v.v.v.v.v.v.v.v.v.v.v.v.v.v.v.v.v.v.v.v.v.v.v.v.v.v.v.v.v.v.v.v.v.v.v.v.v.v.v.v.v.v.v.v.v.v.v.v.v.v.v.v.v.v.v.v.v.v.v.v.v.v.v.v.",
"v.v.v.v.v.v.v.v.v.v.v.v.v.v.v.v.v.v.v.v.v.v.v.v.v.v.v.v.v.v.v.v.v.v.v.v.v.v.v.v.v.v.v.v.v.v.v.v.v.v.v.v.v.v.v.v.v.v.v.v.v.v.v.v.",
"v.v.v.v.v.v.v.v.v.v.v.v.v.v.v.v.v.v.v.v.v.v.v.v.v.v.v.v.v.v.v.v.v.v.v.v.v.v.v.v.v.v.v.v.v.v.v.v.v.v.v.v.v.v.v.v.v.v.v.v.v.v.v.v.",
"v.v.v.v.v.v.v.v.v.v.v.v.v.v.v.v.v.v.v.v.v.v.v.v.v.v.v.v.v.v.v.v.v.v.v.v.v.v.v.v.v.v.v.v.v.v.v.v.v.v.v.v.v.v.v.v.v.v.v.v.v.v.v.v.",
"v.v.v.v.v.v.v.v.v.v.v.v.v.v.v.v.v.v.v.v.v.v.v.v.v.v.v.v.v.v.v.v.v.v.v.v.v.v.v.v.v.v.v.v.v.v.v.v.v.v.v.v.v.v.v.v.v.v.v.v.v.v.v.v.",
"v.v.v.v.v.v.v.v.v.v.v.v.v.v.v.v.v.v.v.v.v.v.v.v.v.v.v.v.v.v.v.v.v.v.v.v.v.v.v.v.v.v.v.v.v.v.v.v.v.v.v.v.v.v.v.v.v.v.v.v.v.v.v.v.",
"v.v.v.v.v.v.v.v.v.v.v.v.v.v.v.v.v.v.v.v.v.v.v.v.v.v.v.v.v.v.v.v.v.v.v.v.v.v.v.v.v.v.v.v.v.v.v.v.v.v.v.v.v.v.v.v.v.v.v.v.v.v.v.v."
};
