/* XPM */
static char *result[] = {
/* columns rows colors chars-per-pixel */
"64 64 143 2 ",
"   c #020202",
".  c #080706",
"X  c #0A0906",
"o  c #020609",
"O  c #02090D",
"+  c #0D0B0A",
"@  c #130A06",
"#  c #1C0D07",
"$  c #120D0C",
"%  c #1B0E0B",
"&  c #14120D",
"*  c #1A140E",
"=  c #1C180F",
"-  c #030D15",
";  c #0A0E12",
":  c #040F18",
">  c #100F10",
",  c #0A1015",
"<  c #04121C",
"1  c #141212",
"2  c #1A1613",
"3  c #1C1A13",
"4  c #181719",
"5  c #1C1A1A",
"6  c #21140E",
"7  c #2C180F",
"8  c #211715",
"9  c #211D14",
"0  c #2C1C13",
"q  c #231D1C",
"w  c #2B1D1B",
"e  c #242116",
"r  c #292316",
"t  c #25221B",
"y  c #2A251C",
"u  c #2D291D",
"i  c #35221F",
"p  c #3A2018",
"a  c #332E1D",
"s  c #37311F",
"d  c #38311E",
"f  c #051522",
"g  c #061827",
"h  c #071C2D",
"j  c #081C2D",
"k  c #1E1E20",
"l  c #071F31",
"z  c #072033",
"x  c #082236",
"c  c #09253B",
"v  c #09283F",
"b  c #242122",
"n  c #2B2523",
"m  c #2F2924",
"M  c #2B2A2D",
"N  c #342523",
"B  c #3A2522",
"V  c #312B25",
"C  c #3D2A24",
"Z  c #352D2A",
"A  c #382F2D",
"S  c #353224",
"D  c #3B3524",
"F  c #3A3827",
"G  c #3A312E",
"H  c #3E392A",
"J  c #2D2D30",
"K  c #3D3330",
"L  c #442619",
"P  c #4C261B",
"I  c #442B1E",
"U  c #502719",
"Y  c #562D1D",
"T  c #592F1D",
"R  c #412B25",
"E  c #4C2F23",
"W  c #4B3021",
"Q  c #433C26",
"!  c #4C332D",
"~  c #423C2B",
"^  c #543325",
"/  c #5D3223",
"(  c #5E3927",
")  c #53322B",
"_  c #583228",
"`  c #583C2C",
"'  c #503531",
"]  c #683523",
"[  c #6E3F23",
"{  c #64362B",
"}  c #6E3628",
"|  c #66392F",
" . c #743C23",
".. c #7A3D24",
"X. c #763C2C",
"o. c #45412D",
"O. c #4C442C",
"+. c #51472B",
"@. c #54492D",
"#. c #4A4731",
"$. c #4C4932",
"%. c #534B32",
"&. c #5B5234",
"*. c #5F5539",
"=. c #69402D",
"-. c #7B4425",
";. c #78452A",
":. c #6B4732",
">. c #7D4131",
",. c #625736",
"<. c #635739",
"1. c #655A39",
"2. c #6C5F3C",
"3. c #7A523A",
"4. c #6E623F",
"5. c #0A2A43",
"6. c #0B2E4A",
"7. c #0B314E",
"8. c #0C3554",
"9. c #0D3758",
"0. c #0D3A5C",
"q. c #3F3F42",
"w. c #0E3E62",
"e. c #0F4067",
"r. c #0F426B",
"t. c #414144",
"y. c #716542",
"u. c #766843",
"i. c #834526",
"p. c #864A29",
"a. c #8C4B2F",
"s. c #934F2F",
"d. c #8E512E",
"f. c #844C30",
"g. c #884831",
"h. c #8F5334",
"j. c #955432",
"k. c #9D5433",
"l. c #9E5934",
"z. c #A25C39",
"x. c #835B42",
"c. c #926549",
"v. c None",
/* pixels */
"v.v.v.v.v.v.v.v.v.v.v.v.v.v.v.v.v.v.v.v.v.v.v.v.v.v.v.v.v.v.v.v.v.v.v.v.v.v.v.v.v.    v.v.v.v.v.v.v.v.v.v.v.v.v.v.v.v.v.v.v.v.v.",
"v.v.v.v.v.v.v.v.v.v.v.v.v.v.v.v.v.v.v.v.v.v.v.v.v.v.v.v.v.v.v.v.v.v.v.v.v.v.v.v.  5 + v.v.v.v.v.v.v.v.v.v.v.v.v.v.v.v.v.v.v.v.v.",
"v.v.v.v.v.v.v.v.v.v.v.v.v.v.v.v.v.v.v.v.v.v.v.v.v.v.v.v.v.v.v.v.v.v.v.v.v.v.v.v.  4 ; v.v.v.v.v.v.v.v.v.v.v.v.v.v.v.v.v.v.v.v.v.",
"v.v.v.v.v.v.v.v.v.v.v.v.v.v.v.v.v.v.v.v.v.v.v.v.v.v.v.v.v.v.v.v.v.v.v.v.v.v.v.v.  . . v.v.v.v.v.v.v.v.v.v.v.v.v.v.v.v.v.v.v.v.v.",
"v.v.v.v.v.v.v.v.v.v.v.v.v.v.v.v.v.v.v.v.v.v.v.v.v.v.v.v.v.v.v.v.v.v.v.v.v.v.v.v.  . o v.v.v.v.v.v.v.v.v.v.v.v.v.v.v.v.v.v.v.v.v.",
"v.v.v.v.v.v.v.v.v.v.v.v.v.v.v.v.v.v.v.v.v.v.v.v.v.v.v.v.v.v.v.v.v.v.v.v.v.v.v.v.  4 + v.v.v.v.v.v.v.v.v.v.v.v.v.v.v.v.v.v.v.v.v.",
"v.v.v.v.v.v.v.v.v.v.v.v.v.v.v.v.v.v.v.v.v.v.v.v.v.v.v.v.v.v.v.v.v.v.v.v.v.v.v.v.  4 + v.v.v.v.v.v.v.v.v.v.v.v.v.v.v.v.v.v.v.v.v.",
"v.v.v.v.v.v.v.v.v.v.v.v.v.v.v.v.v.v.v.v.v.v.v.v.v.v.v.v.v.v.v.v.v.v.v.v.v.v.v.v.o 4 > v.v.v.v.v.v.v.v.v.v.v.v.v.v.v.v.v.v.v.v.v.",
"v.v.v.v.v.v.v.v.v.v.v.v.v.v.v.v.v.v.v.v.v.v.v.v.v.v.v.v.v.v.v.v.v.v.v.v.v.v.v.v.. k 1 v.v.v.v.v.v.v.v.v.v.v.v.v.v.v.v.v.v.v.v.v.",
"v.v.v.v.v.v.v.v.v.v.v.v.v.v.v.v.v.v.v.v.v.v.v.v.v.v.v.v.v.v.v.v.v.v.v.v.v.v.v.v.  5 1 v.v.v.v.v.v.v.v.v.v.v.v.v.v.v.v.v.v.v.v.v.",
"v.v.v.v.v.v.v.v.v.v.v.v.v.v.v.v.v.v.v.v.v.v.v.v.v.v.v.v.v.v.v.v.v.v.v.v.v.v.v.v.o 4 1 v.v.v.v.v.v.v.v.v.v.v.v.v.v.v.v.v.v.v.v.v.",
"v.v.v.v.v.v.v.v.v.v.v.v.v.v.v.v.v.v.v.v.v.v.v.v.v.v.v.v.v.v.v.v.v.v.v.v.v.v.v.v.o k 1 v.v.v.v.v.v.v.v.v.v.v.v.v.v.v.v.v.v.v.v.v.",
"v.v.v.v.v.v.v.v.v.v.v.v.v.v.v.v.v.v.v.v.v.v.v.v.v.v.v.v.v.v.v.v.v.v.v.v.v.v.v.v.  4 > v.v.v.v.v.v.v.v.v.v.v.v.v.v.v.v.v.v.v.v.v.",
"v.v.v.v.v.v.v.v.v.v.v.v.v.v.v.v.v.v.v.v.v.v.v.v.v.v.v.v.v.v.v.v.v.v.v.v.v.v.v.v.  4 > v.v.v.v.v.v.v.v.v.v.v.v.v.v.v.v.v.v.v.v.v.",
"v.v.v.v.v.v.v.v.v.v.v.v.v.v.v.v.v.v.v.v.v.v.v.v.v.v.v.v.v.v.v.v.v.v.v.v.v.v.v.  @ ) R .   v.v.v.v.v.v.v.v.v.v.v.v.v.v.v.v.v.v.v.",
"v.v.v.v.v.v.v.v.v.v.v.v.v.v.v.v.v.v.v.v.v.v.v.v.v.v.v.v.v.v.v.v.v.v.v.v.v.v.  $ 6 X.| 8 w . v.v.v.v.v.v.v.v.v.v.v.v.v.v.v.v.v.v.",
"v.v.v.v.v.v.v.v.v.v.v.v.v.v.v.v.v.v.v.v.v.v.v.v.v.v.v.v.v.v.v.v.v.v.v.v.v.v.o i % X.{ 8 ) $ v.v.v.v.v.v.v.v.v.v.v.v.v.v.v.v.v.v.",
"v.v.v.v.v.v.v.v.v.v.v.v.v.v.v.v.v.v.v.v.v.v.v.v.v.v.v.v.v.v.v.v.v.v.v.v.    . B % } { 8 ' $ v.v.v.v.v.v.v.v.v.v.v.v.v.v.v.v.v.v.",
"v.v.v.v.v.v.v.v.v.v.v.v.v.v.v.v.v.v.v.v.v.v.v.v.v.v.v.v.v.v.v.v.v.    o < c O 8 % ] / 8 ' + v.v.v.v.v.v.v.v.v.v.v.v.v.v.v.v.v.v.",
"v.v.v.v.v.v.v.v.v.v.v.v.v.v.v.v.v.v.v.v.v.v.v.v.v.v.v.v.v.v.v.    o h 6.6.8.v   % / _ 2 N . v.v.v.v.v.v.v.v.v.v.v.v.v.v.v.v.v.v.",
"v.v.v.v.v.v.v.v.v.v.v.v.v.v.v.v.v.v.v.v.v.v.v.v.v.v.v.v.v.  o f l c 8.w.w.5.0.  @ p B + . v.v.v.v.v.v.v.v.v.v.v.v.v.v.v.v.v.v.v.",
"v.v.v.v.v.v.v.v.v.v.v.v.v.v.v.v.v.v.v.v.v.v.v.v.v.v.v.v.  - 5.8.w.8.w.r.w.5.9.: # 8 N @ v.v.v.v.v.v.v.v.v.v.v.v.v.v.v.v.v.v.v.v.",
"v.v.v.v.v.v.v.v.v.v.v.v.v.v.v.v.v.v.v.v.v.v.v.v.v.v.v.  < 6.w.r.r.w.r.r.w.6.l o % q R % v.v.v.v.v.v.v.v.v.v.v.v.v.v.v.v.v.v.v.v.",
"v.v.v.v.v.v.v.v.v.v.v.v.v.v.v.v.v.v.v.v.v.v.v.v.v.v.o f v 8.r.r.r.e.w.8.l O   o % 5 N % v.v.v.v.v.v.v.v.v.v.v.v.v.v.v.v.v.v.v.v.",
"v.v.v.v.v.v.v.v.v.v.v.v.v.v.v.v.v.v.v.v.v.v.v.v.v.  f l c 7.w.r.r.0.5.-     v.v.. > b O v.v.v.v.v.v.v.v.v.v.v.v.v.v.v.v.v.v.v.v.",
"v.v.v.v.v.v.v.v.v.v.v.v.v.v.v.v.v.v.v.v.v.v.v.v.  - c c x 5.7.9.7.l -   v.v.v.v.o + J 4 v.v.v.v.v.v.v.v.v.v.v.v.v.v.v.v.v.v.v.v.",
"v.v.v.v.v.v.v.v.v.v.v.v.v.v.v.v.v.v.v.v.v.v.v.v.o c 8.8.5.c c f -   v.v.v.v.v.v.. + t.k v.v.v.v.v.v.v.v.v.v.v.v.v.v.v.v.v.v.v.v.",
"v.v.v.v.v.v.v.v.v.v.v.v.v.v.v.v.v.v.v.v.v.v.v.  - 6.0.w.8.x - o   v.v.v.v.v.v.v.o > t.k v.v.v.v.v.v.v.v.v.v.v.v.v.v.v.v.v.v.v.v.",
"v.v.v.v.v.v.v.v.v.v.v.v.v.v.v.v.v.v.v.v.v.v.v.  h 9.w.e.w.8.h -   v.v.v.v.v.v.v.. > q.5 v.v.v.v.v.v.v.v.v.v.v.v.v.v.v.v.v.v.v.v.",
"v.v.v.v.v.v.v.v.v.v.v.v.v.v.v.v.v.v.v.v.v.v.v.o l 7.8.8.8.7.5.<   v.v.v.v.v.v.  . > q.5   v.v.v.v.v.v.v.v.v.v.v.v.v.v.v.v.v.v.v.",
"v.v.v.v.v.v.v.v.v.v.v.v.v.v.v.v.v.v.v.v.v.v.  o x 7.8.8.6.8.6.<   v.v.v.v.v.v.  o > M 4 X v.v.v.v.v.v.v.v.v.v.v.v.v.v.v.v.v.v.v.",
"v.v.v.v.v.v.v.v.v.v.v.v.v.v.v.v.v.v.v.v.v.v.  O 5.0.6.8.6.7.5.<   v.v.v.v.v.v.X . > k 2 B   v.v.v.v.v.v.v.v.v.v.v.v.v.v.v.v.v.v.",
"v.v.v.v.v.v.v.v.v.v.v.v.v.v.v.v.v.v.v.v.v.v.  O c 8.6.6.6.8.8.c o   v.    v.v.$ . 4 b 2 ' $ v.v.v.v.v.v.v.v.v.v.v.v.v.v.v.v.v.v.",
"v.v.v.v.v.v.v.v.v.v.v.v.v.v.v.v.v.v.v.v.v.v.  : 5.8.9.0.w.w.9.l -   . 3 & .   .   > k > ) + v.v.v.v.v.v.v.v.v.v.v.v.v.v.v.v.v.v.",
"v.v.v.v.v.v.v.v.v.v.v.v.v.v.v.v.v.v.v.v.v.v.o 5.0.r.r.r.w.8.z -   . . t y 3 .   o 4 5 4 R   v.v.v.v.v.v.v.v.v.v.v.v.v.v.v.v.v.v.",
"v.v.v.v.v.v.v.v.v.v.v.v.v.v.v.v.v.v.v.v.v.  - 8.w.r.r.9.6.g o   . > + + 2 3 .   o 1 b 1 5   v.v.v.v.v.v.v.v.v.v.v.v.v.v.v.v.v.v.",
"v.v.v.v.v.v.v.v.v.v.v.v.v.v.v.v.v.v.v.v.v.  < 8.0.w.7.z - o   3 n V V n & o       1 5 + : :   v.v.v.v.v.v.v.v.v.v.v.v.v.v.v.v.v.",
"v.v.v.v.v.v.v.v.v.v.v.v.v.v.v.v.v.v.v.v.v.  f 8.8.6.j -     $ b m Z Z n 5 .     o 1 5 , 7.c o v.v.v.v.v.v.v.v.v.v.v.v.v.v.v.v.v.",
"v.v.v.v.v.v.v.v.v.v.v.v.v.v.v.v.v.v.v.  v.  < x x :   $ 3 . 5 m Z A Z m t 1   $ . + 4 ; c 5.<   v.v.v.v.v.v.v.v.v.v.v.v.v.v.v.v.",
"v.v.v.v.v.v.v.v.v.v.v.v.v.v.v.v.v.v.* &     ; : o . a y.y + q A A A A A n 5   8   + + ; 8.w.x o v.v.v.v.v.v.v.v.v.v.v.v.v.v.v.v.",
"v.v.v.v.v.v.v.v.v.v.v.v.v.v.v.v.  3 <.&.r         d 2.u.3 2 q 5 4 4 4 2 4 q . 2 . $ & ; 0.w.5.O   v.v.v.v.v.v.v.v.v.v.v.v.v.v.v.",
"v.v.v.v.v.v.v.v.v.v.v.v.v.v.v.v.& H Q &.+.X & Q u & S Q X + 1 q n V N m 5 2 + $ $ { | t 0.0.7.f   v.v.v.v.v.v.v.v.v.v.v.v.v.v.v.",
"v.v.v.v.v.v.v.v.v.v.v.v.v.v.v.  ~ H S +.3 * Q %.$.3 +     + n A A K K K A 4 . X * f.h.R 8.0.9.5.o v.v.v.v.v.v.v.v.v.v.v.v.v.v.v.",
"v.v.v.v.v.v.v.v.v.v.v.v.v.v.v.  u S u 9 + Q @.~ Q & . @   2 n V A A A A m 8 >   6 j.j.W 8.r.e.8.f   v.v.v.v.v.v.v.v.v.v.v.v.v.v.",
"v.v.v.v.v.v.v.v.v.v.v.v.v.v.v.  9 a e   u F y.%.&   w 8 . t b 5 q b b n k n 8   7 j.l.^ 7.r.e.w.c   v.v.v.v.v.v.v.v.v.v.v.v.v.v.",
"v.v.v.v.v.v.v.v.v.v.v.v.v.v.  + r e X 3 F $.@.& e X 8 $ $ m G m Z K G Z q n b + 0 s.k.T 6.r.r.0.5.o v.v.v.v.v.v.v.v.v.v.v.v.v.v.",
"v.v.v.v.v.v.v.v.v.v.v.v.v.v.  & & + . 9 S o.& 3 t & . * 8 V G A K G G G N Z b R % d.z./ v 0.0.8.5.o v.v.v.v.v.v.v.v.v.v.v.v.v.v.",
"v.v.v.v.v.v.v.v.v.v.v.v.v.v.      + o . 3 3 y S V 3 . :.R M G A G G G G A Z b x.I -.l.Y h 5.5.5.z O v.v.v.v.v.v.v.v.v.v.v.v.v.v.",
"v.v.v.v.v.v.v.v.v.v.v.v.v.  . & 3 e 1 + X 3 F F S y + 3.! n A G G Z A G Z Z t c.E  .l.Y f v c x z < v.v.v.v.v.v.v.v.v.v.v.v.v.v.",
"v.v.v.v.v.v.v.v.v.v.v.v.v.  + e u a e F s + $.Q H H 3 r i t Z G G N Z G Z V q ` % ..j.Y f c v c c <   v.v.v.v.v.v.v.v.v.v.v.v.v.",
"v.v.v.v.v.v.v.v.v.v.v.v.v.v.. 3 e u O.,.o.X u $.&.1.+.& . 5 Z A G G G G Z q 4   #  .g.P c 8.8.8.5.<   v.v.v.v.v.v.v.v.v.v.v.v.v.",
"v.v.v.v.v.v.v.v.v.v.v.v.v.v.  X y a %.F a 9 X o.&.1.@.t   5 Z A G A A A Z n &   # ..a.U 5.w.w.9.8.<   v.v.v.v.v.v.v.v.v.v.v.v.v.",
"v.v.v.v.v.v.v.v.v.v.v.v.v.v.    y y e e 9 3 & e o.#.~ F . & m Z G Z Z Z V n . & # i.g.T c w.e.w.8.- v.v.v.v.v.v.v.v.v.v.v.v.v.v.",
"v.v.v.v.v.v.v.v.v.v.v.v.v.v.v.  + e u m t 3 r + t F a F =   3 n Z n n n b $   9 # p.j.T x 8.w.w.8.O v.v.v.v.v.v.v.v.v.v.v.v.v.v.",
"v.v.v.v.v.v.v.v.v.v.v.v.v.v.v.v.  s y e 3 9 a r + & + & = + . & 5 5 4 4 .     o @ [ ;.L c 9.8.8.c   v.v.v.v.v.v.v.v.v.v.v.v.v.v.",
"v.v.v.v.v.v.v.v.v.v.v.v.v.v.v.v.  & 3 3 H V S = X 3 S *.y.4.s + X . .     o : j f $ + ; 6.6.8.5.<   v.v.v.v.v.v.v.v.v.v.v.v.v.v.",
"v.v.v.v.v.v.v.v.v.v.v.v.v.v.v.v.v.  a V S t r & o e H ,.,.,.Q S 9     o - h 6.w.e.8.c 5.6.6.6.x o   v.v.v.v.v.v.v.v.v.v.v.v.v.v.",
"v.v.v.v.v.v.v.v.v.v.v.v.v.v.v.v.v.  9 a 3 d +.= . 3 e t r 9 &       o < 5.0.e.e.r.e.0.7.5.w.9.<   v.v.v.v.v.v.v.v.v.v.v.v.v.v.v.",
"v.v.v.v.v.v.v.v.v.v.v.v.v.v.v.v.v.v.  r D ,.+..   .   . + & 3     - h v w.r.r.r.r.r.w.0.6.6.5.o   v.v.v.v.v.v.v.v.v.v.v.v.v.v.v.",
"v.v.v.v.v.v.v.v.v.v.v.v.v.v.v.v.v.v.  + Q @.9 . & & 3 t y y u     - l 6.w.r.r.r.r.r.e.w.9.5.<   v.v.v.v.v.v.v.v.v.v.v.v.v.v.v.v.",
"v.v.v.v.v.v.v.v.v.v.v.v.v.v.v.v.v.v.v.  + =   e s r a F H D &.+     O l 8.w.r.r.r.r.r.e.0.c o v.v.v.v.v.v.v.v.v.v.v.v.v.v.v.v.v.",
"v.v.v.v.v.v.v.v.v.v.v.v.v.v.v.v.v.v.v.v.      X X + $.&.H S %.X   v.v.  o l 8.w.e.e.w.c O o v.v.v.v.v.v.v.v.v.v.v.v.v.v.v.v.v.v.",
"v.v.v.v.v.v.v.v.v.v.v.v.v.v.v.v.v.v.v.v.v.v.v.v.v.  1 u 3 +     v.v.v.v.      o < f O   v.v.v.v.v.v.v.v.v.v.v.v.v.v.v.v.v.v.v.v.",
"v.v.v.v.v.v.v.v.v.v.v.v.v.v.v.v.v.v.v.v.v.v.v.v.v.v.v.  v.v.v.v.v.v.v.v.v.v.v.v.v.v.v.v.v.v.v.v.v.v.v.v.v.v.v.v.v.v.v.v.v.v.v.v."
};
