/* XPM */
static char *result[] = {
/* columns rows colors chars-per-pixel */
"64 64 143 2 ",
"   c #020202",
".  c #080706",
"X  c #0A0906",
"o  c #020609",
"O  c #02090D",
"+  c #0D0B0A",
"@  c #130A06",
"#  c #1C0D07",
"$  c #120D0C",
"%  c #1B0E0B",
"&  c #14120D",
"*  c #1A140E",
"=  c #1C180F",
"-  c #030D15",
";  c #0A0E12",
":  c #040F18",
">  c #100F10",
",  c #0A1015",
"<  c #04121C",
"1  c #141212",
"2  c #1A1613",
"3  c #1C1A13",
"4  c #181719",
"5  c #1C1A1A",
"6  c #21140E",
"7  c #2C180F",
"8  c #211715",
"9  c #211D14",
"0  c #2C1C13",
"q  c #231D1C",
"w  c #2B1D1B",
"e  c #242116",
"r  c #292316",
"t  c #25221B",
"y  c #2A251C",
"u  c #2D291D",
"i  c #35221F",
"p  c #3A2018",
"a  c #332E1D",
"s  c #37311F",
"d  c #38311E",
"f  c #051522",
"g  c #061827",
"h  c #071C2D",
"j  c #081C2D",
"k  c #1E1E20",
"l  c #071F31",
"z  c #072033",
"x  c #082236",
"c  c #09253B",
"v  c #09283F",
"b  c #242122",
"n  c #2B2523",
"m  c #2F2924",
"M  c #2B2A2D",
"N  c #342523",
"B  c #3A2522",
"V  c #312B25",
"C  c #3D2A24",
"Z  c #352D2A",
"A  c #382F2D",
"S  c #353224",
"D  c #3B3524",
"F  c #3A3827",
"G  c #3A312E",
"H  c #3E392A",
"J  c #2D2D30",
"K  c #3D3330",
"L  c #442619",
"P  c #4C261B",
"I  c #442B1E",
"U  c #502719",
"Y  c #562D1D",
"T  c #592F1D",
"R  c #412B25",
"E  c #4C2F23",
"W  c #4B3021",
"Q  c #433C26",
"!  c #4C332D",
"~  c #423C2B",
"^  c #543325",
"/  c #5D3223",
"(  c #5E3927",
")  c #53322B",
"_  c #583228",
"`  c #583C2C",
"'  c #503531",
"]  c #683523",
"[  c #6E3F23",
"{  c #64362B",
"}  c #6E3628",
"|  c #66392F",
" . c #743C23",
".. c #7A3D24",
"X. c #763C2C",
"o. c #45412D",
"O. c #4C442C",
"+. c #51472B",
"@. c #54492D",
"#. c #4A4731",
"$. c #4C4932",
"%. c #534B32",
"&. c #5B5234",
"*. c #5F5539",
"=. c #69402D",
"-. c #7B4425",
";. c #78452A",
":. c #6B4732",
">. c #7D4131",
",. c #625736",
"<. c #635739",
"1. c #655A39",
"2. c #6C5F3C",
"3. c #7A523A",
"4. c #6E623F",
"5. c #0A2A43",
"6. c #0B2E4A",
"7. c #0B314E",
"8. c #0C3554",
"9. c #0D3758",
"0. c #0D3A5C",
"q. c #3F3F42",
"w. c #0E3E62",
"e. c #0F4067",
"r. c #0F426B",
"t. c #414144",
"y. c #716542",
"u. c #766843",
"i. c #834526",
"p. c #864A29",
"a. c #8C4B2F",
"s. c #934F2F",
"d. c #8E512E",
"f. c #844C30",
"g. c #884831",
"h. c #8F5334",
"j. c #955432",
"k. c #9D5433",
"l. c #9E5934",
"z. c #A25C39",
"x. c #835B42",
"c. c #926549",
"v. c None",
/* pixels */
"v.v.v.v.v.v.v.v.v.v.v.v.v.v.v.v.v.v.v.v.v.v.v.v.v.v.v.v.v.v.v.v.v.v.v.v.  v.v.v.v.v.v.v.v.v.v.v.v.v.v.v.v.v.v.v.v.v.v.v.v.v.v.v.",
"v.v.v.v.v.v.v.v.v.v.v.v.v.v.v.v.v.v.v.v.  O < < O       v.v.v.v.    $ 3 u $   v.v.v.v.v.v.v.v.v.v.v.v.v.v.v.v.v.v.v.v.v.v.v.v.v.",
"v.v.v.v.v.v.v.v.v.v.v.v.v.v.v.v.v.v.  O c 0.r.r.w.7.h O   v.v.  X %.S F &.@.+ . .       v.v.v.v.v.v.v.v.v.v.v.v.v.v.v.v.v.v.v.v.",
"v.v.v.v.v.v.v.v.v.v.v.v.v.v.v.v.v.O 5.9.r.r.r.r.r.r.w.8.l O     $ &.F F F V r d e . = X   v.v.v.v.v.v.v.v.v.v.v.v.v.v.v.v.v.v.v.",
"v.v.v.v.v.v.v.v.v.v.v.v.v.v.v.v.  : 5.9.w.r.r.r.r.r.r.w.6.l -     u u y t = & & X 9 @.o.$   v.v.v.v.v.v.v.v.v.v.v.v.v.v.v.v.v.v.",
"v.v.v.v.v.v.v.v.v.v.v.v.v.v.v.  O 6.6.6.0.w.r.r.r.r.r.9.c g :     = > + .     o X +.&.D r . v.v.v.v.v.v.v.v.v.v.v.v.v.v.v.v.v.v.",
"v.v.v.v.v.v.v.v.v.v.v.v.v.v.v.  < 9.w.5.8.9.e.r.r.r.0.5.f O       & 9 e t 9 = . = +.S 3 s =   v.v.v.v.v.v.v.v.v.v.v.v.v.v.v.v.v.",
"v.v.v.v.v.v.v.v.v.v.v.v.v.v.  o x 6.6.6.5.c 7.w.w.6.l : O     9 s o.&.4.*.H t X & y e S a a   v.v.v.v.v.v.v.v.v.v.v.v.v.v.v.v.v.",
"v.v.v.v.v.v.v.v.v.v.v.v.v.v.  < 5.8.7.6.; $ $ f j : o     . . + + s 4.4.*.S = X 3 S V F 3 3 &   v.v.v.v.v.v.v.v.v.v.v.v.v.v.v.v.",
"v.v.v.v.v.v.v.v.v.v.v.v.v.v.  c 8.7.0.x L ;.[ @       . 2 5 5 4 & . $ & & $ & X r u 3 9 e b S o v.v.v.v.v.v.v.v.v.v.v.v.v.v.v.v.",
"v.v.v.v.v.v.v.v.v.v.v.v.v.v.- 6.w.w.8.x T s.p.# q . $ q n n n N m 3   = D V F t & y 3 t u u 9 +   v.v.v.v.v.v.v.v.v.v.v.v.v.v.v.",
"v.v.v.v.v.v.v.v.v.v.v.v.v.v.: 8.w.e.e.x T s.i.# & . n M A Z Z G A m & X F ~ o.o.e & 3 9 9 e u u .   v.v.v.v.v.v.v.v.v.v.v.v.v.v.",
"v.v.v.v.v.v.v.v.v.v.v.v.v.  : 8.0.0.e.v U g...#   $ m Z A A A G A Z q   e %.1.&.o.X 9 a Q @.a y X   v.v.v.v.v.v.v.v.v.v.v.v.v.v.",
"v.v.v.v.v.v.v.v.v.v.v.v.v.  < 5.7.8.0.c P g. .#   2 q Z G G G G A m 5 X & O.1.&.#.u X o.&.O.u e 3 . v.v.v.v.v.v.v.v.v.v.v.v.v.v.",
"v.v.v.v.v.v.v.v.v.v.v.v.v.  f x c 5.5.f Y j...% ` q m Z K M N G K Z b y 0 9 ~ ~ ~ #.& s d e a n e +   v.v.v.v.v.v.v.v.v.v.v.v.v.",
"v.v.v.v.v.v.v.v.v.v.v.v.v.v.: x z c c f T k. .E c.b Z Z K Z Z G A A m ! 3.$ t S F H 3 . & & e 3 $ .   v.v.v.v.v.v.v.v.v.v.v.v.v.",
"v.v.v.v.v.v.v.v.v.v.v.v.v.v.O x 5.5.5.j T l.-.I x.y Z C G G G G A A m C :.X 9 a S u = = . . . .     v.v.v.v.v.v.v.v.v.v.v.v.v.v.",
"v.v.v.v.v.v.v.v.v.v.v.v.v.v.O c 8.0.w.c / z.d.# R n Z M G G G K A A M q =   1 r 3 + o.s 9 . + & &   v.v.v.v.v.v.v.v.v.v.v.v.v.v.",
"v.v.v.v.v.v.v.v.v.v.v.v.v.v.o 5.0.r.r.6.^ k.s.7 . q M q Z K G Z N A V $ & 2 . = > %.$.F 3 + e r X   v.v.v.v.v.v.v.v.v.v.v.v.v.v.",
"v.v.v.v.v.v.v.v.v.v.v.v.v.v.  c 0.r.r.6.^ l.j.0   5 n q q n n k q n t . 8 w . & %.y.F u . 9 a 9   v.v.v.v.v.v.v.v.v.v.v.v.v.v.v.",
"v.v.v.v.v.v.v.v.v.v.v.v.v.v.  f 9.e.e.8.W j.h.6   $ 5 m A Z A A Z n 1   + . & ~ o.+.o.+ 9 a V V   v.v.v.v.v.v.v.v.v.v.v.v.v.v.v.",
"v.v.v.v.v.v.v.v.v.v.v.v.v.v.v.O v 0.0.8.R h.f.# X . 2 A K K K G Z n +     $ & %.%.o.* = +.S F ~   v.v.v.v.v.v.v.v.v.v.v.v.v.v.v.",
"v.v.v.v.v.v.v.v.v.v.v.v.v.v.v.  f 7.w.9.y | ( $ $ + 4 5 m Z Z n q 1 + . o.s & u Q & X +.&.Q F + v.v.v.v.v.v.v.v.v.v.v.v.v.v.v.v.",
"v.v.v.v.v.v.v.v.v.v.v.v.v.v.v.  O 5.w.0.; & & . 2 . q 3 4 1 1 4 9 q 1 9 4.4.d         r &.<.9   v.v.v.v.v.v.v.v.v.v.v.v.v.v.v.v.",
"v.v.v.v.v.v.v.v.v.v.v.v.v.v.v.v.  x w.8.; $ +   8   q n A A A A A q + y y.a . O : -     & * v.v.v.v.v.v.v.v.v.v.v.v.v.v.v.v.v.v.",
"v.v.v.v.v.v.v.v.v.v.v.v.v.v.v.v.  < 5.c ; 4 >   >   > q m Z Z Z m 5 . 2 $   : z x <   v.  v.v.v.v.v.v.v.v.v.v.v.v.v.v.v.v.v.v.v.",
"v.v.v.v.v.v.v.v.v.v.v.v.v.v.v.v.v.  c 7., 5 > o     . q n Z Z m q >     O h 6.9.9.f   v.v.v.v.v.v.v.v.v.v.v.v.v.v.v.v.v.v.v.v.v.",
"v.v.v.v.v.v.v.v.v.v.v.v.v.v.v.v.v.  < : + k > .     . > n m Z n 5 .   : x 7.0.0.8.<   v.v.v.v.v.v.v.v.v.v.v.v.v.v.v.v.v.v.v.v.v.",
"v.v.v.v.v.v.v.v.v.v.v.v.v.v.v.v.v.v.  2 > b 1 o   . 3 2 + $ & . . o g 5.0.e.r.e.8.O   v.v.v.v.v.v.v.v.v.v.v.v.v.v.v.v.v.v.v.v.v.",
"v.v.v.v.v.v.v.v.v.v.v.v.v.v.v.v.v.v.  R 2 k > .   . 3 u t .     o z 9.e.e.r.r.0.6.  v.v.v.v.v.v.v.v.v.v.v.v.v.v.v.v.v.v.v.v.v.v.",
"v.v.v.v.v.v.v.v.v.v.v.v.v.v.v.v.v.v.$ ! 2 k > . .   . & 3     : z 0.e.0.0.0.9.5.:   v.v.v.v.v.v.v.v.v.v.v.v.v.v.v.v.v.v.v.v.v.v.",
"v.v.v.v.v.v.v.v.v.v.v.v.v.v.v.v.v.v.$ ' 2 k 4 o $ v.v.    v.  O x 8.7.6.7.6.7.c O   v.v.v.v.v.v.v.v.v.v.v.v.v.v.v.v.v.v.v.v.v.v.",
"v.v.v.v.v.v.v.v.v.v.v.v.v.v.v.v.v.v.  N 4 b 1 . + v.v.v.v.v.v.  < 5.7.6.8.7.0.v O   v.v.v.v.v.v.v.v.v.v.v.v.v.v.v.v.v.v.v.v.v.v.",
"v.v.v.v.v.v.v.v.v.v.v.v.v.v.v.v.v.v.v.X 1 m , o   v.v.v.v.v.v.  < 7.7.7.8.7.7.x O   v.v.v.v.v.v.v.v.v.v.v.v.v.v.v.v.v.v.v.v.v.v.",
"v.v.v.v.v.v.v.v.v.v.v.v.v.v.v.v.v.v.v.  5 q.1 .   v.v.v.v.v.v.  < v 7.8.9.8.7.z   v.v.v.v.v.v.v.v.v.v.v.v.v.v.v.v.v.v.v.v.v.v.v.",
"v.v.v.v.v.v.v.v.v.v.v.v.v.v.v.v.v.v.v.v.5 q.+ o v.v.v.v.v.v.v.  - z 7.e.e.e.0.h   v.v.v.v.v.v.v.v.v.v.v.v.v.v.v.v.v.v.v.v.v.v.v.",
"v.v.v.v.v.v.v.v.v.v.v.v.v.v.v.v.v.v.v.v.k t., . v.v.v.v.v.v.v.  o : x 9.0.0.7.:   v.v.v.v.v.v.v.v.v.v.v.v.v.v.v.v.v.v.v.v.v.v.v.",
"v.v.v.v.v.v.v.v.v.v.v.v.v.v.v.v.v.v.v.v.k t.+ . v.v.v.v.v.v.  - f x x 5.8.8.x   v.v.v.v.v.v.v.v.v.v.v.v.v.v.v.v.v.v.v.v.v.v.v.v.",
"v.v.v.v.v.v.v.v.v.v.v.v.v.v.v.v.v.v.v.v.4 J . . v.v.v.v.  - l 8.0.7.5.x c c :   v.v.v.v.v.v.v.v.v.v.v.v.v.v.v.v.v.v.v.v.v.v.v.v.",
"v.v.v.v.v.v.v.v.v.v.v.v.v.v.v.v.v.v.v.v.+ k 1 . v.v.    : 5.9.r.r.w.7.c x f   v.v.v.v.v.v.v.v.v.v.v.v.v.v.v.v.v.v.v.v.v.v.v.v.v.",
"v.v.v.v.v.v.v.v.v.v.v.v.v.v.v.v.v.v.v.v.% M 8 %     O l 8.w.r.r.r.r.9.c f o v.v.v.v.v.v.v.v.v.v.v.v.v.v.v.v.v.v.v.v.v.v.v.v.v.v.",
"v.v.v.v.v.v.v.v.v.v.v.v.v.v.v.v.v.v.v.v.% C w % O l 5.w.r.r.w.w.r.w.6.<   v.v.v.v.v.v.v.v.v.v.v.v.v.v.v.v.v.v.v.v.v.v.v.v.v.v.v.",
"v.v.v.v.v.v.v.v.v.v.v.v.v.v.v.v.v.v.v.v.$ B 8 % - 9.5.r.r.w.8.w.9.c :   v.v.v.v.v.v.v.v.v.v.v.v.v.v.v.v.v.v.v.v.v.v.v.v.v.v.v.v.",
"v.v.v.v.v.v.v.v.v.v.v.v.v.v.v.v.v.v.v.. + B p @   0.5.0.w.8.5.l f o   v.v.v.v.v.v.v.v.v.v.v.v.v.v.v.v.v.v.v.v.v.v.v.v.v.v.v.v.v.",
"v.v.v.v.v.v.v.v.v.v.v.v.v.v.v.v.v.v.. i % _ / %   c 9.5.6.g o     v.v.v.v.v.v.v.v.v.v.v.v.v.v.v.v.v.v.v.v.v.v.v.v.v.v.v.v.v.v.v.",
"v.v.v.v.v.v.v.v.v.v.v.v.v.v.v.v.v.v.$ ! 8 { ] % 8 O c f O     v.v.v.v.v.v.v.v.v.v.v.v.v.v.v.v.v.v.v.v.v.v.v.v.v.v.v.v.v.v.v.v.v.",
"v.v.v.v.v.v.v.v.v.v.v.v.v.v.v.v.v.v.$ ' 8 { } % B X     v.v.v.v.v.v.v.v.v.v.v.v.v.v.v.v.v.v.v.v.v.v.v.v.v.v.v.v.v.v.v.v.v.v.v.v.",
"v.v.v.v.v.v.v.v.v.v.v.v.v.v.v.v.v.v.$ ' 8 { X.% y   v.v.v.v.v.v.v.v.v.v.v.v.v.v.v.v.v.v.v.v.v.v.v.v.v.v.v.v.v.v.v.v.v.v.v.v.v.v.",
"v.v.v.v.v.v.v.v.v.v.v.v.v.v.v.v.v.v.. w 2 | X.8 >   v.v.v.v.v.v.v.v.v.v.v.v.v.v.v.v.v.v.v.v.v.v.v.v.v.v.v.v.v.v.v.v.v.v.v.v.v.v.",
"v.v.v.v.v.v.v.v.v.v.v.v.v.v.v.v.v.v.v.o . R ) %   v.v.v.v.v.v.v.v.v.v.v.v.v.v.v.v.v.v.v.v.v.v.v.v.v.v.v.v.v.v.v.v.v.v.v.v.v.v.v.",
"v.v.v.v.v.v.v.v.v.v.v.v.v.v.v.v.v.v.v.v.v.> 4   v.v.v.v.v.v.v.v.v.v.v.v.v.v.v.v.v.v.v.v.v.v.v.v.v.v.v.v.v.v.v.v.v.v.v.v.v.v.v.v.",
"v.v.v.v.v.v.v.v.v.v.v.v.v.v.v.v.v.v.v.v.v.> 5   v.v.v.v.v.v.v.v.v.v.v.v.v.v.v.v.v.v.v.v.v.v.v.v.v.v.v.v.v.v.v.v.v.v.v.v.v.v.v.v.",
"v.v.v.v.v.v.v.v.v.v.v.v.v.v.v.v.v.v.v.v.v.> k   v.v.v.v.v.v.v.v.v.v.v.v.v.v.v.v.v.v.v.v.v.v.v.v.v.v.v.v.v.v.v.v.v.v.v.v.v.v.v.v.",
"v.v.v.v.v.v.v.v.v.v.v.v.v.v.v.v.v.v.v.v.v.> 5   v.v.v.v.v.v.v.v.v.v.v.v.v.v.v.v.v.v.v.v.v.v.v.v.v.v.v.v.v.v.v.v.v.v.v.v.v.v.v.v.",
"v.v.v.v.v.v.v.v.v.v.v.v.v.v.v.v.v.v.v.v.v.1 5   v.v.v.v.v.v.v.v.v.v.v.v.v.v.v.v.v.v.v.v.v.v.v.v.v.v.v.v.v.v.v.v.v.v.v.v.v.v.v.v.",
"v.v.v.v.v.v.v.v.v.v.v.v.v.v.v.v.v.v.v.v.v.1 k o v.v.v.v.v.v.v.v.v.v.v.v.v.v.v.v.v.v.v.v.v.v.v.v.v.v.v.v.v.v.v.v.v.v.v.v.v.v.v.v.",
"v.v.v.v.v.v.v.v.v.v.v.v.v.v.v.v.v.v.v.v.v.; 4 o v.v.v.v.v.v.v.v.v.v.v.v.v.v.v.v.v.v.v.v.v.v.v.v.v.v.v.v.v.v.v.v.v.v.v.v.v.v.v.v.",
"v.v.v.v.v.v.v.v.v.v.v.v.v.v.v.v.v.v.v.v.v.+ 4   v.v.v.v.v.v.v.v.v.v.v.v.v.v.v.v.v.v.v.v.v.v.v.v.v.v.v.v.v.v.v.v.v.v.v.v.v.v.v.v.",
"v.v.v.v.v.v.v.v.v.v.v.v.v.v.v.v.v.v.v.v.v.+ >   v.v.v.v.v.v.v.v.v.v.v.v.v.v.v.v.v.v.v.v.v.v.v.v.v.v.v.v.v.v.v.v.v.v.v.v.v.v.v.v.",
"v.v.v.v.v.v.v.v.v.v.v.v.v.v.v.v.v.v.v.v.v.X X   v.v.v.v.v.v.v.v.v.v.v.v.v.v.v.v.v.v.v.v.v.v.v.v.v.v.v.v.v.v.v.v.v.v.v.v.v.v.v.v.",
"v.v.v.v.v.v.v.v.v.v.v.v.v.v.v.v.v.v.v.v.v.X .   v.v.v.v.v.v.v.v.v.v.v.v.v.v.v.v.v.v.v.v.v.v.v.v.v.v.v.v.v.v.v.v.v.v.v.v.v.v.v.v.",
"v.v.v.v.v.v.v.v.v.v.v.v.v.v.v.v.v.v.v.v.v.> 1   v.v.v.v.v.v.v.v.v.v.v.v.v.v.v.v.v.v.v.v.v.v.v.v.v.v.v.v.v.v.v.v.v.v.v.v.v.v.v.v.",
"v.v.v.v.v.v.v.v.v.v.v.v.v.v.v.v.v.v.v.v.v.; 5 o v.v.v.v.v.v.v.v.v.v.v.v.v.v.v.v.v.v.v.v.v.v.v.v.v.v.v.v.v.v.v.v.v.v.v.v.v.v.v.v.",
"v.v.v.v.v.v.v.v.v.v.v.v.v.v.v.v.v.v.v.v.v.    v.v.v.v.v.v.v.v.v.v.v.v.v.v.v.v.v.v.v.v.v.v.v.v.v.v.v.v.v.v.v.v.v.v.v.v.v.v.v.v.v."
};
