/* XPM */
static char *result[] = {
/* columns rows colors chars-per-pixel */
"64 64 143 2 ",
"   c #020202",
".  c #080706",
"X  c #0A0906",
"o  c #020609",
"O  c #02090D",
"+  c #0D0B0A",
"@  c #130A06",
"#  c #1C0D07",
"$  c #120D0C",
"%  c #1B0E0B",
"&  c #14120D",
"*  c #1A140E",
"=  c #1C180F",
"-  c #030D15",
";  c #0A0E12",
":  c #040F18",
">  c #100F10",
",  c #0A1015",
"<  c #04121C",
"1  c #141212",
"2  c #1A1613",
"3  c #1C1A13",
"4  c #181719",
"5  c #1C1A1A",
"6  c #21140E",
"7  c #2C180F",
"8  c #211715",
"9  c #211D14",
"0  c #2C1C13",
"q  c #231D1C",
"w  c #2B1D1B",
"e  c #242116",
"r  c #292316",
"t  c #25221B",
"y  c #2A251C",
"u  c #2D291D",
"i  c #35221F",
"p  c #3A2018",
"a  c #332E1D",
"s  c #37311F",
"d  c #38311E",
"f  c #051522",
"g  c #061827",
"h  c #071C2D",
"j  c #081C2D",
"k  c #1E1E20",
"l  c #071F31",
"z  c #072033",
"x  c #082236",
"c  c #09253B",
"v  c #09283F",
"b  c #242122",
"n  c #2B2523",
"m  c #2F2924",
"M  c #2B2A2D",
"N  c #342523",
"B  c #3A2522",
"V  c #312B25",
"C  c #3D2A24",
"Z  c #352D2A",
"A  c #382F2D",
"S  c #353224",
"D  c #3B3524",
"F  c #3A3827",
"G  c #3A312E",
"H  c #3E392A",
"J  c #2D2D30",
"K  c #3D3330",
"L  c #442619",
"P  c #4C261B",
"I  c #442B1E",
"U  c #502719",
"Y  c #562D1D",
"T  c #592F1D",
"R  c #412B25",
"E  c #4C2F23",
"W  c #4B3021",
"Q  c #433C26",
"!  c #4C332D",
"~  c #423C2B",
"^  c #543325",
"/  c #5D3223",
"(  c #5E3927",
")  c #53322B",
"_  c #583228",
"`  c #583C2C",
"'  c #503531",
"]  c #683523",
"[  c #6E3F23",
"{  c #64362B",
"}  c #6E3628",
"|  c #66392F",
" . c #743C23",
".. c #7A3D24",
"X. c #763C2C",
"o. c #45412D",
"O. c #4C442C",
"+. c #51472B",
"@. c #54492D",
"#. c #4A4731",
"$. c #4C4932",
"%. c #534B32",
"&. c #5B5234",
"*. c #5F5539",
"=. c #69402D",
"-. c #7B4425",
";. c #78452A",
":. c #6B4732",
">. c #7D4131",
",. c #625736",
"<. c #635739",
"1. c #655A39",
"2. c #6C5F3C",
"3. c #7A523A",
"4. c #6E623F",
"5. c #0A2A43",
"6. c #0B2E4A",
"7. c #0B314E",
"8. c #0C3554",
"9. c #0D3758",
"0. c #0D3A5C",
"q. c #3F3F42",
"w. c #0E3E62",
"e. c #0F4067",
"r. c #0F426B",
"t. c #414144",
"y. c #716542",
"u. c #766843",
"i. c #834526",
"p. c #864A29",
"a. c #8C4B2F",
"s. c #934F2F",
"d. c #8E512E",
"f. c #844C30",
"g. c #884831",
"h. c #8F5334",
"j. c #955432",
"k. c #9D5433",
"l. c #9E5934",
"z. c #A25C39",
"x. c #835B42",
"c. c #926549",
"v. c None",
/* pixels */
"v.v.v.v.v.v.v.v.v.v.v.v.v.v.v.v.v.v.v.v.v.v.v.v.v.v.v.v.v.v.v.v.v.v.v.v.v.v.v.v.v.v.v.v.v.v.v.v.v.v.v.v.v.v.v.v.v.v.v.v.v.v.v.v.",
"v.v.v.v.v.v.v.v.v.v.v.v.v.v.v.v.v.v.v.v.v.v.v.v.v.v.v.v.v.v.v.v.v.v.v.v.v.v.v.v.v.v.v.v.v.v.v.v.v.v.v.v.v.v.v.v.v.v.v.v.v.v.v.v.",
"v.v.v.v.v.v.v.v.v.v.v.v.v.v.v.v.v.v.v.v.v.v.v.v.v.v.v.v.v.v.v.v.v.v.v.v.v.v.v.v.v.v.v.v.v.v.v.v.v.v.v.v.v.v.v.v.v.v.v.v.v.v.v.v.",
"v.v.v.v.v.v.v.v.v.v.v.v.v.v.v.v.v.v.v.v.v.v.v.v.v.v.v.v.v.v.v.v.v.v.v.v.v.v.v.v.v.v.v.v.v.v.v.v.v.v.v.v.v.v.v.v.v.v.v.v.v.v.v.v.",
"v.v.v.v.v.v.v.v.v.v.v.v.v.v.v.v.v.v.v.v.v.v.v.v.v.v.v.v.v.v.v.v.v.v.v.v.v.v.v.v.v.v.v.v.v.v.v.v.v.v.v.v.v.v.v.v.v.v.v.v.v.v.v.v.",
"v.v.v.v.v.v.v.v.v.v.v.v.v.v.v.v.v.v.v.v.v.v.v.v.v.v.v.v.v.v.v.v.v.v.v.v.v.v.v.v.v.v.v.v.v.v.v.v.v.v.v.v.v.v.v.v.v.v.v.v.v.v.v.v.",
"v.v.v.v.v.v.v.v.v.v.v.v.v.v.v.v.v.v.v.v.v.v.v.v.v.v.v.v.v.v.v.v.v.v.v.v.v.v.v.v.v.v.v.v.v.v.v.v.v.v.v.v.v.v.v.v.v.v.v.v.v.v.v.v.",
"v.v.v.v.v.v.v.v.v.v.v.v.v.v.v.v.v.v.v.v.v.v.v.v.v.v.v.v.v.v.v.v.v.v.v.v.v.v.v.v.v.v.v.v.v.v.v.v.v.v.v.v.v.v.v.v.v.v.v.v.v.v.v.v.",
"v.v.v.v.v.v.v.v.v.v.v.v.v.v.v.v.v.v.v.v.v.v.v.v.v.v.v.v.v.v.v.v.v.v.v.v.v.v.v.v.v.v.v.v.v.v.v.v.v.v.v.v.v.v.v.v.v.v.v.v.v.v.v.v.",
"v.v.v.v.v.v.v.v.v.v.v.v.v.v.v.v.v.v.v.v.v.v.v.v.v.v.v.v.v.v.v.v.v.v.v.v.v.v.v.v.v.v.v.v.v.v.v.v.v.v.v.v.v.v.v.v.v.v.v.v.v.v.v.v.",
"v.v.v.v.v.v.v.v.v.v.v.v.v.v.v.v.v.v.v.v.v.v.v.v.v.v.v.v.v.v.v.v.v.v.v.v.v.v.v.v.v.v.v.v.v.v.v.v.v.v.v.v.v.v.v.v.v.v.v.v.v.v.v.v.",
"v.v.v.v.v.v.v.v.v.v.v.v.v.v.v.v.v.v.v.v.v.v.v.v.v.v.v.v.v.v.v.v.v.v.v.v.v.v.v.v.v.v.v.v.v.v.v.v.v.v.v.v.v.v.v.v.v.v.v.v.v.v.v.v.",
"v.v.v.v.v.v.v.v.v.v.v.v.v.v.v.v.v.v.v.v.v.v.v.v.v.v.v.v.v.v.v.v.v.v.v.v.v.v.v.v.v.v.v.v.v.v.v.v.v.v.v.v.v.v.v.v.v.v.v.v.v.v.v.v.",
"v.v.v.v.v.v.v.v.v.v.v.v.v.v.    v.v.v.v.v.v.v.v.v.v.v.v.v.v.v.v.v.v.v.v.v.v.v.v.v.v.v.v.v.v.v.v.v.v.v.v.v.v.v.v.v.v.v.v.v.v.v.v.",
"v.v.v.v.v.v.v.v.v.v.v.    . + .       v.v.v.v.v.v.v.v.v.v.v.v.v.v.v.v.v.v.v.v.v.v.v.v.v.v.v.v.v.v.v.v.v.v.v.v.v.v.v.v.v.v.v.v.v.",
"v.v.v.v.v.v.v.v.v.v.  . + 2 e $   $ X       v.v.v.v.v.v.v.v.v.v.v.v.v.v.v.v.v.v.v.v.v.v.v.v.v.v.v.v.v.v.v.v.v.v.v.v.v.v.v.v.v.v.",
"v.v.v.v.v.v.v.v.    + u t r u 3 o & r 3 u o.&   v.v.v.v.v.v.v.v.v.v.v.v.v.v.v.v.v.v.v.v.v.v.v.v.v.v.v.v.v.v.v.v.v.v.v.v.v.v.v.v.",
"v.v.v.v.v.v.    & a e u a u u e X + e s S F F 9 v.v.v.v.v.v.v.v.v.v.v.v.v.v.v.v.v.v.v.v.v.v.v.v.v.v.v.v.v.v.v.v.v.v.v.v.v.v.v.v.",
"v.v.v.v.  . 9 a 3 y u e %.$.e 3 o   X 9 u S H ,.* v.v.v.v.v.v.v.v.v.v.v.v.v.v.v.v.v.v.v.v.v.v.v.v.v.v.v.v.v.v.v.v.v.v.v.v.v.v.v.",
"v.v.v.  + r a V 3 e m 9 Q &.s + X e 3 X 9 +.&.&.*   v.v.v.v.v.v.v.v.v.v.v.v.v.v.v.v.v.v.v.v.v.v.v.v.v.v.v.v.v.v.v.v.v.v.v.v.v.v.",
"v.v.  + Q Q * S H 9 t 9 u O.a + = F F u @ = +.r   v.v.v.v.v.v.v.v.v.v.v.v.v.v.v.v.v.v.v.v.v.v.v.v.v.v.v.v.v.v.v.v.v.v.v.v.v.v.v.",
"v.v.  = +.&.D e V 9 2 3 9 + + 5 1 o.$.F o.* X             v.v.v.v.v.v.v.v.v.v.v.v.v.v.v.v.v.v.v.v.v.v.v.v.v.v.v.v.v.v.v.v.v.v.v.",
"v.v.  . 9 O.+.r S u r & X r #.H u + @.y.+.o.&   - < f f O           v.v.v.v.v.v.v.v.v.v.v.v.v.v.v.v.v.v.v.v.v.v.v.v.v.v.v.v.v.v.",
"v.v.X e X X = & = e & e O.$.~ F S 9 & %.~ %.Q   : x 8.8.8.6.< O O o o     v.v.v.v.v.v.v.v.v.v.v.v.v.v.v.v.v.v.v.v.v.v.v.v.v.v.v.",
"v.v.X s &   X X X X e o.&.&.~ S u t 9 & Q %.y . o x 9.0.w.0.5.c 5.x l h - o   v.v.v.v.v.v.v.v.v.v.v.v.v.v.v.v.v.v.v.v.v.v.v.v.v.",
"v.  + r & o * t 3 & F #.1.1.H y e 1 X   & 2 & d . - 6.0.r.e.8.8.0.6.7.0.7.x -   v.v.v.v.v.v.v.v.v.v.v.v.v.v.v.v.v.v.v.v.v.v.v.v.",
"v.& %.a 3   e H S + S F @.O.3 + . . 9 w . + S 2.S   h 7.r.r.0.6.6.8.8.w.0.8.c f   v.v.v.v.v.v.v.v.v.v.v.v.v.v.v.v.v.v.v.v.v.v.v.",
"  n &.F t   r 1.*.& F F r & r 3.=.* $ 3 +   Q u.y.+ O x 0.r.0.6.8.8.8.r.w.8.x x f   v.v.v.v.v.v.v.v.v.v.v.v.v.v.v.v.v.v.v.v.v.v.",
"v.3 F H y X e 1.4.= = X . . i ! C q $ .     . 3 y 3   - 6.w.w.6.6.7.9.w.9.5.x c c <   v.v.v.v.v.v.v.v.v.v.v.v.v.v.v.v.v.v.v.v.v.",
"v.+ S D y 1 9 ,.4.+   1 5 3 b n V V N q 4 + + 2 + .     g 8.w.7.6.8.7.6.x x c 8.8.7.<   v.v.v.v.v.v.v.v.v.v.v.v.v.v.v.v.v.v.v.v.",
"v.  %.&.y * > o.d . 2 m Z m Z G G G A b n n 1 q t 5 1 . o x 0.9.5.7.5.h - x 8.w.r.w.v o v.v.v.v.v.v.v.v.v.v.v.v.v.v.v.v.v.v.v.v.",
"v.  X $   .   s + & m Z G G G G A A m q Z Z q 5 Z m t 4   O l x < < < - o g 9.r.r.r.8.<   v.v.v.v.v.v.v.v.v.v.v.v.v.v.v.v.v.v.v.",
"v.v.          9 + 4 Z G K G G K G G Z q Z K n 2 A Z V n X   - O           - 6.r.r.r.w.l   v.v.v.v.v.v.v.v.v.v.v.v.v.v.v.v.v.v.v.",
"v.v.v.  - -     . 4 n Z A G n Z K G G n Z K N 1 Z A Z M &       v.v.v.v.v.  z 9.r.w.8.c o   v.v.v.v.v.v.v.v.v.v.v.v.v.v.v.v.v.v.",
"v.v.v.O l g o   . 5 n Z A G Z Z G G G b A K Z 2 A Z Z Z + X   v.v.v.v.v.v.v.- 5.w.r.w.8.g   v.v.v.v.v.v.v.v.v.v.v.v.v.v.v.v.v.v.",
"v.v.  z 6.c f o   2 n Z A G G G G G Z n A K V 4 A m n n + t 2   v.v.v.v.v.v.  - 8.r.r.w.6.O v.v.v.v.v.v.v.v.v.v.v.v.v.v.v.v.v.v.",
"v.  o 8.w.9.5.:   . b Z Z Z Z Z Z M q w N Z 5 3 b t 5 1 2 u *   v.v.v.v.v.v.v.  h w.r.0.5.f   v.v.v.v.v.v.v.v.v.v.v.v.v.v.v.v.v.",
"v.  h w.r.r.0.j o   $ b m q m Z Z Z N b 5 5 4 q 5 2 . . 3 2 . v.v.v.v.v.v.v.v.  - 5.5.5.9.c   v.v.v.v.v.v.v.v.v.v.v.v.v.v.v.v.v.",
"v.  8.r.r.r.r.6.:     . 1 1 t b n b b 5 $ . + .     .   . .   v.v.v.v.v.v.v.v.v.  l 9.0.c O .     v.v.v.v.v.v.v.v.v.v.v.v.v.v.v.",
"v.O w.r.r.r.r.w.j . 9 &     ` c.x.R +     . $ 2 8 +         . $ X     v.v.v.v.v.  O -   . 8 B w $   v.v.v.v.v.v.v.v.v.v.v.v.v.v.",
"v.< r.r.r.r.r.w.f @ # # # # # W I # 7 0 = * $ .   .   . . . . o .   o . . . . . % % % @ # % % % % $           o .         .   v.",
"v.f r.r.r.r.r.7.$ [ p.i... ... .-.a.j.j.d.p.( $ + 1 ; 1 1 ; 1 1 1 1 1 > , + X ; 8 w q p / ] } X.X.) 4 k k 5 5 k 4 4 > + . 1 5   ",
"v.O 0.r.r.w.0.c + ;.j.s.g.g.j.k.l.z.k.l.j.h.| 1 + 4 5 k b k k b k J q.q.t.t.J b N C N B _ { { { | R 1 > > 1 1 1 ; + + o . ; ;   ",
"v.  c r.w.0.6.5.; L T T U P Y T T / T ^ E R y , ; ; : + > 2 > 2 4 1 5 5 k k 4 X % % @ + 2 8 8 8 8 + v.v.v.v.v.v.v.v.v.v.v.v.v.v.",
"v.v.O 9.8.6.5.6.6.x x x v c g f j c 6.7.7.8.9.0.8.c 7.: 8 R ! ' i X   v.v.v.v.v.v.v.v.o N ' ' ' w   v.v.v.v.v.v.v.v.v.v.v.v.v.v.",
"v.v.  5.5.6.w.6.7.9.8.r.e.8.v x 6.0.r.r.r.0.w.w.w.5.c :     $ $   v.v.v.v.v.v.v.v.v.v.v.  $ $ $   v.v.v.v.v.v.v.v.v.v.v.v.v.v.v.",
"v.v.v.o : 6.9.6.8.8.w.r.w.8.5.c 5.9.r.r.e.8.6.6.x < o   v.v.v.v.v.v.v.v.v.v.v.v.v.v.v.v.v.v.v.v.v.v.v.v.v.v.v.v.v.v.v.v.v.v.v.v.",
"v.v.v.v.  O < x 5.7.w.w.9.7.c x 5.8.0.w.8.5.f O     v.v.v.v.v.v.v.v.v.v.v.v.v.v.v.v.v.v.v.v.v.v.v.v.v.v.v.v.v.v.v.v.v.v.v.v.v.v.",
"v.v.v.v.v.      < c 8.8.6.5.x x x 5.5.c g O     v.v.v.v.v.v.v.v.v.v.v.v.v.v.v.v.v.v.v.v.v.v.v.v.v.v.v.v.v.v.v.v.v.v.v.v.v.v.v.v.",
"v.v.v.v.v.v.v.      - : : f f < O o       v.v.v.v.v.v.v.v.v.v.v.v.v.v.v.v.v.v.v.v.v.v.v.v.v.v.v.v.v.v.v.v.v.v.v.v.v.v.v.v.v.v.v.",
"v.v.v.v.v.v.v.v.v.v.v.v.      v.v.v.v.v.v.v.v.v.v.v.v.v.v.v.v.v.v.v.v.v.v.v.v.v.v.v.v.v.v.v.v.v.v.v.v.v.v.v.v.v.v.v.v.v.v.v.v.v.",
"v.v.v.v.v.v.v.v.v.v.v.v.v.v.v.v.v.v.v.v.v.v.v.v.v.v.v.v.v.v.v.v.v.v.v.v.v.v.v.v.v.v.v.v.v.v.v.v.v.v.v.v.v.v.v.v.v.v.v.v.v.v.v.v.",
"v.v.v.v.v.v.v.v.v.v.v.v.v.v.v.v.v.v.v.v.v.v.v.v.v.v.v.v.v.v.v.v.v.v.v.v.v.v.v.v.v.v.v.v.v.v.v.v.v.v.v.v.v.v.v.v.v.v.v.v.v.v.v.v.",
"v.v.v.v.v.v.v.v.v.v.v.v.v.v.v.v.v.v.v.v.v.v.v.v.v.v.v.v.v.v.v.v.v.v.v.v.v.v.v.v.v.v.v.v.v.v.v.v.v.v.v.v.v.v.v.v.v.v.v.v.v.v.v.v.",
"v.v.v.v.v.v.v.v.v.v.v.v.v.v.v.v.v.v.v.v.v.v.v.v.v.v.v.v.v.v.v.v.v.v.v.v.v.v.v.v.v.v.v.v.v.v.v.v.v.v.v.v.v.v.v.v.v.v.v.v.v.v.v.v.",
"v.v.v.v.v.v.v.v.v.v.v.v.v.v.v.v.v.v.v.v.v.v.v.v.v.v.v.v.v.v.v.v.v.v.v.v.v.v.v.v.v.v.v.v.v.v.v.v.v.v.v.v.v.v.v.v.v.v.v.v.v.v.v.v.",
"v.v.v.v.v.v.v.v.v.v.v.v.v.v.v.v.v.v.v.v.v.v.v.v.v.v.v.v.v.v.v.v.v.v.v.v.v.v.v.v.v.v.v.v.v.v.v.v.v.v.v.v.v.v.v.v.v.v.v.v.v.v.v.v.",
"v.v.v.v.v.v.v.v.v.v.v.v.v.v.v.v.v.v.v.v.v.v.v.v.v.v.v.v.v.v.v.v.v.v.v.v.v.v.v.v.v.v.v.v.v.v.v.v.v.v.v.v.v.v.v.v.v.v.v.v.v.v.v.v.",
"v.v.v.v.v.v.v.v.v.v.v.v.v.v.v.v.v.v.v.v.v.v.v.v.v.v.v.v.v.v.v.v.v.v.v.v.v.v.v.v.v.v.v.v.v.v.v.v.v.v.v.v.v.v.v.v.v.v.v.v.v.v.v.v.",
"v.v.v.v.v.v.v.v.v.v.v.v.v.v.v.v.v.v.v.v.v.v.v.v.v.v.v.v.v.v.v.v.v.v.v.v.v.v.v.v.v.v.v.v.v.v.v.v.v.v.v.v.v.v.v.v.v.v.v.v.v.v.v.v.",
"v.v.v.v.v.v.v.v.v.v.v.v.v.v.v.v.v.v.v.v.v.v.v.v.v.v.v.v.v.v.v.v.v.v.v.v.v.v.v.v.v.v.v.v.v.v.v.v.v.v.v.v.v.v.v.v.v.v.v.v.v.v.v.v.",
"v.v.v.v.v.v.v.v.v.v.v.v.v.v.v.v.v.v.v.v.v.v.v.v.v.v.v.v.v.v.v.v.v.v.v.v.v.v.v.v.v.v.v.v.v.v.v.v.v.v.v.v.v.v.v.v.v.v.v.v.v.v.v.v.",
"v.v.v.v.v.v.v.v.v.v.v.v.v.v.v.v.v.v.v.v.v.v.v.v.v.v.v.v.v.v.v.v.v.v.v.v.v.v.v.v.v.v.v.v.v.v.v.v.v.v.v.v.v.v.v.v.v.v.v.v.v.v.v.v.",
"v.v.v.v.v.v.v.v.v.v.v.v.v.v.v.v.v.v.v.v.v.v.v.v.v.v.v.v.v.v.v.v.v.v.v.v.v.v.v.v.v.v.v.v.v.v.v.v.v.v.v.v.v.v.v.v.v.v.v.v.v.v.v.v."
};
