/* XPM */
static char *result[] = {
/* columns rows colors chars-per-pixel */
"64 64 137 2 ",
"   c #020202",
".  c #080706",
"X  c #050B05",
"o  c #0A0A06",
"O  c #070608",
"+  c #0D0B0A",
"@  c #130A06",
"#  c #1C0D07",
"$  c #120D0B",
"%  c #1B0E0B",
"&  c #081007",
"*  c #0A1309",
"=  c #0D1A0C",
"-  c #14120D",
";  c #1A140E",
":  c #1C180F",
">  c #0E0E10",
",  c #100F10",
"<  c #141212",
"1  c #1A1613",
"2  c #1C1A13",
"3  c #181719",
"4  c #1C1A1A",
"5  c #21140E",
"6  c #2C180F",
"7  c #211715",
"8  c #211D14",
"9  c #2C1C13",
"0  c #231D1C",
"q  c #2B1C1A",
"w  c #11220F",
"e  c #122511",
"r  c #162C14",
"t  c #182F15",
"y  c #193216",
"u  c #1B3618",
"i  c #1E3C1A",
"p  c #242116",
"a  c #2A2317",
"s  c #25221B",
"d  c #2A251C",
"f  c #2D291D",
"g  c #35221F",
"h  c #3A2018",
"j  c #332E1D",
"k  c #37311F",
"l  c #38311E",
"z  c #1E1E20",
"x  c #242122",
"c  c #2B2523",
"v  c #2F2924",
"b  c #2B2A2D",
"n  c #342523",
"m  c #3A2522",
"M  c #312B25",
"N  c #3D2B26",
"B  c #352D2A",
"V  c #382F2D",
"C  c #353224",
"Z  c #3B3524",
"A  c #3A3827",
"S  c #3A312E",
"D  c #3E392A",
"F  c #2D2D30",
"G  c #3D3330",
"H  c #442619",
"J  c #4C261A",
"K  c #422B1E",
"L  c #512718",
"P  c #562D1D",
"I  c #592F1C",
"U  c #5C331F",
"Y  c #412B25",
"T  c #4D2F20",
"R  c #4B3021",
"E  c #433C26",
"W  c #4C332D",
"Q  c #423C2B",
"!  c #543422",
"~  c #5D3223",
"^  c #5E3927",
"/  c #53322B",
"(  c #583228",
")  c #583C2C",
"_  c #503531",
"`  c #683523",
"'  c #6E3F23",
"]  c #64362B",
"[  c #6E3628",
"{  c #66392F",
"}  c #743C23",
"|  c #7A3D24",
" . c #763C2C",
".. c #21441E",
"X. c #234720",
"o. c #254B21",
"O. c #275023",
"+. c #295425",
"@. c #45412D",
"#. c #4C442C",
"$. c #51472B",
"%. c #54492D",
"&. c #4A4731",
"*. c #4C4932",
"=. c #534B32",
"-. c #5B5234",
";. c #5F5539",
":. c #69402D",
">. c #7B4425",
",. c #78452A",
"<. c #6B4732",
"1. c #7D4131",
"2. c #625736",
"3. c #635739",
"4. c #655A39",
"5. c #6C5F3C",
"6. c #7A523A",
"7. c #6E623F",
"8. c #3F3F42",
"9. c #414144",
"0. c #716542",
"q. c #766843",
"w. c #834526",
"e. c #864A29",
"r. c #8C4B2F",
"t. c #934F2F",
"y. c #8E512E",
"u. c #844C30",
"i. c #884831",
"p. c #8F5334",
"a. c #955432",
"s. c #9D5433",
"d. c #9E5934",
"f. c #A25C39",
"g. c #835B42",
"h. c #926549",
"j. c None",
/* pixels */
"j.j.j.j.j.j.j.j.j.j.j.j.j.j.j.j.j.j.j.j.j.j.j.j.j.j.j.j.j.j.j.j.j.j.j.j.  j.j.j.j.j.j.j.j.j.j.j.j.j.j.j.j.j.j.j.j.j.j.j.j.j.j.j.",
"j.j.j.j.j.j.j.j.j.j.j.j.j.j.j.j.j.j.j.j.  X = = X       j.j.j.j.    + 2 f $   j.j.j.j.j.j.j.j.j.j.j.j.j.j.j.j.j.j.j.j.j.j.j.j.j.",
"j.j.j.j.j.j.j.j.j.j.j.j.j.j.j.j.j.j.  X r o.+.+.o.i w X   j.j.  o =.C A -.%.+ o X       j.j.j.j.j.j.j.j.j.j.j.j.j.j.j.j.j.j.j.j.",
"j.j.j.j.j.j.j.j.j.j.j.j.j.j.j.j.j.X y o.+.+.+.+.+.+.O...e X     $ -.A A A M a l p . : @   j.j.j.j.j.j.j.j.j.j.j.j.j.j.j.j.j.j.j.",
"j.j.j.j.j.j.j.j.j.j.j.j.j.j.j.j.  * y ..O.+.+.+.+.+.+.o.i e &   X d d d s 1 - - o 8 %.E $   j.j.j.j.j.j.j.j.j.j.j.j.j.j.j.j.j.j.",
"j.j.j.j.j.j.j.j.j.j.j.j.j.j.j.  X i i i o.O.+.+.+.+.+...y w X     : < o O   X   o $.-.Z a   j.j.j.j.j.j.j.j.j.j.j.j.j.j.j.j.j.j.",
"j.j.j.j.j.j.j.j.j.j.j.j.j.j.j.  * ..o.u i o.+.+.+.+.o.u = X     . + p p s 2 1 X 2 $.C 2 j 8   j.j.j.j.j.j.j.j.j.j.j.j.j.j.j.j.j.",
"j.j.j.j.j.j.j.j.j.j.j.j.j.j.    r i i i y t i O.+.i w * X     8 C E 2.4.4.D s o - p p C j j   j.j.j.j.j.j.j.j.j.j.j.j.j.j.j.j.j.",
"j.j.j.j.j.j.j.j.j.j.j.j.j.j.  * u ..i u * $ @ = e & .     O O O + j 7.0.;.C 2 o 2 C M D 2 2 -   j.j.j.j.j.j.j.j.j.j.j.j.j.j.j.j.",
"j.j.j.j.j.j.j.j.j.j.j.j.j.j.  t ....o.r H ,.' @ O     + 1 4 4 3 - . * ; - + - o a f 2 2 s d k   j.j.j.j.j.j.j.j.j.j.j.j.j.j.j.j.",
"j.j.j.j.j.j.j.j.j.j.j.j.j.j.X i o.o...r I t.e.# p   , 0 n c c B c 1 . : Z C A s @ f 2 s v d r &   j.j.j.j.j.j.j.j.j.j.j.j.j.j.j.",
"j.j.j.j.j.j.j.j.j.j.j.j.j.j.* ..o.+.o.r I t.w.# - . q b B B B V V M - . A D @.@.p - 2 8 8 q f d     j.j.j.j.j.j.j.j.j.j.j.j.j.j.",
"j.j.j.j.j.j.j.j.j.j.j.j.j.  * i X.o.+.y L i.| #   - c B V B S S V B 0   a =.4.-.#.X 8 j E =.j d +   j.j.j.j.j.j.j.j.j.j.j.j.j.j.",
"j.j.j.j.j.j.j.j.j.j.j.j.j.  = u i ..X.t J i.} #   < 0 B S V V G V b 4 . $ #.4.-.*.d o #.-.#.f s 2 X j.j.j.j.j.j.j.j.j.j.j.j.j.j.",
"j.j.j.j.j.j.j.j.j.j.j.j.j.  = r t y y = P a.| ; ) 0 M B S B c G V B c d 9 2 Q Q @.*.* C l p j d 8 +   j.j.j.j.j.j.j.j.j.j.j.j.j.",
"j.j.j.j.j.j.j.j.j.j.j.j.j.j.* r r t t = I s.} R h.x B B G S B S V Y v W 6.$ d C C D 2 . $ - s 2 - .   j.j.j.j.j.j.j.j.j.j.j.j.j.",
"j.j.j.j.j.j.j.j.j.j.j.j.j.j.X r u u u w U d.>.K g.c B B G V S S V V M N <.. e M C d : : X O o .     j.j.j.j.j.j.j.j.j.j.j.j.j.j.",
"j.j.j.j.j.j.j.j.j.j.j.j.j.j.  u ....o.y U f.y.# Y x B M V G S G V V b 0 ; . ; p 4 * @.C 2 . + - $   j.j.j.j.j.j.j.j.j.j.j.j.j.j.",
"j.j.j.j.j.j.j.j.j.j.j.j.j.j.  u o.+.+.i U s.t.6 + 0 b 0 B V Y B n V M $ % 7 . : - =.*.A 2 o p d o   j.j.j.j.j.j.j.j.j.j.j.j.j.j.",
"j.j.j.j.j.j.j.j.j.j.j.j.j.j.  t o.+.+.i ! d.a.9   7 x 0 x c c x 0 x 0 . 7 q . - =.0.A f . 8 j 8   j.j.j.j.j.j.j.j.j.j.j.j.j.j.j.",
"j.j.j.j.j.j.j.j.j.j.j.j.j.j.  = ..+.+...R a.i.5   , 4 M V V B V B c 1   + . - Q Q $.E + 8 f k f   j.j.j.j.j.j.j.j.j.j.j.j.j.j.j.",
"j.j.j.j.j.j.j.j.j.j.j.j.j.j.j.X u ..o...l a.u.; . . 1 V G G G S B c $     + : *.-.E ; 2 $.Z D Q   j.j.j.j.j.j.j.j.j.j.j.j.j.j.j.",
"j.j.j.j.j.j.j.j.j.j.j.j.j.j.j.  = i o...a { ] $ $ + 1 4 v B v c 0 < + . E Z - d E - o $.-.A D + j.j.j.j.j.j.j.j.j.j.j.j.j.j.j.j.",
"j.j.j.j.j.j.j.j.j.j.j.j.j.j.j.  . i o.o.* - - . 1 O 0 1 1 3 3 3 2 q < 2 7.7.l .       a -.4.8   j.j.j.j.j.j.j.j.j.j.j.j.j.j.j.j.",
"j.j.j.j.j.j.j.j.j.j.j.j.j.j.j.j.  r o...+ + +   8   4 x V V B V B x + d 7.l . X & X     - ; j.j.j.j.j.j.j.j.j.j.j.j.j.j.j.j.j.j.",
"j.j.j.j.j.j.j.j.j.j.j.j.j.j.j.j.  * y t + 3 < O $   < s v B V B M 4 . 2 $   * e r =   j.  j.j.j.j.j.j.j.j.j.j.j.j.j.j.j.j.j.j.j.",
"j.j.j.j.j.j.j.j.j.j.j.j.j.j.j.j.j.X t i > 4 , O   . . 0 c B B v 0 ,     X w u ....=   j.j.j.j.j.j.j.j.j.j.j.j.j.j.j.j.j.j.j.j.j.",
"j.j.j.j.j.j.j.j.j.j.j.j.j.j.j.j.j.  * * + z , O       , c v B c 4 .   & r ..O.....*   j.j.j.j.j.j.j.j.j.j.j.j.j.j.j.j.j.j.j.j.j.",
"j.j.j.j.j.j.j.j.j.j.j.j.j.j.j.j.j.j.  1 , x < O   . 2 2 + + - .   X w i ..+.+.O...X   j.j.j.j.j.j.j.j.j.j.j.j.j.j.j.j.j.j.j.j.j.",
"j.j.j.j.j.j.j.j.j.j.j.j.j.j.j.j.j.j.  Y 1 z , O   . 2 d s o     X e ..O.+.+.+.o.u   j.j.j.j.j.j.j.j.j.j.j.j.j.j.j.j.j.j.j.j.j.j.",
"j.j.j.j.j.j.j.j.j.j.j.j.j.j.j.j.j.j.$ W 1 z ,   .   . < 2     & e ..O.O.o.....u &   j.j.j.j.j.j.j.j.j.j.j.j.j.j.j.j.j.j.j.j.j.j.",
"j.j.j.j.j.j.j.j.j.j.j.j.j.j.j.j.j.j.$ _ 1 z 3 O $ j.j.    j.  X y ..i i i i i t X   j.j.j.j.j.j.j.j.j.j.j.j.j.j.j.j.j.j.j.j.j.j.",
"j.j.j.j.j.j.j.j.j.j.j.j.j.j.j.j.j.j.  g 3 z < O + j.j.j.j.j.j.  * u i i ..u ..u X   j.j.j.j.j.j.j.j.j.j.j.j.j.j.j.j.j.j.j.j.j.j.",
"j.j.j.j.j.j.j.j.j.j.j.j.j.j.j.j.j.j.j.o 3 b > .   j.j.j.j.j.j.  = i ..i ......r X   j.j.j.j.j.j.j.j.j.j.j.j.j.j.j.j.j.j.j.j.j.j.",
"j.j.j.j.j.j.j.j.j.j.j.j.j.j.j.j.j.j.j.O 4 G > X   j.j.j.j.j.j.  * u i ......i e   j.j.j.j.j.j.j.j.j.j.j.j.j.j.j.j.j.j.j.j.j.j.j.",
"j.j.j.j.j.j.j.j.j.j.j.j.j.j.j.j.j.j.j.j.z 9.> O j.j.j.j.j.j.j.  & e i O.+.+...w   j.j.j.j.j.j.j.j.j.j.j.j.j.j.j.j.j.j.j.j.j.j.j.",
"j.j.j.j.j.j.j.j.j.j.j.j.j.j.j.j.j.j.j.j.z 9.> O j.j.j.j.j.j.j.    * r ..o.....&   j.j.j.j.j.j.j.j.j.j.j.j.j.j.j.j.j.j.j.j.j.j.j.",
"j.j.j.j.j.j.j.j.j.j.j.j.j.j.j.j.j.j.j.j.z 9.+ O j.j.j.j.j.j.  X w r r y ....r . j.j.j.j.j.j.j.j.j.j.j.j.j.j.j.j.j.j.j.j.j.j.j.j.",
"j.j.j.j.j.j.j.j.j.j.j.j.j.j.j.j.j.j.j.j.3 F . . j.j.j.j.  & t i ..i y r t t &   j.j.j.j.j.j.j.j.j.j.j.j.j.j.j.j.j.j.j.j.j.j.j.j.",
"j.j.j.j.j.j.j.j.j.j.j.j.j.j.j.j.j.j.j.j.+ z < . j.j.    & u X.+.+.O...t e =   j.j.j.j.j.j.j.j.j.j.j.j.j.j.j.j.j.j.j.j.j.j.j.j.j.",
"j.j.j.j.j.j.j.j.j.j.j.j.j.j.j.j.j.j.j.j.% n 7 5     X e i O.+.+.+.+...y =   j.j.j.j.j.j.j.j.j.j.j.j.j.j.j.j.j.j.j.j.j.j.j.j.j.j.",
"j.j.j.j.j.j.j.j.j.j.j.j.j.j.j.j.j.j.j.j.% B q % o e u O.+.+.o.+.+.O.u =   j.j.j.j.j.j.j.j.j.j.j.j.j.j.j.j.j.j.j.j.j.j.j.j.j.j.j.",
"j.j.j.j.j.j.j.j.j.j.j.j.j.j.j.j.j.j.j.j.@ n 7 % & X.y +.+.o...o...y *   j.j.j.j.j.j.j.j.j.j.j.j.j.j.j.j.j.j.j.j.j.j.j.j.j.j.j.j.",
"j.j.j.j.j.j.j.j.j.j.j.j.j.j.j.j.j.j.j.. + m h @   X.u o.+...y r =     j.j.j.j.j.j.j.j.j.j.j.j.j.j.j.j.j.j.j.j.j.j.j.j.j.j.j.j.j.",
"j.j.j.j.j.j.j.j.j.j.j.j.j.j.j.j.j.j.O n 1 ( ~ @   t X.u u w .     j.j.j.j.j.j.j.j.j.j.j.j.j.j.j.j.j.j.j.j.j.j.j.j.j.j.j.j.j.j.j.",
"j.j.j.j.j.j.j.j.j.j.j.j.j.j.j.j.j.j.+ _ 7 ] ` % 7 X t = X     j.j.j.j.j.j.j.j.j.j.j.j.j.j.j.j.j.j.j.j.j.j.j.j.j.j.j.j.j.j.j.j.j.",
"j.j.j.j.j.j.j.j.j.j.j.j.j.j.j.j.j.j.% _ 7 ] [ % m .     j.j.j.j.j.j.j.j.j.j.j.j.j.j.j.j.j.j.j.j.j.j.j.j.j.j.j.j.j.j.j.j.j.j.j.j.",
"j.j.j.j.j.j.j.j.j.j.j.j.j.j.j.j.j.j.@ _ 7 ]  .% d   j.j.j.j.j.j.j.j.j.j.j.j.j.j.j.j.j.j.j.j.j.j.j.j.j.j.j.j.j.j.j.j.j.j.j.j.j.j.",
"j.j.j.j.j.j.j.j.j.j.j.j.j.j.j.j.j.j.O q 1 { 1.5 ,   j.j.j.j.j.j.j.j.j.j.j.j.j.j.j.j.j.j.j.j.j.j.j.j.j.j.j.j.j.j.j.j.j.j.j.j.j.j.",
"j.j.j.j.j.j.j.j.j.j.j.j.j.j.j.j.j.j.j.O . N / $   j.j.j.j.j.j.j.j.j.j.j.j.j.j.j.j.j.j.j.j.j.j.j.j.j.j.j.j.j.j.j.j.j.j.j.j.j.j.j.",
"j.j.j.j.j.j.j.j.j.j.j.j.j.j.j.j.j.j.j.j.j.< 3   j.j.j.j.j.j.j.j.j.j.j.j.j.j.j.j.j.j.j.j.j.j.j.j.j.j.j.j.j.j.j.j.j.j.j.j.j.j.j.j.",
"j.j.j.j.j.j.j.j.j.j.j.j.j.j.j.j.j.j.j.j.j., 4   j.j.j.j.j.j.j.j.j.j.j.j.j.j.j.j.j.j.j.j.j.j.j.j.j.j.j.j.j.j.j.j.j.j.j.j.j.j.j.j.",
"j.j.j.j.j.j.j.j.j.j.j.j.j.j.j.j.j.j.j.j.j.< 4 O j.j.j.j.j.j.j.j.j.j.j.j.j.j.j.j.j.j.j.j.j.j.j.j.j.j.j.j.j.j.j.j.j.j.j.j.j.j.j.j.",
"j.j.j.j.j.j.j.j.j.j.j.j.j.j.j.j.j.j.j.j.j.< 3   j.j.j.j.j.j.j.j.j.j.j.j.j.j.j.j.j.j.j.j.j.j.j.j.j.j.j.j.j.j.j.j.j.j.j.j.j.j.j.j.",
"j.j.j.j.j.j.j.j.j.j.j.j.j.j.j.j.j.j.j.j.j.< 3   j.j.j.j.j.j.j.j.j.j.j.j.j.j.j.j.j.j.j.j.j.j.j.j.j.j.j.j.j.j.j.j.j.j.j.j.j.j.j.j.",
"j.j.j.j.j.j.j.j.j.j.j.j.j.j.j.j.j.j.j.j.j.< z O j.j.j.j.j.j.j.j.j.j.j.j.j.j.j.j.j.j.j.j.j.j.j.j.j.j.j.j.j.j.j.j.j.j.j.j.j.j.j.j.",
"j.j.j.j.j.j.j.j.j.j.j.j.j.j.j.j.j.j.j.j.j.> 3 O j.j.j.j.j.j.j.j.j.j.j.j.j.j.j.j.j.j.j.j.j.j.j.j.j.j.j.j.j.j.j.j.j.j.j.j.j.j.j.j.",
"j.j.j.j.j.j.j.j.j.j.j.j.j.j.j.j.j.j.j.j.j.+ 3   j.j.j.j.j.j.j.j.j.j.j.j.j.j.j.j.j.j.j.j.j.j.j.j.j.j.j.j.j.j.j.j.j.j.j.j.j.j.j.j.",
"j.j.j.j.j.j.j.j.j.j.j.j.j.j.j.j.j.j.j.j.j.+ <   j.j.j.j.j.j.j.j.j.j.j.j.j.j.j.j.j.j.j.j.j.j.j.j.j.j.j.j.j.j.j.j.j.j.j.j.j.j.j.j.",
"j.j.j.j.j.j.j.j.j.j.j.j.j.j.j.j.j.j.j.j.j.O .   j.j.j.j.j.j.j.j.j.j.j.j.j.j.j.j.j.j.j.j.j.j.j.j.j.j.j.j.j.j.j.j.j.j.j.j.j.j.j.j.",
"j.j.j.j.j.j.j.j.j.j.j.j.j.j.j.j.j.j.j.j.j.O O   j.j.j.j.j.j.j.j.j.j.j.j.j.j.j.j.j.j.j.j.j.j.j.j.j.j.j.j.j.j.j.j.j.j.j.j.j.j.j.j.",
"j.j.j.j.j.j.j.j.j.j.j.j.j.j.j.j.j.j.j.j.j.+ 3 . j.j.j.j.j.j.j.j.j.j.j.j.j.j.j.j.j.j.j.j.j.j.j.j.j.j.j.j.j.j.j.j.j.j.j.j.j.j.j.j.",
"j.j.j.j.j.j.j.j.j.j.j.j.j.j.j.j.j.j.j.j.j.> 4   j.j.j.j.j.j.j.j.j.j.j.j.j.j.j.j.j.j.j.j.j.j.j.j.j.j.j.j.j.j.j.j.j.j.j.j.j.j.j.j.",
"j.j.j.j.j.j.j.j.j.j.j.j.j.j.j.j.j.j.j.j.j.    j.j.j.j.j.j.j.j.j.j.j.j.j.j.j.j.j.j.j.j.j.j.j.j.j.j.j.j.j.j.j.j.j.j.j.j.j.j.j.j.j."
};
