/* XPM */
static char *result[] = {
/* columns rows colors chars-per-pixel */
"64 64 137 2 ",
"   c #020202",
".  c #080706",
"X  c #050B05",
"o  c #0A0A06",
"O  c #070608",
"+  c #0D0B0A",
"@  c #130A06",
"#  c #1C0D07",
"$  c #120D0B",
"%  c #1B0E0B",
"&  c #081007",
"*  c #0A1309",
"=  c #0D1A0C",
"-  c #14120D",
";  c #1A140E",
":  c #1C180F",
">  c #0E0E10",
",  c #100F10",
"<  c #141212",
"1  c #1A1613",
"2  c #1C1A13",
"3  c #181719",
"4  c #1C1A1A",
"5  c #21140E",
"6  c #2C180F",
"7  c #211715",
"8  c #211D14",
"9  c #2C1C13",
"0  c #231D1C",
"q  c #2B1C1A",
"w  c #11220F",
"e  c #122511",
"r  c #162C14",
"t  c #182F15",
"y  c #193216",
"u  c #1B3618",
"i  c #1E3C1A",
"p  c #242116",
"a  c #2A2317",
"s  c #25221B",
"d  c #2A251C",
"f  c #2D291D",
"g  c #35221F",
"h  c #3A2018",
"j  c #332E1D",
"k  c #37311F",
"l  c #38311E",
"z  c #1E1E20",
"x  c #242122",
"c  c #2B2523",
"v  c #2F2924",
"b  c #2B2A2D",
"n  c #342523",
"m  c #3A2522",
"M  c #312B25",
"N  c #3D2B26",
"B  c #352D2A",
"V  c #382F2D",
"C  c #353224",
"Z  c #3B3524",
"A  c #3A3827",
"S  c #3A312E",
"D  c #3E392A",
"F  c #2D2D30",
"G  c #3D3330",
"H  c #442619",
"J  c #4C261A",
"K  c #422B1E",
"L  c #512718",
"P  c #562D1D",
"I  c #592F1C",
"U  c #5C331F",
"Y  c #412B25",
"T  c #4D2F20",
"R  c #4B3021",
"E  c #433C26",
"W  c #4C332D",
"Q  c #423C2B",
"!  c #543422",
"~  c #5D3223",
"^  c #5E3927",
"/  c #53322B",
"(  c #583228",
")  c #583C2C",
"_  c #503531",
"`  c #683523",
"'  c #6E3F23",
"]  c #64362B",
"[  c #6E3628",
"{  c #66392F",
"}  c #743C23",
"|  c #7A3D24",
" . c #763C2C",
".. c #21441E",
"X. c #234720",
"o. c #254B21",
"O. c #275023",
"+. c #295425",
"@. c #45412D",
"#. c #4C442C",
"$. c #51472B",
"%. c #54492D",
"&. c #4A4731",
"*. c #4C4932",
"=. c #534B32",
"-. c #5B5234",
";. c #5F5539",
":. c #69402D",
">. c #7B4425",
",. c #78452A",
"<. c #6B4732",
"1. c #7D4131",
"2. c #625736",
"3. c #635739",
"4. c #655A39",
"5. c #6C5F3C",
"6. c #7A523A",
"7. c #6E623F",
"8. c #3F3F42",
"9. c #414144",
"0. c #716542",
"q. c #766843",
"w. c #834526",
"e. c #864A29",
"r. c #8C4B2F",
"t. c #934F2F",
"y. c #8E512E",
"u. c #844C30",
"i. c #884831",
"p. c #8F5334",
"a. c #955432",
"s. c #9D5433",
"d. c #9E5934",
"f. c #A25C39",
"g. c #835B42",
"h. c #926549",
"j. c None",
/* pixels */
"j.j.j.j.j.j.j.j.j.j.j.j.j.j.j.j.j.j.j.j.j.j.j.j.j.j.j.j.j.j.j.j.j.j.j.j.j.j.j.j.j.j.j.j.j.j.j.j.j.j.j.j.j.j.j.j.j.j.j.j.j.j.j.j.",
"j.j.j.j.j.j.j.j.j.j.j.j.j.j.j.j.j.j.j.j.j.j.j.j.j.j.j.j.j.j.j.j.j.j.j.j.j.j.j.j.j.j.j.j.j.j.j.j.j.j.j.j.j.j.j.j.j.j.j.j.j.j.j.j.",
"j.j.j.j.j.j.j.j.j.j.j.j.j.j.j.j.j.j.j.j.j.j.j.j.j.j.j.j.j.j.j.j.j.j.j.j.j.j.j.j.j.j.j.j.j.j.j.j.j.j.j.j.j.j.j.j.j.j.j.j.j.j.j.j.",
"j.j.j.j.j.j.j.j.j.j.j.j.j.j.j.j.j.j.j.j.j.j.j.j.j.j.j.j.j.j.j.j.j.j.j.j.j.j.j.j.j.j.j.j.j.j.j.j.j.j.j.j.j.j.j.j.j.j.j.j.j.j.j.j.",
"j.j.j.j.j.j.j.j.j.j.j.j.j.j.j.j.j.j.j.j.j.j.j.j.j.j.j.j.j.j.j.j.j.j.j.j.j.j.j.j.j.j.j.j.j.j.j.j.j.j.j.j.j.j.j.j.j.j.j.j.j.j.j.j.",
"j.j.j.j.j.j.j.j.j.j.j.j.j.j.j.j.j.j.j.j.j.j.j.j.j.j.j.j.j.j.j.j.j.j.j.j.j.j.j.j.j.j.j.j.j.j.j.j.j.j.j.j.j.j.j.j.j.j.j.j.j.j.j.j.",
"j.j.j.j.j.j.j.j.j.j.j.j.j.j.j.j.j.j.j.j.j.j.j.j.j.j.j.j.j.j.j.j.j.j.j.j.j.j.j.j.j.j.j.j.j.j.j.j.j.j.j.j.j.j.j.j.j.j.j.j.j.j.j.j.",
"j.j.j.j.j.j.j.j.j.j.j.j.j.j.j.j.j.j.j.j.j.j.j.j.j.j.j.j.j.j.j.j.j.j.j.j.j.j.j.j.j.j.j.j.j.j.j.j.j.j.j.j.j.j.j.j.j.j.j.j.j.j.j.j.",
"j.j.j.j.j.j.j.j.j.j.j.j.j.j.j.j.j.j.j.j.j.j.j.j.j.j.j.j.j.j.j.j.j.j.j.j.j.j.j.j.j.j.j.j.j.j.j.j.j.j.j.j.j.j.j.j.j.j.j.j.j.j.j.j.",
"j.j.j.j.j.j.j.j.j.j.j.j.j.j.j.j.j.j.j.j.j.j.j.j.j.j.j.j.j.j.j.j.j.j.j.j.j.j.j.j.j.j.j.j.j.j.j.j.j.j.j.j.j.j.j.j.j.j.j.j.j.j.j.j.",
"j.j.j.j.j.j.j.j.j.j.j.j.j.j.j.j.j.j.j.j.j.j.j.j.j.j.j.j.j.j.j.j.j.j.j.j.j.j.j.j.j.j.j.j.j.j.j.j.j.j.j.j.j.j.j.j.j.j.j.j.j.j.j.j.",
"j.j.j.j.j.j.j.j.j.j.j.j.j.j.j.j.j.j.j.j.j.j.j.j.j.j.j.j.j.j.j.j.j.j.j.j.j.j.j.j.j.j.j.j.j.j.j.j.j.j.j.j.j.j.j.j.j.j.j.j.j.j.j.j.",
"j.j.j.j.j.j.j.j.j.j.j.j.j.j.j.j.j.j.j.j.j.j.j.j.j.j.j.j.j.j.j.j.j.j.j.j.j.j.j.j.j.j.j.j.j.j.j.j.j.j.j.j.j.j.j.j.j.j.j.j.j.j.j.j.",
"j.j.j.j.j.j.j.j.j.j.j.j.j.j.    j.j.j.j.j.j.j.j.j.j.j.j.j.j.j.j.j.j.j.j.j.j.j.j.j.j.j.j.j.j.j.j.j.j.j.j.j.j.j.j.j.j.j.j.j.j.j.j.",
"j.j.j.j.j.j.j.j.j.j.j.    X + .       j.j.j.j.j.j.j.j.j.j.j.j.j.j.j.j.j.j.j.j.j.j.j.j.j.j.j.j.j.j.j.j.j.j.j.j.j.j.j.j.j.j.j.j.j.",
"j.j.j.j.j.j.j.j.j.j.  . + 1 p $   $ o       j.j.j.j.j.j.j.j.j.j.j.j.j.j.j.j.j.j.j.j.j.j.j.j.j.j.j.j.j.j.j.j.j.j.j.j.j.j.j.j.j.j.",
"j.j.j.j.j.j.j.j.    + f d s v 1 X - d 8 j Q -   j.j.j.j.j.j.j.j.j.j.j.j.j.j.j.j.j.j.j.j.j.j.j.j.j.j.j.j.j.j.j.j.j.j.j.j.j.j.j.j.",
"j.j.j.j.j.j.    - k 8 d j f f p o + 8 j M D D 2 j.j.j.j.j.j.j.j.j.j.j.j.j.j.j.j.j.j.j.j.j.j.j.j.j.j.j.j.j.j.j.j.j.j.j.j.j.j.j.j.",
"j.j.j.j.    8 j 2 d f a =.%.s ; . . + 8 f C E 3.; j.j.j.j.j.j.j.j.j.j.j.j.j.j.j.j.j.j.j.j.j.j.j.j.j.j.j.j.j.j.j.j.j.j.j.j.j.j.j.",
"j.j.j.  + a j M 2 0 n e o.<.Z + . e 2 . 8 $.-.-.;   j.j.j.j.j.j.j.j.j.j.j.j.j.j.j.j.j.j.j.j.j.j.j.j.j.j.j.j.j.j.j.j.j.j.j.j.j.j.",
"j.j.  @ E E ; C D 2 s p f #.j + : A A f @ : $.a   j.j.j.j.j.j.j.j.j.j.j.j.j.j.j.j.j.j.j.j.j.j.j.j.j.j.j.j.j.j.j.j.j.j.j.j.j.j.j.",
"j.j.  : %.-.Z p M 8 1 2 8 + + 2 1 @.*.A E ; +             j.j.j.j.j.j.j.j.j.j.j.j.j.j.j.j.j.j.j.j.j.j.j.j.j.j.j.j.j.j.j.j.j.j.j.",
"j.j.  . 8 $.#.a C f d - X f &.D d * %.0.#.@.-   & * = * .           j.j.j.j.j.j.j.j.j.j.j.j.j.j.j.j.j.j.j.j.j.j.j.j.j.j.j.j.j.j.",
"j.j.X p X + : - : p - p #.#.Q A C 2 - =.Q =.E   * r ......i * X X .       j.j.j.j.j.j.j.j.j.j.j.j.j.j.j.j.j.j.j.j.j.j.j.j.j.j.j.",
"j.j.o k -   . & o + p @.-.-.Q C v s p - E =.d . X r ....O.o.u r y r e w &     j.j.j.j.j.j.j.j.j.j.j.j.j.j.j.j.j.j.j.j.j.j.j.j.j.",
"j.  + s - X 1 p 1 - A &.4.4.D d 2 1 X . $ 1 - l . & i o.+.+.....o.i ..X.i t &   j.j.j.j.j.j.j.j.j.j.j.j.j.j.j.j.j.j.j.j.j.j.j.j.",
"j.- %.j 2   8 D C + M o.=.#.2 + .   7 9 . + C 5.l   w ..+.+...i i ....o.....t =   j.j.j.j.j.j.j.j.j.j.j.j.j.j.j.j.j.j.j.j.j.j.j.",
"  c -.A p . s 4.3.; Z R a - 9 6.<.; $ 7 +   E q.0.+ X r ..+.o.i ......O.o...t r =   j.j.j.j.j.j.j.j.j.j.j.j.j.j.j.j.j.j.j.j.j.j.",
"j.2 A D d o p 4.0.1 : .   . g W Y 8 , .     . 2 d 1   & u O.o.i u u ..O...y r t t *   j.j.j.j.j.j.j.j.j.j.j.j.j.j.j.j.j.j.j.j.j.",
"j.+ C Z s < p 2.7.+ O < 0 4 x v v B n 0 1 + + 1 o X     w ..o...i ......r r y ....i *   j.j.j.j.j.j.j.j.j.j.j.j.j.j.j.j.j.j.j.j.",
"j.  =.-.f ; + E j . 1 v M B B S V S V x c c , 0 s 4 $ O   r ....u i u e & r i o.+.O.y   j.j.j.j.j.j.j.j.j.j.j.j.j.j.j.j.j.j.j.j.",
"j.  o $ .   . C $ $ v B V V V V V V v 0 B B x 4 S v x 4   X r r * * * &   w o.+.+.+...=   j.j.j.j.j.j.j.j.j.j.j.j.j.j.j.j.j.j.j.",
"j.j.          p . 3 B V S S S S S S B 0 V G c 3 V B v c .   & X           X i +.+.+.O.e   j.j.j.j.j.j.j.j.j.j.j.j.j.j.j.j.j.j.j.",
"j.j.j.  X &     . 3 c B V V v B S S S c B G n < V V B v + .     j.j.j.j.j.  r ..+.O...t X   j.j.j.j.j.j.j.j.j.j.j.j.j.j.j.j.j.j.",
"j.j.j.X e w X   . 0 c V V S B V S S S x B G B 1 V B B B $ o   j.j.j.j.j.j.j.& u o.+.O...w   j.j.j.j.j.j.j.j.j.j.j.j.j.j.j.j.j.j.",
"j.j.  e i y * . O < c B V S G V S S B c S G v 1 V b c c + s 1   j.j.j.j.j.j.  * ..+.+.O.i X j.j.j.j.j.j.j.j.j.j.j.j.j.j.j.j.j.j.",
"j.  X ..O...i *   + 0 B B B B B B B z 0 v B 4 4 s s 0 < 1 f <   j.j.j.j.j.j.j.  w O.+.o.u =   j.j.j.j.j.j.j.j.j.j.j.j.j.j.j.j.j.",
"j.  w o.+.+...e     , 0 c 0 v B B B n c 7 4 1 0 4 < o   2 1 X j.j.j.j.j.j.j.j.  & u y u ..r   j.j.j.j.j.j.j.j.j.j.j.j.j.j.j.j.j.",
"j.  ..+.+.+.+.i &     . $ 3 0 c c 0 z 4 $ . + .     .   . .   j.j.j.j.j.j.j.j.j.  e ....y . .     j.j.j.j.j.j.j.j.j.j.j.j.j.j.j.",
"j.X o.+.+.+.+.o.e . p -     ) h.g.Y . O   . + 4 7 +         . $ o     j.j.j.j.j.  X *   . 7 n g $   j.j.j.j.j.j.j.j.j.j.j.j.j.j.",
"j.* +.+.+.+.+.+.= @ # # # # ; T K # 6 9 5 ; $ . .     O O O O O . O .   O   O O ; % % @ % % % % % $           O .             j.",
"j.= +.+.+.+.O...@ ' e.w.| } } } >.y.t.a.y.u.^ $ + , > < < < < < < , < , > + + , 7 0 0 h I ` [  .1._ 3 3 z 3 z z 3 3 , + O 3 4   ",
"j.X o.+.+.O...y @ ,.a.i.r.i.a.d.d.f.s.d.a.a.{ - + 4 4 z z z z x z b 8.8.9.9.F x n N n m ( ] ] ] { Y < < > < < < > + + O O > >   ",
"j.  r +.o.....y * H U P L J P I I ~ U ! T K a * + * * + < < < 1 3 3 4 4 z z 3 o % % @ @ 1 7 7 7 7 O j.j.j.j.j.j.j.j.j.j.j.j.j.j.",
"j.j.X ....i y i i r r t y t = = e y i i i X.X.X...t ..& 7 N W _ g .   j.j.j.j.j.j.j.j.O n W _ _ q   j.j.j.j.j.j.j.j.j.j.j.j.j.j.",
"j.j.  y y ..o.i i o...o.O.X.y r u o.+.+.+.o.o.o.O.y r *   O $ $ O j.j.j.j.j.j.j.j.j.j.j.O , $ $ . j.j.j.j.j.j.j.j.j.j.j.j.j.j.j.",
"j.j.j.X * i ..i ..i o.+.o...y t i X.+.+.O.X.i i r *     j.j.j.j.j.j.j.j.j.j.j.j.j.j.j.j.j.j.j.j.j.j.j.j.j.j.j.j.j.j.j.j.j.j.j.j.",
"j.j.j.j.  X * r u ..o.o.o.i t r y ..X.o...u = O     j.j.j.j.j.j.j.j.j.j.j.j.j.j.j.j.j.j.j.j.j.j.j.j.j.j.j.j.j.j.j.j.j.j.j.j.j.j.",
"j.j.j.j.j.      * t ....i i r r r y y r w X     j.j.j.j.j.j.j.j.j.j.j.j.j.j.j.j.j.j.j.j.j.j.j.j.j.j.j.j.j.j.j.j.j.j.j.j.j.j.j.j.",
"j.j.j.j.j.j.j.      X * * * * * X .       j.j.j.j.j.j.j.j.j.j.j.j.j.j.j.j.j.j.j.j.j.j.j.j.j.j.j.j.j.j.j.j.j.j.j.j.j.j.j.j.j.j.j.",
"j.j.j.j.j.j.j.j.j.j.j.j.      j.j.j.j.j.j.j.j.j.j.j.j.j.j.j.j.j.j.j.j.j.j.j.j.j.j.j.j.j.j.j.j.j.j.j.j.j.j.j.j.j.j.j.j.j.j.j.j.j.",
"j.j.j.j.j.j.j.j.j.j.j.j.j.j.j.j.j.j.j.j.j.j.j.j.j.j.j.j.j.j.j.j.j.j.j.j.j.j.j.j.j.j.j.j.j.j.j.j.j.j.j.j.j.j.j.j.j.j.j.j.j.j.j.j.",
"j.j.j.j.j.j.j.j.j.j.j.j.j.j.j.j.j.j.j.j.j.j.j.j.j.j.j.j.j.j.j.j.j.j.j.j.j.j.j.j.j.j.j.j.j.j.j.j.j.j.j.j.j.j.j.j.j.j.j.j.j.j.j.j.",
"j.j.j.j.j.j.j.j.j.j.j.j.j.j.j.j.j.j.j.j.j.j.j.j.j.j.j.j.j.j.j.j.j.j.j.j.j.j.j.j.j.j.j.j.j.j.j.j.j.j.j.j.j.j.j.j.j.j.j.j.j.j.j.j.",
"j.j.j.j.j.j.j.j.j.j.j.j.j.j.j.j.j.j.j.j.j.j.j.j.j.j.j.j.j.j.j.j.j.j.j.j.j.j.j.j.j.j.j.j.j.j.j.j.j.j.j.j.j.j.j.j.j.j.j.j.j.j.j.j.",
"j.j.j.j.j.j.j.j.j.j.j.j.j.j.j.j.j.j.j.j.j.j.j.j.j.j.j.j.j.j.j.j.j.j.j.j.j.j.j.j.j.j.j.j.j.j.j.j.j.j.j.j.j.j.j.j.j.j.j.j.j.j.j.j.",
"j.j.j.j.j.j.j.j.j.j.j.j.j.j.j.j.j.j.j.j.j.j.j.j.j.j.j.j.j.j.j.j.j.j.j.j.j.j.j.j.j.j.j.j.j.j.j.j.j.j.j.j.j.j.j.j.j.j.j.j.j.j.j.j.",
"j.j.j.j.j.j.j.j.j.j.j.j.j.j.j.j.j.j.j.j.j.j.j.j.j.j.j.j.j.j.j.j.j.j.j.j.j.j.j.j.j.j.j.j.j.j.j.j.j.j.j.j.j.j.j.j.j.j.j.j.j.j.j.j.",
"j.j.j.j.j.j.j.j.j.j.j.j.j.j.j.j.j.j.j.j.j.j.j.j.j.j.j.j.j.j.j.j.j.j.j.j.j.j.j.j.j.j.j.j.j.j.j.j.j.j.j.j.j.j.j.j.j.j.j.j.j.j.j.j.",
"j.j.j.j.j.j.j.j.j.j.j.j.j.j.j.j.j.j.j.j.j.j.j.j.j.j.j.j.j.j.j.j.j.j.j.j.j.j.j.j.j.j.j.j.j.j.j.j.j.j.j.j.j.j.j.j.j.j.j.j.j.j.j.j.",
"j.j.j.j.j.j.j.j.j.j.j.j.j.j.j.j.j.j.j.j.j.j.j.j.j.j.j.j.j.j.j.j.j.j.j.j.j.j.j.j.j.j.j.j.j.j.j.j.j.j.j.j.j.j.j.j.j.j.j.j.j.j.j.j.",
"j.j.j.j.j.j.j.j.j.j.j.j.j.j.j.j.j.j.j.j.j.j.j.j.j.j.j.j.j.j.j.j.j.j.j.j.j.j.j.j.j.j.j.j.j.j.j.j.j.j.j.j.j.j.j.j.j.j.j.j.j.j.j.j.",
"j.j.j.j.j.j.j.j.j.j.j.j.j.j.j.j.j.j.j.j.j.j.j.j.j.j.j.j.j.j.j.j.j.j.j.j.j.j.j.j.j.j.j.j.j.j.j.j.j.j.j.j.j.j.j.j.j.j.j.j.j.j.j.j.",
"j.j.j.j.j.j.j.j.j.j.j.j.j.j.j.j.j.j.j.j.j.j.j.j.j.j.j.j.j.j.j.j.j.j.j.j.j.j.j.j.j.j.j.j.j.j.j.j.j.j.j.j.j.j.j.j.j.j.j.j.j.j.j.j."
};
