/* XPM */
static char *result[] = {
/* columns rows colors chars-per-pixel */
"64 64 137 2 ",
"   c #020202",
".  c #080706",
"X  c #050B05",
"o  c #0A0A06",
"O  c #070608",
"+  c #0D0B0A",
"@  c #130A06",
"#  c #1C0D07",
"$  c #120D0B",
"%  c #1B0E0B",
"&  c #081007",
"*  c #0A1309",
"=  c #0D1A0C",
"-  c #14120D",
";  c #1A140E",
":  c #1C180F",
">  c #0E0E10",
",  c #100F10",
"<  c #141212",
"1  c #1A1613",
"2  c #1C1A13",
"3  c #181719",
"4  c #1C1A1A",
"5  c #21140E",
"6  c #2C180F",
"7  c #211715",
"8  c #211D14",
"9  c #2C1C13",
"0  c #231D1C",
"q  c #2B1C1A",
"w  c #11220F",
"e  c #122511",
"r  c #162C14",
"t  c #182F15",
"y  c #193216",
"u  c #1B3618",
"i  c #1E3C1A",
"p  c #242116",
"a  c #2A2317",
"s  c #25221B",
"d  c #2A251C",
"f  c #2D291D",
"g  c #35221F",
"h  c #3A2018",
"j  c #332E1D",
"k  c #37311F",
"l  c #38311E",
"z  c #1E1E20",
"x  c #242122",
"c  c #2B2523",
"v  c #2F2924",
"b  c #2B2A2D",
"n  c #342523",
"m  c #3A2522",
"M  c #312B25",
"N  c #3D2B26",
"B  c #352D2A",
"V  c #382F2D",
"C  c #353224",
"Z  c #3B3524",
"A  c #3A3827",
"S  c #3A312E",
"D  c #3E392A",
"F  c #2D2D30",
"G  c #3D3330",
"H  c #442619",
"J  c #4C261A",
"K  c #422B1E",
"L  c #512718",
"P  c #562D1D",
"I  c #592F1C",
"U  c #5C331F",
"Y  c #412B25",
"T  c #4D2F20",
"R  c #4B3021",
"E  c #433C26",
"W  c #4C332D",
"Q  c #423C2B",
"!  c #543422",
"~  c #5D3223",
"^  c #5E3927",
"/  c #53322B",
"(  c #583228",
")  c #583C2C",
"_  c #503531",
"`  c #683523",
"'  c #6E3F23",
"]  c #64362B",
"[  c #6E3628",
"{  c #66392F",
"}  c #743C23",
"|  c #7A3D24",
" . c #763C2C",
".. c #21441E",
"X. c #234720",
"o. c #254B21",
"O. c #275023",
"+. c #295425",
"@. c #45412D",
"#. c #4C442C",
"$. c #51472B",
"%. c #54492D",
"&. c #4A4731",
"*. c #4C4932",
"=. c #534B32",
"-. c #5B5234",
";. c #5F5539",
":. c #69402D",
">. c #7B4425",
",. c #78452A",
"<. c #6B4732",
"1. c #7D4131",
"2. c #625736",
"3. c #635739",
"4. c #655A39",
"5. c #6C5F3C",
"6. c #7A523A",
"7. c #6E623F",
"8. c #3F3F42",
"9. c #414144",
"0. c #716542",
"q. c #766843",
"w. c #834526",
"e. c #864A29",
"r. c #8C4B2F",
"t. c #934F2F",
"y. c #8E512E",
"u. c #844C30",
"i. c #884831",
"p. c #8F5334",
"a. c #955432",
"s. c #9D5433",
"d. c #9E5934",
"f. c #A25C39",
"g. c #835B42",
"h. c #926549",
"j. c None",
/* pixels */
"j.j.j.j.j.j.j.j.j.j.j.j.j.j.j.j.j.j.j.j.j.j.j.j.j.j.j.j.j.j.j.j.j.j.j.j.j.j.j.j.j.j.j.j.j.j.j.j.j.j.j.j.j.j.j.j.j.j.j.j.j.j.j.j.",
"j.j.j.j.j.j.j.j.j.j.j.j.j.j.j.j.j.j.j.j.j.j.j.j.j.j.j.j.j.j.j.j.j.j.j.j.j.j.j.j.j.j.j.j.j.j.j.j.j.j.j.j.j.j.j.j.j.j.j.j.j.j.j.j.",
"j.j.j.j.j.j.j.j.j.j.j.j.j.j.j.j.j.j.j.j.j.j.j.j.j.j.j.j.j.j.j.j.j.j.j.j.j.j.j.j.j.j.j.j.j.j.j.j.j.j.j.j.j.j.j.j.j.j.j.j.j.j.j.j.",
"j.j.j.j.j.j.j.j.j.j.j.j.j.j.j.j.j.j.j.j.j.j.j.j.j.j.j.j.j.j.j.j.j.j.j.j.j.j.j.j.j.j.j.j.j.j.j.j.j.j.j.j.j.j.j.j.j.j.j.j.j.j.j.j.",
"j.j.j.j.j.j.j.j.j.j.j.j.j.j.j.j.j.j.j.j.j.j.j.j.j.j.j.j.j.j.j.j.j.j.j.j.j.j.j.j.j.j.j.j.j.j.j.j.j.j.j.j.j.j.j.j.j.j.j.j.j.j.j.j.",
"j.j.j.j.j.j.j.j.j.j.j.j.j.j.j.j.j.j.j.j.j.j.j.j.j.j.j.j.j.j.j.j.j.j.j.j.j.j.j.j.j.j.j.j.j.j.j.j.j.j.j.j.j.j.j.j.j.j.j.j.j.j.j.j.",
"j.j.j.j.j.j.j.j.j.j.j.j.j.j.j.j.j.j.j.j.j.j.j.j.j.j.j.j.j.j.j.j.j.j.j.j.j.j.j.j.j.j.j.j.j.j.j.j.j.j.j.j.j.j.j.j.j.j.j.j.j.j.j.j.",
"j.j.j.j.j.j.j.j.j.j.j.j.j.j.j.j.j.j.j.j.j.j.j.j.j.j.j.j.j.j.j.j.j.j.j.j.j.j.j.j.j.j.j.j.j.j.j.j.j.j.j.j.j.j.j.j.j.j.j.j.j.j.j.j.",
"j.j.j.j.j.j.j.j.j.j.j.j.j.j.j.j.j.j.j.j.j.j.j.j.j.j.j.j.j.j.j.j.j.j.j.j.j.j.j.j.j.j.j.j.j.j.j.j.j.j.j.j.j.j.j.j.j.j.j.j.j.j.j.j.",
"j.j.j.j.j.j.j.j.j.j.j.j.j.j.j.j.j.j.j.j.j.j.j.j.j.j.j.j.j.j.j.j.j.j.j.j.j.j.j.j.j.j.j.j.j.j.j.j.j.j.j.j.j.j.j.j.j.j.j.j.j.j.j.j.",
"j.j.j.j.j.j.j.j.j.j.j.j.j.j.j.j.j.j.j.j.j.j.j.j.j.j.j.j.j.j.j.j.j.j.j.j.j.j.j.j.j.j.j.j.j.j.j.j.j.j.j.j.j.j.j.j.j.j.j.j.j.j.j.j.",
"j.j.j.j.j.j.j.j.j.j.j.j.j.j.j.j.j.j.j.j.j.j.j.j.j.j.j.j.j.j.j.j.j.j.j.j.j.j.j.j.j.j.j.j.j.j.j.j.j.j.j.j.j.j.j.j.j.j.j.j.j.j.j.j.",
"j.j.j.j.j.j.j.j.j.j.j.j.j.j.j.j.j.j.j.j.j.j.j.j.j.j.j.j.j.j.j.j.j.j.j.j.j.j.j.j.j.j.j.j.j.j.j.j.j.j.j.j.j.j.j.j.j.j.j.j.j.j.j.j.",
"j.j.j.j.j.j.j.j.j.j.j.j.j.j.j.j.j.j.j.j.j.j.j.j.j.j.j.j.j.j.j.j.j.j.j.j.j.j.j.j.j.j.j.j.j.j.j.j.j.      j.j.j.j.j.j.j.j.j.j.j.j.",
"j.j.j.j.j.j.j.j.j.j.j.j.j.j.j.j.j.j.j.j.j.j.j.j.j.j.j.j.j.j.j.j.j.j.j.j.j.j.j.j.j.j.j.      X X * * * * * X       j.j.j.j.j.j.j.",
"j.j.j.j.j.j.j.j.j.j.j.j.j.j.j.j.j.j.j.j.j.j.j.j.j.j.j.j.j.j.j.j.j.j.j.j.j.j.j.j.    X = r u y r r r u ....i t *       j.j.j.j.j.",
"j.j.j.j.j.j.j.j.j.j.j.j.j.j.j.j.j.j.j.j.j.j.j.j.j.j.j.j.j.j.j.j.j.j.j.j.j.j.    X = u ..+.....u r t ......O...u r * X   j.j.j.j.",
"j.j.j.j.j.j.j.j.j.j.j.j.j.j.j.j.j.j.j.j.j.j.j.j.j.j.j.j.j.j.j.j.j.j.j.j.  O * t u i ..+.+.+...i t y ..o.+.o.i ..i ..u * X j.j.j.",
"j.j.j.j.j.j.j.j.j.j.j.j.j.j.j.O $ , $   j.j.j.j.j.j.j.j.j.j.j.  $ $     * t y O.O.....+.+.+...u t u ..+.+.....i i +.i u u   j.j.",
"j.j.j.j.j.j.j.j.j.j.j.j.j.j.  q _ _ _ g O j.j.j.j.j.j.j.j.  + g _ W Y 2 * i y i +.........u y w = = r u r r y i i u i ....X j.j.",
"j.j.j.j.j.j.j.j.j.j.j.j.j.j.. 7 7 7 7 % + $ # % + 3 z z 4 3 3 1 1 , 1 , + * , * * a K P ! ! U I I P J L I I H * y i o.+.+.y   j.",
"  > > O O + + > < < < < , , Y { ] ] ] ( m n N n z F 9.9.8.8.b z x z z x z 4 3 + - :.p.a.d.s.f.f.d.a.i.i.r.t.>.+ y o.o.+.+.o.X j.",
"  4 3 O O < 3 4 z 4 4 4 4 3 /  . .[ ` ~ h q q 4 , + + + , < < < < , , < , + < + $ ^ u.p.a.t.y.w.} } } | w.e.>.@ i +.+.+.+.+.= j.",
"j.              O         O $ 5 % % % $ @ % % % O X O O O O   O O O O O O O     O $ % 5 9 6 # Y R % % # # # o = o.+.+.+.+.+.* j.",
"j.j.j.j.j.j.j.j.j.j.j.j.j.j.  , q m 7     * X   j.j.j.j.j.    + , O         $ 7 1 $ O     + Y g.h.)     - p   e o.+.+.+.+.O.X j.",
"j.j.j.j.j.j.j.j.j.j.j.j.j.j.j.  O O + t o...e   j.j.j.j.j.j.j.j.j.  X o         O + O $ 7 0 0 0 x 0 1 , O X   & i +.+.+.+...  j.",
"j.j.j.j.j.j.j.j.j.j.j.j.j.j.j.j.j.  r X.u y i X   j.j.j.j.j.j.j.j.. 1 2 X . < 4 0 1 4 0 c B B B B M 0 c s $     e X.+.+.O.w   j.",
"j.j.j.j.j.j.j.j.j.j.j.j.j.j.j.j.j.  = u o.+.o.e   j.j.j.j.j.j.j.  1 d 1 $ 0 0 c 1 4 B b z 0 B B B B B B B s +   * u ..o...X   j.",
"j.j.j.j.j.j.j.j.j.j.j.j.j.j.j.j.j.j.X i o.+.+...&   j.j.j.j.j.j.  1 d + c c c V 1 n S B c b S S V S S V B c 1 O   = t i e   j.j.",
"j.j.j.j.j.j.j.j.j.j.j.j.j.j.j.j.j.j.  w ..o.+.O.u X j.j.j.j.j.j.j.  + + B B B V 3 B G B c G G S V B S V B c 3 O   X w e X j.j.j.",
"j.j.j.j.j.j.j.j.j.j.j.j.j.j.j.j.j.j.    u ..o.+.X.e   j.j.j.j.j.      $ b B V V 1 n G V x S S S B n V S B c 1 o     X *   j.j.j.",
"j.j.j.j.j.j.j.j.j.j.j.j.j.j.j.j.j.j.j.  e O.+.+.+.i &           X &   o c v B V 3 c S V 0 B S S S S S S S B 3 o 8           j.j.",
"j.j.j.j.j.j.j.j.j.j.j.j.j.j.j.j.j.j.j.  * ..+.+.+.o.=   & * * * r e X   1 s c V 4 0 V B 0 c V V S S V S B c , $ M .     * o   j.",
"j.j.j.j.j.j.j.j.j.j.j.j.j.j.j.j.j.j.j.j.X u o.+.o.i t * e u i u ....r X O - 4 x 0 - c c q V S S S B M B c 2 . l E @ 1 f -.=.  j.",
"j.j.j.j.j.j.j.j.j.j.j.j.j.j.j.j.j.j.j.j.  * i ....y r r i ....i ..O...=     O + < + $ 1 x v B c c x 4 0 - X * 7.2.8 - f D C $ j.",
"j.j.j.j.j.j.j.j.j.j.j.j.j.j.j.j.j.j.j.j.j.  * u t r u ..o...i i i O.+.u &   2 d 2 .     O $ 0 N W g     . 2 ; 0.4.s o d D Z 2 j.",
"j.j.j.j.j.j.j.j.j.j.j.j.j.j.j.j.j.j.j.j.j.j.  = e t ..o.O.X.....i o.+...r X $ 0.q.E   + 7 $ 1 <.6.9 - p Z Z ; ;.4.s X p A -.v   ",
"j.j.j.j.j.j.j.j.j.j.j.j.j.j.j.j.j.j.j.j.j.j.j.  = t ..o.O...i i i o.+.+.i w   k 5.C + . q 7   o + 8 #.=.D C + C Q 2 X 1 M $.- j.",
"j.j.j.j.j.j.j.j.j.j.j.j.j.j.j.j.j.j.j.j.j.j.j.j.  X r i ....i o.i ..+.+...i * X l $ ; $ . . = 8 d Q 4.4.#.A - 2 s 1 O - a +   j.",
"j.j.j.j.j.j.j.j.j.j.j.j.j.j.j.j.j.j.j.j.j.j.j.j.j.  X * e e r u t u ..+.o...r   X f =.E - 8 p v C Q -.-.@.p + X o X   - k o j.j.",
"j.j.j.j.j.j.j.j.j.j.j.j.j.j.j.j.j.j.j.j.j.j.j.j.j.j.j.        X X * u ......r *   E =.Q =.- 2 C A D &.#.p @ a 1 $ : o o p . j.j.",
"j.j.j.j.j.j.j.j.j.j.j.j.j.j.j.j.j.j.j.j.j.j.j.j.j.j.j.j.j.j.          X = * = X   - @.$.0.%.- f D &.f o - f f C a $.$.p X   j.j.",
"j.j.j.j.j.j.j.j.j.j.j.j.j.j.j.j.j.j.j.j.j.j.j.j.j.j.j.j.j.j.j.j.j.j.j.            @ ; E A *.@.1 2 * + p 2 : p M s l -.%.;   j.j.",
"j.j.j.j.j.j.j.j.j.j.j.j.j.j.j.j.j.j.j.j.j.j.j.j.j.j.j.j.j.j.j.j.j.j.j.j.j.j.j.  a #.: + f A C 1 + j W j e p 2 D C 1 A E +   j.j.",
"j.j.j.j.j.j.j.j.j.j.j.j.j.j.j.j.j.j.j.j.j.j.j.j.j.j.j.j.j.j.j.j.j.j.j.j.j.j.  ; -.-.$.8 X : 8 o + Z -.E 8 f s 2 j j a +   j.j.j.",
"j.j.j.j.j.j.j.j.j.j.j.j.j.j.j.j.j.j.j.j.j.j.j.j.j.j.j.j.j.j.j.j.j.j.j.j.j.j.j.: 2.E C f 8 o   X 1 p #.=.s f s 2 j 8     j.j.j.j.",
"j.j.j.j.j.j.j.j.j.j.j.j.j.j.j.j.j.j.j.j.j.j.j.j.j.j.j.j.j.j.j.j.j.j.j.j.j.j.j.j.2 A D C l p + o r f f k d 8 j - X   j.j.j.j.j.j.",
"j.j.j.j.j.j.j.j.j.j.j.j.j.j.j.j.j.j.j.j.j.j.j.j.j.j.j.j.j.j.j.j.j.j.j.j.j.j.j.j.  - Q v 8 a - X 2 f p d d + X   j.j.j.j.j.j.j.j.",
"j.j.j.j.j.j.j.j.j.j.j.j.j.j.j.j.j.j.j.j.j.j.j.j.j.j.j.j.j.j.j.j.j.j.j.j.j.j.j.j.j.j.      + $   $ 0 2 + X   j.j.j.j.j.j.j.j.j.j.",
"j.j.j.j.j.j.j.j.j.j.j.j.j.j.j.j.j.j.j.j.j.j.j.j.j.j.j.j.j.j.j.j.j.j.j.j.j.j.j.j.j.j.j.j.j.      . $ o     j.j.j.j.j.j.j.j.j.j.j.",
"j.j.j.j.j.j.j.j.j.j.j.j.j.j.j.j.j.j.j.j.j.j.j.j.j.j.j.j.j.j.j.j.j.j.j.j.j.j.j.j.j.j.j.j.j.j.j.j.    j.j.j.j.j.j.j.j.j.j.j.j.j.j.",
"j.j.j.j.j.j.j.j.j.j.j.j.j.j.j.j.j.j.j.j.j.j.j.j.j.j.j.j.j.j.j.j.j.j.j.j.j.j.j.j.j.j.j.j.j.j.j.j.j.j.j.j.j.j.j.j.j.j.j.j.j.j.j.j.",
"j.j.j.j.j.j.j.j.j.j.j.j.j.j.j.j.j.j.j.j.j.j.j.j.j.j.j.j.j.j.j.j.j.j.j.j.j.j.j.j.j.j.j.j.j.j.j.j.j.j.j.j.j.j.j.j.j.j.j.j.j.j.j.j.",
"j.j.j.j.j.j.j.j.j.j.j.j.j.j.j.j.j.j.j.j.j.j.j.j.j.j.j.j.j.j.j.j.j.j.j.j.j.j.j.j.j.j.j.j.j.j.j.j.j.j.j.j.j.j.j.j.j.j.j.j.j.j.j.j.",
"j.j.j.j.j.j.j.j.j.j.j.j.j.j.j.j.j.j.j.j.j.j.j.j.j.j.j.j.j.j.j.j.j.j.j.j.j.j.j.j.j.j.j.j.j.j.j.j.j.j.j.j.j.j.j.j.j.j.j.j.j.j.j.j.",
"j.j.j.j.j.j.j.j.j.j.j.j.j.j.j.j.j.j.j.j.j.j.j.j.j.j.j.j.j.j.j.j.j.j.j.j.j.j.j.j.j.j.j.j.j.j.j.j.j.j.j.j.j.j.j.j.j.j.j.j.j.j.j.j.",
"j.j.j.j.j.j.j.j.j.j.j.j.j.j.j.j.j.j.j.j.j.j.j.j.j.j.j.j.j.j.j.j.j.j.j.j.j.j.j.j.j.j.j.j.j.j.j.j.j.j.j.j.j.j.j.j.j.j.j.j.j.j.j.j.",
"j.j.j.j.j.j.j.j.j.j.j.j.j.j.j.j.j.j.j.j.j.j.j.j.j.j.j.j.j.j.j.j.j.j.j.j.j.j.j.j.j.j.j.j.j.j.j.j.j.j.j.j.j.j.j.j.j.j.j.j.j.j.j.j.",
"j.j.j.j.j.j.j.j.j.j.j.j.j.j.j.j.j.j.j.j.j.j.j.j.j.j.j.j.j.j.j.j.j.j.j.j.j.j.j.j.j.j.j.j.j.j.j.j.j.j.j.j.j.j.j.j.j.j.j.j.j.j.j.j.",
"j.j.j.j.j.j.j.j.j.j.j.j.j.j.j.j.j.j.j.j.j.j.j.j.j.j.j.j.j.j.j.j.j.j.j.j.j.j.j.j.j.j.j.j.j.j.j.j.j.j.j.j.j.j.j.j.j.j.j.j.j.j.j.j.",
"j.j.j.j.j.j.j.j.j.j.j.j.j.j.j.j.j.j.j.j.j.j.j.j.j.j.j.j.j.j.j.j.j.j.j.j.j.j.j.j.j.j.j.j.j.j.j.j.j.j.j.j.j.j.j.j.j.j.j.j.j.j.j.j.",
"j.j.j.j.j.j.j.j.j.j.j.j.j.j.j.j.j.j.j.j.j.j.j.j.j.j.j.j.j.j.j.j.j.j.j.j.j.j.j.j.j.j.j.j.j.j.j.j.j.j.j.j.j.j.j.j.j.j.j.j.j.j.j.j.",
"j.j.j.j.j.j.j.j.j.j.j.j.j.j.j.j.j.j.j.j.j.j.j.j.j.j.j.j.j.j.j.j.j.j.j.j.j.j.j.j.j.j.j.j.j.j.j.j.j.j.j.j.j.j.j.j.j.j.j.j.j.j.j.j.",
"j.j.j.j.j.j.j.j.j.j.j.j.j.j.j.j.j.j.j.j.j.j.j.j.j.j.j.j.j.j.j.j.j.j.j.j.j.j.j.j.j.j.j.j.j.j.j.j.j.j.j.j.j.j.j.j.j.j.j.j.j.j.j.j."
};
