/* XPM */
static char *result[] = {
/* columns rows colors chars-per-pixel */
"64 64 137 2 ",
"   c #020202",
".  c #080706",
"X  c #050B05",
"o  c #0A0A06",
"O  c #070608",
"+  c #0D0B0A",
"@  c #130A06",
"#  c #1C0D07",
"$  c #120D0B",
"%  c #1B0E0B",
"&  c #081007",
"*  c #0A1309",
"=  c #0D1A0C",
"-  c #14120D",
";  c #1A140E",
":  c #1C180F",
">  c #0E0E10",
",  c #100F10",
"<  c #141212",
"1  c #1A1613",
"2  c #1C1A13",
"3  c #181719",
"4  c #1C1A1A",
"5  c #21140E",
"6  c #2C180F",
"7  c #211715",
"8  c #211D14",
"9  c #2C1C13",
"0  c #231D1C",
"q  c #2B1C1A",
"w  c #11220F",
"e  c #122511",
"r  c #162C14",
"t  c #182F15",
"y  c #193216",
"u  c #1B3618",
"i  c #1E3C1A",
"p  c #242116",
"a  c #2A2317",
"s  c #25221B",
"d  c #2A251C",
"f  c #2D291D",
"g  c #35221F",
"h  c #3A2018",
"j  c #332E1D",
"k  c #37311F",
"l  c #38311E",
"z  c #1E1E20",
"x  c #242122",
"c  c #2B2523",
"v  c #2F2924",
"b  c #2B2A2D",
"n  c #342523",
"m  c #3A2522",
"M  c #312B25",
"N  c #3D2B26",
"B  c #352D2A",
"V  c #382F2D",
"C  c #353224",
"Z  c #3B3524",
"A  c #3A3827",
"S  c #3A312E",
"D  c #3E392A",
"F  c #2D2D30",
"G  c #3D3330",
"H  c #442619",
"J  c #4C261A",
"K  c #422B1E",
"L  c #512718",
"P  c #562D1D",
"I  c #592F1C",
"U  c #5C331F",
"Y  c #412B25",
"T  c #4D2F20",
"R  c #4B3021",
"E  c #433C26",
"W  c #4C332D",
"Q  c #423C2B",
"!  c #543422",
"~  c #5D3223",
"^  c #5E3927",
"/  c #53322B",
"(  c #583228",
")  c #583C2C",
"_  c #503531",
"`  c #683523",
"'  c #6E3F23",
"]  c #64362B",
"[  c #6E3628",
"{  c #66392F",
"}  c #743C23",
"|  c #7A3D24",
" . c #763C2C",
".. c #21441E",
"X. c #234720",
"o. c #254B21",
"O. c #275023",
"+. c #295425",
"@. c #45412D",
"#. c #4C442C",
"$. c #51472B",
"%. c #54492D",
"&. c #4A4731",
"*. c #4C4932",
"=. c #534B32",
"-. c #5B5234",
";. c #5F5539",
":. c #69402D",
">. c #7B4425",
",. c #78452A",
"<. c #6B4732",
"1. c #7D4131",
"2. c #625736",
"3. c #635739",
"4. c #655A39",
"5. c #6C5F3C",
"6. c #7A523A",
"7. c #6E623F",
"8. c #3F3F42",
"9. c #414144",
"0. c #716542",
"q. c #766843",
"w. c #834526",
"e. c #864A29",
"r. c #8C4B2F",
"t. c #934F2F",
"y. c #8E512E",
"u. c #844C30",
"i. c #884831",
"p. c #8F5334",
"a. c #955432",
"s. c #9D5433",
"d. c #9E5934",
"f. c #A25C39",
"g. c #835B42",
"h. c #926549",
"j. c None",
/* pixels */
"j.j.j.j.j.j.j.j.j.j.j.j.j.j.j.j.j.j.j.j.j.j.j.j.j.j.j.j.j.j.j.j.j.j.j.j.j.j.j.j.j.    j.j.j.j.j.j.j.j.j.j.j.j.j.j.j.j.j.j.j.j.j.",
"j.j.j.j.j.j.j.j.j.j.j.j.j.j.j.j.j.j.j.j.j.j.j.j.j.j.j.j.j.j.j.j.j.j.j.j.j.j.j.j.O 4 + j.j.j.j.j.j.j.j.j.j.j.j.j.j.j.j.j.j.j.j.j.",
"j.j.j.j.j.j.j.j.j.j.j.j.j.j.j.j.j.j.j.j.j.j.j.j.j.j.j.j.j.j.j.j.j.j.j.j.j.j.j.j.O < > j.j.j.j.j.j.j.j.j.j.j.j.j.j.j.j.j.j.j.j.j.",
"j.j.j.j.j.j.j.j.j.j.j.j.j.j.j.j.j.j.j.j.j.j.j.j.j.j.j.j.j.j.j.j.j.j.j.j.j.j.j.j.  O O j.j.j.j.j.j.j.j.j.j.j.j.j.j.j.j.j.j.j.j.j.",
"j.j.j.j.j.j.j.j.j.j.j.j.j.j.j.j.j.j.j.j.j.j.j.j.j.j.j.j.j.j.j.j.j.j.j.j.j.j.j.j.  O O j.j.j.j.j.j.j.j.j.j.j.j.j.j.j.j.j.j.j.j.j.",
"j.j.j.j.j.j.j.j.j.j.j.j.j.j.j.j.j.j.j.j.j.j.j.j.j.j.j.j.j.j.j.j.j.j.j.j.j.j.j.j.  , + j.j.j.j.j.j.j.j.j.j.j.j.j.j.j.j.j.j.j.j.j.",
"j.j.j.j.j.j.j.j.j.j.j.j.j.j.j.j.j.j.j.j.j.j.j.j.j.j.j.j.j.j.j.j.j.j.j.j.j.j.j.j.  3 + j.j.j.j.j.j.j.j.j.j.j.j.j.j.j.j.j.j.j.j.j.",
"j.j.j.j.j.j.j.j.j.j.j.j.j.j.j.j.j.j.j.j.j.j.j.j.j.j.j.j.j.j.j.j.j.j.j.j.j.j.j.j.O 3 , j.j.j.j.j.j.j.j.j.j.j.j.j.j.j.j.j.j.j.j.j.",
"j.j.j.j.j.j.j.j.j.j.j.j.j.j.j.j.j.j.j.j.j.j.j.j.j.j.j.j.j.j.j.j.j.j.j.j.j.j.j.j.O z < j.j.j.j.j.j.j.j.j.j.j.j.j.j.j.j.j.j.j.j.j.",
"j.j.j.j.j.j.j.j.j.j.j.j.j.j.j.j.j.j.j.j.j.j.j.j.j.j.j.j.j.j.j.j.j.j.j.j.j.j.j.j.  4 < j.j.j.j.j.j.j.j.j.j.j.j.j.j.j.j.j.j.j.j.j.",
"j.j.j.j.j.j.j.j.j.j.j.j.j.j.j.j.j.j.j.j.j.j.j.j.j.j.j.j.j.j.j.j.j.j.j.j.j.j.j.j.  3 < j.j.j.j.j.j.j.j.j.j.j.j.j.j.j.j.j.j.j.j.j.",
"j.j.j.j.j.j.j.j.j.j.j.j.j.j.j.j.j.j.j.j.j.j.j.j.j.j.j.j.j.j.j.j.j.j.j.j.j.j.j.j.  z < j.j.j.j.j.j.j.j.j.j.j.j.j.j.j.j.j.j.j.j.j.",
"j.j.j.j.j.j.j.j.j.j.j.j.j.j.j.j.j.j.j.j.j.j.j.j.j.j.j.j.j.j.j.j.j.j.j.j.j.j.j.j.  4 , j.j.j.j.j.j.j.j.j.j.j.j.j.j.j.j.j.j.j.j.j.",
"j.j.j.j.j.j.j.j.j.j.j.j.j.j.j.j.j.j.j.j.j.j.j.j.j.j.j.j.j.j.j.j.j.j.j.j.j.j.j.j.  3 , j.j.j.j.j.j.j.j.j.j.j.j.j.j.j.j.j.j.j.j.j.",
"j.j.j.j.j.j.j.j.j.j.j.j.j.j.j.j.j.j.j.j.j.j.j.j.j.j.j.j.j.j.j.j.j.j.j.j.j.j.j.  $ _ Y . O j.j.j.j.j.j.j.j.j.j.j.j.j.j.j.j.j.j.j.",
"j.j.j.j.j.j.j.j.j.j.j.j.j.j.j.j.j.j.j.j.j.j.j.j.j.j.j.j.j.j.j.j.j.j.j.j.j.j.  - %  .{ 7 q O j.j.j.j.j.j.j.j.j.j.j.j.j.j.j.j.j.j.",
"j.j.j.j.j.j.j.j.j.j.j.j.j.j.j.j.j.j.j.j.j.j.j.j.j.j.j.j.j.j.j.j.j.j.j.j.j.j.  d %  .] 7 _ $ j.j.j.j.j.j.j.j.j.j.j.j.j.j.j.j.j.j.",
"j.j.j.j.j.j.j.j.j.j.j.j.j.j.j.j.j.j.j.j.j.j.j.j.j.j.j.j.j.j.j.j.j.j.j.j.    O m % [ ] 7 _ $ j.j.j.j.j.j.j.j.j.j.j.j.j.j.j.j.j.j.",
"j.j.j.j.j.j.j.j.j.j.j.j.j.j.j.j.j.j.j.j.j.j.j.j.j.j.j.j.j.j.j.j.j.      = r X 7 % ` ] 7 W $ j.j.j.j.j.j.j.j.j.j.j.j.j.j.j.j.j.j.",
"j.j.j.j.j.j.j.j.j.j.j.j.j.j.j.j.j.j.j.j.j.j.j.j.j.j.j.j.j.j.j.    X w i i ..r O @ ~ ( % n O j.j.j.j.j.j.j.j.j.j.j.j.j.j.j.j.j.j.",
"j.j.j.j.j.j.j.j.j.j.j.j.j.j.j.j.j.j.j.j.j.j.j.j.j.j.j.j.j.  X = e t ..O.o.u X.  @ h m $ O j.j.j.j.j.j.j.j.j.j.j.j.j.j.j.j.j.j.j.",
"j.j.j.j.j.j.j.j.j.j.j.j.j.j.j.j.j.j.j.j.j.j.j.j.j.j.j.j.  * y ..o...o.+.+.y X.& @ q n @ j.j.j.j.j.j.j.j.j.j.j.j.j.j.j.j.j.j.j.j.",
"j.j.j.j.j.j.j.j.j.j.j.j.j.j.j.j.j.j.j.j.j.j.j.j.j.j.j.  = u O.+.+.O.+.+.o.i e O % 0 N % j.j.j.j.j.j.j.j.j.j.j.j.j.j.j.j.j.j.j.j.",
"j.j.j.j.j.j.j.j.j.j.j.j.j.j.j.j.j.j.j.j.j.j.j.j.j.j.  = t ..+.+.+.+.o...e X   O % 7 n % j.j.j.j.j.j.j.j.j.j.j.j.j.j.j.j.j.j.j.j.",
"j.j.j.j.j.j.j.j.j.j.j.j.j.j.j.j.j.j.j.j.j.j.j.j.j.  = r t i O.+.+.o.u *     j.j.O , z & j.j.j.j.j.j.j.j.j.j.j.j.j.j.j.j.j.j.j.j.",
"j.j.j.j.j.j.j.j.j.j.j.j.j.j.j.j.j.j.j.j.j.j.j.j.  X t t r y i ..i r X   j.j.j.j.O + F 3 j.j.j.j.j.j.j.j.j.j.j.j.j.j.j.j.j.j.j.j.",
"j.j.j.j.j.j.j.j.j.j.j.j.j.j.j.j.j.j.j.j.j.j.j.j.  r ....u r r w X   j.j.j.j.j.j.O + 9.z j.j.j.j.j.j.j.j.j.j.j.j.j.j.j.j.j.j.j.j.",
"j.j.j.j.j.j.j.j.j.j.j.j.j.j.j.j.j.j.j.j.j.j.j.  & i o.o...r *     j.j.j.j.j.j.j.O , 9.z j.j.j.j.j.j.j.j.j.j.j.j.j.j.j.j.j.j.j.j.",
"j.j.j.j.j.j.j.j.j.j.j.j.j.j.j.j.j.j.j.j.j.j.j.  e ..O.O.O.i e &   j.j.j.j.j.j.j.O , 8.4 j.j.j.j.j.j.j.j.j.j.j.j.j.j.j.j.j.j.j.j.",
"j.j.j.j.j.j.j.j.j.j.j.j.j.j.j.j.j.j.j.j.j.j.j.  e ..........t =   j.j.j.j.j.j.  O , 8.4   j.j.j.j.j.j.j.j.j.j.j.j.j.j.j.j.j.j.j.",
"j.j.j.j.j.j.j.j.j.j.j.j.j.j.j.j.j.j.j.j.j.j.  X r i ....i ..i *   j.j.j.j.j.j.    < b 1 O j.j.j.j.j.j.j.j.j.j.j.j.j.j.j.j.j.j.j.",
"j.j.j.j.j.j.j.j.j.j.j.j.j.j.j.j.j.j.j.j.j.j.  X y o.u ..i i u *   j.j.j.j.j.j.o O < z 1 m   j.j.j.j.j.j.j.j.j.j.j.j.j.j.j.j.j.j.",
"j.j.j.j.j.j.j.j.j.j.j.j.j.j.j.j.j.j.j.j.j.j.  X r ..u i i i ..r X   j.    j.j.$ O < x 3 W , j.j.j.j.j.j.j.j.j.j.j.j.j.j.j.j.j.j.",
"j.j.j.j.j.j.j.j.j.j.j.j.j.j.j.j.j.j.j.j.j.j.  * u ....o.O.o.o.r &     2 1     o O < z < W $ j.j.j.j.j.j.j.j.j.j.j.j.j.j.j.j.j.j.",
"j.j.j.j.j.j.j.j.j.j.j.j.j.j.j.j.j.j.j.j.j.j.  i o.O.+.+.O...e X   O o s d 2 O   O , z < Y   j.j.j.j.j.j.j.j.j.j.j.j.j.j.j.j.j.j.",
"j.j.j.j.j.j.j.j.j.j.j.j.j.j.j.j.j.j.j.j.j.  X ..O.+.+...i w O   o + + + 1 2 O   O < x < 7   j.j.j.j.j.j.j.j.j.j.j.j.j.j.j.j.j.j.",
"j.j.j.j.j.j.j.j.j.j.j.j.j.j.j.j.j.j.j.j.j.  * ..o.o.i r &     2 c v v c - O     O < 4 + * *   j.j.j.j.j.j.j.j.j.j.j.j.j.j.j.j.j.",
"j.j.j.j.j.j.j.j.j.j.j.j.j.j.j.j.j.j.j.j.j.  = ....i e X     < s v B B v 4 X       < 4 * i t   j.j.j.j.j.j.j.j.j.j.j.j.j.j.j.j.j.",
"j.j.j.j.j.j.j.j.j.j.j.j.j.j.j.j.j.j.j.  j.  = r r *   $ 1 O 4 c B V B v s <   $ O + 3 & t u =   j.j.j.j.j.j.j.j.j.j.j.j.j.j.j.j.",
"j.j.j.j.j.j.j.j.j.j.j.j.j.j.j.j.j.j.: -     X * X   j 0.d + d V V V V V c 4   7 O + + + ..O.t   j.j.j.j.j.j.j.j.j.j.j.j.j.j.j.j.",
"j.j.j.j.j.j.j.j.j.j.j.j.j.j.j.j.  2 2.-.a         l 5.q.2 1 0 4 3 3 1 1 1 0 O 1   , , * o.O.u X   j.j.j.j.j.j.j.j.j.j.j.j.j.j.j.",
"j.j.j.j.j.j.j.j.j.j.j.j.j.j.j.j.$ D E -.$.o - E f - C E o + < 0 c v B v 4 1 $ $ % ^ :.q ..o.i =   j.j.j.j.j.j.j.j.j.j.j.j.j.j.j.",
"j.j.j.j.j.j.j.j.j.j.j.j.j.j.j.  Q D C $.2 : E =.*.2 +     + c B S G G S B 4 O O - e.a.Y ..O...u X j.j.j.j.j.j.j.j.j.j.j.j.j.j.j.",
"j.j.j.j.j.j.j.j.j.j.j.j.j.j.j.  v C f 8 + E %.Q E - O +   1 c B V V B V v 4 $ O 1 p.a.P i +.+...=   j.j.j.j.j.j.j.j.j.j.j.j.j.j.",
"j.j.j.j.j.j.j.j.j.j.j.j.j.j.j.  8 l 8 X f A 7.=.-   q 7 O x c 8 z c c c 0 x 7   9 a.d.P i +.+.O.r   j.j.j.j.j.j.j.j.j.j.j.j.j.j.",
"j.j.j.j.j.j.j.j.j.j.j.j.j.j.  + a p o 2 A *.%.- 8 o 7 % $ v B c B S V B z n 0 O 6 t.s.U i +.+...u   j.j.j.j.j.j.j.j.j.j.j.j.j.j.",
"j.j.j.j.j.j.j.j.j.j.j.j.j.j.  - - + O 2 C @.- 2 s -   ; 0 n S V S V G V v B x Y % y.f.U t o.....y X j.j.j.j.j.j.j.j.j.j.j.j.j.j.",
"j.j.j.j.j.j.j.j.j.j.j.j.j.j.    . X X X 1 1 f C M 8 . <.N v S S S G V G V B c g.K >.f.I w u i u r X j.j.j.j.j.j.j.j.j.j.j.j.j.j.",
"j.j.j.j.j.j.j.j.j.j.j.j.j.    - 2 r 1 $ O 2 Q Z C d + 6.W c S S S B V S V B c h.T } d.P = r r r r & j.j.j.j.j.j.j.j.j.j.j.j.j.j.",
"j.j.j.j.j.j.j.j.j.j.j.j.j.  $ 8 f f 8 Z j $ &.Q Q D 8 q q c B S S v B S B v 0 ) % | a.P = y u t r =   j.j.j.j.j.j.j.j.j.j.j.j.j.",
"j.j.j.j.j.j.j.j.j.j.j.j.j.j.X 2 a f #.-.#.X d &.-.4.#.- . 4 B V S V V S M 0 1   # } i.J y ......u =   j.j.j.j.j.j.j.j.j.j.j.j.j.",
"j.j.j.j.j.j.j.j.j.j.j.j.j.j.  + d C =.E j 8 X #.-.2.%.a   4 B S G V V V V c $   # | r.L u O.o...i *   j.j.j.j.j.j.j.j.j.j.j.j.j.",
"j.j.j.j.j.j.j.j.j.j.j.j.j.j.    f f s 2 2 2 - p @.@.D Z X - v B V B B B B x O - # w.r.P r +.+.o...& j.j.j.j.j.j.j.j.j.j.j.j.j.j.",
"j.j.j.j.j.j.j.j.j.j.j.j.j.j.j.  @ e f v s 2 a $ s D C Z 8   1 c B c c c s $   p # e.a.I r ..o.O...X j.j.j.j.j.j.j.j.j.j.j.j.j.j.",
"j.j.j.j.j.j.j.j.j.j.j.j.j.j.j.j.  k d p p 2 j a + * - - ; -   - 3 4 3 3 O     X @ ' ,.H r ..i ..t   j.j.j.j.j.j.j.j.j.j.j.j.j.j.",
"j.j.j.j.j.j.j.j.j.j.j.j.j.j.j.j.  - 2 2 D M M : + 1 C ;.7.7.k $ . . O     X & w = $ @ * u ....u *   j.j.j.j.j.j.j.j.j.j.j.j.j.j.",
"j.j.j.j.j.j.j.j.j.j.j.j.j.j.j.j.j.  j M C s a - X s D 2.4.2.E C q       & w i o.+.i y u i i i r     j.j.j.j.j.j.j.j.j.j.j.j.j.j.",
"j.j.j.j.j.j.j.j.j.j.j.j.j.j.j.j.j.  8 j 2 l $.: o 1 8 p a 8 -       X = u o.+.+.+.+.o.i u o...*   j.j.j.j.j.j.j.j.j.j.j.j.j.j.j.",
"j.j.j.j.j.j.j.j.j.j.j.j.j.j.j.j.j.j.  a Z 2.$.o O   O X o - 2     & w r o.+.+.+.+.+.o.o.i i u X   j.j.j.j.j.j.j.j.j.j.j.j.j.j.j.",
"j.j.j.j.j.j.j.j.j.j.j.j.j.j.j.j.j.j.  + E %.8 X - - 2 s s d f     X r i o.+.+.+.+.+.+.o...u *   j.j.j.j.j.j.j.j.j.j.j.j.j.j.j.j.",
"j.j.j.j.j.j.j.j.j.j.j.j.j.j.j.j.j.j.j.  + :   p k s j A D Z -.+     X e ..O.+.+.+.+.+.+...u X j.j.j.j.j.j.j.j.j.j.j.j.j.j.j.j.j.",
"j.j.j.j.j.j.j.j.j.j.j.j.j.j.j.j.j.j.j.j.      o o + =.-.D C =.o   j.j.  X e ..O.+.+.o.r X   j.j.j.j.j.j.j.j.j.j.j.j.j.j.j.j.j.j.",
"j.j.j.j.j.j.j.j.j.j.j.j.j.j.j.j.j.j.j.j.j.j.j.j.j.  - f 2 +     j.j.j.j.      X * = X   j.j.j.j.j.j.j.j.j.j.j.j.j.j.j.j.j.j.j.j.",
"j.j.j.j.j.j.j.j.j.j.j.j.j.j.j.j.j.j.j.j.j.j.j.j.j.j.j.  j.j.j.j.j.j.j.j.j.j.j.j.j.j.j.j.j.j.j.j.j.j.j.j.j.j.j.j.j.j.j.j.j.j.j.j."
};
