/* XPM */
static char *result[] = {
/* columns rows colors chars-per-pixel */
"64 64 178 2 ",
"   c black",
".  c #010101",
"X  c #272E39",
"o  c #414D5E",
"O  c #4B5769",
"+  c #535F70",
"@  c #556172",
"#  c #566172",
"$  c #566173",
"%  c #505C6E",
"&  c #485466",
"*  c #3B4554",
"=  c #181C22",
"-  c #060708",
";  c #475367",
":  c #58667B",
">  c #6B798D",
",  c #798799",
"<  c #828FA2",
"1  c #8391A3",
"2  c #8290A3",
"3  c #8390A3",
"4  c #8492A4",
"5  c #8895A6",
"6  c #8B98A9",
"7  c #8A97A8",
"8  c #8592A3",
"9  c #798699",
"0  c #667388",
"q  c #546176",
"w  c #2C333F",
"e  c #0A0C0E",
"r  c #515E74",
"t  c #606D82",
"y  c #717E8F",
"u  c #5C6776",
"i  c #7C8A9B",
"p  c #8897AA",
"a  c #8695A9",
"s  c #8796A9",
"d  c #8796AA",
"f  c #8A98AB",
"g  c #94A2B2",
"h  c #9AA7B6",
"j  c #9BA8B7",
"k  c #96A3B2",
"l  c #778393",
"z  c #707C8C",
"x  c #7B889A",
"c  c #5E6C81",
"v  c #323B48",
"b  c #0A0C0F",
"n  c #515F75",
"m  c #616F83",
"M  c #687382",
"N  c #373E48",
"B  c #727D8D",
"V  c #8A99AC",
"C  c #95A2B3",
"Z  c #8E9BAC",
"A  c #5E6876",
"S  c #555F6C",
"D  c #818E9F",
"F  c #647186",
"G  c #657387",
"H  c #8794A5",
"J  c #7A8697",
"K  c #8391A4",
"L  c #8795A9",
"P  c #8B9AAC",
"I  c #8492A3",
"U  c #8693A3",
"Y  c #8C99AA",
"T  c #647286",
"R  c #8B99AB",
"E  c #8797AA",
"W  c #8E9CAE",
"Q  c #8C9AAB",
"!  c #8B99AC",
"~  c #8A97A9",
"^  c #8998AB",
"/  c #8795A7",
"(  c #637185",
")  c #8794A7",
"_  c #637085",
"`  c #8B9AAB",
"'  c #8696A9",
"]  c #657388",
"[  c #8C9AAC",
"{  c #8694A6",
"}  c #627085",
"|  c #8594A6",
" . c #667488",
".. c #8E9CAD",
"X. c #536177",
"o. c #6B798C",
"O. c #909DAF",
"+. c #8997AB",
"@. c #8694A7",
"#. c #56647A",
"$. c #728093",
"%. c #919FB0",
"&. c #6D7A8D",
"*. c #93A0B0",
"=. c #8C9AAD",
"-. c #677589",
";. c #929FB0",
":. c #92A0B0",
">. c #8F9DAE",
",. c #8C9BAD",
"<. c #8996A8",
"1. c #637186",
"2. c #6A778B",
"3. c #353D4B",
"4. c #6F7D90",
"5. c #373F4C",
"6. c #8E9BAD",
"7. c #6C7A8D",
"8. c #353E4B",
"9. c #8896A9",
"0. c #343C49",
"q. c #8896A8",
"w. c #333C49",
"e. c #8897AB",
"r. c #909DAE",
"t. c #8896AA",
"y. c #687589",
"u. c #919FAF",
"i. c #95A2B2",
"p. c #96A4B4",
"a. c #98A5B5",
"s. c #909EB0",
"d. c #677488",
"f. c #8F9CAB",
"g. c #8996A5",
"h. c #909EAE",
"j. c #818FA2",
"k. c #8493A5",
"l. c #748090",
"z. c #505966",
"x. c #7F8B9A",
"c. c #8291A5",
"v. c #677485",
"b. c #626F7F",
"n. c #7F8D9F",
"m. c #778394",
"M. c #636E7C",
"N. c #8995A4",
"B. c #8392A6",
"V. c #6E7B8E",
"C. c #788597",
"Z. c #5D6A7F",
"A. c #59677C",
"S. c #6E7C8F",
"D. c #7B899B",
"F. c #8391A2",
"G. c #8693A4",
"H. c #8593A4",
"J. c #8290A2",
"K. c #808FA1",
"L. c #7F8DA0",
"P. c #7F8CA0",
"I. c #7E8C9F",
"U. c #7C899C",
"Y. c #748194",
"T. c #546278",
"R. c #526076",
"E. c #57657A",
"W. c #5F6D82",
"Q. c #5F6D81",
"!. c #5A687D",
"~. c #505D73",
"^. c #272D38",
"/. c #404B5C",
"(. c #455164",
"). c #465264",
"_. c #455163",
"`. c #3A4454",
/* pixels */
"                                                                                                                                ",
". X o O + @ @ @ @ @ @ @ @ @ @ @ @ @ @ @ @ @ @ @ @ @ @ @ @ @ @ @ @ @ @ @ @ @ @ @ @ @ @ @ @ @ @ @ @ @ @ @ @ @ # $ $ $ @ % & * =   ",
"- ; : > , < 1 2 2 2 2 1 1 1 1 1 1 1 1 1 2 2 2 2 2 2 2 2 1 1 1 1 1 1 1 1 1 1 1 1 1 1 1 1 1 1 3 2 2 2 2 2 1 4 5 6 6 7 8 9 0 q w   ",
"e r t y u i p a a a s p p p p p p p d a a a a a a a a s p p p p p p p p p p p p p p p p p d a a a a a a a f g h j k l z x c v   ",
"b n m M N B p a a a p p p p p d d d a a a a a a a a s p p p p p p p p p p p p p p p p d d a a a a a a a s V g C C Z A S D F v   ",
"b n G H J K L a d p d s s d p s a a a a a a a a s p p p p p p p p p p p p p p p p p s a a a a a a a s p p p p s p P I U Y T v   ",
"b n G R d a a a s s s d E p d a a a a a a a a d p p p p p p p p p p p p p p p p E a a a a a a a a d p p p d a a a p p W Q T v   ",
"b n G R a a a a a d d p p d a a a a a a a s d p p p p p p p p p p p p p p p p s a a a a a a a d d p p p d a a a a a d ! ~ F v   ",
"b n G R a a a a d p p p d a a a a a a a d p p p p p p p p p p p p p p p p p a a a a a a a a s p p p p d a a a a a s p ^ / ( v   ",
"b n G R a s s p p p p s a a a a a a s p p p p p p E d p p p p p p p p p d a a a a a a a a p p p p p s a a a a a s p p p ) _ v   ",
"b n G ` E p p p p d a a a a a a a s p p p p E s a a s p p p p p p p d a a a a a a a ' E p p p p p s a a a a a s p p p p ) _ v   ",
"b n ] [ p p p p d a a a a a a s d p p p d s a a a s p p p p p p d s a a a a a a a s p p p p p p s a a a a ' d p p p p p ) _ v   ",
"b n ] [ p p p d a a a a a a d p p p d a a a a a p p p p p p p d a a a a a a a a d p p p p p p ' a a a a s p p p p p p p ) _ v   ",
"b n ] [ p p d a a a a a a a d d d s a a a a a p p p p p p d s a a a a a a a s p p p p p p p s a a a a s p p p p p p p p ) _ v   ",
"b n ] [ p s a a a a a a a a a a a a a a a a p p p p p p s a a a a a a a a d p p p p p p p s a a a a s p p p p p p p p d { } v   ",
"b n ] [ s a a a a a a a a a a a a a a a d p p p p p p s a a a a a a a a d p p p p p p p s a a a a s p p p p p p p p s a | } v   ",
"b n G R a a a a a a a a a a a a a a a d p p p p p p s a a a a a a a a d p p p p p p d a a a a a d p p p p p p p s a a a | } v   ",
"b n G R a a a a a a a a a a a a a a E p p p p s a a a a a a a a ' E p p p p p p p ' a a a a s p p p p p p p E a a a a d ) _ v   ",
"b n G R a a a a a a a a a a a a a s p p p p p a a a a a a a a a d p p p p p p p d a a a a a p p p p p p p s a a a a s p ) _ v   ",
"b n  ...p a a a a a a a a a a ' d p p p d a a a a a a a a a s p p p p p p p s a a a a a s p p p p p p d a a a a s p p p ) _ v   ",
"b X.o.O.+.a a a a a a a a a ' p p p p s a a a a a a a a a d p p p p p p p E a a a a a E p p p p p p s a a a a s p p p p @._ v   ",
"b #.$.%.^ d d s a a a a a ' p p p d s a a a a a a a a a s p p p p p p p d ' a a a ' p p p p p p p s a a a a s p p p p a | } v   ",
"b X.&.*.=.p p s a a a a a p p E s a a a a a a a a a a d p p p p p p p E a a a a a p p p p p p s a a a a a d p p p p a a | } v   ",
"b n -.;.=.p p s a a a a E E ' a a a a a a a a a a s p p p p p p p p s a a a a s p p p p p d s a a a a s p p p p d a a a | } v   ",
"b n -.:.W p E a a a a a s ' a a a a a a a a a a d p p p p p p p p s a a a a d p p p p p p a a a a a s p p p p s a a a s @._ v   ",
"b n  .>.,.p ' a a a a a a a a a a a a a a a a d p p p p p p p p a a a a a d p p p p p s a a a a a s p p p p s a a a d p ) _ v   ",
"b n ] [ p a a a a a a a a a a a a a a a a s p p p p p p p p s a a a a a p p p p p s a a a a a s p p p p s a a a ' E p p ) _ v   ",
"b n ] [ p a a a a a a a a a a a a a a a s p p p p p p p p d a a a a ' d p p p p p a a a a a a p p p p p s a a a d p p p ) _ v   ",
"b n ] [ s a a a a a a a a a a a a a a d p p p p p p p p d a a a a s p p p p p s a a a a a s p p p p d a a a a p p p p p ) _ v   ",
"b n G R a a a a a a a a a a a a a s p p p p p p p p d ' a a a a s p p p p d a a a a a s d p p p p s a a a s p p p p p p @._ v   ",
"b n G R a a a a a a a a a a a a s p p p p p p p p d a a a a a d p p p p d a a a a a s p p p p d a a a a d p p p p p E s { } v   ",
"b n G R a a a a a a a a a a a d p p p p p p p p s a a a a a p p p p d s a a a a a d p p p p p a a a a d p p p p p s a a | } v   ",
"b n G R a a a a a a a a a a p p p p p p p p p d a a a a ' p p p p d a a a a a s d p p p p s a a a a p p p p p s a a a a | } v   ",
"b n G R a a a a a a a a s p p p p p p p p p s a a a a s E p p p a a a a a a d p p p p p s a a a s p p p p p s a a a a a | } v   ",
"b n G R a a a a a a a d p p p p p p p p d ' a a a a d p p p s a a a a a a d p p p p p s a a a d p p p p d a a a a a a a { _ v   ",
"b n G R a a a a a ' p p p p p p p p p s a a a a ' E p p p a a a a a a s p p p p p s a a a a p p p p s a a a a a a a a p ) _ v   ",
"b n G R a a a a s p p p p p p p p p s a a a a s p p p s a a a a a a d p p p p p d a a a a p p p p s a a a a a a a s p p ) _ v   ",
"b n G R a a a s p p p p p p p p p d a a a a a p p p d a a a a a a d p p p p p s a a a a d p p E ' a a a a a a a a s p p ) _ v   ",
"b n G R a a s p p p p p p p p d ' a a a a s p p d s a a a a a s p p p p p d a a a a s p p d d a a a a a a a a s p p p p ) _ v   ",
"b n G R a p p p p p p p p p d a a a a a s p p d a a a a a a s p p p p p d a a a a s p p d a a a a a a a a a s p p p p p ) _ v   ",
"b n G ` p p p p p p p p p s a a a a a d p p s a a a a a a p p p p p d s a a a a s p d ' a a a a a a a a a s p p p p p p / _ v   ",
"b n ] [ p p p p p p p p d a a a a a E p d a a a a a a s p p p p p s a a a a a d p s a a a a a a a a a a s p p p p p p f <.1.v   ",
"b n ] [ p p p p p p p s a a a a a d p s a a a a a a d p p p p p s a a a a a a a s a a a a a a a a a a s p p p p p p p p R 2.3.  ",
"b n ] [ p p p p p p a a a a a ' E p s a a a a a ' d p p p p d s a a a a a a a a a a a a a a a a a a s p p p p p p p s p ..4.5.  ",
"b n ] [ p p p p s s a a a a s p E s a a a a a s p p p p p s a a a a a a a a a a a a a a a a a a a s p p p p p p d a a ^ 6.7.8.  ",
"b n ] [ p p p s a a a a a s d a a a a a a a d p p p p p a a a a a a a a a a a a a a a a a a a ' E p p p p p p s a a a d 9. .0.  ",
"b n ] [ p p d a a a a a s p ' a a a a a a s p p p p p a a a a a a a a a a a a a a a a a a a a s p p p p p p s a a a a d q.G w.  ",
"b n ] [ p a a a a a s s d a a a a a a p p p p p p d a a a a a a a a a a a a a a a a a a a a s p p p p p d a a a a a a e.q.( v   ",
"b n ] P ' a a a a a s a a a a a a s d p p p p d a a a a a a a a a a a a a a a a a a a a a s p p p p E s a a a a a a a d / ( v   ",
"b n G R a a a a a d a a a a a a s p p p p p s a a a a a a a a a a a a a s s a a a a a a s p p p p E a a a a a a a a a s { _ v   ",
"b n G R a a a a a a a a a a s p p p p p p s a a a a a a a a a a a a d p p p d a a a a p p p p p s a a a a a a a a a a p ) _ v   ",
"b n G R a a a a a a a a a s p p p p p d s a a a a a a a a a a s d p p p p p a a a a d p p p d s a a a a a a a a a a d p ) _ v   ",
"b n G R a a a a a a a s d p p p p p s a a a a a a a a a a s d p p p p p p s a a a d p p p s a a a a a a a a a a a d p p ) _ v   ",
"b n G R a a a a a a d p p p p p p s a a a a a a a a a d d p p p p p p p s a a a d p p p d a a a a a a a a a a a d p p p @.} v   ",
"b n -.r.t.a a a d p p p p p p s a a a a a a a a ' d p p p p p p p p p a a a s p p p s a a a a a a s p p s a a s p p p a | } v   ",
"b n y.u.^ d P ^ p p p p p p a a a a a a a a a d p p p p p p p p p p s a a a p p p ' a a a a ' d p p p p s a a p p d a a | } v   ",
"b n y.i.p.a.s.^ p p p p d a a a a a a a a s p p p p p p p p p p p s a a a d p d s a a a s s p p p p p p s a s p s s d d | } v   ",
"b n d.f.g.h.,.p p p d s a a a a a a a d p p p p p p p p p p p p a a a a d p s a a a s d p p p p p p p s a d p d a a 2 j.k.} v   ",
"b n ( l.z.x.%.P p p a a a a a a a s s p p p p p p p p p p p p s a a a s p d a a a s p p p p p p p p d a ' E d a a c.v.b.n.} v   ",
"b n m m.M.N.j p.%.W ^ s a a a d p p p p p p p p p p p p p s a a a a s s a a d d p p p p p p p p p E a a s s a a a B.V.z C.Z.v   ",
"e r A.S.D.F.G.H.I J.K.L.P.P.L.L.L.L.L.L.L.L.L.L.L.L.L.L.L.L.P.P.P.L.L.P.P.P.L.L.L.L.L.L.L.L.L.L.L.L.P.L.L.P.P.P.P.I.U.Y.} T.v   ",
"- ; R.E.c W.W.W.W.W.W.W.W.W.W.W.W.W.W.W.W.W.W.W.W.W.W.W.W.W.W.W.W.W.W.W.W.W.W.W.W.W.W.W.W.W.W.W.W.W.W.W.W.W.W.W.W.W.Q.!.X.~.w   ",
". ^./.(.).).).).).).).).).).).).).).).).).).).).).).).).).).).).).).).).).).).).).).).).).).).).).).).).).).).).).).).)._.`.=   ",
"                                                                                                                                "
};
