/* XPM */
static char *result[] = {
/* columns rows colors chars-per-pixel */
"64 64 101 2 ",
"   c #010000",
".  c #0C0202",
"X  c #150303",
"o  c #1C0504",
"O  c #2C0806",
"+  c #3A0A07",
"@  c #3E0B08",
"#  c #530E0B",
"$  c #65120E",
"%  c #6A130F",
"&  c #751510",
"*  c #7C1711",
"=  c #7F1812",
"-  c #701D19",
";  c #7C1F1B",
":  c #66211F",
">  c #6E211E",
",  c #75221E",
"<  c #7B211D",
"1  c #4F2425",
"2  c #452B2D",
"3  c #4B2E2F",
"4  c #532D2D",
"5  c #5C2F2E",
"6  c #592F30",
"7  c #4E3537",
"8  c #4E3638",
"9  c #5E3334",
"0  c #523739",
"q  c #51393B",
"w  c #5D3B3C",
"e  c #642624",
"r  c #6B2523",
"t  c #632827",
"y  c #6D2926",
"u  c #612C2B",
"i  c #6A2D2C",
"p  c #7E2622",
"a  c #732826",
"s  c #7B2927",
"d  c #732D2B",
"f  c #653333",
"g  c #693434",
"h  c #603738",
"j  c #61383A",
"k  c #603E41",
"l  c #811712",
"z  c #841813",
"x  c #8B1A14",
"c  c #841E1A",
"v  c #8D1E19",
"b  c #931B15",
"n  c #9C1D17",
"m  c #941F19",
"M  c #9F1E18",
"N  c #A01F17",
"B  c #A21F18",
"V  c #9A3F0D",
"C  c #8C2013",
"Z  c #82221D",
"A  c #8A201B",
"S  c #902013",
"D  c #9A2315",
"F  c #942E10",
"G  c #9A2E12",
"H  c #93231C",
"J  c #9D221A",
"K  c #963010",
"L  c #9B3111",
"P  c #AD2E16",
"I  c #A42018",
"U  c #AB221A",
"Y  c #B0241B",
"T  c #A53C11",
"R  c #A83B12",
"E  c #B33C14",
"W  c #842522",
"Q  c #8A2522",
"!  c #822824",
"~  c #AD4A0F",
"^  c #B4540E",
"/  c #BC650C",
"(  c #BC680B",
")  c #C0650C",
"_  c #C4700A",
"`  c #CD7C09",
"'  c #D48707",
"]  c #D58A07",
"[  c #D88F07",
"{  c #D38109",
"}  c #D58808",
"|  c #DC9605",
" . c #DE9905",
".. c #E19D05",
"X. c #EBAC03",
"o. c #EFB203",
"O. c #F1B203",
"+. c #F6BD02",
"@. c #FAC401",
"#. c #FECB00",
"$. c None",
/* pixels */
"$.$.$.$.$.$.$.$.$.$.$.$.$.$.$.$.$.$.$.$.$.$.$.$.$.$.$.$.$.$.$.$.$.$.$.$.$.$.$.$.$.$.$.$.$.$.$.$.$.$.$.$.$.$.$.$.$.$.$.$.$.$.$.$.",
"$.$.$.$.$.$.$.$.$.$.$.$.$.$.$.$.$.$.$.$.$.$.$.$.$.$.$.$.$.$.$.$.$.$.$.$.$.$.$.$.$.$.$.$.$.$.$.$.$.$.$.$.$.$.$.$.$.$.$.$.$.$.$.$.",
"$.$.$.$.$.$.$.$.$.$.$.$.$.$.$.$.$.$.$.$.$.$.$.$.$.w g s W Q Q Q Q Q W s g k $.$.$.$.$.$.$.$.$.$.$.$.$.$.$.$.$.$.$.$.$.$.$.$.$.$.",
"$.$.$.$.$.$.$.$.$.$.$.$.$.$.$.$.$.$.$.$.$.$.d Q m b x x l = = l = = z z x b v Q d $.$.$.$.$.$.$.$.$.$.$.$.$.$.$.$.$.$.$.$.$.$.$.",
"$.$.$.$.$.$.$.$.$.$.$.$.$.$.$.$.$.$.$.g Q b x l * & & = = l z z z z l = * & * z x m W j $.$.$.$.$.$.$.$.$.$.$.$.$.$.$.$.$.$.$.$.",
"$.$.$.$.$.$.$.$.$.$.$.$.$.$.$.$.$.$.Q b x * & * z z x b b b b b b b b b v x z l & * x b ! $.$.$.$.$.$.$.$.$.$.$.$.$.$.$.$.$.$.$.",
"$.$.$.$.$.$.$.$.$.$.$.$.$.$.$.$.i m b * & l z x x b b b b b n b n b b b b b b x x z & = m m j $.$.$.$.$.$.$.$.$.$.$.$.$.$.$.$.$.",
"$.$.$.$.$.$.$.$.$.$.$.$.$.$.$.f n x & * l x x x x b b x b b b n n n n b b b b x x x x = & b m j $.$.$.$.$.$.$.$.$.$.$.$.$.$.$.$.",
"$.$.$.$.$.$.$.$.$.$.$.$.$.$.$.n b & l z x z x x x b b b b b n n n n b b b b x b x x z z l * b m $.$.$.$.$.$.$.$.$.$.$.$.$.$.$.$.",
"$.$.$.$.$.$.$.$.$.$.$.$.$.$.d n z & l z z x x x x x b x b b b b b b b b b x x x x x x z l * x n g $.$.$.$.$.$.$.$.$.$.$.$.$.$.$.",
"$.$.$.$.$.$.$.$.$.$.$.$.$.$.A n = = l l z z x x x b b b b b b b b b b b b b x x x x z z l l l n ! $.$.$.$.$.$.$.$.$.$.$.$.$.$.$.",
"$.$.$.$.$.$.$.$.$.$.$.$.$.$.m n l l l z z x x z x z x x b b b b b b b b x x x x z x z l l l l n ! $.$.$.$.$.$.$.$.$.$.$.$.$.$.$.",
"$.$.$.$.$.$.$.$.$.$.$.$.$.$.Z n x = = l l = # O X X O + % x x b x b x x x x x z z z z l * * x B d $.$.$.$.$.$.$.$.$.$.$.$.$.$.$.",
"$.$.$.$.$.$.$.$.$.$.$.$.$.$.p n n l = l = @             . $ x x x x x x x x x z z l l l l z n B y $.$.$.$.$.$.$.$.$.$.$.$.$.$.$.",
"$.$.$.$.$.$.$.$.$.$.$.$.$.$.y B M b l = * @             . $ z x x x x x z z z l z l l * z n M M f $.$.$.$.$.$.$.$.$.$.$.$.$.$.$.",
"$.$.$.$.$.$.$.$.$.$.$.$.$.$.f n N M n x = & # O o o o + $ l x z z z z z l z l l l * * v n M M b w $.$.$.$.$.$.$.$.$.$.$.$.$.$.$.",
"$.$.$.$.$.$.$.$.$.$.$.$.$.$.9 z B I I N b x = = & * * z z z z z z z z l l * l = z x b B B N n z q $.$.$.$.$.$.$.$.$.$.$.$.$.$.$.",
"$.$.$.$.$.$.$.$.$.$.$.$.$.$.4 & x B I U U N n x z z z z * * z l l * = * l l x n n B B B N n z & q $.$.$.$.$.$.$.$.$.$.$.$.$.$.$.",
"$.$.$.$.$.$.$.$.$.$.$.$.$.$.4 & & l n I U U U U I I b b b x b x x b n n n N B B B B N n b l & % q $.$.$.$.$.$.$.$.$.$.$.$.$.$.$.",
"$.$.$.$.$.$.$.$.$.$.$.$.$.$.6 & * * * z M U Y Y Y Y Y U U U U I B B B Y B B B B B N b z & & & & q $.$.$.$.$.$.$.$.$.$.$.$.$.$.$.",
"$.$.$.$.$.$.$.$.$.$.$.$.$.$.4 & & = z x & l x I U U Y Y U U Y B Y U B U B B N b z * & & * & & & 8 $.$.$.$.$.$.$.$.$.$.$.$.$.$.$.",
"$.$.$.$.$.$.$.$.$.$.$.$.$.$.r & * = x D N b x * & l x x b n n N n b b x l * & & * * * * & * & & u $.$.$.$.$.$.$.$.$.$.$.$.$.$.$.",
"$.$.$.$.$.$.$.$.$.$.$.$.$.$.v & & = x M N D I M M b x l = * * & * & * * * l l l l * * * & & & & ! $.$.$.$.$.$.$.$.$.$.$.$.$.$.$.",
"$.$.$.$.$.$.$.$.$.$.$.$.$.$.v z & = x M N I I n B B B b b b x b x x x z z z l l l l * * * & & x p $.$.$.$.$.$.$.$.$.$.$.$.$.$.$.",
"$.$.$.$.$.$.$.$.$.$.$.$.$.$.; n l = x M M I I n M I I b b b x x x x x z z z l l = * * * & & l n a $.$.$.$.$.$.$.$.$.$.$.$.$.$.$.",
"$.$.$.$.$.$.$.$.$.$.$.$.$.$., B n z x M N I I n N I I b b x b x x x x z z z l l l l * & * x n N t $.$.$.$.$.$.$.$.$.$.$.$.$.$.$.",
"$.$.$.$.$.$.$.$.$.$.$.$.$.$.i M n M b M N I N M N I I b b b b b x x x x z z z l l * = = x n B n f $.$.$.$.$.$.$.$.$.$.$.$.$.$.$.",
"$.$.$.$.$.$.$.$.$.$.$.$.$.$.5 n N N M M N B B M N B U b b b x x x x x z z z l l * z x n N B N b 0 $.$.$.$.$.$.$.$.$.$.$.$.$.$.$.",
"$.$.$.$.$.$.$.$.$.$.$.$.$.$.4 l N B B B B N N N N B B n b b b x x x x z z l x x b n N B B B b = 0 $.$.$.$.$.$.$.$.$.$.$.$.$.$.$.",
"$.$.$.$.$.$.$.$.$.$.$.$.$.$.4 & l M U B Y B N N M N N n n b b b b x b n M n n M B U B B n b = & 8 $.$.$.$.$.$.$.$.$.$.$.$.$.$.$.",
"$.$.$.$.$.$.$.$.$.$.$.$.$.$.4 & & * b N U U Y Y U B B B n N N N M N N N N B B U B B n n x * & % 8 $.$.$.$.$.$.$.$.$.$.$.$.$.$.$.",
"$.$.$.$.$.$.$.$.$.$.$.$.$.$.4 & & l & l b N U Y Y Y Y Y U U B Y U U U U U U B N n b z * & & & & 8 $.$.$.$.$.$.$.$.$.$.$.$.$.$.$.",
"$.$.$.$.$.$.$.$.$.$.$.$.$.$.4 & & * x b x * z x D I I U U U U U U I I I D M x z * & & & * & & % 7 $.$.$.$.$.$.$.$.$.$.$.$.$.$.$.",
"$.$.$.$.$.$.$.$.$.$.$.$.$.$.4 & * * x n n D b x = * * = z z v x x z z z & & & * * * * * * & & & 7 $.$.$.$.$.$.$.$.$.$.$.$.$.$.$.",
"$.$.$.$.$.$.$.$.$.$.$.$.$.$.4 & * * x D N I B n M N n x x l z V l l l l l z z l l = * * & & & & 7 $.$.$.$.$.$.$.$.$.$.$.$.$.$.$.",
"$.$.$.$.$.$.$.$.$.$.$.$.$.$.3 & & l x n n I I M M I I n b S ` @./ x x z z z l l l * * * * & & & 7 $.$.$.$.$.$.$.$.$.$.$.$.$.$.$.",
"$.$.$.$.$.$.$.$.$.$.$.$.$.$.4 & * l x D N N B M M I I b b ` ] O.@./ x z x z l l l * = * & & & & 7 $.$.$.$.$.$.$.$.$.$.$.$.$.$.$.",
"$.$.$.$.$.$.$.$.$.$.$.$.$.$.4 & & l x M D I I N M B I n ` +.~ T  .#.( z z z l l * = * & & & & & 7 $.$.$.$.$.$.$.$.$.$.$.$.$.$.$.",
"$.$.$.$.$.$.$.$.$.$.$.$.$.$.> & * = x D n I I M M I I { #.+...G ^ ] @./ x z l l * l * * & & & & t $.$.$.$.$.$.$.$.$.$.$.$.$.$.$.",
"$.$.$.$.$.$.$.$.$.$.$.$.$.$.m & & = x M M I I M M U { #.#.^ ~ G S F o.@.( z l l = l * * * & & * W $.$.$.$.$.$.$.$.$.$.$.$.$.$.$.",
"$.$.$.$.$.$.$.$.$.$.$.$.$.$.v z * = x M M B I N M P O.#.O.D G ] / x X.@. .x z z * z * & * & & x p $.$.$.$.$.$.$.$.$.$.$.$.$.$.$.",
"$.$.$.$.$.$.$.$.$.$.$.$.$.$.; M l = x B D B B M N U E O.o.D [ #.X.T X. .F z z * * * * * & & x n r $.$.$.$.$.$.$.$.$.$.$.$.$.$.$.",
"$.$.$.$.$.$.$.$.$.$.$.$.$.$., B n z x n M I I M N B I R X.) ` o.] _  .K x l l l * * * * * x n N t $.$.$.$.$.$.$.$.$.$.$.$.$.$.$.",
"$.$.$.$.$.$.$.$.$.$.$.$.$.$.i N B n b n M I I M N B I n T X.X.X.X. .K z z z l l z * * z x n B N 9 $.$.$.$.$.$.$.$.$.$.$.$.$.$.$.",
"$.$.$.$.$.$.$.$.$.$.$.$.$.$.5 b B B N M M I I n N B B b b T X.#...G x z z z z l * z b n N N N x 3 $.$.$.$.$.$.$.$.$.$.$.$.$.$.$.",
"$.$.$.$.$.$.$.$.$.$.$.$.$.$.4 * N B B B M n N n N B B b b b T ' K x x x z x x b b M N B B n b & 2 $.$.$.$.$.$.$.$.$.$.$.$.$.$.$.",
"$.$.$.$.$.$.$.$.$.$.$.$.$.$.4 & l M I U U U I n n N M M M M n b n b n b b N N B I U B B N b * & 2 $.$.$.$.$.$.$.$.$.$.$.$.$.$.$.",
"$.$.$.$.$.$.$.$.$.$.$.$.$.$.4 & & & x N U U Y Y U U B N N n M N M M M N B B B B I I N b z & & & 2 $.$.$.$.$.$.$.$.$.$.$.$.$.$.$.",
"$.$.$.$.$.$.$.$.$.$.$.$.$.$.1 & * * & = z M U Y Y U Y Y Y U Y U U U U U U B B B N b z & & & & & 2 $.$.$.$.$.$.$.$.$.$.$.$.$.$.$.",
"$.$.$.$.$.$.$.$.$.$.$.$.$.$.- & * l x b x * & z b I U U U U U U U U B B M n x l & & & * & & & & : $.$.$.$.$.$.$.$.$.$.$.$.$.$.$.",
"$.$.$.$.$.$.$.$.$.$.$.$.$.$.m & & l x D D I M x l * & & & z z z z l * & & & & * l * * * & & & * Z $.$.$.$.$.$.$.$.$.$.$.$.$.$.$.",
"$.$.$.$.$.$.$.$.$.$.$.$.$.$.c x & = x n N N I M I I I x x x z z z z z z z z l l = l * * & * & b p $.$.$.$.$.$.$.$.$.$.$.$.$.$.$.",
"$.$.$.$.$.$.$.$.$.$.$.$.$.$.; M z l x M n I I n D B I b b b x x x x x z z z z l = = & * * & x M : $.$.$.$.$.$.$.$.$.$.$.$.$.$.$.",
"$.$.$.$.$.$.$.$.$.$.$.$.$.$., N M x x M J I I I M U N n b b b b x x x x z z z l = = * * = x M M e $.$.$.$.$.$.$.$.$.$.$.$.$.$.$.",
"$.$.$.$.$.$.$.$.$.$.$.$.$.$.4 n B M n M N I I n M B U b b b x x x x z z z z l l * * * z b N B b $.$.$.$.$.$.$.$.$.$.$.$.$.$.$.$.",
"$.$.$.$.$.$.$.$.$.$.$.$.$.$.$.c N I M M M N I n M B B b b b b x x x x x z z z l l x n n B B M , $.$.$.$.$.$.$.$.$.$.$.$.$.$.$.$.",
"$.$.$.$.$.$.$.$.$.$.$.$.$.$.$.$.A I U I B M J n M N B b b b x v x x x z x x x b M M N B B N < $.$.$.$.$.$.$.$.$.$.$.$.$.$.$.$.$.",
"$.$.$.$.$.$.$.$.$.$.$.$.$.$.$.$.$.< J U U U I I M M M n n n n n n b n b b N N B B I B N n r $.$.$.$.$.$.$.$.$.$.$.$.$.$.$.$.$.$.",
"$.$.$.$.$.$.$.$.$.$.$.$.$.$.$.$.$.$.4 Z I U Y Y U U U I B B J J I N I B U B I I B B m , $.$.$.$.$.$.$.$.$.$.$.$.$.$.$.$.$.$.$.$.",
"$.$.$.$.$.$.$.$.$.$.$.$.$.$.$.$.$.$.$.$.$.y H I Y Y Y Y U U Y Y U U U U U B N D Z t $.$.$.$.$.$.$.$.$.$.$.$.$.$.$.$.$.$.$.$.$.$.",
"$.$.$.$.$.$.$.$.$.$.$.$.$.$.$.$.$.$.$.$.$.$.$.$.5 y Z H I I J I J J J A < t 4 $.$.$.$.$.$.$.$.$.$.$.$.$.$.$.$.$.$.$.$.$.$.$.$.$.",
"$.$.$.$.$.$.$.$.$.$.$.$.$.$.$.$.$.$.$.$.$.$.$.$.$.$.$.$.$.$.$.$.$.$.$.$.$.$.$.$.$.$.$.$.$.$.$.$.$.$.$.$.$.$.$.$.$.$.$.$.$.$.$.$.",
"$.$.$.$.$.$.$.$.$.$.$.$.$.$.$.$.$.$.$.$.$.$.$.$.$.$.$.$.$.$.$.$.$.$.$.$.$.$.$.$.$.$.$.$.$.$.$.$.$.$.$.$.$.$.$.$.$.$.$.$.$.$.$.$.",
"$.$.$.$.$.$.$.$.$.$.$.$.$.$.$.$.$.$.$.$.$.$.$.$.$.$.$.$.$.$.$.$.$.$.$.$.$.$.$.$.$.$.$.$.$.$.$.$.$.$.$.$.$.$.$.$.$.$.$.$.$.$.$.$."
};
