/* XPM */
static char *result[] = {
/* columns rows colors chars-per-pixel */
"64 64 81 1 ",
"  c #000000",
". c #0B1306",
"X c #0E1A08",
"o c #13220B",
"O c #16280D",
"+ c #192C0E",
"@ c #233F14",
"# c #2A4C19",
"$ c #3C5535",
"% c #3F5D35",
"& c #376122",
"* c #396324",
"= c #3D6D25",
"- c #3E672B",
"; c #3E682A",
": c #3F7225",
"> c #3F6032",
", c #415E36",
"< c #416C2C",
"1 c #427627",
"2 c #437827",
"3 c #437528",
"4 c #457C29",
"5 c #497E2F",
"6 c #416533",
"7 c #446E32",
"8 c #446439",
"9 c #4B6F3D",
"0 c #457331",
"q c #487634",
"w c #497C32",
"e c #4C743C",
"r c #4D783C",
"t c #4C6645",
"y c #47802A",
"u c #49842B",
"i c #4D8B2E",
"p c #508C2D",
"a c #4F902F",
"s c #55932F",
"d c #4D8234",
"f c #4F8B33",
"g c #4E8139",
"h c #518D34",
"j c #50833A",
"k c #528A39",
"l c #4F9030",
"z c #529331",
"x c #569C34",
"c c #599F35",
"v c #579C38",
"b c #599E39",
"n c #6D9525",
"m c #739C26",
"M c #57A035",
"N c #59A336",
"B c #5BA638",
"V c #5DAB39",
"C c #5FB03B",
"Z c #60B03B",
"A c #8EA41E",
"S c #93A61D",
"D c #9CA719",
"F c #97A81C",
"G c #9DA91A",
"H c #ACAE15",
"J c #A2AD19",
"K c #B0AF14",
"L c #AEB116",
"P c #A9B61C",
"I c #B2B214",
"U c #81AF2A",
"Y c #CAB90E",
"T c #D4BD0B",
"R c #DEC108",
"E c #E8C406",
"W c #E1C108",
"Q c #F1C704",
"! c #F5C903",
"~ c #FBCB01",
"^ c None",
/* pixels */
"^^^^^^^^^^^^^^^^^^^^^^^^^^^^^^^^^^^^^^^^^^^^^^^^^^^^^^^^^^^^^^^^",
"^^^^^^^^^^^^^^^^^^^^^^^^^^^^^^^^^^^^^^^^^^^^^^^^^^^^^^^^^^^^^^^^",
"^^^^^^^^^^^^^^^^^^^^^^^^^^tegkkhkkkget^^^^^^^^^^^^^^^^^^^^^^^^^^",
"^^^^^^^^^^^^^^^^^^^^^^tjhzfiu44444yuilzkjt^^^^^^^^^^^^^^^^^^^^^^",
"^^^^^^^^^^^^^^^^^^^^ehzi42244yuuuuu42224iazr^^^^^^^^^^^^^^^^^^^^",
"^^^^^^^^^^^^^^^^^^9zsy124iiallzzzxzzzfiu214lz9^^^^^^^^^^^^^^^^^^",
"^^^^^^^^^^^^^^^^^gxu:yuiilsszzxzxzxzzzzasi42uxg^^^^^^^^^^^^^^^^^",
"^^^^^^^^^^^^^^^^dxy2yiuiiifazzxxxxzxzzzliifu2uxf^^^^^^^^^^^^^^^^",
"^^^^^^^^^^^^^^^exu2uuiuiiiizzzxxxxzszzlaiiiuu2uve^^^^^^^^^^^^^^^",
"^^^^^^^^^^^^^^^zz2yuuuiipizzzzzzzzxzzlfaiiiuuu2xx^^^^^^^^^^^^^^^",
"^^^^^^^^^^^^^^^xs2uyuuifizzzzzzzzzzzslsiiuiuuy4lx^^^^^^^^^^^^^^^",
"^^^^^^^^^^^^^^^vs2uuuiiuuuuipzzzzzzpafiiiiuuuy4av^^^^^^^^^^^^^^^",
"^^^^^^^^^^^^^^^xx4yuuu=@oXX+#2lahpphiiiiuuuu444xv^^^^^^^^^^^^^^^",
"^^^^^^^^^^^^^^^zvz4uu:.      +4fiiipiiuuuuuu44sxM^^^^^^^^^^^^^^^",
"^^^^^^^^^^^^^^^hMci4y:.      +2iiiuiiuuuuu44uixNx^^^^^^^^^^^^^^^",
"^^^^^^^^^^^^^^^dMNMzu4=@oXX+#2uiiuuuuuuuu44uscNxu^^^^^^^^^^^^^^^",
"^^^^^^^^^^^^^^^<xMBNvau4424yuuuuuuuuuuuy4uavNNMz=^^^^^^^^^^^^^^^",
"^^^^^^^^^^^^^^^-4zBBVNMsiuuyy4yy4yyy44uisMNNNMz2*^^^^^^^^^^^^^^^",
"^^^^^^^^^^^^^^^<22zMVVCVBNxxzsiiiaslxxMNBBMMxf23*^^^^^^^^^^^^^^^",
"^^^^^^^^^^^^^^^-2424sNVZZCVCVVVVVBBBVBBNNMxf212:*^^^^^^^^^^^^^^^",
"^^^^^^^^^^^^^^^-24yiy2uzNVVVCVVVVNBVNNMxiy222223*^^^^^^^^^^^^^^^",
"^^^^^^^^^^^^^^^324uxMxau22uillxxxxzii4212444222:2^^^^^^^^^^^^^^^",
"^^^^^^^^^^^^^^^i24uzMNNNxxaiy42221244yyyy444222:i^^^^^^^^^^^^^^^",
"^^^^^^^^^^^^^^^x44uzMMNBxNNvzzlsiiiiiuuuyy422222x^^^^^^^^^^^^^^^",
"^^^^^^^^^^^^^^^xz4uzMMNNxNNMzziiiiuiuuuyyy4422:lM^^^^^^^^^^^^^^^",
"^^^^^^^^^^^^^^^zMzuxMNNBxNNczzziiiiiiuuyy44422sxc^^^^^^^^^^^^^^^",
"^^^^^^^^^^^^^^^fMMxxMMNBxNNMzzlaaiiufuuuyy44uxxMz^^^^^^^^^^^^^^^",
"^^^^^^^^^^^^^^^5MMMxMMNNxNNczzzaiiiiiuuyy4isvMMxy^^^^^^^^^^^^^^^",
"^^^^^^^^^^^^^^^<lMBBvvMMxNNMssaaiiiiuuiizxxMNMvf*^^^^^^^^^^^^^^^",
"^^^^^^^^^^^^^^^-2iNBVVNMxMMMxxlslaasxzxxMNNNMxi2*^^^^^^^^^^^^^^^",
"^^^^^^^^^^^^^^^-22uxBBCCVVBNxMMMMMvMMNNVBNMxzu3:*^^^^^^^^^^^^^^^",
"^^^^^^^^^^^^^^^-2442yxNCZZZCVVVVVVVVVVNNMxay2122*^^^^^^^^^^^^^^^",
"^^^^^^^^^^^^^^^-24uaiyyuaMBVVVVVVVNNNvxiy222223:*^^^^^^^^^^^^^^^",
"^^^^^^^^^^^^^^^-24yxMMxau44yyuiiiuuy42124444222:*^^^^^^^^^^^^^^^",
"^^^^^^^^^^^^^^^-2yyzMNNBxNMliuuyyyuuyuyy44442223*^^^^^^^^^^^^^^^",
"^^^^^^^^^^^^^^^-24yxMMNNxNBMllsGGiiuiuuuuy442223*^^^^^^^^^^^^^^^",
"^^^^^^^^^^^^^^^-25uzMMNNxNNMssJ~~Jiuuuyuy4442111*^^^^^^^^^^^^^^^",
"^^^^^^^^^^^^^^^;24yxMMNNxMNMsJR~~TJiiuuyu4442111*^^^^^^^^^^^^^^^",
"^^^^^^^^^^^^^^^22yuzMMNNxNNMPQIYYH~Giuuy4444221:2^^^^^^^^^^^^^^^",
"^^^^^^^^^^^^^^^i24uzMNNNxNVP!YmFDnY~Duuuuu422211f^^^^^^^^^^^^^^^",
"^^^^^^^^^^^^^^^x44uzMMNNxNU~QWLAFKWQ~nu4uy442212v^^^^^^^^^^^^^^^",
"^^^^^^^^^^^^^^^xzuyzMNNNxNNP!~RAST~!Duuu4444212zM^^^^^^^^^^^^^^^",
"^^^^^^^^^^^^^^^zMzizMNNBxMBMPQWGJW~Diuuyu44424sMM^^^^^^^^^^^^^^^",
"^^^^^^^^^^^^^^^fMMxxMNNNcNNcsJE~!EDiuuuu4u44uxMMz^^^^^^^^^^^^^^^",
"^^^^^^^^^^^^^^^5cBMxvMNNxNNMzsJ~~JpuiuuyuyisxMMx4^^^^^^^^^^^^^^^",
"^^^^^^^^^^^^^^^;iMBVNMMMxMNMzhsJJppuuiiisxMMNMvi*^^^^^^^^^^^^^^^",
"^^^^^^^^^^^^^^^;1iMBVVNMMcccxxzxzzzxzxccvNBNMxi1&^^^^^^^^^^^^^^^",
"^^^^^^^^^^^^^^^-124xNVZZVVBNMMccxxMNBBNBBNMMzy:1&^^^^^^^^^^^^^^^",
"^^^^^^^^^^^^^^^;2444yaNVZCZCCCCCCVVVBNBNMxi41111*^^^^^^^^^^^^^^^",
"^^^^^^^^^^^^^^^22yuzlu14ixMVCVBVVBBBNvlu41222111y^^^^^^^^^^^^^^^",
"^^^^^^^^^^^^^^^l24ulMMMxuy2124uuuu44122444442111i^^^^^^^^^^^^^^^",
"^^^^^^^^^^^^^^^xyyuxMMNBvNNxiiuuuyuuuuuyyu422212M^^^^^^^^^^^^^^^",
"^^^^^^^^^^^^^^^xzuulMMNBxNNMsaaaiiiiuuuu4444224xM^^^^^^^^^^^^^^^",
"^^^^^^^^^^^^^^^fMxisMNNNxNNMxlziiiiiiuuyu4442yzMv^^^^^^^^^^^^^^^",
"^^^^^^^^^^^^^^^wvMxvMMNNxNNxazaaiiuiiuuuy44ufxMMu^^^^^^^^^^^^^^^",
"^^^^^^^^^^^^^^^^xNNMMMNNxNBMzzaaiiuiuuuuyuixcMNz^^^^^^^^^^^^^^^^",
"^^^^^^^^^^^^^^^^6xNBBcvMxMMczzlfiiuiuiifzvMNBcz6^^^^^^^^^^^^^^^^",
"^^^^^^^^^^^^^^^^^$hBVVBBMccxxxxvxxxxxxxMNBBMcf$^^^^^^^^^^^^^^^^^",
"^^^^^^^^^^^^^^^^^^^6zBZCZVVBNMNNMMBMNBVNBMvf6^^^^^^^^^^^^^^^^^^^",
"^^^^^^^^^^^^^^^^^^^^^,rvBZCCCCVVVVVVVVNxz0$^^^^^^^^^^^^^^^^^^^^^",
"^^^^^^^^^^^^^^^^^^^^^^^^^8qfbNNNNbbzd7,^^^^^^^^^^^^^^^^^^^^^^^^^",
"^^^^^^^^^^^^^^^^^^^^^^^^^^^^^^^^^^^^^^^^^^^^^^^^^^^^^^^^^^^^^^^^",
"^^^^^^^^^^^^^^^^^^^^^^^^^^^^^^^^^^^^^^^^^^^^^^^^^^^^^^^^^^^^^^^^",
"^^^^^^^^^^^^^^^^^^^^^^^^^^^^^^^^^^^^^^^^^^^^^^^^^^^^^^^^^^^^^^^^"
};
