/* XPM */
static char *result[] = {
/* columns rows colors chars-per-pixel */
"64 64 113 2 ",
"   c #010000",
".  c #0A0700",
"X  c #0C0A00",
"o  c #100C00",
"O  c #151100",
"+  c #1B1500",
"@  c #231B00",
"#  c #2C2300",
"$  c #312700",
"%  c #362A00",
"&  c #3B2D00",
"*  c #3F3100",
"=  c #433500",
"-  c #473800",
";  c #4B3B00",
":  c #503F00",
">  c #554300",
",  c #594600",
"<  c #5C4800",
"1  c #634D00",
"2  c #6D5500",
"3  c #705700",
"4  c #745B00",
"5  c #66561E",
"6  c #68571D",
"7  c #6F5D1A",
"8  c #7F6400",
"9  c #75621E",
"0  c #5B4F23",
"q  c #564D2D",
"w  c #5D532C",
"e  c #675925",
"r  c #6D5E25",
"t  c #61562D",
"y  c #6B5E2D",
"u  c #705F25",
"i  c #675F3D",
"p  c #685F3F",
"a  c #6E6027",
"s  c #746327",
"d  c #7D6A24",
"f  c #716129",
"g  c #7B6A2C",
"h  c #6A623D",
"j  c #776A35",
"k  c #7D6E33",
"l  c #72673A",
"z  c #766B3A",
"x  c #645D40",
"c  c #816600",
"v  c #856900",
"b  c #8F7000",
"n  c #937400",
"m  c #9C7A00",
"M  c #876F1A",
"N  c #8A731B",
"B  c #8E781C",
"V  c #9A7E15",
"C  c #957B1B",
"Z  c #A17E00",
"A  c #836F25",
"S  c #877123",
"D  c #8A7627",
"F  c #86732B",
"G  c #8B762B",
"H  c #8E7928",
"J  c #927A20",
"K  c #9E800E",
"L  c #9D8015",
"P  c #9D821B",
"I  c #A78300",
"U  c #AC8700",
"Y  c #AF8900",
"T  c #A9870C",
"R  c #AC8B0E",
"E  c #B38C00",
"W  c #B18E0E",
"Q  c #BE9500",
"!  c #B4900C",
"~  c #BA950C",
"^  c #A48514",
"/  c #AF8D14",
"(  c #A1851D",
")  c #A5881C",
"_  c #AA8C19",
"`  c #B08F12",
"'  c #B29012",
"]  c #BA9713",
"[  c #BD9912",
"{  c #9A8122",
"}  c #C19700",
"|  c #C59A00",
" . c #CA9E00",
".. c #C49D0C",
"X. c #C59E10",
"o. c #CEA100",
"O. c #C6A10B",
"+. c #CAA20E",
"@. c #D2A500",
"#. c #D6A800",
"$. c #DCAC00",
"%. c #DFB001",
"&. c #C8A110",
"*. c #E0AF00",
"=. c #E4B300",
"-. c #E9B700",
";. c #E7B904",
":. c #ECBB00",
">. c #F1BF00",
",. c #F4C200",
"<. c #F9C601",
"1. c #FCC901",
"2. c None",
/* pixels */
"2.2.2.2.2.2.2.2.2.2.2.2.2.2.2.2.2.2.2.2.2.2.2.2.2.2.2.2.2.2.2.2.2.2.2.2.2.2.2.2.2.2.2.2.2.2.2.2.2.2.2.2.2.2.2.2.2.2.2.2.2.2.2.2.",
"2.2.2.2.2.2.2.2.2.2.2.2.2.2.2.2.2.2.2.2.2.2.2.2.2.2.2.2.2.2.2.2.2.2.2.2.2.2.2.2.2.2.2.2.2.2.2.2.2.2.2.2.2.2.2.2.2.2.2.2.2.2.2.2.",
"2.2.2.2.2.2.2.2.2.2.2.2.2.2.2.2.2.2.2.2.2.2.2.2.x l G _ ] X.&.&.&.X.X._ G z p 2.2.2.2.2.2.2.2.2.2.2.2.2.2.2.2.2.2.2.2.2.2.2.2.2.",
"2.2.2.2.2.2.2.2.2.2.2.2.2.2.2.2.2.2.2.2.2.h { X.#.$.$.@.@. . .|  .o. .@.$.=.#.X.) h 2.2.2.2.2.2.2.2.2.2.2.2.2.2.2.2.2.2.2.2.2.2.",
"2.2.2.2.2.2.2.2.2.2.2.2.2.2.2.2.2.2.2.k [ *.$.o. .| |  . .@.@.@.@.o. . .| |  .o.$.*.X.F 2.2.2.2.2.2.2.2.2.2.2.2.2.2.2.2.2.2.2.2.",
"2.2.2.2.2.2.2.2.2.2.2.2.2.2.2.2.2.x [ =.#.| |  .@.#.#.*.$.*.=.=.=.=.=.=.$.$.#. .| | @.=...l 2.2.2.2.2.2.2.2.2.2.2.2.2.2.2.2.2.2.",
"2.2.2.2.2.2.2.2.2.2.2.2.2.2.2.2.k $.=. .| o.@.#.#.$.$.$.*.=.=.=.=.=.=.=.=.*.$.$.#.@.|  .$.=.D 2.2.2.2.2.2.2.2.2.2.2.2.2.2.2.2.2.",
"2.2.2.2.2.2.2.2.2.2.2.2.2.2.2.j =.$.| | @.#.#.$.#.$.*.*.*.=.=.=.-.-.=.=.*.*.*.$.$.$.$. .| $.*.G 2.2.2.2.2.2.2.2.2.2.2.2.2.2.2.2.",
"2.2.2.2.2.2.2.2.2.2.2.2.2.2.2.#.=.|  .o.@.#.#.#.$.*.*.$.$.=.=.=.=.-.=.=.*.*.$.$.#.#.#.@. .| *.$.p 2.2.2.2.2.2.2.2.2.2.2.2.2.2.2.",
"2.2.2.2.2.2.2.2.2.2.2.2.2.2.G -.#. .o.@.@.@.#.#.$.$.$.=.=.=.=.=.=.=.*.*.*.*.$.$.$.#.#.@.@. .@.:.( 2.2.2.2.2.2.2.2.2.2.2.2.2.2.2.",
"2.2.2.2.2.2.2.2.2.2.2.2.2.2._ ;.o. .o.o.@.@.#.$.$.$.$.$.$.*.=.=.=.*.*.*.*.$.$.#.$.#.@.@.@. . .-.&.2.2.2.2.2.2.2.2.2.2.2.2.2.2.2.",
"2.2.2.2.2.2.2.2.2.2.2.2.2.2._ -.@.o.o.@.@.#.#.@.@.@.#.$.*.$.$.$.$.=.$.$.$.$.#.#.#.@.@.@.@. .@.-.&.2.2.2.2.2.2.2.2.2.2.2.2.2.2.2.",
"2.2.2.2.2.2.2.2.2.2.2.2.2.2.) -.$.o.o.o.@. .n : # @ # > m #.$.$.$.$.$.$.#.#.#.#.@.@.@.@. .| #.:.X.2.2.2.2.2.2.2.2.2.2.2.2.2.2.2.",
"2.2.2.2.2.2.2.2.2.2.2.2.2.2.P :.-.@.o.o. .8 .           . n #.$.$.$.$.#.#.#.@.@.@.@.@. . .@.*.:.` 2.2.2.2.2.2.2.2.2.2.2.2.2.2.2.",
"2.2.2.2.2.2.2.2.2.2.2.2.2.2.G :.:.=.o.o. .8 .           . n @.#.#.#.#.@.@.@.o.@.@.@. . .@.*.>.:.^ 2.2.2.2.2.2.2.2.2.2.2.2.2.2.2.",
"2.2.2.2.2.2.2.2.2.2.2.2.2.2.g -.>.>.=.$.o.| n : # # $ > m o.#.@.@.@.@.@.@.@. .@. . . .#.*.>.:.-.S 2.2.2.2.2.2.2.2.2.2.2.2.2.2.2.",
"2.2.2.2.2.2.2.2.2.2.2.2.2.2.f @.;.>.,.:.=.#.o. .| } | o.@.@.o.@.@.@.@.@.o.o.o. . .#.*.:.>.:.-.#.s 2.2.2.2.2.2.2.2.2.2.2.2.2.2.2.",
"2.2.2.2.2.2.2.2.2.2.2.2.2.2.t Q #.:.,.,.,.>.-.*.#.@.o.o.o.o.o.o. . . . .o.o.#.$.=.>.>.>.:.-.#.| f 2.2.2.2.2.2.2.2.2.2.2.2.2.2.2.",
"2.2.2.2.2.2.2.2.2.2.2.2.2.2.t Q | o.;.,.<.1.<.<.,.:.;.=.$.$.$.$.$.$.*.=.-.:.>.>.,.>.:.:.=.@.| } f 2.2.2.2.2.2.2.2.2.2.2.2.2.2.2.",
"2.2.2.2.2.2.2.2.2.2.2.2.2.2.w Q |  .| @.-.,.1.1.1.1.1.<.<.<.<.,.<.,.,.,.,.,.>.>.>.:.=.@.| } | } y 2.2.2.2.2.2.2.2.2.2.2.2.2.2.2.",
"2.2.2.2.2.2.2.2.2.2.2.2.2.2.t Q | o.@.#. .o.$.;.<.<.<.<.1.<.<.<.<.<.,.,.>.>.:.*.#. .| | | | | } s 2.2.2.2.2.2.2.2.2.2.2.2.2.2.2.",
"2.2.2.2.2.2.2.2.2.2.2.2.2.2.d } | o.#.:.-.=.$. .| o.@.$.=.=.=.-.=.=.$.#.@. .| } | |  .| | | } } V 2.2.2.2.2.2.2.2.2.2.2.2.2.2.2.",
"2.2.2.2.2.2.2.2.2.2.2.2.2.2.` | | o.#.-.:.>.>.:.-.=.$.@.o.| | | | |  . . . . .@. . . . .| | } | ..2.2.2.2.2.2.2.2.2.2.2.2.2.2.2.",
"2.2.2.2.2.2.2.2.2.2.2.2.2.2.) $.| o.#.-.:.:.>.:.-.>.>.=.=.%.*.$.$.$.#.#.@.@.@. .@.@. .| | | | #.+.2.2.2.2.2.2.2.2.2.2.2.2.2.2.2.",
"2.2.2.2.2.2.2.2.2.2.2.2.2.2.( -.@.o.@.-.:.,.,.:.-.,.,.=.=.$.$.$.$.#.#.#.@.@. . .o. . .| | |  .-.[ 2.2.2.2.2.2.2.2.2.2.2.2.2.2.2.",
"2.2.2.2.2.2.2.2.2.2.2.2.2.2.C >.;.#.#.:.:.:.>.:.-.,.,.=.*.*.$.$.$.#.#.#.@.@.@.@.o. . . .| @.=.:.W 2.2.2.2.2.2.2.2.2.2.2.2.2.2.2.",
"2.2.2.2.2.2.2.2.2.2.2.2.2.2.F :.:.;.=.-.:.>.,.:.-.,.>.=.*.*.$.$.$.#.#.@.@.@.@. .o. . . .$.-.:.:.C 2.2.2.2.2.2.2.2.2.2.2.2.2.2.2.",
"2.2.2.2.2.2.2.2.2.2.2.2.2.2.f =.>.,.:.:.:.:.>.:.:.,.>.=.=.*.$.$.#.$.#.#.@.@.@. .o.@.$.=.-.>.:.=.A 2.2.2.2.2.2.2.2.2.2.2.2.2.2.2.",
"2.2.2.2.2.2.2.2.2.2.2.2.2.2.t  .-.>.,.>.-.-.:.:.:.>.>.=.*.*.$.$.$.$.#.#.@.@.#.$.=.-.:.>.>.:.=.@.u 2.2.2.2.2.2.2.2.2.2.2.2.2.2.2.",
"2.2.2.2.2.2.2.2.2.2.2.2.2.2.w Q o.=.,.<.<.,.>.:.-.:.>.-.=.=.=.*.$.$.*.=.-.=.-.:.:.>.>.:.:.=.o.} r 2.2.2.2.2.2.2.2.2.2.2.2.2.2.2.",
"2.2.2.2.2.2.2.2.2.2.2.2.2.2.w Q | | $.:.<.<.1.1.<.,.>.>.:.:.:.:.:.:.>.:.>.>.>.,.>.>.:.-.$.| } } r 2.2.2.2.2.2.2.2.2.2.2.2.2.2.2.",
"2.2.2.2.2.2.2.2.2.2.2.2.2.2.w Q | o.| o.$.-.<.1.1.1.1.1.1.<.<.<.<.,.<.,.,.>.>.>.:.=.#. .} | | } r 2.2.2.2.2.2.2.2.2.2.2.2.2.2.2.",
"2.2.2.2.2.2.2.2.2.2.2.2.2.2.w Q | o.@.%.@. .o.#.=.,.,.<.<.<.<.<.,.,.>.>.:.-.$.#. .| | | | | } } r 2.2.2.2.2.2.2.2.2.2.2.2.2.2.2.",
"2.2.2.2.2.2.2.2.2.2.2.2.2.2.w Q | o.#.:.:.:.=.$.o.|  .o.o.@.#.#.#.#.@. . .} |  . . . .| | | | } r 2.2.2.2.2.2.2.2.2.2.2.2.2.2.2.",
"2.2.2.2.2.2.2.2.2.2.2.2.2.2.w } | o.#.:.:.,.,.-.;.:.-.$.#.o.} Q }  .o.o.@.o.o.o. . . . .| | | } r 2.2.2.2.2.2.2.2.2.2.2.2.2.2.2.",
"2.2.2.2.2.2.2.2.2.2.2.2.2.2.w Q | o.@.:.:.:.,.:.-.,.,.=.} 1 * = * , E @.@.@.@.o.@. . . . .| | } r 2.2.2.2.2.2.2.2.2.2.2.2.2.2.2.",
"2.2.2.2.2.2.2.2.2.2.2.2.2.2.w Q | | @.;.:.,.,.:.:.,.>.E & 4 ; % : v = b @.@.o.o. . . .| | | | } r 2.2.2.2.2.2.2.2.2.2.2.2.2.2.2.",
"2.2.2.2.2.2.2.2.2.2.2.2.2.2.w Q o.o.#.:.:.:.:.:.:.,.=.%  .E X   o E | - U @.@.o.@. . . .| | } } u 2.2.2.2.2.2.2.2.2.2.2.2.2.2.2.",
"2.2.2.2.2.2.2.2.2.2.2.2.2.2.A } | o.@.:.:.,.,.:.-.,.v n =.$.1   4 $.#.Z , @.@. . . . . .| | | } ^ 2.2.2.2.2.2.2.2.2.2.2.2.2.2.2.",
"2.2.2.2.2.2.2.2.2.2.2.2.2.2.'  .| o.#.;.:.:.,.:.-.:.; #.*.*.} 2 Q $.#.} - @.@. .@. . .| | | | | ..2.2.2.2.2.2.2.2.2.2.2.2.2.2.2.",
"2.2.2.2.2.2.2.2.2.2.2.2.2.2.^ $.o.o.@.:.,.,.,.;.:.:.= m ; : 2 + 3 - - 2 -  .@. .@. . . .| | | #.+.2.2.2.2.2.2.2.2.2.2.2.2.2.2.2.",
"2.2.2.2.2.2.2.2.2.2.2.2.2.2.P -.@.| #.-.:.:.,.-.:.>., 4     = Q ,     , - @.@. . . . .| | |  .-.~ 2.2.2.2.2.2.2.2.2.2.2.2.2.2.2.",
"2.2.2.2.2.2.2.2.2.2.2.2.2.2.J >.;.#.@.:.:.:.,.-.:.>.I 1 @ . n $.I o @ 1 4 @.@.@.@. . . .| #.-.:.R 2.2.2.2.2.2.2.2.2.2.2.2.2.2.2.",
"2.2.2.2.2.2.2.2.2.2.2.2.2.2.A -.,.;.;.-.,.:.,.:.-.>.:.: 4 1 #.$.#.2 2 ; } @. .o. . .| @.$.-.:.-.C 2.2.2.2.2.2.2.2.2.2.2.2.2.2.2.",
"2.2.2.2.2.2.2.2.2.2.2.2.2.2.f =.:.,.:.-.:.:.,.:.:.>.>.@.> 2 U Q U 2 : E @.@.@. .@.@.$.-.:.>.:.=.9 2.2.2.2.2.2.2.2.2.2.2.2.2.2.2.",
"2.2.2.2.2.2.2.2.2.2.2.2.2.2.t | ;.:.,.,.:.-.:.:.:.>.>.=.#.m 1 , < n  .#.@.#.#.$.=.-.:.>.>.:.-. .6 2.2.2.2.2.2.2.2.2.2.2.2.2.2.2.",
"2.2.2.2.2.2.2.2.2.2.2.2.2.2.w Q  .=.,.,.<.<.,.-.:.:.:.-.-.-.=.=.=.=.=.=.=.-.:.:.:.>.>.:.-.=. .} 5 2.2.2.2.2.2.2.2.2.2.2.2.2.2.2.",
"2.2.2.2.2.2.2.2.2.2.2.2.2.2.w Q | | #.:.<.<.1.1.<.<.,.>.:.-.:.:.:.:.:.>.>.,.,.,.>.>.:.-.#.| | } 5 2.2.2.2.2.2.2.2.2.2.2.2.2.2.2.",
"2.2.2.2.2.2.2.2.2.2.2.2.2.2.0 } o.o.Q o.@.=.<.1.1.1.1.1.1.<.1.<.1.1.,.,.>.>.>.:.:.*.@.| | } | } 7 2.2.2.2.2.2.2.2.2.2.2.2.2.2.2.",
"2.2.2.2.2.2.2.2.2.2.2.2.2.2.N } Q o.#.=.#.o.| o.%.:.,.<.<.<.<.,.,.,.,.>.>.=.#.@.| | |  .| | | | T 2.2.2.2.2.2.2.2.2.2.2.2.2.2.2.",
"2.2.2.2.2.2.2.2.2.2.2.2.2.2.! | | o.@.:.,.;.;.%.o.| Q |  .o.@.#.@. .| | } | |  . . . .| | | } | ..2.2.2.2.2.2.2.2.2.2.2.2.2.2.2.",
"2.2.2.2.2.2.2.2.2.2.2.2.2.2.L %.o.o.@.:.;.,.,.:.:.,.,.%.#.#.o.@.@.@.@.@.@.@.@. .@. . .| | | } $...2.2.2.2.2.2.2.2.2.2.2.2.2.2.2.",
"2.2.2.2.2.2.2.2.2.2.2.2.2.2.V -.$.o.@.-.:.>.,.:.:.,.,.=.%.$.$.$.#.#.#.#.@.@. .@. . . .| | | #.:.W 2.2.2.2.2.2.2.2.2.2.2.2.2.2.2.",
"2.2.2.2.2.2.2.2.2.2.2.2.2.2.N >.-.%.#.:.:.:.>.:.;.,.,.=.*.=.$.$.$.#.#.#.@.@.@. .@. . .| | #.-.:.^ 2.2.2.2.2.2.2.2.2.2.2.2.2.2.2.",
"2.2.2.2.2.2.2.2.2.2.2.2.2.2.w =.,.-.-.:.:.>.>.:.-.,.,.=.=.$.$.$.$.#.#.#.@.@.@. . . . .@.=.-.>.=.7 2.2.2.2.2.2.2.2.2.2.2.2.2.2.2.",
"2.2.2.2.2.2.2.2.2.2.2.2.2.2.2.T :.,.:.-.:.:.>.:.-.,.>.=.$.*.=.$.$.$.#.@.@.@.@.@.@.#.*.:.:.>.:.! 2.2.2.2.2.2.2.2.2.2.2.2.2.2.2.2.",
"2.2.2.2.2.2.2.2.2.2.2.2.2.2.2.2.~ :.<.,.:.:.-.;.-.,.>.=.*.=.%.$.#.#.#.@.@.#.#.*.=.:.:.>.>.:...q 2.2.2.2.2.2.2.2.2.2.2.2.2.2.2.2.",
"2.2.2.2.2.2.2.2.2.2.2.2.2.2.2.2.2.L =.<.<.<.<.,.:.-.-.=.-.-.=.=.*.-.-.-.=.:.:.>.>.,.>.:.=.^ 2.2.2.2.2.2.2.2.2.2.2.2.2.2.2.2.2.2.",
"2.2.2.2.2.2.2.2.2.2.2.2.2.2.2.2.2.2.t ' ;.<.1.1.1.<.<.,.>.>.>.:.>.>.>.>.,.,.>.>.>.>.$.! e 2.2.2.2.2.2.2.2.2.2.2.2.2.2.2.2.2.2.2.",
"2.2.2.2.2.2.2.2.2.2.2.2.2.2.2.2.2.2.2.2.q N O.;.<.1.1.1.<.<.<.<.,.1.,.,.>.>.>.*...N q 2.2.2.2.2.2.2.2.2.2.2.2.2.2.2.2.2.2.2.2.2.",
"2.2.2.2.2.2.2.2.2.2.2.2.2.2.2.2.2.2.2.2.2.2.2.2.a B R @.;.;.;.;.;.;.=.O.W B r 2.2.2.2.2.2.2.2.2.2.2.2.2.2.2.2.2.2.2.2.2.2.2.2.2.",
"2.2.2.2.2.2.2.2.2.2.2.2.2.2.2.2.2.2.2.2.2.2.2.2.2.2.2.2.2.2.2.2.2.2.2.2.2.2.2.2.2.2.2.2.2.2.2.2.2.2.2.2.2.2.2.2.2.2.2.2.2.2.2.2.",
"2.2.2.2.2.2.2.2.2.2.2.2.2.2.2.2.2.2.2.2.2.2.2.2.2.2.2.2.2.2.2.2.2.2.2.2.2.2.2.2.2.2.2.2.2.2.2.2.2.2.2.2.2.2.2.2.2.2.2.2.2.2.2.2.",
"2.2.2.2.2.2.2.2.2.2.2.2.2.2.2.2.2.2.2.2.2.2.2.2.2.2.2.2.2.2.2.2.2.2.2.2.2.2.2.2.2.2.2.2.2.2.2.2.2.2.2.2.2.2.2.2.2.2.2.2.2.2.2.2."
};
