/* XPM */
static char *result[] = {
/* columns rows colors chars-per-pixel */
"64 64 97 2 ",
"   c #000001",
".  c #07070A",
"X  c #07080B",
"o  c #0A0B0F",
"O  c #0D0E12",
"+  c #0F1014",
"@  c #101317",
"#  c #13131B",
"$  c #15191E",
"%  c #161720",
"&  c #171822",
"*  c #1A1B24",
"=  c #1C1E29",
"-  c #1C2027",
";  c #1F202B",
":  c #21222D",
">  c #25292D",
",  c #232534",
"<  c #262934",
"1  c #282935",
"2  c #262738",
"3  c #262838",
"4  c #2A2B3C",
"5  c #2D323C",
"6  c #32343E",
"7  c #2D2F42",
"8  c #2E3342",
"9  c #323445",
"0  c #303843",
"q  c #383A45",
"w  c #323449",
"e  c #36394C",
"r  c #393A4D",
"t  c #3B3C50",
"y  c #3C414C",
"u  c #3D4154",
"i  c #414556",
"p  c #424559",
"a  c #454B5D",
"s  c #484C5E",
"d  c #47515F",
"f  c #4A515D",
"g  c #434F61",
"h  c #494E61",
"j  c #465264",
"k  c #4B5364",
"l  c #4D5866",
"z  c #4E596B",
"x  c #505465",
"c  c #545C65",
"v  c #515569",
"b  c #535C6C",
"n  c #4E5B70",
"m  c #545E71",
"M  c #595F72",
"N  c #5C646F",
"B  c #556172",
"V  c #5B6474",
"C  c #5D6876",
"Z  c #556378",
"A  c #5A6779",
"S  c #5D697D",
"D  c #606774",
"F  c #616A75",
"G  c #626C7B",
"H  c #67707D",
"J  c #69727E",
"K  c #5F6D81",
"L  c #616E83",
"P  c #657284",
"I  c #6A7485",
"U  c #6D7885",
"Y  c #677589",
"T  c #6B7789",
"R  c #6D7B8E",
"E  c #737C8B",
"W  c #6F7D90",
"Q  c #707E91",
"!  c #76808F",
"~  c #758294",
"^  c #7A8595",
"/  c #778598",
"(  c #798799",
")  c #7E8B9D",
"_  c #7F8DA0",
"`  c #818D9D",
"'  c #808EA1",
"]  c #8492A4",
"[  c #8996A7",
"{  c #8796A9",
"}  c #8897AA",
"|  c #8B9AAC",
" . c #909EAE",
".. c #919FB0",
"X. c #94A2B2",
"o. c #99A6B6",
"O. c #9BA8B7",
/* pixels */
"                                                                                                                                ",
"  @ 8 g z B B B B B B B B B B B B B B B B B B B B B B B B Z B B B B B B B B B B B V B B B B B B B B B B B B B B B B B B z j e   ",
"  < z K R ) ] ] ] [ ] ] ' ] ] ] ] ] ] ] ] ] ] ] ] [ ] ] ] ] ] _ ] ] ] ] ' ] ] ] ] _ ] _ ] ] ] ] ] [ ] ] ] ] [ [ | [ [ ` / K n + ",
"  8 Z P R H ` | } } } } } } } [ } } } } } } } | } } } } } } } } } } [ } } } } [ } } } } } } } } } } } } | | | o.O.O. .G ( ~ A + ",
"  8 Z P A f ( } } } } } } | | | } | | | | | | | | | | | | | } } | } } } | | } | | } | } | } | | | | | | | | ..X.X.X.] y H ) S @ ",
"  0 Z W ] ) [ } } } | X. .' W W W W W W ~ W W E Q Q R R W W R ~ W W ~ W W W W W R R ~ W Q Q Q R W Q W E ) | | | | | | ( } ] S @ ",
"  0 Z R  .| } } } } }  ...] a 0 0 0 0 0 0 0 9 9 0 0 0 0 0 0 0 8 0 0 0 0 0 0 0 0 0 0 0 0 0 0 9 9 0 0 0 k ( | } } } } | |  .` K @ ",
"  8 Z R | | } } } } } }  . .C 5 - = = - * = = = = = = = - = = = = - * = = = = = = = = = = = = = - = 5 G [ | } } } } } } | ] K @ ",
"  0 Z Y ..} } } } } } } } | o.( s w w 9 w w 9 w w w w w w w w w w w w w w w w w w w w w w w 7 9 e u _  .} } } } } } } } } ) K @ ",
"  0 Z !  .| } } } } } } } } | X.E O .     .   .   .           . .   .     .   .     .   . . .   - C | } } } } } } } } } } ) K @ ",
"  0 Z R | | ~ ~ } } } } } } } }  .Q x t r r r r r r r r t r r r r r e e r r r r r r r r r r t v ^ | } } } } } } } ] _ [ } ) K + ",
"  8 Z ~  .| H Z ) } } } } } } } |  .` p e e w e e r r w e r w e e w e e r w r w e w e r w r s `  .} } } } } } } ] ~ T { } ) K @ ",
"  8 Z W |  .P u V _ } } } } } } } | ..I u 4 4 4 4 4 4 4 4 4 4 4 4 4 4 4 4 4 4 4 4 4 4 4 4 p E  .} } } } } } } { ~ z B ] } _ K @ ",
"  0 Z R  .| R 5 < S ] } } } } } } } | [ G 5 & & & & * & & * & * & & * & * & * & * & $ * 1 U ..} } } } } } } { _ d > l ] } ) K @ ",
"  0 Z W |  .R 0 * 9 S ) } } } } } } } | [ E x 9 w 9 w w 9 9 9 9 e 9 9 9 w 9 9 9 w 9 w s E .. .| } } } } } { ~ z ; @ l { } ) K @ ",
"  8 Z R  .| W 8 ; 4 u S ) } } } } } } [  ...` s r e e r r e e e e e r e e e r e e r v ` .. .| [ } } } } } ) z 5 - $ z } | ) K @ ",
"  8 Z R | | ~ 8 = 7 4 r S ) } } } } } } } } | T p 9 w 7 w 7 w 7 8 7 w 7 7 9 7 w w h ^ X.o.| | } } } } } ) A 4 , # $ V } } ) K # ",
"  0 Z R .. .W 5         # k ] } } } } } } } } X.E >                             : ` o...} } } } } } } ( s @       & S [ } ) K + ",
"  0 Z R  . .W 8 , t t r 8 9 P ] } } } } } } } } ..' p t t r t t t t t t t t u v ` o.X.| } } } } } } ( z 9 1 1 4 1 * S } } _ K + ",
"  8 Z W  .| ~ 5 ; w w w 8 4 w B / } } } } } } } [  .` k e w w w w w w w w e C ] X.| } } } } } } ] / a 5 , , 4 w , & S } } _ K @ ",
"  8 Z ~ .. .W 8 & 2 2 1 2 2 = 4 b ' } } } } } } } } ..` k 1 1 4 2 2 4 , 4 f ] | | } } } } } } ] ~ z , = = = , 2 * $ S [ } ) S @ ",
"  8 K ( X. .~ 8 + & & & % & % # < P ] } } } } } } } | X.` 4 & * & & & * q ^ ..} [ } } } } } } / z , + + # % & & + - S } | _ K @ ",
"  0 K ~ X...R 5 & 4 4 4 4 4 7 2 , u P ] } } } } } } } |  .J r 4 1 1 4 s ^ X.} } } } } } } } ] B 5 - = , 2 2 4 1 - * S | | _ K + ",
"  0 Z ~ X._ ! 8 = w w 8 w w 7 w 8 3 8 L ] } } } } } } } }  .` b e e M | ..} } } } } } } } ) m 4 , , 4 8 w w w w , * S } } _ K @ ",
"  0 Z ~ X. .~ 5 * 7 4 4 7 7 2 7 4 2 = r S ' } } } } } } } | | ` h M `  .{ } } } } } } } _ z 4 = = ; 2 7 3 4 3 7 = & K { } ) K @ ",
"  0 Z W ....R 8 o @ # @ # # @ @ # # @ # 5 G ] } } } } } } } | | ` '  .| { } } } } } } ] A = + O + O @ # # # # # O & A { } _ K @ ",
"  8 Z R | | ~ 8 , t t t t e t e t t t e 7 e V ] } } } } } } } }  . .} } } } } } } } ` B 9 < 4 4 e t e t t t t t < - A } } ) K @ ",
"  8 Z R | } R 8 = w w w w w w w w 8 w w 7 2 8 I { } } } } } } } [ [ } } } } } } } _ m 9 , : , w w w w w w w w w : * S { } ) K @ ",
"  0 Z W |  .R 5 # = ; ; ; ; ; , = ; ; ; ; = & 9 P ] } } } } } } } } } } } } } } ' v , # % % = ; ; ; ; ; ; ; ; ; # - S } } ) K @ ",
"  8 Z R ..| ~ 8 o @ + + + @ O O + + + + + + + O < B ] } } } } } } } } } } } } ( M & o o O O # # + + + + + O + + X - S } } _ K @ ",
"  8 Z W  . .W 5 = 7 7 8 7 7 8 7 7 7 w 4 w 7 7 4 < e R [ } } } } } } } } } } ( A w : : , 4 7 7 7 7 7 7 7 8 7 8 8 ; - S } } ) K + ",
"  0 Z R |  .W 0 = w w w w w w w w w w w w w w w 7 3 k ] } } } } } } } } } { Q t , , 2 7 w w w w w w w w w w 8 w ; & S } } _ K @ ",
"  8 Z R  .| W 8 o # # # # # # # # # # # # # # # # 1 ^ | } } } } } } } } } } ' D : + # # # # # # # # # # # # # # O * S { [ ` K + ",
"  0 Z W  . .W 5 % 1 2 1 1 1 1 1 1 < < < 1 1 1 1 9 D | } } } } } } } } } } } | ' D 4 1 < < < 1 1 , 1 1 1 1 2 1 , * & L [ | ' K + ",
"  0 Z R | ..R 8 , r r r r r r r r e e e e r r s U [ } } } } } } } } } } } } [ | [ D i t r e r e r r r r r r r r 1 * G [ } ) K # ",
"  8 Z R  . .W 8 ; 7 w w w 7 w 9 w w w w w w i ^  .[ } } } } } } } } } } } } } } [  .P t w w w w w w w 7 w w w 9 : & G { } ) K @ ",
"  0 Z R  .| Q 5 # % % % & & & % % & & & & 4 F  .} } } } } } } } } } } } } } } } } | ..D 1 $ & & % & % % & & % & @ * A } } ) K # ",
"  8 Z R  ...R 9 + = = = = = = = = * - * 1 V | [ } } } } } } } ] P Q } } } } } } } } |  .D - = = = * = = * = = = # & S } } _ K + ",
"  8 Z W  .| R 6 , t t t t t t t t r t M ^ | } } } } } } } { ( C w r A ] } } } } } } } |  .E s r t t t t t r t t < & S } } ) K + ",
"  0 Z R ..| R 9 ; 9 7 9 7 w 7 7 w 9 u E | | } } } } } } } ( V w : , w T { } } } } } } [ [  .R t w 7 7 w 9 9 7 w ; * S } } _ K @ ",
"  0 Z R | | ~ 8 # ; ; = ; ; ; ; = 9 I | } } } } } } } } { v , $ # # % 9 L { } } } } } } } | ..B 4 : = = = = = = % * S { } ) K + ",
"  8 Z W |  .W 5 * 1 2 1 1 2 1 2 q E | } } } } } } } } ' V 1 = = , 1 < : 8 V ] } } } } } } } } [ J r 4 2 4 1 4 1 * * S { | _ K @ ",
"  8 Z R | | W 8 : e e w w e e h E | } } } } } } } } ' M 8 , , 4 w e e 8 4 8 I ] } } } } } } } } | E p e e e e w , * S { } { P # ",
"  0 Z R  .} ~ 5 = w w w w w p I [ [ } } } } } } } ' M w , , 2 7 w 7 w w 7 , u I ] } } } } } } } | | G t w w w w , & S }  .| Y + ",
"  8 Z Y | | ~ 8 # * * = = 1 I [ | } } } } } } } ] D ; # # # % * & = * = * % & 9 G { } } } } } } } | [ V 5 = = & @ $ S [  .| Y @ ",
"  8 Z ~ |  .~ 5 $ 2 2 , 6 D o...| } } } } } [ ] M 4 = * = , 1 1 < 1 < , 1 1 : = 4 R ] } } } } } } } | X.J q < < - - S } } _ L @ ",
"  0 Z ~ X._ ! 5 = w w u I X...} } } } } } } { M 7 , , 2 9 w w w w w w w w w w 7 , t R [ } } } } } } [ } X.~ e w ; - S }  ._ K @ ",
"  0 Z ~ .._ ~ 8 = w k ^ ..| } } } } } { { / M 2 ; ; , 4 7 7 7 7 7 7 7 7 7 7 7 7 4 , 8 V ) } } } } } } } }  .~ d ; $ S }  ._ K @ ",
"  0 Z W  .| ~ 5 # 5 ~ | | } } } } } } } ( b < # $ $ * = = = = = = * = = = = = = = & % < B ] } } } } } } } | ../ < = S | | _ S + ",
"  0 Z W |  .R 8 - c | | } } } } } } } ( V 5 & & & * * * * * % * * * * & * * & * & = & = 8 T ] } } } } } } } | ..f 5 S } } _ K @ ",
"  0 Z R | ..R d ! | } } } } } } } } ' k 4 3 4 4 w w w e e w r w r w 9 w w w e w e w w w 8 8 V ] } } } } } } } } | ^ ^ [ } _ K @ ",
"  8 Z W ..| ) ( | } } } } } } } } ) z : = & = , 2 , , 2 , 2 , , , 2 2 2 2 1 , , , , , , , = 3 G ] } } } } } } } | .. .| } ) K @ ",
"  8 Z W  .| | | | } } } } } } } ' k # X X X X O O o o o o o o o o o o o o o o o O o o o O . . 1 S ` } } } } } } {  . . .} ) S @ ",
"  0 Z R  .| | | } } } } } } } ] P 5 - = = - - - ; ; = * ; ; ; * = ; ; ; = = ; ; : - - ; - = - < p I } } } } } } { } } | } _ K @ ",
"  8 Z R X.| } } } } } } } } ` B 7 , , 4 w w w w 9 w w w 9 w w w w w 9 9 w w w w w w 9 w w w 8 8 < 9 T ] } } } } } } } } } _ K @ ",
"  8 Z ~ X.} | | } } } } } ] B 5 , , , 7 w w w 0 w w w w w w w w 7 w w w 7 w w w w w w w w w w 0 8 , t T ] } } } } } } } } _ K @ ",
"  8 Z ~ o.o.o.| } } } } / B - # @ $ - - $ - - $ - $ - - * * * * * * * * & & & & - * & - $ - - $ - * $ 1 V ) } } } } } } | ) S @ ",
"  8 Z !  .[  .| } } } } Q B k k l Z A A A Z A Z A Z Z Z Z A A Z A D A A S A A S A A Z A A Z A A Z A B l B ~ } } } } { _ ] _ K @ ",
"  0 Z Y U C ]  .} } } | [ ` ` ` ] { { ] ] [ { { ] ] { ] [ { [ [ { [ { [ ] [ [ [ [ ] { ] ] { ] ] ] ] [ ] ] ] | } } } _ m ! ( S $ ",
"  0 Z Y ! U | O.X...| | } | | | } } [ } [ } [ { } } } } } [ | } } } } } | } | } } } [ } } } } } } } } } } } | | } } _ H ~ ~ A @ ",
"  8 B K ~ ) ] ] ] ] ] ] _ _ _ _ _ _ _ ] _ _ _ _ _ _ _ _ _ _ ' ' _ ' ` ' ' ' _ ' _ _ _ ] _ _ _ _ _ _ _ _ ' ' ` ' ) ] ) ( ~ K Z @ ",
"  < n B S K K K K K S K L K L L K K K K K K K K L S L L K K K K K K K K K L K K K K K K K K K K S L L L K K K K K L K K Z n n o ",
"  + 8 g j j j j j j j j j j j j j j j j j j j j j j j j j j j j j j j j j j j j j j j j j j j j j j j j j j j j j j j j j j y   ",
"                                                                                                                                "
};
