/* XPM */
static char *result[] = {
/* columns rows colors chars-per-pixel */
"64 64 208 2 ",
"   c #161627",
".  c #171827",
"X  c #1A1B27",
"o  c #171928",
"O  c #1A1C29",
"+  c #181728",
"@  c #1D1F31",
"#  c #231C2A",
"$  c #2C1D2D",
"%  c #331E2D",
"&  c #391E2A",
"*  c #251F31",
"=  c #361F31",
"-  c #381F30",
";  c #1C232A",
":  c #1F292B",
">  c #1C2327",
",  c #1F2232",
"<  c #2C242B",
"1  c #212C2C",
"2  c #272A2C",
"3  c #33232D",
"4  c #3D262B",
"5  c #24332E",
"6  c #2A342D",
"7  c #27392D",
"8  c #293C2D",
"9  c #35322E",
"0  c #343D2D",
"q  c #3C3A2E",
"w  c #232232",
"e  c #2D2B3C",
"r  c #272637",
"t  c #3B2230",
"y  c #352733",
"u  c #442A2E",
"i  c #4C292F",
"p  c #552C2F",
"a  c #5B2E2F",
"s  c #45352F",
"d  c #5D302F",
"f  c #442531",
"g  c #492730",
"h  c #422934",
"j  c #4C2931",
"k  c #522B31",
"l  c #5B2D31",
"z  c #473531",
"x  c #5C3333",
"c  c #563733",
"v  c #64332F",
"b  c #6A352E",
"n  c #6F382F",
"m  c #71362F",
"M  c #633432",
"N  c #6B3632",
"B  c #6E3A32",
"V  c #663738",
"C  c #7C3730",
"Z  c #733B31",
"A  c #7B3D32",
"S  c #733634",
"D  c #6E2C36",
"F  c #2E432D",
"G  c #30452D",
"H  c #334C2D",
"J  c #3A452E",
"K  c #36512E",
"L  c #39552D",
"P  c #3C5B2D",
"I  c #3F612D",
"U  c #47482F",
"Y  c #544C2E",
"T  c #59472F",
"R  c #42542D",
"E  c #4C5C2D",
"W  c #48582D",
"Q  c #53532E",
"!  c #5D532D",
"~  c #5C5C2D",
"^  c #525C2E",
"/  c #614B2F",
"(  c #66482F",
")  c #64512F",
"_  c #68582E",
"`  c #6A4432",
"'  c #724433",
"]  c #7C4134",
"[  c #754A32",
"{  c #7A4736",
"}  c #75532F",
"|  c #42652D",
" . c #4D652D",
".. c #466C2D",
"X. c #4B6A2D",
"o. c #51662D",
"O. c #56652D",
"+. c #373748",
"@. c #2A2F41",
"#. c #433F52",
"$. c #6E3E4A",
"%. c #3D4456",
"&. c #474658",
"*. c #664A58",
"=. c #4B5467",
"-. c #833B35",
";. c #8C3A35",
":. c #933B35",
">. c #9C3D37",
",. c #A73C38",
"<. c #BD3D3A",
"1. c #C73F3C",
"2. c #C93F3D",
"3. c #844436",
"4. c #8A4536",
"5. c #8B4A35",
"6. c #854A39",
"7. c #8E4B38",
"8. c #884836",
"9. c #9D4236",
"0. c #934D3A",
"q. c #974937",
"w. c #8C523C",
"e. c #865131",
"r. c #94523C",
"t. c #9B533C",
"y. c #9E583F",
"u. c #A44436",
"i. c #AC423A",
"p. c #A34A3C",
"a. c #AB4B3C",
"s. c #B3423A",
"d. c #BC453D",
"f. c #B44C3D",
"g. c #B94A3E",
"h. c #A2563E",
"j. c #AC553E",
"k. c #A4593F",
"l. c #AA583F",
"z. c #B2513E",
"x. c #C5443E",
"c. c #CA423E",
"v. c #843A42",
"b. c #975841",
"n. c #904E46",
"m. c #B84C40",
"M. c #A55C41",
"N. c #AA5D40",
"B. c #AA5540",
"V. c #BD5241",
"C. c #B55B43",
"Z. c #BA5745",
"A. c #AF4D40",
"S. c #996347",
"D. c #AB6143",
"F. c #A66546",
"G. c #B66947",
"H. c #BC744C",
"J. c #BD794E",
"K. c #B87C51",
"L. c #AA7650",
"P. c #CC4640",
"I. c #C64A40",
"U. c #CC4C43",
"Y. c #C55444",
"T. c #CD5446",
"R. c #CD5A48",
"E. c #C75B48",
"W. c #D05B49",
"Q. c #C56349",
"!. c #CC624B",
"~. c #C66B4D",
"^. c #D2654D",
"/. c #D26B4F",
"(. c #C5764F",
"). c #D46E51",
"_. c #CC7C54",
"`. c #C57B51",
"'. c #D47453",
"]. c #D77E58",
"[. c #D57C56",
"{. c #C58455",
"}. c #C58B59",
"|. c #CB8E5A",
" X c #CD8859",
".X c #DA8B5E",
"XX c #D5895B",
"oX c #CE925C",
"OX c #C6915C",
"+X c #D3955E",
"@X c #D6955F",
"#X c #D59C62",
"$X c #DB9C64",
"%X c #DB9462",
"&X c #D6A165",
"*X c #D9A466",
"=X c #DDA56A",
"-X c #DCAC6B",
";X c #DAA867",
":X c #DEB26E",
">X c #DFB370",
",X c #E1AC6E",
"<X c #E0A66B",
"1X c #E2B572",
"2X c #E3BB75",
"3X c #E5BF79",
"4X c #E6C47D",
"5X c None",
/* pixels */
"5X5X5X5X5X5X5X5X5X5X5X5X5X5X5X5X5X5X5X5X5X5X5X5X5X5X5X5X5X5X5X5X5X5X5X5X5X5X5X5X5X5X5X5X5X5X5X5Xb b 5X5X5X5X5X5X5X5X5X5X5X5X5X5X",
"5X5X5X5X5X5X5X5X5X5X5X5X5X5X5X5X5X5X5X5X5X5X5X5X5X5X5X5X5X5X5X5X5X5X5X5X5X5X5X5X5X5X5X5X5X5Xm ;.,.:.Z 5X5X5X5X5X5X5X5X5X5X5X5X5X",
"5X5X5X5X5X5X5X5X5X5X5X5Xb A :.;.b 5X5X5X5X5X5X5X5X5X5X5X5X5X5X5X5X5X5X5X5X5X5X5X5X5X5X5X5X,.<.,.d.Y.p.Z 5X5X5X5X5X5X5X5X5X5X5X5X",
"5X5X5X5X5X5X5X5X5X5X5X5Xm d.x.d.A 4.Z 5X5X5X5X5X5X5X5X5X5X5X5X5X5X5X5X5X5X5X5X5X5X5X5X5XC c.2.m.;.R.Z.b B 5X5X5X5X5X5X5X5X5X5X5X",
"5X5X5X5X5X5X5X5X5X5Xb b A R.x.<.x.c.B.N 5X5X5X5X5X5X5X5X5X5X5X5X5X5X5X5X5X5X5X5X5X5X5Xb s.P.T.U.E.!.R.3.9.n 5X5X5X5X5X5X5X5X5X5X",
"5X5X5X5X5X5X5X5X5X5XZ 7.9.P.x.c.c.c.Q.Z 5X5X5X5X5X5X5X5X5X5X5X5X5X5X5X5X5X5X5X5X5X5X5X;.1.2.1.c.T.^.R.Q.Y.3.5X5X5X5X5X5X5X5X5X5X",
"5X5X5X5X5X5X5X5X5Xb p.Y.U.P.c.2.c.I.T.b.b 5X5X5X5X5X5X5X5X5X5X5X5X5X5X5X5X5X5X5X5X5X5X;.1.x.d.i.R.W.'./._.7.v 5X5X5X5X5X5X5X5X5X",
"5X5X5X5X5X5X5X5X5Xm m.U.U.c.2.c.a.g.U.C.b 5X5X5X5X5X5X5X5X5X5X5X5X5X5X5X5X5X5X5X5X5X5X5X-.A b b D.).%X.X_.r.b 5X5X5X5X5X5X5X5X5X",
"5X5X5X5X5X5X5X5X5Xm x.c.U.c.c.i.m A 4.m 5X5X5X5X5X5X5X5X5X5X5X5X5X5X5X5X5X5X5X5X5X5X5X5Xb b b 5X7./.^.&X+Xr.b 5X5X5X5X5X5X5X5X5X",
"5X5X5X5X5X5X5X5X5XC x.c.P.W.Y.m 5XN b 5X5X5X5X5X5X5X5X5X5X5X5X5X5X5X5X5X5X5X5X5X5X5X5X5XC R.a.B w.'./.-X#Xy.b 5X5X5X5X5X5X5X5X5X",
"5X5X5X5X5X5X5X5X5X:.x.U.P.T.~.b ;.A.0.b 5X5X5X5X5X5X5X5X5X5X5X5X5X5X5X5X5X5X5X5X5X5X5X5XA W.'.{.w.[..X:X+Xh.b 5X5X5X5X5X5X5X5X5X",
"5X5X5X5X5X5X5X5Xb ,.x.R.W.T.~.3.T.U.Z.b 5X5X5X5X5X5X5X5X5X5X5X5X5X5X5X5X5X5X5X5X5X5X5X5XB _.).XX}.$X;X-XoXH.] 5X5X5X5X5X5X5X5X5X",
"5X5X5X5X5X5X5X5Xb f.Y.[.).T.U.E.U.R.B.v 5X5X5X5X5X5X5X5X5X5X5X5X5X5X5X5X5X5X5X5X5X5X5X5X5Xr./.'.&X;X*X;X@XoX8.5X5X5X5X5X5X5X5X5X",
"5X5X5X5X5X5X5X5Xb V.^.#X*X^.W.W.^.}.Z 5X5X5X5X5X5X5X5X5X5X5X5X5X5X5X5X5X5X5X5X5X5X5X5X5X5Xb K.oX;X;X&XXX&X+XD.b 5X5X5X5X5X5X5X5X",
"5X5X5X5X5X5X5X5X3.Q.R.@X;X@X&X$X+Xb.N 5X5X5X5X5X5X5X5X5X5X5X5X5X5X5X5X5X5X5X5X5X5X5X5X5X5X5Xb B 6.F.@X@X;X#XH.Z 5X5X5X5X5X5X5X5X",
"5X5X5X5X5X5X5Xb D.(.'.$X;X{.S.3.Z N 5X5X5X5X5X5X5X5X5X5X5X5X5X5X5X5X5X5X5X5X5X5X5X5X5X5X5X5X5X5X5X] '.'.%X:XJ.8.5X5X5X5X5X5X5X5X",
"5X5X5X5X5X5X5XZ G.#X$X%X[.r.Z 5X5X5X5X5X5X5X5X5X5X5X5X5X5X5X5X5X5X5X5X5X5X5X5X5X5X5X5X5X5X5X5X5X5X' !.^.).1X|.y.v 5X5X5X5X5X5X5X",
"5X5X5X5X5X5X5X] `.>X2X=X^.q.5X5X5X5X5X5X5X5X5X5X5X5X5X5X5X5X5X5X5X5X5X5X5X5X5X5X5X5X5X5X5X5X5X5X5XZ !.)..X<X=XN.b 5X5X5X5X5X5X5X",
"5X5X5X5X5X5Xb 0.oX>X<X=X'.4.5X5X5X5X5X5X5X5X5X5X5X5X5X5X5X5X5X5X5X5X5X5X5X5X5X5X5X5X5X5X5X5X5X5X8.Z Q.].2X1X:XH.Z 5X5X5X5X5X5X5X",
"5X5X5X5X5X5Xn D.;X1X2X1X#X8.] 5X5X5X5X5X5X5X5X5X5X5X5X5X5X5X5X5X5X5X5X5X5X5X5X5X5X5X5X5X5X5X5X5XZ 3._.,X3X$X-X{.3.5X5X5X5X5X5X5X",
"5X5X5X5X5X5XZ H.1X2X4X2X#Xr.Z 5X5X5X5X5X5X5X5X5X5X5X5X5X5X5X5X5X5X5X5X5X5X5X5X5X5X5X5X5X5X5X5X5XZ r.}.2X4X.X.X&Xy.b 5X5X5X5X5X5X",
"5X5X5X5X5Xb 7.oX1X2X4X<X#XM.b 5X5X5X5X5X5X5X5X5X5X5X5X5X5X5X5X5X5X5X5X5X5X5X5X5X5X5X5X5X5X5X5X5Xb 7.|.:X4X.X].-XM.b 5X5X5X5X5X5X",
"5X5X5X5X5Xv y.#X2X4X,X'.oXb.b 5X5X5X5X5X5X5X5X5X5X5X5X5X5X5X5X5X5X5X5X5X5X5X5X5X5X5X5X5X5X5X5X5Xv w.{.$X2X1X$X=XM.v 5X5X5X5X5X5X",
"5X5X5X5X5Xv r.#X1X4X1X'. Xh.b 5X5X5X5X5X5X5X5X5X5X5X5X5X5X5X= 5X5X= - 5X5X- 5X5X5X5X5X5X5X5X5X5Xb 5.(.'.<X4X2X|.0.b 5X5X5X5X5X5X",
"5X5X5X5X5Xb 3.{.2X4X2X;X{.r.b 5X5X5X5X5X5X5X5X5X5X5X5X= = = - = t t l = t f = 5X5X5X5X5X5X5X5X5X5XZ G.&X:X4X2XJ.] b 5X5X5X5X5X5X",
"5X5X5X5X5Xb ] H.2X4X>X;XH.Z b 5X5X5X5X5X5X5X5X5X5X5X5Xt = t Z g M j 7.B g 3.t 5X5X5X5X5X5X5X5X5X5Xb 5.|.-X4X2X`.] b 5X5X5X5X5X5X",
"5X5X5X5X5X5X' `.2X4X:XoXr.b 5X5X5X5X5X5X5X5X5X5X5X5X= k f x r.k 3.g 3.t.g 3.V - 5X5X5X5X5X5X5X5X5Xb n J.2X4X4X:Xw.n 5X5X5X5X5X5X",
"5X5X5X5X5X5X6.-X2X4X2X}.] 3.b 5X5X5X5X5X5X5X5X5X5X5X= V j -.q.S t.Z 3.t.Z 3.4.- 5X5X5X5X5X+ 5X5X5Xb M.|.4X4X4X4XK.w.b 5X5X5X5X5X",
"5X5X5X5X5Xb r.oX4X4X4X4X{.M.N 5X5X5X5X5X    5X5X5X5X- 3.l ,.i.t.t.4.t.0.7.4.t.f - 5X+ + O o     5X] G.-X4X4X4X4XoXD.b 5X5X5X5X5X",
"5X5X5X5X5Xb D.@X4X4X4X4X*XG.Z 5X5X5X      o * - = t k ,.,.d.a.M.q.0.0.t.M.b.t.k - + % #.=.%.e   u 3.H.-X4X4X4X3XoXD.b 5X5X5X5X5X",
"5X5X5X5X5Xn C. X2X4X4X4X-XG.3.5X5X  + y $.*.#.f t g ;.s.I.d.i.7.4.q.0.l.j.h.t.l f % n.D , @ +.+.a b.E.'.:X4X3X:XoXD.n 5X5X5X5X5X",
"5X5X5X5X5XZ V.T./.=X1X2X-XG.7.N   # D v.D j * g M p ,.s.d.s.i.-.A 4.h.j.a.l.t.l k @.f @.%.%., O 3 ' 6.`.'.%X1X;XJ.D.B 5X5X5X5X5X",
"5X5X5X5X5Xn j.x.T.XX2X:XOXr.[ u + t l 3 $.&.@.f A k 0.x.g.j.s.;.A r.k.D.k.l.t.b x $   r w y , ; : O O c ~.(.r.[ r.r.b 5X5X5X5X5X",
"5X5X5X5X5Xv 0.4.Z b.oX}.s X . > o @ o @.f * r f 3.M a.z.N.h.f.:.Z t.k.N.k.z.a.A v $     , r o : H ! L O t.' > . X > X   5X5X5X5X",
"5X5X5X5X. 4 4 % O # 7.6.X P R H w o   O #.+.* f 3.;.g.N.N.h.4.l N t.h.N.z.g.f.] v 3 1 1 ; o o ; 8 E | 7 u X K | P ( 9   5X5X5X5X",
"5X5X5X5X  A 9.9.8.G # 4 G ^ } 6 :     r $   # f A a.z.M.l.h.3.i N 0.y.l.f.d.f.3.M y 5 5 1 5 ;   X F I R > K | | Y B $   5X5X5X5X",
"5X5X5X5X  u -.3.} ! F > ..o.) 8 :     X ; 1 2 f n l.j.k.l.t.7.i d 0.y.l.f.z.j.5.v 4 L F 5 5 5 : > > 1 F | ..| Q M 9 X 5X5X5X5X5X",
"5X5X5X5X+ > M V E ~  .| ..| 8 > o O w 1 5 6 q j Z h.N.z.l.q.r.a a 5.r.N.z.f.N.4.b t P P F 5 5 5 5 P ....| ..L F 9 5   5X5X5X5X5X",
"5X5X5X5X5XX M ;.( ~ O...F < a s s S z 5 5 F q i Z h.N.z.j.7.r.a p 4.0.D.l.f.l.9.b t I W Y 7 5 7 7 H P P I | K F 7 :   5X5X5X5X5X",
"5X5X5X5X5X  s >.` H | | H / Z Z B Z M 6 5 H J p A y.l.M.k.5.t.v j 3.0.N.k.l.g.:.d 9 I P | G 8 I K F I | I I P 1 5 o 5X5X5X5X5X5X",
"5X5X5X5X5X  < -.! I ....| ) Y [ B J J z 7 [ U k A 7.h.l.k.7.t.b f 4.0.h.k.j.f.n p y I I ....K ........o.| P L ; 1 o 5X5X5X5X5X5X",
"5X5X5X5X5X5XO x Y G ........| ! ' ~ | 0 G Q U l n 0.0.l.j.7.0.b f 5.7.h.l.z.:.b f 2 P ..............O.o.^ Q P ; ;   5X5X5X5X5X5X",
"5X5X5X5X5X5X. 9 F G ..I | ...._ [ ..P G I ..L k b 5.4.h.k.t.7.b p 5.5.k.l.,.C x $ : K ......X.....o.} Y R W H ; o 5X5X5X5X5X5X5X",
"5X5X5X5X5X5X  : o L I P | .... .W ..I H ....R t v Z 4.t.l.y.t.A A 3.0.k.p.,.C f 2 > F _ o.| ! _ _ e.5.R L H 7 o   5X5X5X5X5X5X5X",
"5X5X5X5X5X5X5XO X P P I ..I ....P | ........P < k b n 0.t.y.h.t.5.y.h.t.A v M t K X 8 _ ~ I Y e.t.q.} P H 5 :   5X5X5X5X5X5X5X5X",
"5X5X5X5X5X5X5X  o H L I ..K ....I | ........K 1 % l b 3.3.3.t.r.y.h.t.3.v f j # L o F P P [ u.u.u.q. .L F 5 O   5X5X5X5X5X5X5X5X",
"5X5X5X5X5X5X5X5Xo : L P I 7 I I ..I ......I L 1 < t a b b A A 3.t.h.0.3.a f b.O H X F P Q q.,.;.[ ) P L 7 1   5X5X5X5X5X5X5X5X5X",
"5X5X5X5X5X5X5X5X5Xo F P P 7 K P | | ......| P F X L 3 a A b k N b A b b g { w.; 8 : K L P 9.,.T W Q P H 1 X 5X5X5X5X5X5X5X5X5X5X",
"5X5X5X5X5X5X5X5X5X  5 H K 8 8 L I I ......I P G : : 8 f p t a x g k g u a l.z 8 X 6 P P [ <.-.J P P L 8 1   5X5X5X5X5X5X5X5X5X5X",
"5X5X5X5X5X5X5X5X5X5Xo 5 7 5 5 H L I I ......P K F @ 7 < g r.] x S.L.r.r.y.s < F X H | ) u.q.Z H L L 8 1 O 5X5X5X5X5X5X5X5X5X5X5X",
"5X5X5X5X5X5X5X5X5X5X  ; 1 : 5 5 H K I I ....I P K 7 o 8   u 0.N.G.F.y.' < : P > 7 .. .5.q.3.c H H 8 1 1   5X5X5X5X5X5X5X5X5X5X5X",
"5X5X5X5X5X5X5X5X5X5X5X  ; 5 5 5 5 H L L ......I P F 5 X 8 : O < 4 < < X H P : 1 K ..| ( { ' s 7 8 5 5 X 5X5X5X5X5X5X5X5X5X5X5X5X",
"5X5X5X5X5X5X5X5X5X5X5X5X  ; 5 5 5 5 H H K P I P L L 7 5 > 5 F 7 8 8 H H 1 . : F | I R / L ` c 5 5 5 ;   5X5X5X5X5X5X5X5X5X5X5X5X",
"5X5X5X5X5X5X5X5X5X5X5X5X5X  o : 5 5 7 H P P P P L L K F 5 : > > ; : > X 1 7 G P P L / ' R 0 5 5 5 ;   5X5X5X5X5X5X5X5X5X5X5X5X5X",
"5X5X5X5X5X5X5X5X5X5X5X5X5X5X5Xo : 5 5 7 H P I P P I L L F 7 5 7 5 1 7 F H K L L L L ` Q H 5 5 1 >   5X5X5X5X5X5X5X5X5X5X5X5X5X5X",
"5X5X5X5X5X5X5X5X5X5X5X5X5X5X5X5Xo , , 5 5 7 K P P P K F K H K F H K P P L L L L L L L G 7 5 1 O   5X5X5X5X5X5X5X5X5X5X5X5X5X5X5X",
"5X5X5X5X5X5X5X5X5X5X5X5X5X5X5X5X5X5X  1 1 7 F K K K H F H H K K L P L K L K K H H ` z 5 5 1 X   5X5X5X5X5X5X5X5X5X5X5X5X5X5X5X5X",
"5X5X5X5X5X5X5X5X5X5X5X5X5X5X5X5X5X5X5Xo : 1 7 7 7 F 8 7 F H G K K K L K H F 7 5 s S 9 1 ;   5X5X5X5X5X5X5X5X5X5X5X5X5X5X5X5X5X5X",
"5X5X5X5X5X5X5X5X5X5X5X5X5X5X5X5X5X5X5X5Xo O 1 5 e 5 5 7 F H H K H K H H F F 5 5 1 1 ;     5X5X5X5X5X5X5X5X5X5X5X5X5X5X5X5X5X5X5X",
"5X5X5X5X5X5X5X5X5X5X5X5X5X5X5X5X5X5X5X5X5Xo o ; : 5 5 5 F F F G F 8 8 7 5 : > o       5X5X5X5X5X5X5X5X5X5X5X5X5X5X5X5X5X5X5X5X5X",
"5X5X5X5X5X5X5X5X5X5X5X5X5X5X5X5X5X5X5X5X5X5X  o o O , : 5 7 7 7 8 1 1 ; o o o 5X5X5X5X5X5X5X5X5X5X5X5X5X5X5X5X5X5X5X5X5X5X5X5X5X",
"5X5X5X5X5X5X5X5X5X5X5X5X5X5X5X5X5X5X5X5X5X5X5X5X5X5Xo o 1 1 5 5 : X   5X5X5X5X5X5X5X5X5X5X5X5X5X5X5X5X5X5X5X5X5X5X5X5X5X5X5X5X5X",
"5X5X5X5X5X5X5X5X5X5X5X5X5X5X5X5X5X5X5X5X5X5X5X5X5X5X5X5X  ; : ; o 5X5X5X5X5X5X5X5X5X5X5X5X5X5X5X5X5X5X5X5X5X5X5X5X5X5X5X5X5X5X5X",
"5X5X5X5X5X5X5X5X5X5X5X5X5X5X5X5X5X5X5X5X5X5X5X5X5X5X5X5X5X    5X5X5X5X5X5X5X5X5X5X5X5X5X5X5X5X5X5X5X5X5X5X5X5X5X5X5X5X5X5X5X5X5X"
};
