/* XPM */
static char *result[] = {
/* columns rows colors chars-per-pixel */
"64 64 208 2 ",
"   c #161627",
".  c #171827",
"X  c #1A1B27",
"o  c #171928",
"O  c #1A1C29",
"+  c #181728",
"@  c #1D1F31",
"#  c #231C2A",
"$  c #2C1D2D",
"%  c #331E2D",
"&  c #391E2A",
"*  c #251F31",
"=  c #361F31",
"-  c #381F30",
";  c #1C232A",
":  c #1F292B",
">  c #1C2327",
",  c #1F2232",
"<  c #2C242B",
"1  c #212C2C",
"2  c #272A2C",
"3  c #33232D",
"4  c #3D262B",
"5  c #24332E",
"6  c #2A342D",
"7  c #27392D",
"8  c #293C2D",
"9  c #35322E",
"0  c #343D2D",
"q  c #3C3A2E",
"w  c #232232",
"e  c #2D2B3C",
"r  c #272637",
"t  c #3B2230",
"y  c #352733",
"u  c #442A2E",
"i  c #4C292F",
"p  c #552C2F",
"a  c #5B2E2F",
"s  c #45352F",
"d  c #5D302F",
"f  c #442531",
"g  c #492730",
"h  c #422934",
"j  c #4C2931",
"k  c #522B31",
"l  c #5B2D31",
"z  c #473531",
"x  c #5C3333",
"c  c #563733",
"v  c #64332F",
"b  c #6A352E",
"n  c #6F382F",
"m  c #71362F",
"M  c #633432",
"N  c #6B3632",
"B  c #6E3A32",
"V  c #663738",
"C  c #7C3730",
"Z  c #733B31",
"A  c #7B3D32",
"S  c #733634",
"D  c #6E2C36",
"F  c #2E432D",
"G  c #30452D",
"H  c #334C2D",
"J  c #3A452E",
"K  c #36512E",
"L  c #39552D",
"P  c #3C5B2D",
"I  c #3F612D",
"U  c #47482F",
"Y  c #544C2E",
"T  c #59472F",
"R  c #42542D",
"E  c #4C5C2D",
"W  c #48582D",
"Q  c #53532E",
"!  c #5D532D",
"~  c #5C5C2D",
"^  c #525C2E",
"/  c #614B2F",
"(  c #66482F",
")  c #64512F",
"_  c #68582E",
"`  c #6A4432",
"'  c #724433",
"]  c #7C4134",
"[  c #754A32",
"{  c #7A4736",
"}  c #75532F",
"|  c #42652D",
" . c #4D652D",
".. c #466C2D",
"X. c #4B6A2D",
"o. c #51662D",
"O. c #56652D",
"+. c #373748",
"@. c #2A2F41",
"#. c #433F52",
"$. c #6E3E4A",
"%. c #3D4456",
"&. c #474658",
"*. c #664A58",
"=. c #4B5467",
"-. c #833B35",
";. c #8C3A35",
":. c #933B35",
">. c #9C3D37",
",. c #A73C38",
"<. c #BD3D3A",
"1. c #C73F3C",
"2. c #C93F3D",
"3. c #844436",
"4. c #8A4536",
"5. c #8B4A35",
"6. c #854A39",
"7. c #8E4B38",
"8. c #884836",
"9. c #9D4236",
"0. c #934D3A",
"q. c #974937",
"w. c #8C523C",
"e. c #865131",
"r. c #94523C",
"t. c #9B533C",
"y. c #9E583F",
"u. c #A44436",
"i. c #AC423A",
"p. c #A34A3C",
"a. c #AB4B3C",
"s. c #B3423A",
"d. c #BC453D",
"f. c #B44C3D",
"g. c #B94A3E",
"h. c #A2563E",
"j. c #AC553E",
"k. c #A4593F",
"l. c #AA583F",
"z. c #B2513E",
"x. c #C5443E",
"c. c #CA423E",
"v. c #843A42",
"b. c #975841",
"n. c #904E46",
"m. c #B84C40",
"M. c #A55C41",
"N. c #AA5D40",
"B. c #AA5540",
"V. c #BD5241",
"C. c #B55B43",
"Z. c #BA5745",
"A. c #AF4D40",
"S. c #996347",
"D. c #AB6143",
"F. c #A66546",
"G. c #B66947",
"H. c #BC744C",
"J. c #BD794E",
"K. c #B87C51",
"L. c #AA7650",
"P. c #CC4640",
"I. c #C64A40",
"U. c #CC4C43",
"Y. c #C55444",
"T. c #CD5446",
"R. c #CD5A48",
"E. c #C75B48",
"W. c #D05B49",
"Q. c #C56349",
"!. c #CC624B",
"~. c #C66B4D",
"^. c #D2654D",
"/. c #D26B4F",
"(. c #C5764F",
"). c #D46E51",
"_. c #CC7C54",
"`. c #C57B51",
"'. c #D47453",
"]. c #D77E58",
"[. c #D57C56",
"{. c #C58455",
"}. c #C58B59",
"|. c #CB8E5A",
" X c #CD8859",
".X c #DA8B5E",
"XX c #D5895B",
"oX c #CE925C",
"OX c #C6915C",
"+X c #D3955E",
"@X c #D6955F",
"#X c #D59C62",
"$X c #DB9C64",
"%X c #DB9462",
"&X c #D6A165",
"*X c #D9A466",
"=X c #DDA56A",
"-X c #DCAC6B",
";X c #DAA867",
":X c #DEB26E",
">X c #DFB370",
",X c #E1AC6E",
"<X c #E0A66B",
"1X c #E2B572",
"2X c #E3BB75",
"3X c #E5BF79",
"4X c #E6C47D",
"5X c None",
/* pixels */
"5X5X5X5X5X5X5X5X5X5X5X5X5X5X5X5X5X5X5X5X5X5X5X5X5X5X5X5X5X5X5X5X5X5X5X5X5X5X5X5X5X5X5X5X5X5X5X5X5X5X5X5X5X5X5X5X5X5X5X5X5X5X5X5X",
"5X5X5X5X5X5X5X5X5X5X5X5X5X5X5X5X5X5X5X5X5X5X5X5X5X5X5X5X5X5X5X5X5X5X5X5X5X5X5X5X5X5X5X5X5X5X5X5X5X5X5X5X5X5X5X5X5X5X5X5X5X5X5X5X",
"5X5X5X5X5X5X5X5X5X5X5X5X5X5X5X5X5X5X5X5X5X5X5X5X5X5X5X5X5X5X5X5X5X5X5X5X5X5X5X5X5X5X5X5X5X5X5X5X5X5X5X5X5X5X5X5X5X5X5X5X5X5X5X5X",
"5X5X5X5X5X5X5X5X5X5X5X5X5X5X5X5X5X5X5X5X5X5X5X5X5X5X5X5X5X5X5X5X5X5X5X5X5X5X5X5X5X5X5X5X5X5X5X5X5X5X5X5X5X5X5X5X5X5X5X5X5X5X5X5X",
"5X5X5X5X5X5X5X5X5X5X5X5X5X5X5X5X5X5X5X5X5X5X5X5X5X5X5X5X5X5X5X5X5X  + + 5X5X5X5X5X5X5X5X5X5X5X5X5X5X5X5X5X5X5X5X5X5X5X5X5X5X5X5X",
"5X5X5X5X5X5X5X5X5X5X5X5X5X5X5X5X5X5X5X5X5X5X5X5X5X5X5Xv b b n b b X 9 < O .   5X5X5X5X5X5X5X5X5X5X5X5X5X5X5X5X5X5X5X5X5X5X5X5X5X",
"5X5X5X5X5X5X5X5X5X5X5X5X5X5X5X5X5X5X5X5Xb N N v b n n 7.D.D.G.D.r.# / B 9 5 : o o   5X5X5X5X5X5X5X5X5X5X5X5X5X5X5X5X5X5X5X5X5X5X",
"5X5X5X5X5X5X5X5X5X5X5X5X5X5X5X5Xb b Z 8.r.D.M.0.] ] w.K.oXoXoXH.w.X W U M 9 7 5 : : .   5X5X5X5X5X5X5X5X5X5X5X5X5X5X5X5X5X5X5X5X",
"5X5X5X5X5X5X5X5X5X5X5X5X5Xb Z 8.t.D.H.{.&X-X=X|.J.J.>X4X4X2X>X=X{ . I | ^ F 8 1 > > >   . . 5X5X5X5X5X5X5X5X5X5X5X5X5X5X5X5X5X5X",
"5X5X5X5X5X5Xb b b b b ] 6.D.H.J.|.&X-X-X.X].$X2X3X2X4X4X4X4X3X1Xb.O K | I L H P P P H 7 > X   5X5X5X5X5X5X5X5X5X5X5X5X5X5X5X5X5X",
"5X5X5X5Xn -.r.r.r.y.h.H.|.+X&X-X1X<X1X$X.X.X1X4X4X3X4X4X4X4X4X%X`.` O L ......I L ! R H 7 5 : X   5X5X5X5X5X5X5X5X5X5X5X5X5X5X5X",
"5X5X5XZ q.Y._._.+X#X+XoX+X*X-X@X'..X2X4X4X4X3X<X:X-X3X4X4X4X>X'.~.t.u > ....P I | o.P L H 8 7 6 : O + 5X5X5X5X5X5X5X5X5X5X5X5X5X",
"5X5XZ b 3.Q./.XX*X-X-X-X*XXX.X'.^.).].-X2X:X$X'.&XOXJ.|.-X-X'._.c # 6 P F | P I o.o.Y R L L L H F 5 1 O   5X5X5X5X5X5X5X5X5X5X5X",
"5XZ p.Z.T.W.'.#X^.)..X=X;X*X+X[.!.!.Q._.}.|.{.J.G.7.Z M.G.H.G.4.O L | P 1 ..I I ..O.e.e.} E P L K 8 5 5 ; + 5X5X5X5X5X5X5X5X5X5X",
"b ;.Y.T.!.^.T.'./.'.[.#X;X*XF.{ Z Z A ] r.7.0.8.Z b v b A 3.b.` O ) E F > P H F ....o.e.e.q._ Q P L 7 5 5 ;   5X5X5X5X5X5X5X5X5X",
"n i.d.;.E.T.W.D.8.w.r.}.*X*X6.5X5X5X8.A Z b b v 5X5X5X5X5Xg l 3 1 H 8 X > 5 7 K ......_ u.u.} Q L L H 7 5 5 ;   5X5X5X5X5X5X5X5X",
"5X;.,.g.U.P.i.b 5XB }.XX).oXn 5X5X5X5X5X5X5X5X5X5X5X5X5X+ + +., ; : ; + : 5 7 I ....o.O.e.u.4.c J H H 8 5 1 5 X   5X5X5X5X5X5X5X",
"5Xn <.1.U.c.<.n n p.'.)./.K.b 5X5X5X5X5X5X5X5X5X5X5X5X5X  e @., ,     O 5 5 5 8 K ..o.! Y u.,.>.-.S c s c 5 5 1 O 5X5X5X5X5X5X5X",
"5X5X,.1.x.1.x.Z m T.R._.r.b 5X5X5X5X5X5X5X5X5X5X5X5X5X+   &., %.e e + 5 5 5 7 H ........| [ q.9.<.q.6.{ ( q 5 5 :   5X5X5X5X5X5X",
"5X5X5X-.s.1.1.-.b A A Z 5X5X5X5X5X5X5X5X5X5X5X5X5X5X5X5Xo =.@ %.w @ ; 5 5 F Y I I ....o.~ E Q R ' u.q.[ R L H 5 5 ;   5X5X5X5X5X",
"5X5X5X5Xn ;.;.5X5X5X5X5X5X5X5X5X5X5X5X5X5X5X5X5X5X5X5X5X+ &.D y w   : 7 F L W I ......~ _ P L P L ) 5.( / ' Q F 5 1   5X5X5X5X5X",
"5X5X5X5X5X5X5X5X5X5X5X5X5X5X5X5X5X5X5X5X5X5X5X5X5X5X5X5X+ $ n.h   + 1 5 L P I I I L H H 8 F G H I | X.| R ( ' L z 9 O   5X5X5X5X",
"5X5X5X5X5X5X5X5X5X5X5X5X5X5X5X5X5X5X5X5X5X5X5X5X5X5X5X5X5X@ % y $ % 3 y t t t 9 9 2 1 > . . + 1 5 G ....| L L L ( Z 2   5X5X5X5X",
"5X5X5X5X5X5X5X5X5X5X5X5X5X5X5X5X5X5X5X5X5X5X5X5X5X5X5X5X- - f k a v M M v b n a i f $ < K L H 8 > X 7 K | L L L H s 5 . 5X5X5X5X",
"5X5X5X5X5X5X5X5X5X5X5X5X5X5X5X5X5X5X5X5X5X5X5X5X5X5X= t f k x l B Z ] 8.8.4.9.:.Z b a g 3 # O : 8 G > : F I L L H 5 5 o 5X5X5X5X",
"5X5X5X5X5X5X5X5X5X5X5X5X5X5X5X5X5X5X5X5X5X5X5X5X= t V 4.t.q.t.0.q.a.f.g.B.M.B.g.s.:.C C M j b.w.s > I > : G L L H 7 5 , o 5X5X5X",
"5X5X5X5X5X5X5X5X5X5X5X5X5X5X5X5X5X5X5X5X5X5X5X% g 3.3.3.7.y.h.h.N.z.g.d.f.f.z.l.l.z.s.,.a f g { N.c : P . 7 K K K G 8 1 + 5X5X5X",
"5X5X5X5X5X5X5X5X5X5X5X5X5X5X5X5X5X5X5X5X5X5X5X5Xt g g B 7.h.j.f.M.k.z.f.f.z.l.l.k.h.j.h.A v x g c y.# H 5 : H L K H H 5 o 5X5X5X",
"5X5X5X5X5X5X5X5X5X5X5X5X5X5X5X5X5X5X5X5X5X5X5X5X= B t.t.r.y.h.j.l.D.N.D.D.N.N.l.h.h.k.k.q.3.3.b f t.' ; H X F P K K H 7 ; 5X5X5X",
"5X5X5X5X5X5X5X5X5X5X5X5X5X5X5X5X5X5X5X5X5X5X5X= l 7.3.4.q.0.0.M.k.h.y.h.t.0.r.r.0.5.4.0.h.t.0.n u r.h.# H O 7 P P L H 8 : + 5X5X",
"5X5X5X5X5X5X5X5X5X5X5X5X5X5X5X5X5X5X5X5X5X5X5X= t j j Z 8.0.0.0.t.t.t.q.0.5.5.4.4.8.8.4.y.h.y.A z L.D.3 F ; 5 L L K K 8 5 O 5X5X",
"5X5X5X5X5X5X5X5X5X5X5X5X5X5X5X5X5X5X5X5X5X5X5X5Xt x 4.0.t.q.;.] Z Z b v v p p i f f p A 5.y.t.B j S.G.4 7 O 5 H L K H F 8 : + 5X",
"5X5X5X5X5X5X5X5X5X5X5X5X5X5X5X5X5X5X5X5X5X5X5X5Xt j c S t.M.7.-.;.:.a i p p a v b b b Z t.0.8.b a x N.3 7 > 5 G L K H F 7 5 ; 5X",
"5X5X5X5X5X5X5X5X5X5X5X5X5X5X5X5X5X5X5X5X5X5X5X= t S 7.q.i.a.i.i.s.a.4.8.0.0.r.t.t.0.0.t.h.y.Z l p ] b.O F ; 5 K K G H F 7 5 :   ",
"5X5X5X5X5X5X5X5X5X5X5X5X5X5X5X5X5X5X5X5X5X5X5X5X= t l -.,.d.m.d.j.k.h.y.t.0.7.7.0.5.q.y.h.3.A b f r.f > 5 : 7 H H G H F 7 5 ;   ",
"5X5X5X5X5X5X5X5X5X5X5X5X5X5X5X5X5X5X5X5X5X5X5X5X= = f j l ,.<.d.g.B.D.l.l.l.j.h.l.l.k.k.t.3.b A k u X 7 > 5 F K G F H F 5 : + 5X",
"5X5X5X5X5X5X5X5X5X5X5X5X5X5X5X5X5X5X5X5X5X5X5X5X= t j V -.i.<.m.d.z.l.l.N.z.z.N.l.l.h.t.5.3.n a f < 8 X 5 F K G G 7 7 7 : + 5X5X",
"5X5X5X5X5X5X5X5X5X5X5X5X5X5X5X5X5X5X5X5X5X5X5X5X5X5X= t = k ;.9.q.j.g.f.l.N.N.k.k.7.5.4.B b l % 0 5 . 5 7 L L K H 8 5 5 ; o 5X5X",
"5X5X5X5X5X5X5X5X5X5X5X5X5X5X5X5X5X5X5X5X5X5X5X5X5X5X5X5X5Xt j k p M :.p.h.h.k.t.0.0.4.m b a t L 1 O 7 G L L I P K 8 5 1 o 5X5X5X",
"5X5X5X5X5X5X5X5X5X5X5X5X5X5X5X5X5X5X5X5X5X5X5X5X5X5X5X5X5X- - M A 3.3.A Z Z Z A Z B b b a - 2 X > 8 K L L L P I L 7 7 : + 5X5X5X",
"5X5X5X5X5X5X5X5X5X5X5X5X5X5X5X5X5X5X5X5X5X5X5X5X5X5X5X5X5X= f g f g g f g j k k k p p t 2 1 1 F F P P P P P P P K 7 5 O   5X5X5X",
"5X5X5X5X5X5X5X5X5X5X5X5X5X5X5X5X5X5X5X5X5X5X5X5X5X5X5X5X5X# #.* @.r * + 2 q q J c L R P L K L P P P P ..I P P K F 7 5 +   5X5X5X",
"5X5X5X5X5X5X5X5X5X5X5X5X5X5X5X5X5X5X5X5X5X5X5X5X5X5X5X5X+ o *.g &.# +.o 1 5 F H ' ^ ........I I I ......P P P 8 7 5 ,   5X5X5X5X",
"5X5X5X5X5X5Xv n 5X5X5X5X5X5X5X5X5X5X5X5X5X5X5X5X5X5X5X5X  + $.D $.f #.w , 5 5 5 7 F W ................I K P G 5 5 ,   5X5X5X5X5X",
"5X5X5X5Xb Z t.C.m 5Xb M b 5X5X5X5X5X5X5X5X5X5X5X5X5X5X5X5X  t v.% @.@ r o 1 1 6 s 0 F K I ............P H H 7 5 : + 5X5X5X5X5X5X",
"5X5X5Xm B.Q.E.U.4.b q.Z.b.Z b 5X5X5X5X5X5X5X5X5X5X5X5X5X5X  + V l + o + + : z V J | I I ............P K H 8 5 5 o 5X5X5X5X5X5X5X",
"5X5X5X7.P.c.I.m.A N m.T.W. Xb.M 5X5X5X5X5X5X5X5X5X5X5X5X5X5X  # h O + +   O S S J ~ X.....I I ..I I K H 5 5 5 ; 5X5X5X5X5X5X5X5X",
"5X5Xv C x.P.2.a.m 5X;.U.U.^.+XA 5X5X5X5X5X5X5X5X5X5X5X5X5X5X5X  + o ; ; : o s B B ' [ W I I ..I I L F 5 5 5 ; + 5X5X5X5X5X5X5X5X",
"5X5X;.d.<.1.2.c.,.m m 3.T.W.$X{ 5X5X5X5X5X5X5X5X5X5X5X5X5X5X5Xb 4 > H 6 8 > s n [ ! _ X...I I P L F 5 5 5 :   5X5X5X5X5X5X5X5X5X",
"5X5X:.c.I.c.2.2.P.Y.~.~.I.R.=XS.Z 5X5XA Z B b b b b 5Xb v Z ] 7.[ X W [ ) 0 a ' Q ..........I K F 5 5 5 5 o 5X5X5X5X5X5X5X5X5X5X",
"5X5XA d.E.P.P.c.P.T.T.T.U./.@X{.q.q.7.6.0.M.b.y.r.Z b 8.M.G.G.Q.r.X P ^ o.| < / ! ......I L 7 7 F 5 5 5 O + 5X5X5X5X5X5X5X5X5X5X",
"5X5Xb Z A 9.U.U.U.P.U.T.).*X*X-X[.^.'.$X&X#X+X{.{.H.r.A {.;X-X,XOXs X G | ..F H | ..I I ....I P K 5 1 , + 5X5X5X5X5X5X5X5X5X5X5X",
"5X5X5X5XB 7.V.U.c.c.U.R.[.@X@X$X%X<X-X2X2X=X).'.;X-XoX}.4X4X4X2X:X}.6.4 1 | | I ....W P I I L P F 5 ;   5X5X5X5X5X5X5X5X5X5X5X5X",
"5X5X5X5Xn Z p.g.x.x.x.x.Y.^.W.'.#X3X<X1X4X4X,X1X3X:X:X>X4X4X4X:X1XoX6.< 8  .O. .......I P P L G 5 , o 5X5X5X5X5X5X5X5X5X5X5X5X5X",
"5X5X5X5X5X5Xn n Z C :.,.f.Z.Q.(.#X>X>X1X2X3X4X4X4X4X4X4X4X4X4X=X[.S.O G ~ ^ O.H I F G P P G 1 o   5X5X5X5X5X5X5X5X5X5X5X5X5X5X5X",
"5X5X5X5X5X5X5X5X5X5X5Xb b n 8.D.G.J.oX;X>X1X1X1X2X2X>X4X4X4X3X/.T.Z O 5.} E ' ( ) Y 8 > o + + 5X5X5X5X5X5X5X5X5X5X5X5X5X5X5X5X5X",
"5X5X5X5X5X5X5X5X5X5X5X5X5X5X5Xb Z ] r.D.H.oX#X#X{.H.`.;XoX+X XT.x.4.% u.3.V ;.9.-.x 6 : o + 5X5X5X5X5X5X5X5X5X5X5X5X5X5X5X5X5X5X",
"5X5X5X5X5X5X5X5X5X5X5X5X5X5X5X5X5X5Xb n Z 5.y.r.3.A ' 6.r.N.C.V.C.0.3 ,.C d v z < O o + 5X5X5X5X5X5X5X5X5X5X5X5X5X5X5X5X5X5X5X5X",
"5X5X5X5X5X5X5X5X5X5X5X5X5X5X5X5X5X5X5X5X5Xb b b M b 5X5Xb b Z Z n v & A u ; X   + 5X5X5X5X5X5X5X5X5X5X5X5X5X5X5X5X5X5X5X5X5X5X5X",
"5X5X5X5X5X5X5X5X5X5X5X5X5X5X5X5X5X5X5X5X5X5X5X5X5X5X5X5X5X5X5X5X5X5X+ X     5X5X5X5X5X5X5X5X5X5X5X5X5X5X5X5X5X5X5X5X5X5X5X5X5X5X",
"5X5X5X5X5X5X5X5X5X5X5X5X5X5X5X5X5X5X5X5X5X5X5X5X5X5X5X5X5X5X5X5X5X5X5X5X5X5X5X5X5X5X5X5X5X5X5X5X5X5X5X5X5X5X5X5X5X5X5X5X5X5X5X5X",
"5X5X5X5X5X5X5X5X5X5X5X5X5X5X5X5X5X5X5X5X5X5X5X5X5X5X5X5X5X5X5X5X5X5X5X5X5X5X5X5X5X5X5X5X5X5X5X5X5X5X5X5X5X5X5X5X5X5X5X5X5X5X5X5X",
"5X5X5X5X5X5X5X5X5X5X5X5X5X5X5X5X5X5X5X5X5X5X5X5X5X5X5X5X5X5X5X5X5X5X5X5X5X5X5X5X5X5X5X5X5X5X5X5X5X5X5X5X5X5X5X5X5X5X5X5X5X5X5X5X",
"5X5X5X5X5X5X5X5X5X5X5X5X5X5X5X5X5X5X5X5X5X5X5X5X5X5X5X5X5X5X5X5X5X5X5X5X5X5X5X5X5X5X5X5X5X5X5X5X5X5X5X5X5X5X5X5X5X5X5X5X5X5X5X5X"
};
