/* XPM */
static char *result[] = {
/* columns rows colors chars-per-pixel */
"64 64 208 2 ",
"   c #161627",
".  c #171827",
"X  c #1A1B27",
"o  c #171928",
"O  c #1A1C29",
"+  c #181728",
"@  c #1D1F31",
"#  c #231C2A",
"$  c #2C1D2D",
"%  c #331E2D",
"&  c #391E2A",
"*  c #251F31",
"=  c #361F31",
"-  c #381F30",
";  c #1C232A",
":  c #1F292B",
">  c #1C2327",
",  c #1F2232",
"<  c #2C242B",
"1  c #212C2C",
"2  c #272A2C",
"3  c #33232D",
"4  c #3D262B",
"5  c #24332E",
"6  c #2A342D",
"7  c #27392D",
"8  c #293C2D",
"9  c #35322E",
"0  c #343D2D",
"q  c #3C3A2E",
"w  c #232232",
"e  c #2D2B3C",
"r  c #272637",
"t  c #3B2230",
"y  c #352733",
"u  c #442A2E",
"i  c #4C292F",
"p  c #552C2F",
"a  c #5B2E2F",
"s  c #45352F",
"d  c #5D302F",
"f  c #442531",
"g  c #492730",
"h  c #422934",
"j  c #4C2931",
"k  c #522B31",
"l  c #5B2D31",
"z  c #473531",
"x  c #5C3333",
"c  c #563733",
"v  c #64332F",
"b  c #6A352E",
"n  c #6F382F",
"m  c #71362F",
"M  c #633432",
"N  c #6B3632",
"B  c #6E3A32",
"V  c #663738",
"C  c #7C3730",
"Z  c #733B31",
"A  c #7B3D32",
"S  c #733634",
"D  c #6E2C36",
"F  c #2E432D",
"G  c #30452D",
"H  c #334C2D",
"J  c #3A452E",
"K  c #36512E",
"L  c #39552D",
"P  c #3C5B2D",
"I  c #3F612D",
"U  c #47482F",
"Y  c #544C2E",
"T  c #59472F",
"R  c #42542D",
"E  c #4C5C2D",
"W  c #48582D",
"Q  c #53532E",
"!  c #5D532D",
"~  c #5C5C2D",
"^  c #525C2E",
"/  c #614B2F",
"(  c #66482F",
")  c #64512F",
"_  c #68582E",
"`  c #6A4432",
"'  c #724433",
"]  c #7C4134",
"[  c #754A32",
"{  c #7A4736",
"}  c #75532F",
"|  c #42652D",
" . c #4D652D",
".. c #466C2D",
"X. c #4B6A2D",
"o. c #51662D",
"O. c #56652D",
"+. c #373748",
"@. c #2A2F41",
"#. c #433F52",
"$. c #6E3E4A",
"%. c #3D4456",
"&. c #474658",
"*. c #664A58",
"=. c #4B5467",
"-. c #833B35",
";. c #8C3A35",
":. c #933B35",
">. c #9C3D37",
",. c #A73C38",
"<. c #BD3D3A",
"1. c #C73F3C",
"2. c #C93F3D",
"3. c #844436",
"4. c #8A4536",
"5. c #8B4A35",
"6. c #854A39",
"7. c #8E4B38",
"8. c #884836",
"9. c #9D4236",
"0. c #934D3A",
"q. c #974937",
"w. c #8C523C",
"e. c #865131",
"r. c #94523C",
"t. c #9B533C",
"y. c #9E583F",
"u. c #A44436",
"i. c #AC423A",
"p. c #A34A3C",
"a. c #AB4B3C",
"s. c #B3423A",
"d. c #BC453D",
"f. c #B44C3D",
"g. c #B94A3E",
"h. c #A2563E",
"j. c #AC553E",
"k. c #A4593F",
"l. c #AA583F",
"z. c #B2513E",
"x. c #C5443E",
"c. c #CA423E",
"v. c #843A42",
"b. c #975841",
"n. c #904E46",
"m. c #B84C40",
"M. c #A55C41",
"N. c #AA5D40",
"B. c #AA5540",
"V. c #BD5241",
"C. c #B55B43",
"Z. c #BA5745",
"A. c #AF4D40",
"S. c #996347",
"D. c #AB6143",
"F. c #A66546",
"G. c #B66947",
"H. c #BC744C",
"J. c #BD794E",
"K. c #B87C51",
"L. c #AA7650",
"P. c #CC4640",
"I. c #C64A40",
"U. c #CC4C43",
"Y. c #C55444",
"T. c #CD5446",
"R. c #CD5A48",
"E. c #C75B48",
"W. c #D05B49",
"Q. c #C56349",
"!. c #CC624B",
"~. c #C66B4D",
"^. c #D2654D",
"/. c #D26B4F",
"(. c #C5764F",
"). c #D46E51",
"_. c #CC7C54",
"`. c #C57B51",
"'. c #D47453",
"]. c #D77E58",
"[. c #D57C56",
"{. c #C58455",
"}. c #C58B59",
"|. c #CB8E5A",
" X c #CD8859",
".X c #DA8B5E",
"XX c #D5895B",
"oX c #CE925C",
"OX c #C6915C",
"+X c #D3955E",
"@X c #D6955F",
"#X c #D59C62",
"$X c #DB9C64",
"%X c #DB9462",
"&X c #D6A165",
"*X c #D9A466",
"=X c #DDA56A",
"-X c #DCAC6B",
";X c #DAA867",
":X c #DEB26E",
">X c #DFB370",
",X c #E1AC6E",
"<X c #E0A66B",
"1X c #E2B572",
"2X c #E3BB75",
"3X c #E5BF79",
"4X c #E6C47D",
"5X c None",
/* pixels */
"5X5X5X5X5X5X5X5X5X5X5X5X5X5X5X5X5X5X5X5X5X5X5X5X5X5X5X5X5X5X5X5X5X5X5X5X5X5X5X5X5X5X5X5X5X5X5X5X5X5X5X5X5X5X5X5X5X5X5X5X5X5X5X5X",
"5X5X5X5X5X5X5X5X5X5X5X5X5X5X5X5X5X5X5X5X5X5X5X5X5X5X5X5X5X5X5X5X5X5X5X5X5X5X5X5X5X5X5X5X5X5X5X5X5X5X5X5X5X5X5X5X5X5X5X5X5X5X5X5X",
"5X5X5X5X5X5X5X5X5X5X5X5X5X5X5X5X5X5X5X5X5X5X5X5X5X5X5X5X5X5X5X5X5X5X5X5X5X5X5X5X5X5X5X5X5X5X5X5X5X5X5X5X5X5X5X5X5X5X5X5X5X5X5X5X",
"5X5X5X5X5X5X5X5X5X5X5X5X5X5X5X5X5X5X5X5X5X5X5X5X5X5X5X5X5X5X5X5X5X5X5X5X5X5X5X5X5X5X5X5X5X5X5X5X5X5X5X5X5X5X5X5X5X5X5X5X5X5X5X5X",
"5X5X5X5X5X5X5X5X5X5X5X5X5X5X5X5X5X5X5X5X5X5X5X5X5X5X    +   5X5X5X5X5X5X5X5X5X5X5X5X5X5X5X5X5X5X5X5X5X5X5X5X5X5X5X5X5X5X5X5X5X5X",
"5X5X5X5X5X5X5X5X5X5X5X5X5X5X5X5X5X5X5X5X5X5X5X    O ; u C & v N Z n b v 5X5Xb b b v b 5X5X5X5X5X5X5X5X5X5X5X5X5X5X5X5X5X5X5X5X5X",
"5X5X5X5X5X5X5X5X5X5X5X5X5X5X5X5X5X5X5X5X  . > 2 j M x -.u.& 0.C.V.C.D.r.{ ] ] 3.r.y.7.Z B b 5X5X5X5X5X5X5X5X5X5X5X5X5X5X5X5X5X5X",
"5X5X5X5X5X5X5X5X5X5X5X5X5X5X5X5X5X5X  + 1 6 d -.>.;.` ] u.< ;.I.T.XX#XoX-XJ.H.{.+X&XoXH.D.0.] B b 5X5X5X5X5X5X5X5X5X5X5X5X5X5X5X",
"5X5X5X5X5X5X5X5X5X5X5X5X5X5X5X5X5X.   X > 8 Y ) ` ( E } e.# B T.^.1X4X4X2X1X1X4X>X>X1X>X*XoX`.G.F.8.n b n 5X5X5X5X5X5X5X5X5X5X5X",
"5X5X5X5X5X5X5X5X5X5X5X5X5X5X5X  . : G P L H G I K ^ ^ _ G # b.XX=X4X4X4X4X4X4X4X4X4X4X2X1X1X>X#X~.Q.Z.s.>.:.C m n n 5X5X5X5X5X5X",
"5X5X5X5X5X5X5X5X5X5X5X5X5X  O 5 F L P P I ........~ X.F $ 6.oX1X1X4X4X4X2X:X:X3X1X,X4X4X2X,X2X$X'.^.!.T.x.x.c.x.g.p.Z b 5X5X5X5X",
"5X5X5X5X5X5X5X5X5X5X5X5X  ; 5 F P P I I P I ....| | | > y 6.}.>X3X4X4X4X}.+X;X;X'.).;X1X1X;X=X%X@X@X#X].W.U.P.c.U.V.7.m 5X5X5X5X",
"5X5X5X5X5X5X5X5X5X5X5X  ; 1 7 K P P ....I I ..W H F ....F X z OX-X-X;X{.' 0.J.{. X+X#X&X&X'.W.[.;X;X;X'.T.U.U.U.U.I.u.Z Z b 5X5X",
"5X5X5X5X5X5X5X5X5X5X  ; 5 5 7 8 7 8 K I ......) / < | o.^ P X r.Q.G.G.M.6.N Z 0.y.h.M.0.6.4.q.t.{.@X/.U.U.T.T.P.P.P.U.E.d.C 5X5X",
"5X5X5X5X5X5X5X5X5X5Xo 1 5 5 5 8 K I ........| Q Z a 8 ) [ W + { 7.] Z b b 5Xb b b b n Z ] 5X5XZ b.*XW.U.~.~.Y.c.c.c.1.x.x.>.5X5X",
"5X5X5X5X5X5X5X5X5X  : 5 5 5 G L P | ....X._ ! [ Z s > 8 6 H ; 4 b 5X5X5X5X5X5X5X5X5X5X5X5X5X5X5X8.#XW.E.3.B m ,.c.2.1.<.d.;.5X5X",
"5X5X5X5X5X5X5X5X  ; 1 5 5 F P P I I I I | [ ' B B h + 1 ; ;   +   5X5X5X5X5X5X5X5X5X5X5X5X5X5X5XZ +X^.T.U.;.5Xm a.c.P.x.C b 5X5X",
"5X5X5X5X5X5X5X5X; 5 5 7 H K I ....I I ......~ J S S O +     @ h #   5X5X5X5X5X5X5X5X5X5X5X5X5X5Xb b. XR.T.A.n C m.I.2.I.7.5X5X5X",
"5X5X5X5X5X5X5Xo 1 5 8 H K I I ..........I I ..J V z 1     o o l D     5X5X5X5X5X5X5X5X5X5X5X5X5X5Xb Z b.Z.7.b 4.U.Y.!.B.Z 5X5X5X",
"5X5X5X5X5X5X  1 5 7 H H K ............I H F 0 z 6 5 1 + r O @.y v.y   5X5X5X5X5X5X5X5X5X5X5X5X5X5X5X5Xb b b 5XZ C.t.Z N 5X5X5X5X",
"5X5X5X5X5X  , 5 5 G L K | ................I G 7 5 5 5 : # #.h $.D $.    5X5X5X5X5X5X5X5X5X5X5X5X5X5X5X5X5X5X5X5Xb b 5X5X5X5X5X5X",
"5X5X5X5X  ; 5 7 8 P P I ......I I | ........Q ' H F 6 1 + +.* &.j *.+   5X5X5X5X5X5X5X5X5X5X5X5X5X5X5X5X5X5X5X5X5X5X5X5X5X5X5X5X",
"5X5X5X    5 7 F K I P I ..I P I I L K L P R R z J q s 2 # # r e * #.* 5X5X5X5X5X5X5X5X5X5X5X5X5X5X5X5X5X5X5X5X5X5X5X5X5X5X5X5X5X",
"5X5X5Xo O 5 8 H P P P P P P L G F 1 1 3 t k k x k j j f f f f f j f = 5X5X5X5X5X5X5X5X5X5X5X5X5X5X5X5X5X5X5X5X5X5X5X5X5X5X5X5X5X",
"5X5X5X  1 5 5 K I L L L P K 8 : o 2 % l b b n A A Z m Z A ] 3.] M t - 5X5X5X5X5X5X5X5X5X5X5X5X5X5X5X5X5X5X5X5X5X5X5X5X5X5X5X5X5X",
"5X5X5Xo 5 5 F K P I L L F 7 X : L t a b m 7.0.7.t.k.k.h.a.:.M j k g - 5X5X5X5X5X5X5X5X5X5X5X5X5X5X5X5X5X5X5X5X5X5X5X5X5X5X5X5X5X",
"5X5X  ; e 5 7 H K L L 7 5 . 6 0 3 l b n 8.8.5.k.l.N.l.j.z.g.a.q.,.;.j - = = 5X5X5X5X5X5X5X5X5X5X5X5X5X5X5X5X5X5X5X5X5X5X5X5X5X5X",
"5X5Xo 1 7 7 8 F F K F 5 X 8 < f a b 3.7.t.k.l.l.N.z.j.l.k.l.Z.d.d.s.,.3.V k t = 5X5X5X5X5X5X5X5X5X5X5X5X5X5X5X5X5X5X5X5X5X5X5X5X",
"5Xo : 5 F G F H K H 5 > 7 . h p A n -.t.k.k.j.l.k.l.l.l.M.l.N.g.d.d.>.l j f - - 5X5X5X5X5X5X5X5X5X5X5X5X5X5X5X5X5X5X5X5X5X5X5X5X",
"  ; 5 7 F H G H H 7 : 5 > 9 n.f M A 3.y.t.t.7.5.0.5.0.t.y.k.M.a.g.d.d.i.-.x t = 5X5X5X5X5X5X5X5X5X5X5X5X5X5X5X5X5X5X5X5X5X5X5X5X",
"  : 5 7 F H H K K 5 , F > r.] l a A t.h.t.0.0.t.t.r.0.7.3.5.f.s.,.s.a.i.q.0.Z t = 5X5X5X5X5X5X5X5X5X5X5X5X5X5X5X5X5X5X5X5X5X5X5X",
"5XO 5 7 F H K K F 5 ; 7 < N.x l b 3.r.t.A b b b v d p p i l :.;.-.7.B.b.Z k g = 5X5X5X5X5X5X5X5X5X5X5X5X5X5X5X5X5X5X5X5X5X5X5X5X",
"5Xo : F F H K L H 5 X 8 4 G.S.u m t.h.7.A p f f p p p d b b Z Z ] 4.0.t.t.6.M - 5X5X5X5X5X5X5X5X5X5X5X5X5X5X5X5X5X5X5X5X5X5X5X5X",
"5X5Xo 5 F K K L L 5 > 8 < D.L.k A t.h.t.8.3.8.8.3.8.5.0.r.t.r.t.7.7.q.8.Z j j - = 5X5X5X5X5X5X5X5X5X5X5X5X5X5X5X5X5X5X5X5X5X5X5X",
"5X5Xo : 7 H L P P 7 ; H 2 k.r.i n 0.t.k.7.8.7.0.0.0.r.t.h.h.k.l.B.0.0.0.3.3.7.l = 5X5X5X5X5X5X5X5X5X5X5X5X5X5X5X5X5X5X5X5X5X5X5X",
"5X5X5X; 7 H K H L F O H O ' r.f b 3.3.t.k.l.k.k.l.D.N.D.l.l.N.N.B.B.h.0.t.t.B = 5X5X5X5X5X5X5X5X5X5X5X5X5X5X5X5X5X5X5X5X5X5X5X5X",
"5X5X5Xo 5 F H K L H : 1 H # h.c f v v A t.j.k.k.k.l.z.g.f.j.k.k.a.j.k.7.Z g g t 5X5X5X5X5X5X5X5X5X5X5X5X5X5X5X5X5X5X5X5X5X5X5X5X",
"5X5X5X  : F H K L L 7 X P 1 c N.] h f v ,.s.f.l.l.z.f.z.d.g.z.l.B.k.h.7.3.3.-.h = 5X5X5X5X5X5X5X5X5X5X5X5X5X5X5X5X5X5X5X5X5X5X5X",
"5X5X5X  > 5 7 H L L G : > P > z w.b.j v C C >.s.d.N.l.N.f.f.a.0.r.q.t.q.8.V t - 5X5X5X5X5X5X5X5X5X5X5X5X5X5X5X5X5X5X5X5X5X5X5X5X",
"5X5X5X5X. 5 5 H L L I F 1 > G 8 ; O # 3 f d v m :.>.8.8.8.] A b x M k f - = 5X5X5X5X5X5X5X5X5X5X5X5X5X5X5X5X5X5X5X5X5X5X5X5X5X5X",
"5X5X5X5X+ 5 z H L L P | H 8 X X 8 G P H 2 % f j x N b b v v v x j f t = 5X5X5X5X5X5X5X5X5X5X5X5X5X5X5X5X5X5X5X5X5X5X5X5X5X5X5X5X",
"5X5X5X5X  1 N ` L R K | ....H 6 : X . X > ; 2 9 y y t t y 3 $ $ y % + 5X5X5X5X5X5X5X5X5X5X5X5X5X5X5X5X5X5X5X5X5X5X5X5X5X5X5X5X5X",
"5X5X5X5X  ; 9 c L ` ( R | o.| P K F F 8 F K L I I I P K 5 1     g n.$   5X5X5X5X5X5X5X5X5X5X5X5X5X5X5X5X5X5X5X5X5X5X5X5X5X5X5X5X",
"5X5X5X5X5Xo : 5 H U ' ( ( 5.) P P P P ) _ ....| I W P F 5 5   r +.D &.+ 5X5X5X5X5X5X5X5X5X5X5X5X5X5X5X5X5X5X5X5X5X:.;.N 5X5X5X5X",
"5X5X5X5X5X  O 7 5 H L L [ 9.u.[ P Q W ~ o.......I Y G 5 5 ; , < +.* =.@ 5X5X5X5X5X5X5X5X5X5X5X5X5X5X5X5XB C C b -.1.1.s.C 5X5X5X",
"5X5X5X5X5X5X  : 5 5 q ( [ 4.4.<.9.q.[ | | ......G 7 5 5 5 o r < +.@ %.  o 5X5X5X5X5X5X5X5X5X5X5X5X5Xb r._.R.R.B C x.2.U.c.,.5X5X",
"5X5X5X5X5X5X5Xo 5 5 5 c s c Z -.,.,.u.Y _ X...H 8 5 5 5 ; o   w r +.@.  5X5X5X5X5X5X5X5X5X5X5X5X5Xb K.).).'.p.b b s.1.U.2.<.m 5X",
"5X5X5X5X5X5X5X  X 5 5 5 8 H H 0 T 4.u.5.O.......I 5 5 : o O 1 > * +.    5X5X5X5X5X5X5X5X5X5X5X5X5Xn oX'.XX}.m 5Xn i.P.U.m.,.;.5X",
"5X5X5X5X5X5X5X5X  : 5 5 7 H L P W [ u.q._ ......L 7 5 > . 8 H > 3 d u 5X5X5X5X5Xb v b Z ] 8.5X5X5X6.&X*X}.0.w.6.D.W.W.E.;.d.,.m ",
"5X5X5X5X5X5X5X5X5X  ; 5 1 7 K P Q ) q.0.e.o.....H H P > F  .! > ' t.3.Z n b M Z 8.r.7.r.] Z Z Z ] F.*X;X%XXX'./.'.T.^.R.E.I.;.b ",
"5X5X5X5X5X5X5X5X5X5X  : 5 5 8 K P P E } e.} O...I P ..1 W I L > 6.Z.H.G.M.B 7.G.J.{.}. X{.R.R.^.'.#X*X;X;X.X/.^.$X'.W.Y.Z.p.Z 5X",
"5X5X5X5X5X5X5X5X5X5X5X  @ 1 5 F H L L L Q Y o.o.I I | F P 6 X c {.'.-X-XoXJ.|.#X'.$X:X2X-XXX).^.'.@XXX*X-X,X;X*X.X/.Q.3.n Z 5X5X",
"5X5X5X5X5X5X5X5X5X5X5X5X5X  O : 5 5 F H L W E | I I ....> u y.~.'.,X4X4X4X2X-X:X<X2X4X3X3X2X.X).%X;X*X+X|.+X#X+X_._.Y.q.B 5X5X5X",
"5X5X5X5X5X5X5X5X5X5X5X5X5X5X5Xo O : 5 5 H R ! P P ......K > ' `.%X4X4X4X4X3X4X4X4X1X.X.X$X1X=X1X-X&XoXoXH.k.y.r.r.0.3.n 5X5X5X5X",
"5X5X5X5X5X5X5X5X5X5X5X5X5X5X5X5X5X. o : 7 H P P P H L | | L X w.,X4X4X4X4X4X3X3X2X$X]..X-X:X&XoX`.J.F.8.] b b b b b 5X5X5X5X5X5X",
"5X5X5X5X5X5X5X5X5X5X5X5X5X5X5X5X5X5X      > > ; 1 F F Q W I . [ ;X1X4X4X4X-XJ.(.oX*X-X*X{.H.D.t.3.Z b 5X5X5X5X5X5X5X5X5X5X5X5X5X",
"5X5X5X5X5X5X5X5X5X5X5X5X5X5X5X5X5X5X5X5X  o ; 1 5 7 9 M Y P O r.J.oX+XoXK.w.{ ] 0.M.F.t.3.Z b b 5X5X5X5X5X5X5X5X5X5X5X5X5X5X5X5X",
"5X5X5X5X5X5X5X5X5X5X5X5X5X5X5X5X5X5X5X5X5X5X  . O ; 5 9 B ( O r.D.D.D.M.7.n n b b b b v 5X5X5X5X5X5X5X5X5X5X5X5X5X5X5X5X5X5X5X5X",
"5X5X5X5X5X5X5X5X5X5X5X5X5X5X5X5X5X5X5X5X5X5X5X5X5X  + X < 9 X b n Z b b b 5X5X5X5X5X5X5X5X5X5X5X5X5X5X5X5X5X5X5X5X5X5X5X5X5X5X5X",
"5X5X5X5X5X5X5X5X5X5X5X5X5X5X5X5X5X5X5X5X5X5X5X5X5X5X5X5X      5X5X5X5X5X5X5X5X5X5X5X5X5X5X5X5X5X5X5X5X5X5X5X5X5X5X5X5X5X5X5X5X5X",
"5X5X5X5X5X5X5X5X5X5X5X5X5X5X5X5X5X5X5X5X5X5X5X5X5X5X5X5X5X5X5X5X5X5X5X5X5X5X5X5X5X5X5X5X5X5X5X5X5X5X5X5X5X5X5X5X5X5X5X5X5X5X5X5X",
"5X5X5X5X5X5X5X5X5X5X5X5X5X5X5X5X5X5X5X5X5X5X5X5X5X5X5X5X5X5X5X5X5X5X5X5X5X5X5X5X5X5X5X5X5X5X5X5X5X5X5X5X5X5X5X5X5X5X5X5X5X5X5X5X",
"5X5X5X5X5X5X5X5X5X5X5X5X5X5X5X5X5X5X5X5X5X5X5X5X5X5X5X5X5X5X5X5X5X5X5X5X5X5X5X5X5X5X5X5X5X5X5X5X5X5X5X5X5X5X5X5X5X5X5X5X5X5X5X5X",
"5X5X5X5X5X5X5X5X5X5X5X5X5X5X5X5X5X5X5X5X5X5X5X5X5X5X5X5X5X5X5X5X5X5X5X5X5X5X5X5X5X5X5X5X5X5X5X5X5X5X5X5X5X5X5X5X5X5X5X5X5X5X5X5X"
};
