/* XPM */
static char *result[] = {
/* columns rows colors chars-per-pixel */
"64 64 208 2 ",
"   c #161627",
".  c #171827",
"X  c #1A1B27",
"o  c #171928",
"O  c #1A1C29",
"+  c #181728",
"@  c #1D1F31",
"#  c #231C2A",
"$  c #2C1D2D",
"%  c #331E2D",
"&  c #391E2A",
"*  c #251F31",
"=  c #361F31",
"-  c #381F30",
";  c #1C232A",
":  c #1F292B",
">  c #1C2327",
",  c #1F2232",
"<  c #2C242B",
"1  c #212C2C",
"2  c #272A2C",
"3  c #33232D",
"4  c #3D262B",
"5  c #24332E",
"6  c #2A342D",
"7  c #27392D",
"8  c #293C2D",
"9  c #35322E",
"0  c #343D2D",
"q  c #3C3A2E",
"w  c #232232",
"e  c #2D2B3C",
"r  c #272637",
"t  c #3B2230",
"y  c #352733",
"u  c #442A2E",
"i  c #4C292F",
"p  c #552C2F",
"a  c #5B2E2F",
"s  c #45352F",
"d  c #5D302F",
"f  c #442531",
"g  c #492730",
"h  c #422934",
"j  c #4C2931",
"k  c #522B31",
"l  c #5B2D31",
"z  c #473531",
"x  c #5C3333",
"c  c #563733",
"v  c #64332F",
"b  c #6A352E",
"n  c #6F382F",
"m  c #71362F",
"M  c #633432",
"N  c #6B3632",
"B  c #6E3A32",
"V  c #663738",
"C  c #7C3730",
"Z  c #733B31",
"A  c #7B3D32",
"S  c #733634",
"D  c #6E2C36",
"F  c #2E432D",
"G  c #30452D",
"H  c #334C2D",
"J  c #3A452E",
"K  c #36512E",
"L  c #39552D",
"P  c #3C5B2D",
"I  c #3F612D",
"U  c #47482F",
"Y  c #544C2E",
"T  c #59472F",
"R  c #42542D",
"E  c #4C5C2D",
"W  c #48582D",
"Q  c #53532E",
"!  c #5D532D",
"~  c #5C5C2D",
"^  c #525C2E",
"/  c #614B2F",
"(  c #66482F",
")  c #64512F",
"_  c #68582E",
"`  c #6A4432",
"'  c #724433",
"]  c #7C4134",
"[  c #754A32",
"{  c #7A4736",
"}  c #75532F",
"|  c #42652D",
" . c #4D652D",
".. c #466C2D",
"X. c #4B6A2D",
"o. c #51662D",
"O. c #56652D",
"+. c #373748",
"@. c #2A2F41",
"#. c #433F52",
"$. c #6E3E4A",
"%. c #3D4456",
"&. c #474658",
"*. c #664A58",
"=. c #4B5467",
"-. c #833B35",
";. c #8C3A35",
":. c #933B35",
">. c #9C3D37",
",. c #A73C38",
"<. c #BD3D3A",
"1. c #C73F3C",
"2. c #C93F3D",
"3. c #844436",
"4. c #8A4536",
"5. c #8B4A35",
"6. c #854A39",
"7. c #8E4B38",
"8. c #884836",
"9. c #9D4236",
"0. c #934D3A",
"q. c #974937",
"w. c #8C523C",
"e. c #865131",
"r. c #94523C",
"t. c #9B533C",
"y. c #9E583F",
"u. c #A44436",
"i. c #AC423A",
"p. c #A34A3C",
"a. c #AB4B3C",
"s. c #B3423A",
"d. c #BC453D",
"f. c #B44C3D",
"g. c #B94A3E",
"h. c #A2563E",
"j. c #AC553E",
"k. c #A4593F",
"l. c #AA583F",
"z. c #B2513E",
"x. c #C5443E",
"c. c #CA423E",
"v. c #843A42",
"b. c #975841",
"n. c #904E46",
"m. c #B84C40",
"M. c #A55C41",
"N. c #AA5D40",
"B. c #AA5540",
"V. c #BD5241",
"C. c #B55B43",
"Z. c #BA5745",
"A. c #AF4D40",
"S. c #996347",
"D. c #AB6143",
"F. c #A66546",
"G. c #B66947",
"H. c #BC744C",
"J. c #BD794E",
"K. c #B87C51",
"L. c #AA7650",
"P. c #CC4640",
"I. c #C64A40",
"U. c #CC4C43",
"Y. c #C55444",
"T. c #CD5446",
"R. c #CD5A48",
"E. c #C75B48",
"W. c #D05B49",
"Q. c #C56349",
"!. c #CC624B",
"~. c #C66B4D",
"^. c #D2654D",
"/. c #D26B4F",
"(. c #C5764F",
"). c #D46E51",
"_. c #CC7C54",
"`. c #C57B51",
"'. c #D47453",
"]. c #D77E58",
"[. c #D57C56",
"{. c #C58455",
"}. c #C58B59",
"|. c #CB8E5A",
" X c #CD8859",
".X c #DA8B5E",
"XX c #D5895B",
"oX c #CE925C",
"OX c #C6915C",
"+X c #D3955E",
"@X c #D6955F",
"#X c #D59C62",
"$X c #DB9C64",
"%X c #DB9462",
"&X c #D6A165",
"*X c #D9A466",
"=X c #DDA56A",
"-X c #DCAC6B",
";X c #DAA867",
":X c #DEB26E",
">X c #DFB370",
",X c #E1AC6E",
"<X c #E0A66B",
"1X c #E2B572",
"2X c #E3BB75",
"3X c #E5BF79",
"4X c #E6C47D",
"5X c None",
/* pixels */
"5X5X5X5X5X5X5X5X5X5X5X5X5X5X5X5X5X5X5X5X5X5X5X5X5X5X5X5X5X5X5X5X5Xo   5X5X5X5X5X5X5X5X5X5X5X5X5X5X5X5X5X5X5X5X5X5X5X5X5X5X5X5X5X",
"5X5X5X5X5X5X5X5X5X5X5X5X5X5X5X5X5X5X5X5X5X5X5X5X5X5X5X5X5X5X5Xo O ; , o 5X5X5X5X5X5X5X5X5X5X5X5X5X5X5X5X5X5X5X5X5X5X5X5X5X5X5X5X",
"5X5X5X5X5X5X5X5X5X5X5X5X5X5X5X5X5X5X5X5X5X5X5X5X5X5X5X5X5X  ; , 5 5 5 : o o 5X5X5X5X5X5X5X5X5X5X5X5X5X5X5X5X5X5X5X5X5X5X5X5X5X5X",
"5X5X5X5X5X5X5X5X5X5X5X5X5X5X5X5X5X5X5X5X5X5X5X5X5X    O ; : 5 8 7 7 8 5 : ; o o o o 5X5X5X5X5X5X5X5X5X5X5X5X5X5X5X5X5X5X5X5X5X5X",
"5X5X5X5X5X5X5X5X5X5X5X5X5X5X5X5X5X5X5X5X5X    o O > 5 5 7 7 8 F F F F F 5 5 1 1 @     5X5X5X5X5X5X5X5X5X5X5X5X5X5X5X5X5X5X5X5X5X",
"5X5X5X5X5X5X5X5X5X5X5X5X5X5X5X5X5X5X5X  o O 2 1 5 5 8 G H H K K H H H G 8 5 5 5 5 5 O   5X5X5X5X5X5X5X5X5X5X5X5X5X5X5X5X5X5X5X5X",
"5X5X5X5X5X5X5X5X5X5X5X5X5X5X5X5X5X5Xo ; 1 9 B s 5 5 H H K K K K K H G F 7 8 8 7 8 7 5 ; o 5X5X5X5X5X5X5X5X5X5X5X5X5X5X5X5X5X5X5X",
"5X5X5X5X5X5X5X5X5X5X5X5X5X5X5X5X  o 1 5 5 z ( H H H K K K P L L K H H H G H K L H F 8 5 : o 5X5X5X5X5X5X5X5X5X5X5X5X5X5X5X5X5X5X",
"5X5X5X5X5X5X5X5X5X5X5X5X5X5X5X  > : 5 5 H L L L L L L L L P L H H K H H G K P I P K F 5 5 5 ,   5X5X5X5X5X5X5X5X5X5X5X5X5X5X5X5X",
"5X5X5X5X5X5X5X5X5X5X5X5X5X5X  ; 5 5 5 H Q ( L L L P K H F 8 1 6 5 5 7 H K L I L L I P G 7 5 5 ; o 5X5X5X5X5X5X5X5X5X5X5X5X5X5X5X",
"5X5X5X5X5X5X5X5X5X5X5X5X5Xo ; 5 5 5 q R ' / L P I F 7 : X > > > ; ; , 5 F L L P P P P K H 8 5 5 : O o 5X5X5X5X5X5X5X5X5X5X5X5X5X",
"5X5X5X5X5X5X5X5X5X5X5X5Xo ; 5 5 5 c b L T W W I F > X 1 H H 8 8 5 F 7 , 1 7 L P I I I K H H 7 5 5 1 O o 5X5X5X5X5X5X5X5X5X5X5X5X",
"5X5X5X5X5X5X5X5X5X5X5X5Xo 5 5 5 F q [ [ ( | ..H > : P H O w < 4 < X > 8 X 1 F P L I ....P K H 5 5 1 5 ;   5X5X5X5X5X5X5X5X5X5X5X",
"5X5X5X5X5X5X5X5X5X5X5X  1 5 8 H H d 3.9.5.X...7 > I : < { b.D.G.D.r.u O 8 X 5 K I I ......I K F 5 5 5 5 > o 5X5X5X5X5X5X5X5X5X5X",
"5X5X5X5X5X5X5X5X5X5X5XO 5 8 L L H Z q.u.) | G > G > s h.t.b.L.S.x ] b.f < 5 X 8 L P I ......I L G 5 5 5 5 o 5X5X5X5X5X5X5X5X5X5X",
"5X5X5X5X5X5X5X5X5X5X  1 8 L L P J ;.,.[ P W 6 > 8 z l.c f i j g l p t k f J 1 > F I I ......I I L 7 F K H 1 o 5X5X5X5X5X5X5X5X5X",
"5X5X5X5X5X5X5X5X5X5XO 5 H P Y E c ,.9.L L H 1 8 ; w.{ g N b A Z b x b A l 3 L o F I I ......I I P L 7 P L G o 5X5X5X5X5X5X5X5X5X",
"5X5X5X5X5X5X5X5X5X  : 7 L P _ } 4.i.q.Q P F X H O b.h M 3.0.t.t.3.Z A n b a t < 5 L ............I I 8 P P L : o 5X5X5X5X5X5X5X5X",
"5X5X5X5X5X5X5X5X  X 5 F L E q.u.u.,.} P P F   P # j f b 3.t.h.h.0.t.3.A 3.b a - : K ........I I ....K ..I P H   o 5X5X5X5X5X5X5X",
"5X5X5X5X5X5X5X5X  : 5 H L } 7.q.e.Y | ~ _ 8   K % v v A t.h.t.5.t.k.h.y.7.n b p 2 L ....I ..I I ....I ..P P P o X 5X5X5X5X5X5X5X",
"5X5X5X5X5X5X5Xo X 5 H L Y e.e._ O.) ..o._ G > < f C >.h.k.q.8.A Z t.t.k.t.8.Z b t W ....H I | W X.....| P I P O :   5X5X5X5X5X5X",
"5X5X5X5X5X5X5Xo X H W P Y } X...X.X.......H > % d C ,.z.k.8.3.p n q.t.k.h.8.5.b j R ..I G | X.[ ) ....| P ..G G 6 o 5X5X5X5X5X5X",
"5X5X5X5X5X5Xo ; > P Q  .o.O.....X.........L 6 f b :.z.l.h.7.8.f b 0.5.j.l.0.0.n k U ^ F 8 | ~ ' / ..........H Y x O 5X5X5X5X5X5X",
"5X5X5X5X5X5Xo : > L P  .o.........K ..| ..| < i Z s.l.k.k.0.8.f b t.5.l.N.h.7.A p U ' 6 s J U B ` Q ) | ....I / -.<   5X5X5X5X5X",
"5X5X5X5X5X5XO 5 5 P I P | I F K P 8 H I I I 9 l :.g.l.k.k.t.8.i v t.0.h.M.M.t.A k q H 5 6 V S B n ' ( H | ..H ` >.z   5X5X5X5X5X",
"5X5X5X5X5X  ; 7 8 H ..| P P H 8 7 5 8 Y W I y b 9.B.f.l.N.0.8.p l t.5.l.f.N.k.Z k q G 5 1 z S s s a < F | O.^ ` ;.M X 5X5X5X5X5X",
"5X5X5X5X5Xo 5 9 F L ..| | ..P 5 5 5 5 F L P t b 5.N.f.z.N.r.5.a p r.q.l.j.l.h.Z j q 6 5 5 w X X < 8 | ..|  .~ E V x >   5X5X5X5X",
"5X5X5X5X5Xo 9 N Q | ....F 1 > > 1 1 5 5 F L t b 8.B.z.f.l.t.0.d i 5.t.N.N.j.j.Z f 2 1 O O o   ; 8 ! o...> F ~ [ 3.-.u + 5X5X5X5X",
"5X5X5X5Xo < B U | | L > P P F X   X 1 5 5 5 t M 3.g.d.g.N.h.r.b i 8.y.l.k.z.a.A f #   # r   o ; 6 [ ^ G y < J e.u.>.A   5X5X5X5X",
"5X5X5X5X+ 9 ( P | K # u 6 | E 8 ; + o ; 1 5 3 v 3.f.g.j.N.y.t.b l 8.h.N.N.g.:.] f * +.#.O o   ; H P R X 6.6.X # % 4 &   5X5X5X5X",
"5X5X5X5X  X # X   O ' b.X L ) K 1   r @     $ N Z a.B.k.N.k.t.Z :.s.k.l.A.a.M 3.f r * h @.o O X > X X s }.oXb.Z 4.7.b 5X5X5X5X5X",
"5X5X5X5X5Xb r.r.[ r.`.~.c X > > > , e < r   * l B q.B.l.N.N.r.Z ;.f.z.z.x.q.k ] f @.&.$.y l f X 4 [ r.|.1X1XXXT.P.B.Z 5X5X5X5X5X",
"5X5X5X5X5Xb M.J.;X1X$X'.`.6.' 3 @ @ &.+.#.f y j x 0.l.f.j.M.0.A -.i.d.d.d.>.k N g * g D v.$.#   b 7.G.<X4X:X<X^.T.g.Z 5X5X5X5X5X",
"5X5X5X5X5Xn G.oX:X3X4X1X'.E.r.a +.+.@ @ D n.= f M t.h.j.h.q.7.4.7.i.d.m.<.-.g t f #.*.$.=     5X5X] G.,X4X4X4X1XXXC.n 5X5X5X5X5X",
"5X5X5X5X5Xb D.+X2X4X4X4X-XH.3.u   @.&.=.#.$ + t k q.b.h.t.t.q.q.M.a.d.,.,.k - % = # @       5X5X5XZ G.;X4X4X4X4X+XD.b 5X5X5X5X5X",
"5X5X5X5X5Xb M.oX4X4X4X4X-XG.] 5X      +     5X= f r.7.7.0.q.8.t.q.a.,.l 3.- 5X5X5X5X    5X5X5X5X5Xb M.{.4X4X4X4X+Xr.b 5X5X5X5X5X",
"5X5X5X5X5Xb w.K.4X4X4X4X|.M.b 5X5X5Xo 5X5X5X5X5Xt 3.3.S t.4.S r.S q.-.j V = 5X5X5X5X5X5X5X5X5X5X5Xb 3.] }.2X4X2X-X{ 5X5X5X5X5X5X",
"5X5X5X5X5X5Xn w.:X4X4X2XJ.n b 5X5X5X5X5X5X5X5X5X= N 3.j t.3.j 6.k 0.x f k - 5X5X5X5X5X5X5X5X5X5X5X5Xv r.oX:X4X2X`.] 5X5X5X5X5X5X",
"5X5X5X5X5X5Xb ] `.2X3X-X|.7.b 5X5X5X5X5X5X5X5X5X5Xt 3.g B 7.g M j Z t = t 5X5X5X5X5X5X5X5X5X5X5X5Xv A H.;X:X4X2XH.' b 5X5X5X5X5X",
"5X5X5X5X5X5Xb ] J.3X4X:X&XG.Z 5X5X5X5X5X5X5X5X5X5Xt f t t k t t t t = = = 5X5X5X5X5X5X5X5X5X5X5X5Xb r.{.-X2X4X2X{.3.b 5X5X5X5X5X",
"5X5X5X5X5X5Xb 0.|.3X4X=X).J.6.b 5X5X5X5X5X5X5X5X5X5X% 5X5X= = 5X5X= 5X5X5X5X5X5X5X5X5X5X5X5X5X5X5Xb y. X'.1X4X1X#Xr.b 5X5X5X5X5X",
"5X5X5X5X5X5Xb M.=X$X1X3X$X{.7.b 5X5X5X5X5X5X5X5X5X5X5X5X5X5X5X5X5X5X5X5X5X5X5X5X5X5X5X5X5X5X5X5X5Xb y.oX).<X4X2X#Xy.b 5X5X5X5X5X",
"5X5X5X5X5X5Xb D.,X]..X4X1X X7.N 5X5X5X5X5X5X5X5X5X5X5X5X5X5X5X5X5X5X5X5X5X5X5X5X5X5X5X5X5X5X5X5X5Xn M.#X<X4X2X2XoX7.b 5X5X5X5X5X",
"5X5X5X5X5X5Xb r.&X.X.X3X2X}.r.Z 5X5X5X5X5X5X5X5X5X5X5X5X5X5X5X5X5X5X5X5X5X5X5X5X5X5X5X5X5X5X5X5X5XZ r.&X2X4X2X:XH.Z 5X5X5X5X5X5X",
"5X5X5X5X5X5X5X3.{.-X$X3X-X_.3.Z 5X5X5X5X5X5X5X5X5X5X5X5X5X5X5X5X5X5X5X5X5X5X5X5X5X5X5X5X5X5X5X5X5XA 6.&X2X1X2X;XD.n 5X5X5X5X5X5X",
"5X5X5X5X5X5X5XZ H.:X1X2X].Q.Z 7.5X5X5X5X5X5X5X5X5X5X5X5X5X5X5X5X5X5X5X5X5X5X5X5X5X5X5X5X5X5X5X5X5X5X4.'.=X,X:XoX0.b 5X5X5X5X5X5X",
"5X5X5X5X5X5X5Xb M.*X=X.X).!.Z 5X5X5X5X5X5X5X5X5X5X5X5X5X5X5X5X5X5X5X5X5X5X5X5X5X5X5X5X5X5X5X5X5X5X5Xq.^.=X2X>XJ.] 5X5X5X5X5X5X5X",
"5X5X5X5X5X5X5Xb y.|.1X'.^.!.Z 5X5X5X5X5X5X5X5X5X5X5X5X5X5X5X5X5X5X5X5X5X5X5X5X5X5X5X5X5X5X5X5X5X5XS t.[.%X$X#XG.Z 5X5X5X5X5X5X5X",
"5X5X5X5X5X5X5X5X6.`.-X.X[.[.] 5X5X5X5X5X5X5X5X5X5X5X5X5X5X5X5X5X5X5X5X5X5X5X5X5X5X5X5X5X5X5Xb Z 3.S.{.;X$X'.~.D.b 5X5X5X5X5X5X5X",
"5X5X5X5X5X5X5X5XZ H.&X;X@X@XF.6.n b 5X5X5X5X5X5X5X5X5X5X5X5X5X5X5X5X5X5X5X5X5X5X5X5X5X5X5Xb n.#X#X*X@X;X@X^.Q.8.5X5X5X5X5X5X5X5X",
"5X5X5X5X5X5X5X5Xb M.+X&XXX;X*X*XoXK.b 5X5X5X5X5X5X5X5X5X5X5X5X5X5X5X5X5X5X5X5X5X5X5X5X5X5XZ  X^.W.R.^.;X#X!.Z.b 5X5X5X5X5X5X5X5X",
"5X5X5X5X5X5X5X5X5X6.oX+X;X;X;X*X'.).r.5X5X5X5X5X5X5X5X5X5X5X5X5X5X5X5X5X5X5X5X5X5X5X5X5Xv M.R.U.E.U.U.).[.Y.s.b 5X5X5X5X5X5X5X5X",
"5X5X5X5X5X5X5X5X5X] H.oX;X;X$X}.XX)._.Z 5X5X5X5X5X5X5X5X5X5X5X5X5X5X5X5X5X5X5X5X5X5X5X5Xb Z.T.U.3.(.T.T.W.U.,.b 5X5X5X5X5X5X5X5X",
"5X5X5X5X5X5X5X5X5Xb y.+X-X.X[.r.}.'.T.A 5X5X5X5X5X5X5X5X5X5X5X5X5X5X5X5X5X5X5X5X5X5X5X5Xv q.A.;.N ~.U.U.U.c.:.5X5X5X5X5X5X5X5X5X",
"5X5X5X5X5X5X5X5X5Xb y.#X-X).'.w.B p.T.A 5X5X5X5X5X5X5X5X5X5X5X5X5X5X5X5X5X5X5X5X5X5X5X5X5Xn b 5Xm Y.T.U.c.x.C 5X5X5X5X5X5X5X5X5X",
"5X5X5X5X5X5X5X5X5Xb t.+X$X^./.6.5Xb n b 5X5X5X5X5X5X5X5X5X5X5X5X5X5X5X5X5X5X5X5X5X5X5X5Xm 4.A S ,.c.P.U.c.c.m 5X5X5X5X5X5X5X5X5X",
"5X5X5X5X5X5X5X5X5Xb r._..X$X'.D.b n C A 5X5X5X5X5X5X5X5X5X5X5X5X5X5X5X5X5X5X5X5X5X5X5Xb C.I.m.a.c.c.c.U.U.m.n 5X5X5X5X5X5X5X5X5X",
"5X5X5X5X5X5X5X5X5Xb r._./.'.T.R.i.<.x.x.:.5X5X5X5X5X5X5X5X5X5X5X5X5X5X5X5X5X5X5X5X5X5Xb y.T.I.2.2.c.P.T.Y.p.b 5X5X5X5X5X5X5X5X5X",
"5X5X5X5X5X5X5X5X5X5X-.Y.Q.R.^.T.c.x.1.1.;.5X5X5X5X5X5X5X5X5X5X5X5X5X5X5X5X5X5X5X5X5X5X5XZ Q.I.P.2.2.c.q.4.Z 5X5X5X5X5X5X5X5X5X5X",
"5X5X5X5X5X5X5X5X5X5Xn q.3.T.!.E.U.T.x.<.b 5X5X5X5X5X5X5X5X5X5X5X5X5X5X5X5X5X5X5X5X5X5X5Xb B.P.<.<.x.T.Z Z b 5X5X5X5X5X5X5X5X5X5X",
"5X5X5X5X5X5X5X5X5X5X5XB b Z.T.4.f.2.2.-.5X5X5X5X5X5X5X5X5X5X5X5X5X5X5X5X5X5X5X5X5X5X5X5X5XS 0.C d.c.d.Z 5X5X5X5X5X5X5X5X5X5X5X5X",
"5X5X5X5X5X5X5X5X5X5X5X5XB p.I.x.,.<.,.5X5X5X5X5X5X5X5X5X5X5X5X5X5X5X5X5X5X5X5X5X5X5X5X5X5X5X5Xb ;.:.A b 5X5X5X5X5X5X5X5X5X5X5X5X",
"5X5X5X5X5X5X5X5X5X5X5X5X5XZ ;.i.;.n 5X5X5X5X5X5X5X5X5X5X5X5X5X5X5X5X5X5X5X5X5X5X5X5X5X5X5X5X5X5X5X5X5X5X5X5X5X5X5X5X5X5X5X5X5X5X",
"5X5X5X5X5X5X5X5X5X5X5X5X5X5Xb n 5X5X5X5X5X5X5X5X5X5X5X5X5X5X5X5X5X5X5X5X5X5X5X5X5X5X5X5X5X5X5X5X5X5X5X5X5X5X5X5X5X5X5X5X5X5X5X5X"
};
